<?xml version="1.0"?>
<svg xmlns="http://www.w3.org/2000/svg" version="1.1" height="432mm" width="485mm" >
 <g style="fill-opacity:1.0; stroke:black; stroke-width:1;">
  <line x1="0.038000mm" y1="412.872000mm" x2="0.038000mm" y2="412.872000mm" />
  <line x1="0.038000mm" y1="412.872000mm" x2="0.000000mm" y2="412.000000mm" />
  <line x1="0.000000mm" y1="412.000000mm" x2="0.000000mm" y2="10.000000mm" />
  <line x1="0.000000mm" y1="10.000000mm" x2="0.038000mm" y2="9.128000mm" />
  <line x1="0.038000mm" y1="9.128000mm" x2="0.152000mm" y2="8.264000mm" />
  <line x1="0.152000mm" y1="8.264000mm" x2="0.341000mm" y2="7.412000mm" />
  <line x1="0.341000mm" y1="7.412000mm" x2="0.603000mm" y2="6.580000mm" />
  <line x1="0.603000mm" y1="6.580000mm" x2="0.937000mm" y2="5.774000mm" />
  <line x1="0.937000mm" y1="5.774000mm" x2="1.340000mm" y2="5.000000mm" />
  <line x1="1.340000mm" y1="5.000000mm" x2="1.808000mm" y2="4.264000mm" />
  <line x1="1.808000mm" y1="4.264000mm" x2="2.340000mm" y2="3.572000mm" />
  <line x1="2.340000mm" y1="3.572000mm" x2="2.929000mm" y2="2.929000mm" />
  <line x1="2.929000mm" y1="2.929000mm" x2="3.572000mm" y2="2.340000mm" />
  <line x1="3.572000mm" y1="2.340000mm" x2="4.264000mm" y2="1.808000mm" />
  <line x1="4.264000mm" y1="1.808000mm" x2="5.000000mm" y2="1.340000mm" />
  <line x1="5.000000mm" y1="1.340000mm" x2="5.774000mm" y2="0.937000mm" />
  <line x1="5.774000mm" y1="0.937000mm" x2="6.580000mm" y2="0.603000mm" />
  <line x1="6.580000mm" y1="0.603000mm" x2="7.412000mm" y2="0.341000mm" />
  <line x1="7.412000mm" y1="0.341000mm" x2="8.264000mm" y2="0.152000mm" />
  <line x1="8.264000mm" y1="0.152000mm" x2="9.128000mm" y2="0.038000mm" />
  <line x1="9.128000mm" y1="0.038000mm" x2="10.000000mm" y2="0.000000mm" />
  <line x1="10.000000mm" y1="0.000000mm" x2="464.500000mm" y2="0.000000mm" />
  <line x1="464.500000mm" y1="0.000000mm" x2="465.372000mm" y2="0.038000mm" />
  <line x1="465.372000mm" y1="0.038000mm" x2="466.236000mm" y2="0.152000mm" />
  <line x1="466.236000mm" y1="0.152000mm" x2="467.088000mm" y2="0.341000mm" />
  <line x1="467.088000mm" y1="0.341000mm" x2="467.920000mm" y2="0.603000mm" />
  <line x1="467.920000mm" y1="0.603000mm" x2="468.726000mm" y2="0.937000mm" />
  <line x1="468.726000mm" y1="0.937000mm" x2="469.500000mm" y2="1.340000mm" />
  <line x1="469.500000mm" y1="1.340000mm" x2="470.236000mm" y2="1.808000mm" />
  <line x1="470.236000mm" y1="1.808000mm" x2="470.928000mm" y2="2.340000mm" />
  <line x1="470.928000mm" y1="2.340000mm" x2="471.571000mm" y2="2.929000mm" />
  <line x1="471.571000mm" y1="2.929000mm" x2="472.160000mm" y2="3.572000mm" />
  <line x1="472.160000mm" y1="3.572000mm" x2="472.692000mm" y2="4.264000mm" />
  <line x1="472.692000mm" y1="4.264000mm" x2="473.160000mm" y2="5.000000mm" />
  <line x1="473.160000mm" y1="5.000000mm" x2="473.563000mm" y2="5.774000mm" />
  <line x1="473.563000mm" y1="5.774000mm" x2="473.897000mm" y2="6.580000mm" />
  <line x1="473.897000mm" y1="6.580000mm" x2="474.159000mm" y2="7.412000mm" />
  <line x1="474.159000mm" y1="7.412000mm" x2="474.348000mm" y2="8.264000mm" />
  <line x1="474.348000mm" y1="8.264000mm" x2="474.462000mm" y2="9.128000mm" />
  <line x1="474.462000mm" y1="9.128000mm" x2="474.500000mm" y2="10.000000mm" />
  <line x1="474.500000mm" y1="10.000000mm" x2="474.500000mm" y2="412.000000mm" />
  <line x1="474.500000mm" y1="412.000000mm" x2="474.462000mm" y2="412.872000mm" />
  <line x1="474.462000mm" y1="412.872000mm" x2="474.348000mm" y2="413.736000mm" />
  <line x1="474.348000mm" y1="413.736000mm" x2="474.159000mm" y2="414.588000mm" />
  <line x1="474.159000mm" y1="414.588000mm" x2="473.897000mm" y2="415.420000mm" />
  <line x1="473.897000mm" y1="415.420000mm" x2="473.563000mm" y2="416.226000mm" />
  <line x1="473.563000mm" y1="416.226000mm" x2="473.160000mm" y2="417.000000mm" />
  <line x1="473.160000mm" y1="417.000000mm" x2="472.692000mm" y2="417.736000mm" />
  <line x1="472.692000mm" y1="417.736000mm" x2="472.160000mm" y2="418.428000mm" />
  <line x1="472.160000mm" y1="418.428000mm" x2="471.571000mm" y2="419.071000mm" />
  <line x1="471.571000mm" y1="419.071000mm" x2="470.928000mm" y2="419.660000mm" />
  <line x1="470.928000mm" y1="419.660000mm" x2="470.236000mm" y2="420.192000mm" />
  <line x1="470.236000mm" y1="420.192000mm" x2="469.500000mm" y2="420.660000mm" />
  <line x1="469.500000mm" y1="420.660000mm" x2="468.726000mm" y2="421.063000mm" />
  <line x1="468.726000mm" y1="421.063000mm" x2="467.920000mm" y2="421.397000mm" />
  <line x1="467.920000mm" y1="421.397000mm" x2="467.088000mm" y2="421.659000mm" />
  <line x1="467.088000mm" y1="421.659000mm" x2="466.236000mm" y2="421.848000mm" />
  <line x1="466.236000mm" y1="421.848000mm" x2="465.372000mm" y2="421.962000mm" />
  <line x1="465.372000mm" y1="421.962000mm" x2="464.500000mm" y2="422.000000mm" />
  <line x1="464.500000mm" y1="422.000000mm" x2="10.000000mm" y2="422.000000mm" />
  <line x1="10.000000mm" y1="422.000000mm" x2="9.128000mm" y2="421.962000mm" />
  <line x1="9.128000mm" y1="421.962000mm" x2="8.264000mm" y2="421.848000mm" />
  <line x1="8.264000mm" y1="421.848000mm" x2="7.412000mm" y2="421.659000mm" />
  <line x1="7.412000mm" y1="421.659000mm" x2="6.580000mm" y2="421.397000mm" />
  <line x1="6.580000mm" y1="421.397000mm" x2="5.774000mm" y2="421.063000mm" />
  <line x1="5.774000mm" y1="421.063000mm" x2="5.000000mm" y2="420.660000mm" />
  <line x1="5.000000mm" y1="420.660000mm" x2="4.264000mm" y2="420.192000mm" />
  <line x1="4.264000mm" y1="420.192000mm" x2="3.572000mm" y2="419.660000mm" />
  <line x1="3.572000mm" y1="419.660000mm" x2="2.929000mm" y2="419.071000mm" />
  <line x1="2.929000mm" y1="419.071000mm" x2="2.340000mm" y2="418.428000mm" />
  <line x1="2.340000mm" y1="418.428000mm" x2="1.808000mm" y2="417.736000mm" />
  <line x1="1.808000mm" y1="417.736000mm" x2="1.340000mm" y2="417.000000mm" />
  <line x1="1.340000mm" y1="417.000000mm" x2="0.937000mm" y2="416.226000mm" />
  <line x1="0.937000mm" y1="416.226000mm" x2="0.603000mm" y2="415.420000mm" />
  <line x1="0.603000mm" y1="415.420000mm" x2="0.341000mm" y2="414.588000mm" />
  <line x1="0.341000mm" y1="414.588000mm" x2="0.152000mm" y2="413.736000mm" />
  <line x1="0.152000mm" y1="413.736000mm" x2="0.038000mm" y2="412.872000mm" />
  <circle cx="20.309964mm" cy="146.299964mm" r="2.200229mm" fill="none"/>
  <line x1="24.710421mm" y1="146.299964mm" x2="15.909507mm" y2="146.299964mm" />
  <line x1="20.309964mm" y1="141.899507mm" x2="20.309964mm" y2="150.700421mm" />
  <text x="22mm" y="144mm" font-size="24">
   4.4
  </text>
  <circle cx="32.499971mm" cy="210.999864mm" r="4.000103mm" fill="none"/>
  <line x1="40.500177mm" y1="210.999864mm" x2="24.499766mm" y2="210.999864mm" />
  <line x1="32.499971mm" y1="202.999659mm" x2="32.499971mm" y2="219.000070mm" />
  <text x="36mm" y="206mm" font-size="24">
   8.0
  </text>
  <circle cx="74.199964mm" cy="401.689964mm" r="2.200229mm" fill="none"/>
  <line x1="78.600421mm" y1="401.689964mm" x2="69.799507mm" y2="401.689964mm" />
  <line x1="74.199964mm" y1="397.289507mm" x2="74.199964mm" y2="406.090421mm" />
  <text x="76mm" y="399mm" font-size="24">
   4.4
  </text>
  <circle cx="74.199964mm" cy="20.309964mm" r="2.200229mm" fill="none"/>
  <line x1="78.600421mm" y1="20.309964mm" x2="69.799507mm" y2="20.309964mm" />
  <line x1="74.199964mm" y1="15.909507mm" x2="74.199964mm" y2="24.710421mm" />
  <text x="76mm" y="18mm" font-size="24">
   4.4
  </text>
  <circle cx="85.689964mm" cy="146.299964mm" r="2.200229mm" fill="none"/>
  <line x1="90.090421mm" y1="146.299964mm" x2="81.289507mm" y2="146.299964mm" />
  <line x1="85.689964mm" y1="141.899507mm" x2="85.689964mm" y2="150.700421mm" />
  <text x="87mm" y="144mm" font-size="24">
   4.4
  </text>
  <circle cx="132.999964mm" cy="413.499964mm" r="2.200229mm" fill="none"/>
  <line x1="137.400421mm" y1="413.499964mm" x2="128.599507mm" y2="413.499964mm" />
  <line x1="132.999964mm" y1="409.099507mm" x2="132.999964mm" y2="417.900421mm" />
  <text x="135mm" y="411mm" font-size="24">
   4.4
  </text>
  <circle cx="132.999964mm" cy="8.499964mm" r="2.200229mm" fill="none"/>
  <line x1="137.400421mm" y1="8.499964mm" x2="128.599507mm" y2="8.499964mm" />
  <line x1="132.999964mm" y1="4.099507mm" x2="132.999964mm" y2="12.900421mm" />
  <text x="135mm" y="6mm" font-size="24">
   4.4
  </text>
  <circle cx="167.999964mm" cy="413.499964mm" r="2.200229mm" fill="none"/>
  <line x1="172.400421mm" y1="413.499964mm" x2="163.599507mm" y2="413.499964mm" />
  <line x1="167.999964mm" y1="409.099507mm" x2="167.999964mm" y2="417.900421mm" />
  <text x="170mm" y="411mm" font-size="24">
   4.4
  </text>
  <circle cx="167.999964mm" cy="8.499964mm" r="2.200229mm" fill="none"/>
  <line x1="172.400421mm" y1="8.499964mm" x2="163.599507mm" y2="8.499964mm" />
  <line x1="167.999964mm" y1="4.099507mm" x2="167.999964mm" y2="12.900421mm" />
  <text x="170mm" y="6mm" font-size="24">
   4.4
  </text>
  <circle cx="198.989964mm" cy="22.499964mm" r="2.200229mm" fill="none"/>
  <line x1="203.390421mm" y1="22.499964mm" x2="194.589507mm" y2="22.499964mm" />
  <line x1="198.989964mm" y1="18.099507mm" x2="198.989964mm" y2="26.900421mm" />
  <text x="201mm" y="20mm" font-size="24">
   4.4
  </text>
  <circle cx="209.289964mm" cy="114.199964mm" r="2.200229mm" fill="none"/>
  <line x1="213.690421mm" y1="114.199964mm" x2="204.889507mm" y2="114.199964mm" />
  <line x1="209.289964mm" y1="109.799507mm" x2="209.289964mm" y2="118.600421mm" />
  <text x="211mm" y="111mm" font-size="24">
   4.4
  </text>
  <circle cx="217.489964mm" cy="414.499964mm" r="2.200229mm" fill="none"/>
  <line x1="221.890421mm" y1="414.499964mm" x2="213.089507mm" y2="414.499964mm" />
  <line x1="217.489964mm" y1="410.099507mm" x2="217.489964mm" y2="418.900421mm" />
  <text x="219mm" y="412mm" font-size="24">
   4.4
  </text>
  <circle cx="217.489964mm" cy="351.499964mm" r="2.200229mm" fill="none"/>
  <line x1="221.890421mm" y1="351.499964mm" x2="213.089507mm" y2="351.499964mm" />
  <line x1="217.489964mm" y1="347.099507mm" x2="217.489964mm" y2="355.900421mm" />
  <text x="219mm" y="349mm" font-size="24">
   4.4
  </text>
  <circle cx="247.489964mm" cy="414.499964mm" r="2.200229mm" fill="none"/>
  <line x1="251.890421mm" y1="414.499964mm" x2="243.089507mm" y2="414.499964mm" />
  <line x1="247.489964mm" y1="410.099507mm" x2="247.489964mm" y2="418.900421mm" />
  <text x="249mm" y="412mm" font-size="24">
   4.4
  </text>
  <circle cx="247.489964mm" cy="351.499964mm" r="2.200229mm" fill="none"/>
  <line x1="251.890421mm" y1="351.499964mm" x2="243.089507mm" y2="351.499964mm" />
  <line x1="247.489964mm" y1="347.099507mm" x2="247.489964mm" y2="355.900421mm" />
  <text x="249mm" y="349mm" font-size="24">
   4.4
  </text>
  <circle cx="251.709964mm" cy="114.199964mm" r="2.200229mm" fill="none"/>
  <line x1="256.110421mm" y1="114.199964mm" x2="247.309507mm" y2="114.199964mm" />
  <line x1="251.709964mm" y1="109.799507mm" x2="251.709964mm" y2="118.600421mm" />
  <text x="253mm" y="111mm" font-size="24">
   4.4
  </text>
  <circle cx="254.749872mm" cy="77.000269mm" r="1.500269mm" fill="none"/>
  <line x1="257.750410mm" y1="77.000269mm" x2="251.749333mm" y2="77.000269mm" />
  <line x1="254.749872mm" y1="73.999731mm" x2="254.749872mm" y2="80.000808mm" />
  <text x="256mm" y="75mm" font-size="24">
   3.0
  </text>
  <circle cx="254.749872mm" cy="71.200269mm" r="1.500269mm" fill="none"/>
  <line x1="257.750410mm" y1="71.200269mm" x2="251.749333mm" y2="71.200269mm" />
  <line x1="254.749872mm" y1="68.199731mm" x2="254.749872mm" y2="74.200808mm" />
  <text x="256mm" y="69mm" font-size="24">
   3.0
  </text>
  <circle cx="256.990170mm" cy="382.999939mm" r="2.500268mm" fill="none"/>
  <line x1="261.990707mm" y1="382.999939mm" x2="251.989633mm" y2="382.999939mm" />
  <line x1="256.990170mm" y1="377.999402mm" x2="256.990170mm" y2="388.000476mm" />
  <text x="259mm" y="380mm" font-size="24">
   5.0
  </text>
  <circle cx="259.750221mm" cy="65.799698mm" r="1.500135mm" fill="none"/>
  <line x1="262.750491mm" y1="65.799698mm" x2="256.749951mm" y2="65.799698mm" />
  <line x1="259.750221mm" y1="62.799428mm" x2="259.750221mm" y2="68.799968mm" />
  <text x="261mm" y="64mm" font-size="24">
   3.0
  </text>
  <circle cx="259.750221mm" cy="57.199698mm" r="1.500135mm" fill="none"/>
  <line x1="262.750491mm" y1="57.199698mm" x2="256.749951mm" y2="57.199698mm" />
  <line x1="259.750221mm" y1="54.199428mm" x2="259.750221mm" y2="60.199968mm" />
  <text x="261mm" y="55mm" font-size="24">
   3.0
  </text>
  <circle cx="292.999964mm" cy="347.499964mm" r="2.200229mm" fill="none"/>
  <line x1="297.400421mm" y1="347.499964mm" x2="288.599507mm" y2="347.499964mm" />
  <line x1="292.999964mm" y1="343.099507mm" x2="292.999964mm" y2="351.900421mm" />
  <text x="295mm" y="345mm" font-size="24">
   4.4
  </text>
  <circle cx="292.999964mm" cy="84.499964mm" r="2.200229mm" fill="none"/>
  <line x1="297.400421mm" y1="84.499964mm" x2="288.599507mm" y2="84.499964mm" />
  <line x1="292.999964mm" y1="80.099507mm" x2="292.999964mm" y2="88.900421mm" />
  <text x="295mm" y="82mm" font-size="24">
   4.4
  </text>
  <circle cx="327.999964mm" cy="347.499964mm" r="2.200229mm" fill="none"/>
  <line x1="332.400421mm" y1="347.499964mm" x2="323.599507mm" y2="347.499964mm" />
  <line x1="327.999964mm" y1="343.099507mm" x2="327.999964mm" y2="351.900421mm" />
  <text x="330mm" y="345mm" font-size="24">
   4.4
  </text>
  <circle cx="327.999964mm" cy="84.499964mm" r="2.200229mm" fill="none"/>
  <line x1="332.400421mm" y1="84.499964mm" x2="323.599507mm" y2="84.499964mm" />
  <line x1="327.999964mm" y1="80.099507mm" x2="327.999964mm" y2="88.900421mm" />
  <text x="330mm" y="82mm" font-size="24">
   4.4
  </text>
  <circle cx="327.999818mm" cy="334.000055mm" r="2.000011mm" fill="none"/>
  <line x1="331.999840mm" y1="334.000055mm" x2="323.999795mm" y2="334.000055mm" />
  <line x1="327.999818mm" y1="330.000033mm" x2="327.999818mm" y2="338.000077mm" />
  <text x="329mm" y="332mm" font-size="24">
   4.0
  </text>
  <circle cx="338.000118mm" cy="326.499873mm" r="1.500017mm" fill="none"/>
  <line x1="341.000152mm" y1="326.499873mm" x2="335.000085mm" y2="326.499873mm" />
  <line x1="338.000118mm" y1="323.499839mm" x2="338.000118mm" y2="329.499907mm" />
  <text x="339mm" y="324mm" font-size="24">
   3.0
  </text>
  <circle cx="338.000118mm" cy="140.599873mm" r="1.500017mm" fill="none"/>
  <line x1="341.000152mm" y1="140.599873mm" x2="335.000085mm" y2="140.599873mm" />
  <line x1="338.000118mm" y1="137.599839mm" x2="338.000118mm" y2="143.599907mm" />
  <text x="339mm" y="139mm" font-size="24">
   3.0
  </text>
  <circle cx="340.899818mm" cy="126.100055mm" r="2.000011mm" fill="none"/>
  <line x1="344.899840mm" y1="126.100055mm" x2="336.899795mm" y2="126.100055mm" />
  <line x1="340.899818mm" y1="122.100033mm" x2="340.899818mm" y2="130.100077mm" />
  <text x="342mm" y="124mm" font-size="24">
   4.0
  </text>
  <circle cx="343.800118mm" cy="326.499873mm" r="1.500017mm" fill="none"/>
  <line x1="346.800152mm" y1="326.499873mm" x2="340.800085mm" y2="326.499873mm" />
  <line x1="343.800118mm" y1="323.499839mm" x2="343.800118mm" y2="329.499907mm" />
  <text x="345mm" y="324mm" font-size="24">
   3.0
  </text>
  <circle cx="343.800118mm" cy="140.599873mm" r="1.500017mm" fill="none"/>
  <line x1="346.800152mm" y1="140.599873mm" x2="340.800085mm" y2="140.599873mm" />
  <line x1="343.800118mm" y1="137.599839mm" x2="343.800118mm" y2="143.599907mm" />
  <text x="345mm" y="139mm" font-size="24">
   3.0
  </text>
  <circle cx="349.200041mm" cy="331.500115mm" r="1.500245mm" fill="none"/>
  <line x1="352.200531mm" y1="331.500115mm" x2="346.199551mm" y2="331.500115mm" />
  <line x1="349.200041mm" y1="328.499625mm" x2="349.200041mm" y2="334.500605mm" />
  <text x="350mm" y="329mm" font-size="24">
   3.0
  </text>
  <circle cx="349.200041mm" cy="145.600115mm" r="1.500245mm" fill="none"/>
  <line x1="352.200531mm" y1="145.600115mm" x2="346.199551mm" y2="145.600115mm" />
  <line x1="349.200041mm" y1="142.599625mm" x2="349.200041mm" y2="148.600605mm" />
  <text x="350mm" y="144mm" font-size="24">
   3.0
  </text>
  <circle cx="352.100170mm" cy="135.599939mm" r="2.500268mm" fill="none"/>
  <line x1="357.100707mm" y1="135.599939mm" x2="347.099633mm" y2="135.599939mm" />
  <line x1="352.100170mm" y1="130.599402mm" x2="352.100170mm" y2="140.600476mm" />
  <text x="354mm" y="133mm" font-size="24">
   5.0
  </text>
  <circle cx="355.000041mm" cy="331.500115mm" r="1.500245mm" fill="none"/>
  <line x1="358.000531mm" y1="331.500115mm" x2="351.999551mm" y2="331.500115mm" />
  <line x1="355.000041mm" y1="328.499625mm" x2="355.000041mm" y2="334.500605mm" />
  <text x="356mm" y="329mm" font-size="24">
   3.0
  </text>
  <circle cx="355.000041mm" cy="145.600115mm" r="1.500245mm" fill="none"/>
  <line x1="358.000531mm" y1="145.600115mm" x2="351.999551mm" y2="145.600115mm" />
  <line x1="355.000041mm" y1="142.599625mm" x2="355.000041mm" y2="148.600605mm" />
  <text x="356mm" y="144mm" font-size="24">
   3.0
  </text>
  <circle cx="355.799964mm" cy="401.689964mm" r="2.200229mm" fill="none"/>
  <line x1="360.200421mm" y1="401.689964mm" x2="351.399507mm" y2="401.689964mm" />
  <line x1="355.799964mm" y1="397.289507mm" x2="355.799964mm" y2="406.090421mm" />
  <text x="358mm" y="399mm" font-size="24">
   4.4
  </text>
  <circle cx="355.799964mm" cy="20.309964mm" r="2.200229mm" fill="none"/>
  <line x1="360.200421mm" y1="20.309964mm" x2="351.399507mm" y2="20.309964mm" />
  <line x1="355.799964mm" y1="15.909507mm" x2="355.799964mm" y2="24.710421mm" />
  <text x="358mm" y="18mm" font-size="24">
   4.4
  </text>
  <circle cx="397.499971mm" cy="210.999864mm" r="4.000103mm" fill="none"/>
  <line x1="405.500177mm" y1="210.999864mm" x2="389.499766mm" y2="210.999864mm" />
  <line x1="397.499971mm" y1="202.999659mm" x2="397.499971mm" y2="219.000070mm" />
  <text x="401mm" y="206mm" font-size="24">
   8.0
  </text>
  <circle cx="396.309964mm" cy="146.299964mm" r="2.200229mm" fill="none"/>
  <line x1="400.710421mm" y1="146.299964mm" x2="391.909507mm" y2="146.299964mm" />
  <line x1="396.309964mm" y1="141.899507mm" x2="396.309964mm" y2="150.700421mm" />
  <text x="398mm" y="144mm" font-size="24">
   4.4
  </text>
  <circle cx="454.189964mm" cy="146.299964mm" r="2.200229mm" fill="none"/>
  <line x1="458.590421mm" y1="146.299964mm" x2="449.789507mm" y2="146.299964mm" />
  <line x1="454.189964mm" y1="141.899507mm" x2="454.189964mm" y2="150.700421mm" />
  <text x="456mm" y="144mm" font-size="24">
   4.4
  </text>
  <circle cx="457.899964mm" cy="127.099964mm" r="2.200229mm" fill="none"/>
  <line x1="462.300421mm" y1="127.099964mm" x2="453.499507mm" y2="127.099964mm" />
  <line x1="457.899964mm" y1="122.699507mm" x2="457.899964mm" y2="131.500421mm" />
  <text x="460mm" y="124mm" font-size="24">
   4.4
  </text>
 </g>
</svg>
