<?xml version="1.0"?>
<svg xmlns="http://www.w3.org/2000/svg" version="1.1" height="165mm" width="395mm" >
 <g style="fill-opacity:1.0; stroke:black; stroke-width:1;">
  <line x1="375.000000mm" y1="154.500000mm" x2="375.000000mm" y2="154.500000mm" />
  <line x1="375.000000mm" y1="154.500000mm" x2="0.000000mm" y2="154.500000mm" />
  <line x1="0.000000mm" y1="154.500000mm" x2="0.000000mm" y2="0.000000mm" />
  <line x1="0.000000mm" y1="0.000000mm" x2="385.000000mm" y2="0.000000mm" />
  <line x1="385.000000mm" y1="0.000000mm" x2="385.000000mm" y2="144.500000mm" />
  <line x1="385.000000mm" y1="144.500000mm" x2="384.962000mm" y2="145.372000mm" />
  <line x1="384.962000mm" y1="145.372000mm" x2="384.848000mm" y2="146.236000mm" />
  <line x1="384.848000mm" y1="146.236000mm" x2="384.659000mm" y2="147.088000mm" />
  <line x1="384.659000mm" y1="147.088000mm" x2="384.397000mm" y2="147.920000mm" />
  <line x1="384.397000mm" y1="147.920000mm" x2="384.063000mm" y2="148.726000mm" />
  <line x1="384.063000mm" y1="148.726000mm" x2="383.660000mm" y2="149.500000mm" />
  <line x1="383.660000mm" y1="149.500000mm" x2="383.192000mm" y2="150.236000mm" />
  <line x1="383.192000mm" y1="150.236000mm" x2="382.660000mm" y2="150.928000mm" />
  <line x1="382.660000mm" y1="150.928000mm" x2="382.071000mm" y2="151.571000mm" />
  <line x1="382.071000mm" y1="151.571000mm" x2="381.428000mm" y2="152.160000mm" />
  <line x1="381.428000mm" y1="152.160000mm" x2="380.736000mm" y2="152.692000mm" />
  <line x1="380.736000mm" y1="152.692000mm" x2="380.000000mm" y2="153.160000mm" />
  <line x1="380.000000mm" y1="153.160000mm" x2="379.226000mm" y2="153.563000mm" />
  <line x1="379.226000mm" y1="153.563000mm" x2="378.420000mm" y2="153.897000mm" />
  <line x1="378.420000mm" y1="153.897000mm" x2="377.588000mm" y2="154.159000mm" />
  <line x1="377.588000mm" y1="154.159000mm" x2="376.736000mm" y2="154.348000mm" />
  <line x1="376.736000mm" y1="154.348000mm" x2="375.872000mm" y2="154.462000mm" />
  <line x1="375.872000mm" y1="154.462000mm" x2="375.000000mm" y2="154.500000mm" />
  <circle cx="8.500151mm" cy="92.999567mm" r="3.499825mm" fill="none"/>
  <line x1="15.499802mm" y1="92.999567mm" x2="1.500500mm" y2="92.999567mm" />
  <line x1="8.500151mm" y1="85.999917mm" x2="8.500151mm" y2="99.999218mm" />
  <text x="11mm" y="89mm" font-size="24">
   7.0
  </text>
  <circle cx="7.500170mm" cy="18.899939mm" r="2.500268mm" fill="none"/>
  <line x1="12.500707mm" y1="18.899939mm" x2="2.499633mm" y2="18.899939mm" />
  <line x1="7.500170mm" y1="13.899402mm" x2="7.500170mm" y2="23.900476mm" />
  <text x="10mm" y="16mm" font-size="24">
   5.0
  </text>
  <circle cx="7.000009mm" cy="80.399777mm" r="1.999983mm" fill="none"/>
  <line x1="10.999974mm" y1="80.399777mm" x2="3.000044mm" y2="80.399777mm" />
  <line x1="7.000009mm" y1="76.399812mm" x2="7.000009mm" y2="84.399742mm" />
  <text x="8mm" y="78mm" font-size="24">
   4.0
  </text>
  <circle cx="7.000009mm" cy="28.399777mm" r="1.999983mm" fill="none"/>
  <line x1="10.999974mm" y1="28.399777mm" x2="3.000044mm" y2="28.399777mm" />
  <line x1="7.000009mm" y1="24.399812mm" x2="7.000009mm" y2="32.399742mm" />
  <text x="8mm" y="26mm" font-size="24">
   4.0
  </text>
  <circle cx="8.199964mm" cy="144.799964mm" r="2.200229mm" fill="none"/>
  <line x1="12.600421mm" y1="144.799964mm" x2="3.799507mm" y2="144.799964mm" />
  <line x1="8.199964mm" y1="140.399507mm" x2="8.199964mm" y2="149.200421mm" />
  <text x="10mm" y="142mm" font-size="24">
   4.4
  </text>
  <circle cx="8.199964mm" cy="123.579964mm" r="2.200229mm" fill="none"/>
  <line x1="12.600421mm" y1="123.579964mm" x2="3.799507mm" y2="123.579964mm" />
  <line x1="8.199964mm" y1="119.179507mm" x2="8.199964mm" y2="127.980421mm" />
  <text x="10mm" y="121mm" font-size="24">
   4.4
  </text>
  <circle cx="26.099964mm" cy="8.199964mm" r="2.200229mm" fill="none"/>
  <line x1="30.500421mm" y1="8.199964mm" x2="21.699507mm" y2="8.199964mm" />
  <line x1="26.099964mm" y1="3.799507mm" x2="26.099964mm" y2="12.600421mm" />
  <text x="28mm" y="5mm" font-size="24">
   4.4
  </text>
  <circle cx="32.899964mm" cy="147.499964mm" r="2.200229mm" fill="none"/>
  <line x1="37.300421mm" y1="147.499964mm" x2="28.499507mm" y2="147.499964mm" />
  <line x1="32.899964mm" y1="143.099507mm" x2="32.899964mm" y2="151.900421mm" />
  <text x="35mm" y="145mm" font-size="24">
   4.4
  </text>
  <circle cx="47.319964mm" cy="8.199964mm" r="2.200229mm" fill="none"/>
  <line x1="51.720421mm" y1="8.199964mm" x2="42.919507mm" y2="8.199964mm" />
  <line x1="47.319964mm" y1="3.799507mm" x2="47.319964mm" y2="12.600421mm" />
  <text x="49mm" y="5mm" font-size="24">
   4.4
  </text>
  <circle cx="149.899964mm" cy="147.499964mm" r="2.200229mm" fill="none"/>
  <line x1="154.300421mm" y1="147.499964mm" x2="145.499507mm" y2="147.499964mm" />
  <line x1="149.899964mm" y1="143.099507mm" x2="149.899964mm" y2="151.900421mm" />
  <text x="152mm" y="145mm" font-size="24">
   4.4
  </text>
  <circle cx="192.049590mm" cy="139.949819mm" r="1.400139mm" fill="none"/>
  <line x1="194.849868mm" y1="139.949819mm" x2="189.249311mm" y2="139.949819mm" />
  <line x1="192.049590mm" y1="137.149540mm" x2="192.049590mm" y2="142.750098mm" />
  <text x="193mm" y="138mm" font-size="24">
   2.8
  </text>
  <circle cx="192.049590mm" cy="108.449819mm" r="1.400139mm" fill="none"/>
  <line x1="194.849868mm" y1="108.449819mm" x2="189.249311mm" y2="108.449819mm" />
  <line x1="192.049590mm" y1="105.649540mm" x2="192.049590mm" y2="111.250098mm" />
  <text x="193mm" y="107mm" font-size="24">
   2.8
  </text>
  <circle cx="206.349590mm" cy="124.049819mm" r="1.400139mm" fill="none"/>
  <line x1="209.149868mm" y1="124.049819mm" x2="203.549311mm" y2="124.049819mm" />
  <line x1="206.349590mm" y1="121.249540mm" x2="206.349590mm" y2="126.850098mm" />
  <text x="207mm" y="122mm" font-size="24">
   2.8
  </text>
  <circle cx="206.349590mm" cy="92.549819mm" r="1.400139mm" fill="none"/>
  <line x1="209.149868mm" y1="92.549819mm" x2="203.549311mm" y2="92.549819mm" />
  <line x1="206.349590mm" y1="89.749540mm" x2="206.349590mm" y2="95.350098mm" />
  <text x="207mm" y="91mm" font-size="24">
   2.8
  </text>
  <circle cx="258.071964mm" cy="29.949964mm" r="2.200229mm" fill="none"/>
  <line x1="262.472421mm" y1="29.949964mm" x2="253.671507mm" y2="29.949964mm" />
  <line x1="258.071964mm" y1="25.549507mm" x2="258.071964mm" y2="34.350421mm" />
  <text x="260mm" y="27mm" font-size="24">
   4.4
  </text>
  <circle cx="312.679808mm" cy="8.000013mm" r="2.999761mm" fill="none"/>
  <line x1="318.679330mm" y1="8.000013mm" x2="306.680285mm" y2="8.000013mm" />
  <line x1="312.679808mm" y1="2.000490mm" x2="312.679808mm" y2="13.999535mm" />
  <text x="315mm" y="5mm" font-size="24">
   6.0
  </text>
  <circle cx="324.579818mm" cy="7.000055mm" r="2.000011mm" fill="none"/>
  <line x1="328.579840mm" y1="7.000055mm" x2="320.579795mm" y2="7.000055mm" />
  <line x1="324.579818mm" y1="3.000033mm" x2="324.579818mm" y2="11.000077mm" />
  <text x="326mm" y="5mm" font-size="24">
   4.0
  </text>
  <circle cx="337.679964mm" cy="8.199964mm" r="2.200229mm" fill="none"/>
  <line x1="342.080421mm" y1="8.199964mm" x2="333.279507mm" y2="8.199964mm" />
  <line x1="337.679964mm" y1="3.799507mm" x2="337.679964mm" y2="12.600421mm" />
  <text x="339mm" y="5mm" font-size="24">
   4.4
  </text>
  <circle cx="358.899964mm" cy="8.199964mm" r="2.200229mm" fill="none"/>
  <line x1="363.300421mm" y1="8.199964mm" x2="354.499507mm" y2="8.199964mm" />
  <line x1="358.899964mm" y1="3.799507mm" x2="358.899964mm" y2="12.600421mm" />
  <text x="361mm" y="5mm" font-size="24">
   4.4
  </text>
 </g>
</svg>
