<?xml version="1.0"?>
<svg xmlns="http://www.w3.org/2000/svg" version="1.1" height="395mm" width="485mm" >
 <g style="fill-opacity:1.0; stroke:black; stroke-width:1;">
  <line x1="105.500000mm" y1="385.000000mm" x2="105.500000mm" y2="385.000000mm" />
  <line x1="105.500000mm" y1="385.000000mm" x2="0.000000mm" y2="385.000000mm" />
  <line x1="0.000000mm" y1="385.000000mm" x2="0.000000mm" y2="10.000000mm" />
  <line x1="0.000000mm" y1="10.000000mm" x2="0.038000mm" y2="9.128000mm" />
  <line x1="0.038000mm" y1="9.128000mm" x2="0.152000mm" y2="8.264000mm" />
  <line x1="0.152000mm" y1="8.264000mm" x2="0.341000mm" y2="7.412000mm" />
  <line x1="0.341000mm" y1="7.412000mm" x2="0.603000mm" y2="6.580000mm" />
  <line x1="0.603000mm" y1="6.580000mm" x2="0.937000mm" y2="5.774000mm" />
  <line x1="0.937000mm" y1="5.774000mm" x2="1.340000mm" y2="5.000000mm" />
  <line x1="1.340000mm" y1="5.000000mm" x2="1.808000mm" y2="4.264000mm" />
  <line x1="1.808000mm" y1="4.264000mm" x2="2.340000mm" y2="3.572000mm" />
  <line x1="2.340000mm" y1="3.572000mm" x2="2.929000mm" y2="2.929000mm" />
  <line x1="2.929000mm" y1="2.929000mm" x2="3.572000mm" y2="2.340000mm" />
  <line x1="3.572000mm" y1="2.340000mm" x2="4.264000mm" y2="1.808000mm" />
  <line x1="4.264000mm" y1="1.808000mm" x2="5.000000mm" y2="1.340000mm" />
  <line x1="5.000000mm" y1="1.340000mm" x2="5.774000mm" y2="0.937000mm" />
  <line x1="5.774000mm" y1="0.937000mm" x2="6.580000mm" y2="0.603000mm" />
  <line x1="6.580000mm" y1="0.603000mm" x2="7.412000mm" y2="0.341000mm" />
  <line x1="7.412000mm" y1="0.341000mm" x2="8.264000mm" y2="0.152000mm" />
  <line x1="8.264000mm" y1="0.152000mm" x2="9.128000mm" y2="0.038000mm" />
  <line x1="9.128000mm" y1="0.038000mm" x2="10.000000mm" y2="0.000000mm" />
  <line x1="10.000000mm" y1="0.000000mm" x2="464.500000mm" y2="0.000000mm" />
  <line x1="464.500000mm" y1="0.000000mm" x2="465.372000mm" y2="0.038000mm" />
  <line x1="465.372000mm" y1="0.038000mm" x2="466.236000mm" y2="0.152000mm" />
  <line x1="466.236000mm" y1="0.152000mm" x2="467.088000mm" y2="0.341000mm" />
  <line x1="467.088000mm" y1="0.341000mm" x2="467.920000mm" y2="0.603000mm" />
  <line x1="467.920000mm" y1="0.603000mm" x2="468.726000mm" y2="0.937000mm" />
  <line x1="468.726000mm" y1="0.937000mm" x2="469.500000mm" y2="1.340000mm" />
  <line x1="469.500000mm" y1="1.340000mm" x2="470.236000mm" y2="1.808000mm" />
  <line x1="470.236000mm" y1="1.808000mm" x2="470.928000mm" y2="2.340000mm" />
  <line x1="470.928000mm" y1="2.340000mm" x2="471.571000mm" y2="2.929000mm" />
  <line x1="471.571000mm" y1="2.929000mm" x2="472.160000mm" y2="3.572000mm" />
  <line x1="472.160000mm" y1="3.572000mm" x2="472.692000mm" y2="4.264000mm" />
  <line x1="472.692000mm" y1="4.264000mm" x2="473.160000mm" y2="5.000000mm" />
  <line x1="473.160000mm" y1="5.000000mm" x2="473.563000mm" y2="5.774000mm" />
  <line x1="473.563000mm" y1="5.774000mm" x2="473.897000mm" y2="6.580000mm" />
  <line x1="473.897000mm" y1="6.580000mm" x2="474.159000mm" y2="7.412000mm" />
  <line x1="474.159000mm" y1="7.412000mm" x2="474.348000mm" y2="8.264000mm" />
  <line x1="474.348000mm" y1="8.264000mm" x2="474.462000mm" y2="9.128000mm" />
  <line x1="474.462000mm" y1="9.128000mm" x2="474.500000mm" y2="10.000000mm" />
  <line x1="474.500000mm" y1="10.000000mm" x2="474.500000mm" y2="385.000000mm" />
  <line x1="474.500000mm" y1="385.000000mm" x2="355.500000mm" y2="385.000000mm" />
  <line x1="355.500000mm" y1="385.000000mm" x2="355.500000mm" y2="350.456000mm" />
  <line x1="355.500000mm" y1="350.456000mm" x2="355.800000mm" y2="350.490000mm" />
  <line x1="355.800000mm" y1="350.490000mm" x2="356.290000mm" y2="350.435000mm" />
  <line x1="356.290000mm" y1="350.435000mm" x2="356.755000mm" y2="350.272000mm" />
  <line x1="356.755000mm" y1="350.272000mm" x2="357.172000mm" y2="350.010000mm" />
  <line x1="357.172000mm" y1="350.010000mm" x2="357.520000mm" y2="349.662000mm" />
  <line x1="357.520000mm" y1="349.662000mm" x2="357.782000mm" y2="349.245000mm" />
  <line x1="357.782000mm" y1="349.245000mm" x2="357.945000mm" y2="348.780000mm" />
  <line x1="357.945000mm" y1="348.780000mm" x2="358.000000mm" y2="348.290000mm" />
  <line x1="358.000000mm" y1="348.290000mm" x2="357.945000mm" y2="347.800000mm" />
  <line x1="357.945000mm" y1="347.800000mm" x2="357.782000mm" y2="347.335000mm" />
  <line x1="357.782000mm" y1="347.335000mm" x2="357.520000mm" y2="346.918000mm" />
  <line x1="357.520000mm" y1="346.918000mm" x2="357.172000mm" y2="346.570000mm" />
  <line x1="357.172000mm" y1="346.570000mm" x2="356.755000mm" y2="346.308000mm" />
  <line x1="356.755000mm" y1="346.308000mm" x2="356.290000mm" y2="346.145000mm" />
  <line x1="356.290000mm" y1="346.145000mm" x2="355.800000mm" y2="346.090000mm" />
  <line x1="355.800000mm" y1="346.090000mm" x2="355.500000mm" y2="346.124000mm" />
  <line x1="355.500000mm" y1="346.124000mm" x2="355.500000mm" y2="106.900000mm" />
  <line x1="355.500000mm" y1="106.900000mm" x2="355.475000mm" y2="106.402000mm" />
  <line x1="355.475000mm" y1="106.402000mm" x2="355.401000mm" y2="105.909000mm" />
  <line x1="355.401000mm" y1="105.909000mm" x2="355.278000mm" y2="105.426000mm" />
  <line x1="355.278000mm" y1="105.426000mm" x2="355.107000mm" y2="104.958000mm" />
  <line x1="355.107000mm" y1="104.958000mm" x2="354.891000mm" y2="104.509000mm" />
  <line x1="354.891000mm" y1="104.509000mm" x2="354.631000mm" y2="104.083000mm" />
  <line x1="354.631000mm" y1="104.083000mm" x2="354.330000mm" y2="103.686000mm" />
  <line x1="354.330000mm" y1="103.686000mm" x2="353.991000mm" y2="103.321000mm" />
  <line x1="353.991000mm" y1="103.321000mm" x2="353.617000mm" y2="102.991000mm" />
  <line x1="353.617000mm" y1="102.991000mm" x2="353.213000mm" y2="102.700000mm" />
  <line x1="353.213000mm" y1="102.700000mm" x2="352.781000mm" y2="102.451000mm" />
  <line x1="352.781000mm" y1="102.451000mm" x2="352.327000mm" y2="102.246000mm" />
  <line x1="352.327000mm" y1="102.246000mm" x2="351.854000mm" y2="102.087000mm" />
  <line x1="351.854000mm" y1="102.087000mm" x2="351.368000mm" y2="101.976000mm" />
  <line x1="351.368000mm" y1="101.976000mm" x2="350.874000mm" y2="101.914000mm" />
  <line x1="350.874000mm" y1="101.914000mm" x2="350.500000mm" y2="101.905000mm" />
  <line x1="350.500000mm" y1="101.905000mm" x2="350.500000mm" y2="101.900000mm" />
  <line x1="350.500000mm" y1="101.900000mm" x2="110.500000mm" y2="101.900000mm" />
  <line x1="110.500000mm" y1="101.900000mm" x2="110.500000mm" y2="101.905000mm" />
  <line x1="110.500000mm" y1="101.905000mm" x2="110.375000mm" y2="101.902000mm" />
  <line x1="110.375000mm" y1="101.902000mm" x2="109.878000mm" y2="101.939000mm" />
  <line x1="109.878000mm" y1="101.939000mm" x2="109.387000mm" y2="102.025000mm" />
  <line x1="109.387000mm" y1="102.025000mm" x2="108.908000mm" y2="102.160000mm" />
  <line x1="108.908000mm" y1="102.160000mm" x2="108.444000mm" y2="102.342000mm" />
  <line x1="108.444000mm" y1="102.342000mm" x2="108.000000mm" y2="102.570000mm" />
  <line x1="108.000000mm" y1="102.570000mm" x2="107.581000mm" y2="102.840000mm" />
  <line x1="107.581000mm" y1="102.840000mm" x2="107.192000mm" y2="103.151000mm" />
  <line x1="107.192000mm" y1="103.151000mm" x2="106.835000mm" y2="103.499000mm" />
  <line x1="106.835000mm" y1="103.499000mm" x2="106.514000mm" y2="103.881000mm" />
  <line x1="106.514000mm" y1="103.881000mm" x2="106.234000mm" y2="104.293000mm" />
  <line x1="106.234000mm" y1="104.293000mm" x2="105.995000mm" y2="104.731000mm" />
  <line x1="105.995000mm" y1="104.731000mm" x2="105.802000mm" y2="105.190000mm" />
  <line x1="105.802000mm" y1="105.190000mm" x2="105.655000mm" y2="105.666000mm" />
  <line x1="105.655000mm" y1="105.666000mm" x2="105.556000mm" y2="106.155000mm" />
  <line x1="105.556000mm" y1="106.155000mm" x2="105.506000mm" y2="106.651000mm" />
  <line x1="105.506000mm" y1="106.651000mm" x2="105.506000mm" y2="106.900000mm" />
  <line x1="105.506000mm" y1="106.900000mm" x2="105.500000mm" y2="106.900000mm" />
  <line x1="105.500000mm" y1="106.900000mm" x2="105.500000mm" y2="385.000000mm" />
  <circle cx="7.499964mm" cy="275.899964mm" r="2.200229mm" fill="none"/>
  <line x1="11.900421mm" y1="275.899964mm" x2="3.099507mm" y2="275.899964mm" />
  <line x1="7.499964mm" y1="271.499507mm" x2="7.499964mm" y2="280.300421mm" />
  <text x="9mm" y="273mm" font-size="24">
   4.4
  </text>
  <circle cx="7.499964mm" cy="234.499964mm" r="2.200229mm" fill="none"/>
  <line x1="11.900421mm" y1="234.499964mm" x2="3.099507mm" y2="234.499964mm" />
  <line x1="7.499964mm" y1="230.099507mm" x2="7.499964mm" y2="238.900421mm" />
  <text x="9mm" y="232mm" font-size="24">
   4.4
  </text>
  <circle cx="9.699964mm" cy="376.799964mm" r="2.200229mm" fill="none"/>
  <line x1="14.100421mm" y1="376.799964mm" x2="5.299507mm" y2="376.799964mm" />
  <line x1="9.699964mm" y1="372.399507mm" x2="9.699964mm" y2="381.200421mm" />
  <text x="11mm" y="374mm" font-size="24">
   4.4
  </text>
  <circle cx="16.499964mm" cy="323.999964mm" r="2.200229mm" fill="none"/>
  <line x1="20.900421mm" y1="323.999964mm" x2="12.099507mm" y2="323.999964mm" />
  <line x1="16.499964mm" y1="319.599507mm" x2="16.499964mm" y2="328.400421mm" />
  <text x="18mm" y="321mm" font-size="24">
   4.4
  </text>
  <circle cx="30.919964mm" cy="376.799964mm" r="2.200229mm" fill="none"/>
  <line x1="35.320421mm" y1="376.799964mm" x2="26.519507mm" y2="376.799964mm" />
  <line x1="30.919964mm" y1="372.399507mm" x2="30.919964mm" y2="381.200421mm" />
  <text x="33mm" y="374mm" font-size="24">
   4.4
  </text>
  <circle cx="33.499818mm" cy="312.000055mm" r="2.000011mm" fill="none"/>
  <line x1="37.499840mm" y1="312.000055mm" x2="29.499795mm" y2="312.000055mm" />
  <line x1="33.499818mm" y1="308.000033mm" x2="33.499818mm" y2="316.000077mm" />
  <text x="35mm" y="310mm" font-size="24">
   4.0
  </text>
  <circle cx="39.499964mm" cy="8.499964mm" r="2.200229mm" fill="none"/>
  <line x1="43.900421mm" y1="8.499964mm" x2="35.099507mm" y2="8.499964mm" />
  <line x1="39.499964mm" y1="4.099507mm" x2="39.499964mm" y2="12.900421mm" />
  <text x="41mm" y="6mm" font-size="24">
   4.4
  </text>
  <circle cx="39.499818mm" cy="19.000055mm" r="2.000011mm" fill="none"/>
  <line x1="43.499840mm" y1="19.000055mm" x2="35.499795mm" y2="19.000055mm" />
  <line x1="39.499818mm" y1="15.000033mm" x2="39.499818mm" y2="23.000077mm" />
  <text x="41mm" y="17mm" font-size="24">
   4.0
  </text>
  <circle cx="43.120170mm" cy="377.499939mm" r="2.500268mm" fill="none"/>
  <line x1="48.120707mm" y1="377.499939mm" x2="38.119633mm" y2="377.499939mm" />
  <line x1="43.120170mm" y1="372.499402mm" x2="43.120170mm" y2="382.500476mm" />
  <text x="45mm" y="374mm" font-size="24">
   5.0
  </text>
  <circle cx="48.499964mm" cy="323.999964mm" r="2.200229mm" fill="none"/>
  <line x1="52.900421mm" y1="323.999964mm" x2="44.099507mm" y2="323.999964mm" />
  <line x1="48.499964mm" y1="319.599507mm" x2="48.499964mm" y2="328.400421mm" />
  <text x="50mm" y="321mm" font-size="24">
   4.4
  </text>
  <circle cx="72.500221mm" cy="63.319698mm" r="1.500135mm" fill="none"/>
  <line x1="75.500491mm" y1="63.319698mm" x2="69.499951mm" y2="63.319698mm" />
  <line x1="72.500221mm" y1="60.319428mm" x2="72.500221mm" y2="66.319968mm" />
  <text x="74mm" y="61mm" font-size="24">
   3.0
  </text>
  <circle cx="72.500221mm" cy="57.519698mm" r="1.500135mm" fill="none"/>
  <line x1="75.500491mm" y1="57.519698mm" x2="69.499951mm" y2="57.519698mm" />
  <line x1="72.500221mm" y1="54.519428mm" x2="72.500221mm" y2="60.519968mm" />
  <text x="74mm" y="56mm" font-size="24">
   3.0
  </text>
  <circle cx="74.199964mm" cy="348.289964mm" r="2.200229mm" fill="none"/>
  <line x1="78.600421mm" y1="348.289964mm" x2="69.799507mm" y2="348.289964mm" />
  <line x1="74.199964mm" y1="343.889507mm" x2="74.199964mm" y2="352.690421mm" />
  <text x="76mm" y="346mm" font-size="24">
   4.4
  </text>
  <circle cx="74.199964mm" cy="36.709964mm" r="2.200229mm" fill="none"/>
  <line x1="78.600421mm" y1="36.709964mm" x2="69.799507mm" y2="36.709964mm" />
  <line x1="74.199964mm" y1="32.309507mm" x2="74.199964mm" y2="41.110421mm" />
  <text x="76mm" y="34mm" font-size="24">
   4.4
  </text>
  <circle cx="74.499964mm" cy="8.499964mm" r="2.200229mm" fill="none"/>
  <line x1="78.900421mm" y1="8.499964mm" x2="70.099507mm" y2="8.499964mm" />
  <line x1="74.499964mm" y1="4.099507mm" x2="74.499964mm" y2="12.900421mm" />
  <text x="76mm" y="6mm" font-size="24">
   4.4
  </text>
  <circle cx="75.079964mm" cy="376.799964mm" r="2.200229mm" fill="none"/>
  <line x1="79.480421mm" y1="376.799964mm" x2="70.679507mm" y2="376.799964mm" />
  <line x1="75.079964mm" y1="372.399507mm" x2="75.079964mm" y2="381.200421mm" />
  <text x="77mm" y="374mm" font-size="24">
   4.4
  </text>
  <circle cx="77.499872mm" cy="75.920269mm" r="1.500269mm" fill="none"/>
  <line x1="80.500410mm" y1="75.920269mm" x2="74.499333mm" y2="75.920269mm" />
  <line x1="77.499872mm" y1="72.919731mm" x2="77.499872mm" y2="78.920808mm" />
  <text x="79mm" y="74mm" font-size="24">
   3.0
  </text>
  <circle cx="77.499872mm" cy="68.720269mm" r="1.500269mm" fill="none"/>
  <line x1="80.500410mm" y1="68.720269mm" x2="74.499333mm" y2="68.720269mm" />
  <line x1="77.499872mm" y1="65.719731mm" x2="77.499872mm" y2="71.720808mm" />
  <text x="79mm" y="67mm" font-size="24">
   3.0
  </text>
  <circle cx="96.299964mm" cy="376.799964mm" r="2.200229mm" fill="none"/>
  <line x1="100.700421mm" y1="376.799964mm" x2="91.899507mm" y2="376.799964mm" />
  <line x1="96.299964mm" y1="372.399507mm" x2="96.299964mm" y2="381.200421mm" />
  <text x="98mm" y="374mm" font-size="24">
   4.4
  </text>
  <circle cx="110.499962mm" cy="106.899817mm" r="4.989768mm" fill="none"/>
  <line x1="120.479499mm" y1="106.899817mm" x2="100.520425mm" y2="106.899817mm" />
  <line x1="110.499962mm" y1="96.920280mm" x2="110.499962mm" y2="116.879354mm" />
  <text x="115mm" y="101mm" font-size="24">
   10.0
  </text>
  <circle cx="350.499962mm" cy="106.899817mm" r="4.989768mm" fill="none"/>
  <line x1="360.479499mm" y1="106.899817mm" x2="340.520425mm" y2="106.899817mm" />
  <line x1="350.499962mm" y1="96.920280mm" x2="350.499962mm" y2="116.879354mm" />
  <text x="355mm" y="101mm" font-size="24">
   10.0
  </text>
  <circle cx="352.500221mm" cy="63.319698mm" r="1.500135mm" fill="none"/>
  <line x1="355.500491mm" y1="63.319698mm" x2="349.499951mm" y2="63.319698mm" />
  <line x1="352.500221mm" y1="60.319428mm" x2="352.500221mm" y2="66.319968mm" />
  <text x="354mm" y="61mm" font-size="24">
   3.0
  </text>
  <circle cx="352.500221mm" cy="57.519698mm" r="1.500135mm" fill="none"/>
  <line x1="355.500491mm" y1="57.519698mm" x2="349.499951mm" y2="57.519698mm" />
  <line x1="352.500221mm" y1="54.519428mm" x2="352.500221mm" y2="60.519968mm" />
  <text x="354mm" y="56mm" font-size="24">
   3.0
  </text>
  <circle cx="355.799964mm" cy="36.709964mm" r="2.200229mm" fill="none"/>
  <line x1="360.200421mm" y1="36.709964mm" x2="351.399507mm" y2="36.709964mm" />
  <line x1="355.799964mm" y1="32.309507mm" x2="355.799964mm" y2="41.110421mm" />
  <text x="358mm" y="34mm" font-size="24">
   4.4
  </text>
  <circle cx="357.499872mm" cy="75.920269mm" r="1.500269mm" fill="none"/>
  <line x1="360.500410mm" y1="75.920269mm" x2="354.499333mm" y2="75.920269mm" />
  <line x1="357.499872mm" y1="72.919731mm" x2="357.499872mm" y2="78.920808mm" />
  <text x="359mm" y="74mm" font-size="24">
   3.0
  </text>
  <circle cx="357.499872mm" cy="68.720269mm" r="1.500269mm" fill="none"/>
  <line x1="360.500410mm" y1="68.720269mm" x2="354.499333mm" y2="68.720269mm" />
  <line x1="357.499872mm" y1="65.719731mm" x2="357.499872mm" y2="71.720808mm" />
  <text x="359mm" y="67mm" font-size="24">
   3.0
  </text>
  <circle cx="362.499964mm" cy="8.499964mm" r="2.200229mm" fill="none"/>
  <line x1="366.900421mm" y1="8.499964mm" x2="358.099507mm" y2="8.499964mm" />
  <line x1="362.499964mm" y1="4.099507mm" x2="362.499964mm" y2="12.900421mm" />
  <text x="364mm" y="6mm" font-size="24">
   4.4
  </text>
  <circle cx="381.499964mm" cy="323.999964mm" r="2.200229mm" fill="none"/>
  <line x1="385.900421mm" y1="323.999964mm" x2="377.099507mm" y2="323.999964mm" />
  <line x1="381.499964mm" y1="319.599507mm" x2="381.499964mm" y2="328.400421mm" />
  <text x="383mm" y="321mm" font-size="24">
   4.4
  </text>
  <circle cx="385.699964mm" cy="376.799964mm" r="2.200229mm" fill="none"/>
  <line x1="390.100421mm" y1="376.799964mm" x2="381.299507mm" y2="376.799964mm" />
  <line x1="385.699964mm" y1="372.399507mm" x2="385.699964mm" y2="381.200421mm" />
  <text x="387mm" y="374mm" font-size="24">
   4.4
  </text>
  <circle cx="397.499964mm" cy="8.499964mm" r="2.200229mm" fill="none"/>
  <line x1="401.900421mm" y1="8.499964mm" x2="393.099507mm" y2="8.499964mm" />
  <line x1="397.499964mm" y1="4.099507mm" x2="397.499964mm" y2="12.900421mm" />
  <text x="399mm" y="6mm" font-size="24">
   4.4
  </text>
  <circle cx="398.620170mm" cy="364.099939mm" r="2.500268mm" fill="none"/>
  <line x1="403.620707mm" y1="364.099939mm" x2="393.619633mm" y2="364.099939mm" />
  <line x1="398.620170mm" y1="359.099402mm" x2="398.620170mm" y2="369.100476mm" />
  <text x="401mm" y="361mm" font-size="24">
   5.0
  </text>
  <circle cx="406.919964mm" cy="376.799964mm" r="2.200229mm" fill="none"/>
  <line x1="411.320421mm" y1="376.799964mm" x2="402.519507mm" y2="376.799964mm" />
  <line x1="406.919964mm" y1="372.399507mm" x2="406.919964mm" y2="381.200421mm" />
  <text x="409mm" y="374mm" font-size="24">
   4.4
  </text>
  <circle cx="413.499964mm" cy="323.999964mm" r="2.200229mm" fill="none"/>
  <line x1="417.900421mm" y1="323.999964mm" x2="409.099507mm" y2="323.999964mm" />
  <line x1="413.499964mm" y1="319.599507mm" x2="413.499964mm" y2="328.400421mm" />
  <text x="415mm" y="321mm" font-size="24">
   4.4
  </text>
  <circle cx="423.599964mm" cy="13.699964mm" r="2.200229mm" fill="none"/>
  <line x1="428.000421mm" y1="13.699964mm" x2="419.199507mm" y2="13.699964mm" />
  <line x1="423.599964mm" y1="9.299507mm" x2="423.599964mm" y2="18.100421mm" />
  <text x="425mm" y="11mm" font-size="24">
   4.4
  </text>
  <circle cx="443.579964mm" cy="376.799964mm" r="2.200229mm" fill="none"/>
  <line x1="447.980421mm" y1="376.799964mm" x2="439.179507mm" y2="376.799964mm" />
  <line x1="443.579964mm" y1="372.399507mm" x2="443.579964mm" y2="381.200421mm" />
  <text x="445mm" y="374mm" font-size="24">
   4.4
  </text>
  <circle cx="458.399964mm" cy="13.699964mm" r="2.200229mm" fill="none"/>
  <line x1="462.800421mm" y1="13.699964mm" x2="453.999507mm" y2="13.699964mm" />
  <line x1="458.399964mm" y1="9.299507mm" x2="458.399964mm" y2="18.100421mm" />
  <text x="460mm" y="11mm" font-size="24">
   4.4
  </text>
  <circle cx="464.799964mm" cy="376.799964mm" r="2.200229mm" fill="none"/>
  <line x1="469.200421mm" y1="376.799964mm" x2="460.399507mm" y2="376.799964mm" />
  <line x1="464.799964mm" y1="372.399507mm" x2="464.799964mm" y2="381.200421mm" />
  <text x="467mm" y="374mm" font-size="24">
   4.4
  </text>
 </g>
</svg>
