  0
SECTION
  2
BLOCKS
  0
ENDSEC
  0
SECTION
  2
ENTITIES
  0
LINE
  8
0
 10
0
 11
0
 20
-158.5
 21
-4
  0
LINE
  8
0
 10
0
 11
385
 20
-4
 21
-4
  0
LINE
  8
0
 10
385
 11
385
 20
-4
 21
-148.5
  0
LINE
  8
0
 10
385
 11
384.962
 20
-148.5
 21
-149.372
  0
LINE
  8
0
 10
384.962
 11
384.848
 20
-149.372
 21
-150.236
  0
LINE
  8
0
 10
384.848
 11
384.659
 20
-150.236
 21
-151.088
  0
LINE
  8
0
 10
384.659
 11
384.397
 20
-151.088
 21
-151.92
  0
LINE
  8
0
 10
384.397
 11
384.063
 20
-151.92
 21
-152.726
  0
LINE
  8
0
 10
384.063
 11
383.66
 20
-152.726
 21
-153.5
  0
LINE
  8
0
 10
383.66
 11
383.192
 20
-153.5
 21
-154.236
  0
LINE
  8
0
 10
383.192
 11
382.66
 20
-154.236
 21
-154.928
  0
LINE
  8
0
 10
382.66
 11
382.071
 20
-154.928
 21
-155.571
  0
LINE
  8
0
 10
382.071
 11
381.428
 20
-155.571
 21
-156.16
  0
LINE
  8
0
 10
381.428
 11
380.736
 20
-156.16
 21
-156.692
  0
LINE
  8
0
 10
380.736
 11
380
 20
-156.692
 21
-157.16
  0
LINE
  8
0
 10
380
 11
379.226
 20
-157.16
 21
-157.563
  0
LINE
  8
0
 10
379.226
 11
378.42
 20
-157.563
 21
-157.897
  0
LINE
  8
0
 10
378.42
 11
377.588
 20
-157.897
 21
-158.159
  0
LINE
  8
0
 10
377.588
 11
376.736
 20
-158.159
 21
-158.348
  0
LINE
  8
0
 10
376.736
 11
375.872
 20
-158.348
 21
-158.462
  0
LINE
  8
0
 10
375.872
 11
375
 20
-158.462
 21
-158.5
  0
LINE
  8
0
 10
375
 11
0
 20
-158.5
 21
-158.5
  0
LINE
  8
0
 10
0
 11
0
 20
0
 21
154.5
  0
LINE
  8
0
 10
0
 11
375
 20
154.5
 21
154.5
  0
LINE
  8
0
 10
375
 11
375.872
 20
154.5
 21
154.462
  0
LINE
  8
0
 10
375.872
 11
376.736
 20
154.462
 21
154.348
  0
LINE
  8
0
 10
376.736
 11
377.588
 20
154.348
 21
154.159
  0
LINE
  8
0
 10
377.588
 11
378.42
 20
154.159
 21
153.897
  0
LINE
  8
0
 10
378.42
 11
379.226
 20
153.897
 21
153.563
  0
LINE
  8
0
 10
379.226
 11
380
 20
153.563
 21
153.16
  0
LINE
  8
0
 10
380
 11
380.736
 20
153.16
 21
152.692
  0
LINE
  8
0
 10
380.736
 11
381.428
 20
152.692
 21
152.16
  0
LINE
  8
0
 10
381.428
 11
382.071
 20
152.16
 21
151.571
  0
LINE
  8
0
 10
382.071
 11
382.66
 20
151.571
 21
150.928
  0
LINE
  8
0
 10
382.66
 11
383.192
 20
150.928
 21
150.236
  0
LINE
  8
0
 10
383.192
 11
383.66
 20
150.236
 21
149.5
  0
LINE
  8
0
 10
383.66
 11
384.063
 20
149.5
 21
148.726
  0
LINE
  8
0
 10
384.063
 11
384.397
 20
148.726
 21
147.92
  0
LINE
  8
0
 10
384.397
 11
384.659
 20
147.92
 21
147.088
  0
LINE
  8
0
 10
384.659
 11
384.848
 20
147.088
 21
146.236
  0
LINE
  8
0
 10
384.848
 11
384.962
 20
146.236
 21
145.372
  0
LINE
  8
0
 10
384.962
 11
385
 20
145.372
 21
144.5
  0
LINE
  8
0
 10
385
 11
385
 20
144.5
 21
0
  0
LINE
  8
0
 10
385
 11
0
 20
0
 21
0
  0
LINE
  8
0
 10
5
 11
5.036
 20
-97
 21
-96.502
  0
LINE
  8
0
 10
5.036
 11
5.142
 20
-96.502
 21
-96.014
  0
LINE
  8
0
 10
5.142
 11
5.316
 20
-96.014
 21
-95.546
  0
LINE
  8
0
 10
5.316
 11
5.556
 20
-95.546
 21
-95.108
  0
LINE
  8
0
 10
5.556
 11
5.855
 20
-95.108
 21
-94.708
  0
LINE
  8
0
 10
5.855
 11
6.208
 20
-94.708
 21
-94.355
  0
LINE
  8
0
 10
6.208
 11
6.608
 20
-94.355
 21
-94.056
  0
LINE
  8
0
 10
6.608
 11
7.046
 20
-94.056
 21
-93.816
  0
LINE
  8
0
 10
7.046
 11
7.514
 20
-93.816
 21
-93.642
  0
LINE
  8
0
 10
7.514
 11
8.002
 20
-93.642
 21
-93.536
  0
LINE
  8
0
 10
8.002
 11
8.5
 20
-93.536
 21
-93.5
  0
LINE
  8
0
 10
8.5
 11
8.998
 20
-93.5
 21
-93.536
  0
LINE
  8
0
 10
8.998
 11
9.486
 20
-93.536
 21
-93.642
  0
LINE
  8
0
 10
9.486
 11
9.954
 20
-93.642
 21
-93.816
  0
LINE
  8
0
 10
9.954
 11
10.392
 20
-93.816
 21
-94.056
  0
LINE
  8
0
 10
10.392
 11
10.792
 20
-94.056
 21
-94.355
  0
LINE
  8
0
 10
10.792
 11
11.145
 20
-94.355
 21
-94.708
  0
LINE
  8
0
 10
11.145
 11
11.444
 20
-94.708
 21
-95.108
  0
LINE
  8
0
 10
11.444
 11
11.684
 20
-95.108
 21
-95.546
  0
LINE
  8
0
 10
11.684
 11
11.858
 20
-95.546
 21
-96.014
  0
LINE
  8
0
 10
11.858
 11
11.964
 20
-96.014
 21
-96.502
  0
LINE
  8
0
 10
11.964
 11
12
 20
-96.502
 21
-97
  0
LINE
  8
0
 10
12
 11
11.964
 20
-97
 21
-97.498
  0
LINE
  8
0
 10
11.964
 11
11.858
 20
-97.498
 21
-97.986
  0
LINE
  8
0
 10
11.858
 11
11.684
 20
-97.986
 21
-98.454
  0
LINE
  8
0
 10
11.684
 11
11.444
 20
-98.454
 21
-98.892
  0
LINE
  8
0
 10
11.444
 11
11.145
 20
-98.892
 21
-99.292
  0
LINE
  8
0
 10
11.145
 11
10.792
 20
-99.292
 21
-99.645
  0
LINE
  8
0
 10
10.792
 11
10.392
 20
-99.645
 21
-99.944
  0
LINE
  8
0
 10
10.392
 11
9.954
 20
-99.944
 21
-100.184
  0
LINE
  8
0
 10
9.954
 11
9.486
 20
-100.184
 21
-100.358
  0
LINE
  8
0
 10
9.486
 11
8.998
 20
-100.358
 21
-100.464
  0
LINE
  8
0
 10
8.998
 11
8.5
 20
-100.464
 21
-100.5
  0
LINE
  8
0
 10
8.5
 11
8.002
 20
-100.5
 21
-100.464
  0
LINE
  8
0
 10
8.002
 11
7.514
 20
-100.464
 21
-100.358
  0
LINE
  8
0
 10
7.514
 11
7.046
 20
-100.358
 21
-100.184
  0
LINE
  8
0
 10
7.046
 11
6.608
 20
-100.184
 21
-99.944
  0
LINE
  8
0
 10
6.608
 11
6.208
 20
-99.944
 21
-99.645
  0
LINE
  8
0
 10
6.208
 11
5.855
 20
-99.645
 21
-99.292
  0
LINE
  8
0
 10
5.855
 11
5.556
 20
-99.292
 21
-98.892
  0
LINE
  8
0
 10
5.556
 11
5.316
 20
-98.892
 21
-98.454
  0
LINE
  8
0
 10
5.316
 11
5.142
 20
-98.454
 21
-97.986
  0
LINE
  8
0
 10
5.142
 11
5.036
 20
-97.986
 21
-97.498
  0
LINE
  8
0
 10
5.036
 11
5
 20
-97.498
 21
-97
  0
LINE
  8
0
 10
5
 11
5.048
 20
-22.9
 21
-22.412
  0
LINE
  8
0
 10
5.048
 11
5.19
 20
-22.412
 21
-21.943
  0
LINE
  8
0
 10
5.19
 11
5.421
 20
-21.943
 21
-21.511
  0
LINE
  8
0
 10
5.421
 11
5.732
 20
-21.511
 21
-21.132
  0
LINE
  8
0
 10
5.732
 11
6.111
 20
-21.132
 21
-20.821
  0
LINE
  8
0
 10
6.111
 11
6.543
 20
-20.821
 21
-20.59
  0
LINE
  8
0
 10
6.543
 11
7.012
 20
-20.59
 21
-20.448
  0
LINE
  8
0
 10
7.012
 11
7.5
 20
-20.448
 21
-20.4
  0
LINE
  8
0
 10
7.5
 11
7.988
 20
-20.4
 21
-20.448
  0
LINE
  8
0
 10
7.988
 11
8.457
 20
-20.448
 21
-20.59
  0
LINE
  8
0
 10
8.457
 11
8.889
 20
-20.59
 21
-20.821
  0
LINE
  8
0
 10
8.889
 11
9.268
 20
-20.821
 21
-21.132
  0
LINE
  8
0
 10
9.268
 11
9.579
 20
-21.132
 21
-21.511
  0
LINE
  8
0
 10
9.579
 11
9.81
 20
-21.511
 21
-21.943
  0
LINE
  8
0
 10
9.81
 11
9.952
 20
-21.943
 21
-22.412
  0
LINE
  8
0
 10
9.952
 11
10
 20
-22.412
 21
-22.9
  0
LINE
  8
0
 10
10
 11
9.952
 20
-22.9
 21
-23.388
  0
LINE
  8
0
 10
9.952
 11
9.81
 20
-23.388
 21
-23.857
  0
LINE
  8
0
 10
9.81
 11
9.579
 20
-23.857
 21
-24.289
  0
LINE
  8
0
 10
9.579
 11
9.268
 20
-24.289
 21
-24.668
  0
LINE
  8
0
 10
9.268
 11
8.889
 20
-24.668
 21
-24.979
  0
LINE
  8
0
 10
8.889
 11
8.457
 20
-24.979
 21
-25.21
  0
LINE
  8
0
 10
8.457
 11
7.988
 20
-25.21
 21
-25.352
  0
LINE
  8
0
 10
7.988
 11
7.5
 20
-25.352
 21
-25.4
  0
LINE
  8
0
 10
7.5
 11
7.012
 20
-25.4
 21
-25.352
  0
LINE
  8
0
 10
7.012
 11
6.543
 20
-25.352
 21
-25.21
  0
LINE
  8
0
 10
6.543
 11
6.111
 20
-25.21
 21
-24.979
  0
LINE
  8
0
 10
6.111
 11
5.732
 20
-24.979
 21
-24.668
  0
LINE
  8
0
 10
5.732
 11
5.421
 20
-24.668
 21
-24.289
  0
LINE
  8
0
 10
5.421
 11
5.19
 20
-24.289
 21
-23.857
  0
LINE
  8
0
 10
5.19
 11
5.048
 20
-23.857
 21
-23.388
  0
LINE
  8
0
 10
5.048
 11
5
 20
-23.388
 21
-22.9
  0
LINE
  8
0
 10
5.015
 11
5.015
 20
-84.641
 21
-84.159
  0
LINE
  8
0
 10
5.015
 11
5.13
 20
-84.159
 21
-83.691
  0
LINE
  8
0
 10
5.13
 11
5.354
 20
-83.691
 21
-83.264
  0
LINE
  8
0
 10
5.354
 11
5.674
 20
-83.264
 21
-82.903
  0
LINE
  8
0
 10
5.674
 11
6.071
 20
-82.903
 21
-82.629
  0
LINE
  8
0
 10
6.071
 11
6.521
 20
-82.629
 21
-82.458
  0
LINE
  8
0
 10
6.521
 11
7
 20
-82.458
 21
-82.4
  0
LINE
  8
0
 10
7
 11
7.479
 20
-82.4
 21
-82.458
  0
LINE
  8
0
 10
7.479
 11
7.929
 20
-82.458
 21
-82.629
  0
LINE
  8
0
 10
7.929
 11
8.326
 20
-82.629
 21
-82.903
  0
LINE
  8
0
 10
8.326
 11
8.646
 20
-82.903
 21
-83.264
  0
LINE
  8
0
 10
8.646
 11
8.87
 20
-83.264
 21
-83.691
  0
LINE
  8
0
 10
8.87
 11
8.985
 20
-83.691
 21
-84.159
  0
LINE
  8
0
 10
8.985
 11
8.985
 20
-84.159
 21
-84.641
  0
LINE
  8
0
 10
8.985
 11
8.87
 20
-84.641
 21
-85.109
  0
LINE
  8
0
 10
8.87
 11
8.646
 20
-85.109
 21
-85.536
  0
LINE
  8
0
 10
8.646
 11
8.326
 20
-85.536
 21
-85.897
  0
LINE
  8
0
 10
8.326
 11
7.929
 20
-85.897
 21
-86.171
  0
LINE
  8
0
 10
7.929
 11
7.479
 20
-86.171
 21
-86.342
  0
LINE
  8
0
 10
7.479
 11
7
 20
-86.342
 21
-86.4
  0
LINE
  8
0
 10
7
 11
6.521
 20
-86.4
 21
-86.342
  0
LINE
  8
0
 10
6.521
 11
6.071
 20
-86.342
 21
-86.171
  0
LINE
  8
0
 10
6.071
 11
5.674
 20
-86.171
 21
-85.897
  0
LINE
  8
0
 10
5.674
 11
5.354
 20
-85.897
 21
-85.536
  0
LINE
  8
0
 10
5.354
 11
5.13
 20
-85.536
 21
-85.109
  0
LINE
  8
0
 10
5.13
 11
5.015
 20
-85.109
 21
-84.641
  0
LINE
  8
0
 10
5.015
 11
5.015
 20
-32.641
 21
-32.159
  0
LINE
  8
0
 10
5.015
 11
5.13
 20
-32.159
 21
-31.691
  0
LINE
  8
0
 10
5.13
 11
5.354
 20
-31.691
 21
-31.264
  0
LINE
  8
0
 10
5.354
 11
5.674
 20
-31.264
 21
-30.903
  0
LINE
  8
0
 10
5.674
 11
6.071
 20
-30.903
 21
-30.629
  0
LINE
  8
0
 10
6.071
 11
6.521
 20
-30.629
 21
-30.458
  0
LINE
  8
0
 10
6.521
 11
7
 20
-30.458
 21
-30.4
  0
LINE
  8
0
 10
7
 11
7.479
 20
-30.4
 21
-30.458
  0
LINE
  8
0
 10
7.479
 11
7.929
 20
-30.458
 21
-30.629
  0
LINE
  8
0
 10
7.929
 11
8.326
 20
-30.629
 21
-30.903
  0
LINE
  8
0
 10
8.326
 11
8.646
 20
-30.903
 21
-31.264
  0
LINE
  8
0
 10
8.646
 11
8.87
 20
-31.264
 21
-31.691
  0
LINE
  8
0
 10
8.87
 11
8.985
 20
-31.691
 21
-32.159
  0
LINE
  8
0
 10
8.985
 11
8.985
 20
-32.159
 21
-32.641
  0
LINE
  8
0
 10
8.985
 11
8.87
 20
-32.641
 21
-33.109
  0
LINE
  8
0
 10
8.87
 11
8.646
 20
-33.109
 21
-33.536
  0
LINE
  8
0
 10
8.646
 11
8.326
 20
-33.536
 21
-33.897
  0
LINE
  8
0
 10
8.326
 11
7.929
 20
-33.897
 21
-34.171
  0
LINE
  8
0
 10
7.929
 11
7.479
 20
-34.171
 21
-34.342
  0
LINE
  8
0
 10
7.479
 11
7
 20
-34.342
 21
-34.4
  0
LINE
  8
0
 10
7
 11
6.521
 20
-34.4
 21
-34.342
  0
LINE
  8
0
 10
6.521
 11
6.071
 20
-34.342
 21
-34.171
  0
LINE
  8
0
 10
6.071
 11
5.674
 20
-34.171
 21
-33.897
  0
LINE
  8
0
 10
5.674
 11
5.354
 20
-33.897
 21
-33.536
  0
LINE
  8
0
 10
5.354
 11
5.13
 20
-33.536
 21
-33.109
  0
LINE
  8
0
 10
5.13
 11
5.015
 20
-33.109
 21
-32.641
  0
LINE
  8
0
 10
6
 11
6.055
 20
-148.8
 21
-148.31
  0
LINE
  8
0
 10
6.055
 11
6.218
 20
-148.31
 21
-147.845
  0
LINE
  8
0
 10
6.218
 11
6.48
 20
-147.845
 21
-147.428
  0
LINE
  8
0
 10
6.48
 11
6.828
 20
-147.428
 21
-147.08
  0
LINE
  8
0
 10
6.828
 11
7.245
 20
-147.08
 21
-146.818
  0
LINE
  8
0
 10
7.245
 11
7.71
 20
-146.818
 21
-146.655
  0
LINE
  8
0
 10
7.71
 11
8.2
 20
-146.655
 21
-146.6
  0
LINE
  8
0
 10
8.2
 11
8.69
 20
-146.6
 21
-146.655
  0
LINE
  8
0
 10
8.69
 11
9.155
 20
-146.655
 21
-146.818
  0
LINE
  8
0
 10
9.155
 11
9.572
 20
-146.818
 21
-147.08
  0
LINE
  8
0
 10
9.572
 11
9.92
 20
-147.08
 21
-147.428
  0
LINE
  8
0
 10
9.92
 11
10.182
 20
-147.428
 21
-147.845
  0
LINE
  8
0
 10
10.182
 11
10.345
 20
-147.845
 21
-148.31
  0
LINE
  8
0
 10
10.345
 11
10.4
 20
-148.31
 21
-148.8
  0
LINE
  8
0
 10
10.4
 11
10.345
 20
-148.8
 21
-149.29
  0
LINE
  8
0
 10
10.345
 11
10.182
 20
-149.29
 21
-149.755
  0
LINE
  8
0
 10
10.182
 11
9.92
 20
-149.755
 21
-150.172
  0
LINE
  8
0
 10
9.92
 11
9.572
 20
-150.172
 21
-150.52
  0
LINE
  8
0
 10
9.572
 11
9.155
 20
-150.52
 21
-150.782
  0
LINE
  8
0
 10
9.155
 11
8.69
 20
-150.782
 21
-150.945
  0
LINE
  8
0
 10
8.69
 11
8.2
 20
-150.945
 21
-151
  0
LINE
  8
0
 10
8.2
 11
7.71
 20
-151
 21
-150.945
  0
LINE
  8
0
 10
7.71
 11
7.245
 20
-150.945
 21
-150.782
  0
LINE
  8
0
 10
7.245
 11
6.828
 20
-150.782
 21
-150.52
  0
LINE
  8
0
 10
6.828
 11
6.48
 20
-150.52
 21
-150.172
  0
LINE
  8
0
 10
6.48
 11
6.218
 20
-150.172
 21
-149.755
  0
LINE
  8
0
 10
6.218
 11
6.055
 20
-149.755
 21
-149.29
  0
LINE
  8
0
 10
6.055
 11
6
 20
-149.29
 21
-148.8
  0
LINE
  8
0
 10
6
 11
6.055
 20
-127.58
 21
-127.09
  0
LINE
  8
0
 10
6.055
 11
6.218
 20
-127.09
 21
-126.625
  0
LINE
  8
0
 10
6.218
 11
6.48
 20
-126.625
 21
-126.208
  0
LINE
  8
0
 10
6.48
 11
6.828
 20
-126.208
 21
-125.86
  0
LINE
  8
0
 10
6.828
 11
7.245
 20
-125.86
 21
-125.598
  0
LINE
  8
0
 10
7.245
 11
7.71
 20
-125.598
 21
-125.435
  0
LINE
  8
0
 10
7.71
 11
8.2
 20
-125.435
 21
-125.38
  0
LINE
  8
0
 10
8.2
 11
8.69
 20
-125.38
 21
-125.435
  0
LINE
  8
0
 10
8.69
 11
9.155
 20
-125.435
 21
-125.598
  0
LINE
  8
0
 10
9.155
 11
9.572
 20
-125.598
 21
-125.86
  0
LINE
  8
0
 10
9.572
 11
9.92
 20
-125.86
 21
-126.208
  0
LINE
  8
0
 10
9.92
 11
10.182
 20
-126.208
 21
-126.625
  0
LINE
  8
0
 10
10.182
 11
10.345
 20
-126.625
 21
-127.09
  0
LINE
  8
0
 10
10.345
 11
10.4
 20
-127.09
 21
-127.58
  0
LINE
  8
0
 10
10.4
 11
10.345
 20
-127.58
 21
-128.07
  0
LINE
  8
0
 10
10.345
 11
10.182
 20
-128.07
 21
-128.535
  0
LINE
  8
0
 10
10.182
 11
9.92
 20
-128.535
 21
-128.952
  0
LINE
  8
0
 10
9.92
 11
9.572
 20
-128.952
 21
-129.3
  0
LINE
  8
0
 10
9.572
 11
9.155
 20
-129.3
 21
-129.562
  0
LINE
  8
0
 10
9.155
 11
8.69
 20
-129.562
 21
-129.725
  0
LINE
  8
0
 10
8.69
 11
8.2
 20
-129.725
 21
-129.78
  0
LINE
  8
0
 10
8.2
 11
7.71
 20
-129.78
 21
-129.725
  0
LINE
  8
0
 10
7.71
 11
7.245
 20
-129.725
 21
-129.562
  0
LINE
  8
0
 10
7.245
 11
6.828
 20
-129.562
 21
-129.3
  0
LINE
  8
0
 10
6.828
 11
6.48
 20
-129.3
 21
-128.952
  0
LINE
  8
0
 10
6.48
 11
6.218
 20
-128.952
 21
-128.535
  0
LINE
  8
0
 10
6.218
 11
6.055
 20
-128.535
 21
-128.07
  0
LINE
  8
0
 10
6.055
 11
6
 20
-128.07
 21
-127.58
  0
LINE
  8
0
 10
6
 11
6.055
 20
123.58
 21
124.07
  0
LINE
  8
0
 10
6.055
 11
6.218
 20
124.07
 21
124.535
  0
LINE
  8
0
 10
6.218
 11
6.48
 20
124.535
 21
124.952
  0
LINE
  8
0
 10
6.48
 11
6.828
 20
124.952
 21
125.3
  0
LINE
  8
0
 10
6.828
 11
7.245
 20
125.3
 21
125.562
  0
LINE
  8
0
 10
7.245
 11
7.71
 20
125.562
 21
125.725
  0
LINE
  8
0
 10
7.71
 11
8.2
 20
125.725
 21
125.78
  0
LINE
  8
0
 10
8.2
 11
8.69
 20
125.78
 21
125.725
  0
LINE
  8
0
 10
8.69
 11
9.155
 20
125.725
 21
125.562
  0
LINE
  8
0
 10
9.155
 11
9.572
 20
125.562
 21
125.3
  0
LINE
  8
0
 10
9.572
 11
9.92
 20
125.3
 21
124.952
  0
LINE
  8
0
 10
9.92
 11
10.182
 20
124.952
 21
124.535
  0
LINE
  8
0
 10
10.182
 11
10.345
 20
124.535
 21
124.07
  0
LINE
  8
0
 10
10.345
 11
10.4
 20
124.07
 21
123.58
  0
LINE
  8
0
 10
10.4
 11
10.345
 20
123.58
 21
123.09
  0
LINE
  8
0
 10
10.345
 11
10.182
 20
123.09
 21
122.625
  0
LINE
  8
0
 10
10.182
 11
9.92
 20
122.625
 21
122.208
  0
LINE
  8
0
 10
9.92
 11
9.572
 20
122.208
 21
121.86
  0
LINE
  8
0
 10
9.572
 11
9.155
 20
121.86
 21
121.598
  0
LINE
  8
0
 10
9.155
 11
8.69
 20
121.598
 21
121.435
  0
LINE
  8
0
 10
8.69
 11
8.2
 20
121.435
 21
121.38
  0
LINE
  8
0
 10
8.2
 11
7.71
 20
121.38
 21
121.435
  0
LINE
  8
0
 10
7.71
 11
7.245
 20
121.435
 21
121.598
  0
LINE
  8
0
 10
7.245
 11
6.828
 20
121.598
 21
121.86
  0
LINE
  8
0
 10
6.828
 11
6.48
 20
121.86
 21
122.208
  0
LINE
  8
0
 10
6.48
 11
6.218
 20
122.208
 21
122.625
  0
LINE
  8
0
 10
6.218
 11
6.055
 20
122.625
 21
123.09
  0
LINE
  8
0
 10
6.055
 11
6
 20
123.09
 21
123.58
  0
LINE
  8
0
 10
6
 11
6.055
 20
144.8
 21
145.29
  0
LINE
  8
0
 10
6.055
 11
6.218
 20
145.29
 21
145.755
  0
LINE
  8
0
 10
6.218
 11
6.48
 20
145.755
 21
146.172
  0
LINE
  8
0
 10
6.48
 11
6.828
 20
146.172
 21
146.52
  0
LINE
  8
0
 10
6.828
 11
7.245
 20
146.52
 21
146.782
  0
LINE
  8
0
 10
7.245
 11
7.71
 20
146.782
 21
146.945
  0
LINE
  8
0
 10
7.71
 11
8.2
 20
146.945
 21
147
  0
LINE
  8
0
 10
8.2
 11
8.69
 20
147
 21
146.945
  0
LINE
  8
0
 10
8.69
 11
9.155
 20
146.945
 21
146.782
  0
LINE
  8
0
 10
9.155
 11
9.572
 20
146.782
 21
146.52
  0
LINE
  8
0
 10
9.572
 11
9.92
 20
146.52
 21
146.172
  0
LINE
  8
0
 10
9.92
 11
10.182
 20
146.172
 21
145.755
  0
LINE
  8
0
 10
10.182
 11
10.345
 20
145.755
 21
145.29
  0
LINE
  8
0
 10
10.345
 11
10.4
 20
145.29
 21
144.8
  0
LINE
  8
0
 10
10.4
 11
10.345
 20
144.8
 21
144.31
  0
LINE
  8
0
 10
10.345
 11
10.182
 20
144.31
 21
143.845
  0
LINE
  8
0
 10
10.182
 11
9.92
 20
143.845
 21
143.428
  0
LINE
  8
0
 10
9.92
 11
9.572
 20
143.428
 21
143.08
  0
LINE
  8
0
 10
9.572
 11
9.155
 20
143.08
 21
142.818
  0
LINE
  8
0
 10
9.155
 11
8.69
 20
142.818
 21
142.655
  0
LINE
  8
0
 10
8.69
 11
8.2
 20
142.655
 21
142.6
  0
LINE
  8
0
 10
8.2
 11
7.71
 20
142.6
 21
142.655
  0
LINE
  8
0
 10
7.71
 11
7.245
 20
142.655
 21
142.818
  0
LINE
  8
0
 10
7.245
 11
6.828
 20
142.818
 21
143.08
  0
LINE
  8
0
 10
6.828
 11
6.48
 20
143.08
 21
143.428
  0
LINE
  8
0
 10
6.48
 11
6.218
 20
143.428
 21
143.845
  0
LINE
  8
0
 10
6.218
 11
6.055
 20
143.845
 21
144.31
  0
LINE
  8
0
 10
6.055
 11
6
 20
144.31
 21
144.8
  0
LINE
  8
0
 10
23.9
 11
23.955
 20
-12.2
 21
-11.71
  0
LINE
  8
0
 10
23.955
 11
24.118
 20
-11.71
 21
-11.245
  0
LINE
  8
0
 10
24.118
 11
24.38
 20
-11.245
 21
-10.828
  0
LINE
  8
0
 10
24.38
 11
24.728
 20
-10.828
 21
-10.48
  0
LINE
  8
0
 10
24.728
 11
25.145
 20
-10.48
 21
-10.218
  0
LINE
  8
0
 10
25.145
 11
25.61
 20
-10.218
 21
-10.055
  0
LINE
  8
0
 10
25.61
 11
26.1
 20
-10.055
 21
-10
  0
LINE
  8
0
 10
26.1
 11
26.59
 20
-10
 21
-10.055
  0
LINE
  8
0
 10
26.59
 11
27.055
 20
-10.055
 21
-10.218
  0
LINE
  8
0
 10
27.055
 11
27.472
 20
-10.218
 21
-10.48
  0
LINE
  8
0
 10
27.472
 11
27.82
 20
-10.48
 21
-10.828
  0
LINE
  8
0
 10
27.82
 11
28.082
 20
-10.828
 21
-11.245
  0
LINE
  8
0
 10
28.082
 11
28.245
 20
-11.245
 21
-11.71
  0
LINE
  8
0
 10
28.245
 11
28.3
 20
-11.71
 21
-12.2
  0
LINE
  8
0
 10
28.3
 11
28.245
 20
-12.2
 21
-12.69
  0
LINE
  8
0
 10
28.245
 11
28.082
 20
-12.69
 21
-13.155
  0
LINE
  8
0
 10
28.082
 11
27.82
 20
-13.155
 21
-13.572
  0
LINE
  8
0
 10
27.82
 11
27.472
 20
-13.572
 21
-13.92
  0
LINE
  8
0
 10
27.472
 11
27.055
 20
-13.92
 21
-14.182
  0
LINE
  8
0
 10
27.055
 11
26.59
 20
-14.182
 21
-14.345
  0
LINE
  8
0
 10
26.59
 11
26.1
 20
-14.345
 21
-14.4
  0
LINE
  8
0
 10
26.1
 11
25.61
 20
-14.4
 21
-14.345
  0
LINE
  8
0
 10
25.61
 11
25.145
 20
-14.345
 21
-14.182
  0
LINE
  8
0
 10
25.145
 11
24.728
 20
-14.182
 21
-13.92
  0
LINE
  8
0
 10
24.728
 11
24.38
 20
-13.92
 21
-13.572
  0
LINE
  8
0
 10
24.38
 11
24.118
 20
-13.572
 21
-13.155
  0
LINE
  8
0
 10
24.118
 11
23.955
 20
-13.155
 21
-12.69
  0
LINE
  8
0
 10
23.955
 11
23.9
 20
-12.69
 21
-12.2
  0
LINE
  8
0
 10
23.9
 11
23.955
 20
8.2
 21
8.69
  0
LINE
  8
0
 10
23.955
 11
24.118
 20
8.69
 21
9.155
  0
LINE
  8
0
 10
24.118
 11
24.38
 20
9.155
 21
9.572
  0
LINE
  8
0
 10
24.38
 11
24.728
 20
9.572
 21
9.92
  0
LINE
  8
0
 10
24.728
 11
25.145
 20
9.92
 21
10.182
  0
LINE
  8
0
 10
25.145
 11
25.61
 20
10.182
 21
10.345
  0
LINE
  8
0
 10
25.61
 11
26.1
 20
10.345
 21
10.4
  0
LINE
  8
0
 10
26.1
 11
26.59
 20
10.4
 21
10.345
  0
LINE
  8
0
 10
26.59
 11
27.055
 20
10.345
 21
10.182
  0
LINE
  8
0
 10
27.055
 11
27.472
 20
10.182
 21
9.92
  0
LINE
  8
0
 10
27.472
 11
27.82
 20
9.92
 21
9.572
  0
LINE
  8
0
 10
27.82
 11
28.082
 20
9.572
 21
9.155
  0
LINE
  8
0
 10
28.082
 11
28.245
 20
9.155
 21
8.69
  0
LINE
  8
0
 10
28.245
 11
28.3
 20
8.69
 21
8.2
  0
LINE
  8
0
 10
28.3
 11
28.245
 20
8.2
 21
7.71
  0
LINE
  8
0
 10
28.245
 11
28.082
 20
7.71
 21
7.245
  0
LINE
  8
0
 10
28.082
 11
27.82
 20
7.245
 21
6.828
  0
LINE
  8
0
 10
27.82
 11
27.472
 20
6.828
 21
6.48
  0
LINE
  8
0
 10
27.472
 11
27.055
 20
6.48
 21
6.218
  0
LINE
  8
0
 10
27.055
 11
26.59
 20
6.218
 21
6.055
  0
LINE
  8
0
 10
26.59
 11
26.1
 20
6.055
 21
6
  0
LINE
  8
0
 10
26.1
 11
25.61
 20
6
 21
6.055
  0
LINE
  8
0
 10
25.61
 11
25.145
 20
6.055
 21
6.218
  0
LINE
  8
0
 10
25.145
 11
24.728
 20
6.218
 21
6.48
  0
LINE
  8
0
 10
24.728
 11
24.38
 20
6.48
 21
6.828
  0
LINE
  8
0
 10
24.38
 11
24.118
 20
6.828
 21
7.245
  0
LINE
  8
0
 10
24.118
 11
23.955
 20
7.245
 21
7.71
  0
LINE
  8
0
 10
23.955
 11
23.9
 20
7.71
 21
8.2
  0
LINE
  8
0
 10
30.7
 11
30.755
 20
-151.5
 21
-151.01
  0
LINE
  8
0
 10
30.755
 11
30.918
 20
-151.01
 21
-150.545
  0
LINE
  8
0
 10
30.918
 11
31.18
 20
-150.545
 21
-150.128
  0
LINE
  8
0
 10
31.18
 11
31.528
 20
-150.128
 21
-149.78
  0
LINE
  8
0
 10
31.528
 11
31.945
 20
-149.78
 21
-149.518
  0
LINE
  8
0
 10
31.945
 11
32.41
 20
-149.518
 21
-149.355
  0
LINE
  8
0
 10
32.41
 11
32.9
 20
-149.355
 21
-149.3
  0
LINE
  8
0
 10
32.9
 11
33.39
 20
-149.3
 21
-149.355
  0
LINE
  8
0
 10
33.39
 11
33.855
 20
-149.355
 21
-149.518
  0
LINE
  8
0
 10
33.855
 11
34.272
 20
-149.518
 21
-149.78
  0
LINE
  8
0
 10
34.272
 11
34.62
 20
-149.78
 21
-150.128
  0
LINE
  8
0
 10
34.62
 11
34.882
 20
-150.128
 21
-150.545
  0
LINE
  8
0
 10
34.882
 11
35.045
 20
-150.545
 21
-151.01
  0
LINE
  8
0
 10
35.045
 11
35.1
 20
-151.01
 21
-151.5
  0
LINE
  8
0
 10
35.1
 11
35.045
 20
-151.5
 21
-151.99
  0
LINE
  8
0
 10
35.045
 11
34.882
 20
-151.99
 21
-152.455
  0
LINE
  8
0
 10
34.882
 11
34.62
 20
-152.455
 21
-152.872
  0
LINE
  8
0
 10
34.62
 11
34.272
 20
-152.872
 21
-153.22
  0
LINE
  8
0
 10
34.272
 11
33.855
 20
-153.22
 21
-153.482
  0
LINE
  8
0
 10
33.855
 11
33.39
 20
-153.482
 21
-153.645
  0
LINE
  8
0
 10
33.39
 11
32.9
 20
-153.645
 21
-153.7
  0
LINE
  8
0
 10
32.9
 11
32.41
 20
-153.7
 21
-153.645
  0
LINE
  8
0
 10
32.41
 11
31.945
 20
-153.645
 21
-153.482
  0
LINE
  8
0
 10
31.945
 11
31.528
 20
-153.482
 21
-153.22
  0
LINE
  8
0
 10
31.528
 11
31.18
 20
-153.22
 21
-152.872
  0
LINE
  8
0
 10
31.18
 11
30.918
 20
-152.872
 21
-152.455
  0
LINE
  8
0
 10
30.918
 11
30.755
 20
-152.455
 21
-151.99
  0
LINE
  8
0
 10
30.755
 11
30.7
 20
-151.99
 21
-151.5
  0
LINE
  8
0
 10
45.12
 11
45.175
 20
-12.2
 21
-11.71
  0
LINE
  8
0
 10
45.175
 11
45.338
 20
-11.71
 21
-11.245
  0
LINE
  8
0
 10
45.338
 11
45.6
 20
-11.245
 21
-10.828
  0
LINE
  8
0
 10
45.6
 11
45.948
 20
-10.828
 21
-10.48
  0
LINE
  8
0
 10
45.948
 11
46.365
 20
-10.48
 21
-10.218
  0
LINE
  8
0
 10
46.365
 11
46.83
 20
-10.218
 21
-10.055
  0
LINE
  8
0
 10
46.83
 11
47.32
 20
-10.055
 21
-10
  0
LINE
  8
0
 10
47.32
 11
47.81
 20
-10
 21
-10.055
  0
LINE
  8
0
 10
47.81
 11
48.275
 20
-10.055
 21
-10.218
  0
LINE
  8
0
 10
48.275
 11
48.692
 20
-10.218
 21
-10.48
  0
LINE
  8
0
 10
48.692
 11
49.04
 20
-10.48
 21
-10.828
  0
LINE
  8
0
 10
49.04
 11
49.302
 20
-10.828
 21
-11.245
  0
LINE
  8
0
 10
49.302
 11
49.465
 20
-11.245
 21
-11.71
  0
LINE
  8
0
 10
49.465
 11
49.52
 20
-11.71
 21
-12.2
  0
LINE
  8
0
 10
49.52
 11
49.465
 20
-12.2
 21
-12.69
  0
LINE
  8
0
 10
49.465
 11
49.302
 20
-12.69
 21
-13.155
  0
LINE
  8
0
 10
49.302
 11
49.04
 20
-13.155
 21
-13.572
  0
LINE
  8
0
 10
49.04
 11
48.692
 20
-13.572
 21
-13.92
  0
LINE
  8
0
 10
48.692
 11
48.275
 20
-13.92
 21
-14.182
  0
LINE
  8
0
 10
48.275
 11
47.81
 20
-14.182
 21
-14.345
  0
LINE
  8
0
 10
47.81
 11
47.32
 20
-14.345
 21
-14.4
  0
LINE
  8
0
 10
47.32
 11
46.83
 20
-14.4
 21
-14.345
  0
LINE
  8
0
 10
46.83
 11
46.365
 20
-14.345
 21
-14.182
  0
LINE
  8
0
 10
46.365
 11
45.948
 20
-14.182
 21
-13.92
  0
LINE
  8
0
 10
45.948
 11
45.6
 20
-13.92
 21
-13.572
  0
LINE
  8
0
 10
45.6
 11
45.338
 20
-13.572
 21
-13.155
  0
LINE
  8
0
 10
45.338
 11
45.175
 20
-13.155
 21
-12.69
  0
LINE
  8
0
 10
45.175
 11
45.12
 20
-12.69
 21
-12.2
  0
LINE
  8
0
 10
45.12
 11
45.175
 20
8.2
 21
8.69
  0
LINE
  8
0
 10
45.175
 11
45.338
 20
8.69
 21
9.155
  0
LINE
  8
0
 10
45.338
 11
45.6
 20
9.155
 21
9.572
  0
LINE
  8
0
 10
45.6
 11
45.948
 20
9.572
 21
9.92
  0
LINE
  8
0
 10
45.948
 11
46.365
 20
9.92
 21
10.182
  0
LINE
  8
0
 10
46.365
 11
46.83
 20
10.182
 21
10.345
  0
LINE
  8
0
 10
46.83
 11
47.32
 20
10.345
 21
10.4
  0
LINE
  8
0
 10
47.32
 11
47.81
 20
10.4
 21
10.345
  0
LINE
  8
0
 10
47.81
 11
48.275
 20
10.345
 21
10.182
  0
LINE
  8
0
 10
48.275
 11
48.692
 20
10.182
 21
9.92
  0
LINE
  8
0
 10
48.692
 11
49.04
 20
9.92
 21
9.572
  0
LINE
  8
0
 10
49.04
 11
49.302
 20
9.572
 21
9.155
  0
LINE
  8
0
 10
49.302
 11
49.465
 20
9.155
 21
8.69
  0
LINE
  8
0
 10
49.465
 11
49.52
 20
8.69
 21
8.2
  0
LINE
  8
0
 10
49.52
 11
49.465
 20
8.2
 21
7.71
  0
LINE
  8
0
 10
49.465
 11
49.302
 20
7.71
 21
7.245
  0
LINE
  8
0
 10
49.302
 11
49.04
 20
7.245
 21
6.828
  0
LINE
  8
0
 10
49.04
 11
48.692
 20
6.828
 21
6.48
  0
LINE
  8
0
 10
48.692
 11
48.275
 20
6.48
 21
6.218
  0
LINE
  8
0
 10
48.275
 11
47.81
 20
6.218
 21
6.055
  0
LINE
  8
0
 10
47.81
 11
47.32
 20
6.055
 21
6
  0
LINE
  8
0
 10
47.32
 11
46.83
 20
6
 21
6.055
  0
LINE
  8
0
 10
46.83
 11
46.365
 20
6.055
 21
6.218
  0
LINE
  8
0
 10
46.365
 11
45.948
 20
6.218
 21
6.48
  0
LINE
  8
0
 10
45.948
 11
45.6
 20
6.48
 21
6.828
  0
LINE
  8
0
 10
45.6
 11
45.338
 20
6.828
 21
7.245
  0
LINE
  8
0
 10
45.338
 11
45.175
 20
7.245
 21
7.71
  0
LINE
  8
0
 10
45.175
 11
45.12
 20
7.71
 21
8.2
  0
LINE
  8
0
 10
49.55
 11
49.605
 20
22.65
 21
23.14
  0
LINE
  8
0
 10
49.605
 11
49.768
 20
23.14
 21
23.605
  0
LINE
  8
0
 10
49.768
 11
50.03
 20
23.605
 21
24.022
  0
LINE
  8
0
 10
50.03
 11
50.378
 20
24.022
 21
24.37
  0
LINE
  8
0
 10
50.378
 11
50.795
 20
24.37
 21
24.632
  0
LINE
  8
0
 10
50.795
 11
51.26
 20
24.632
 21
24.795
  0
LINE
  8
0
 10
51.26
 11
51.75
 20
24.795
 21
24.85
  0
LINE
  8
0
 10
51.75
 11
52.24
 20
24.85
 21
24.795
  0
LINE
  8
0
 10
52.24
 11
52.705
 20
24.795
 21
24.632
  0
LINE
  8
0
 10
52.705
 11
53.122
 20
24.632
 21
24.37
  0
LINE
  8
0
 10
53.122
 11
53.47
 20
24.37
 21
24.022
  0
LINE
  8
0
 10
53.47
 11
53.732
 20
24.022
 21
23.605
  0
LINE
  8
0
 10
53.732
 11
53.895
 20
23.605
 21
23.14
  0
LINE
  8
0
 10
53.895
 11
53.95
 20
23.14
 21
22.65
  0
LINE
  8
0
 10
53.95
 11
53.895
 20
22.65
 21
22.16
  0
LINE
  8
0
 10
53.895
 11
53.732
 20
22.16
 21
21.695
  0
LINE
  8
0
 10
53.732
 11
53.47
 20
21.695
 21
21.278
  0
LINE
  8
0
 10
53.47
 11
53.122
 20
21.278
 21
20.93
  0
LINE
  8
0
 10
53.122
 11
52.705
 20
20.93
 21
20.668
  0
LINE
  8
0
 10
52.705
 11
52.24
 20
20.668
 21
20.505
  0
LINE
  8
0
 10
52.24
 11
51.75
 20
20.505
 21
20.45
  0
LINE
  8
0
 10
51.75
 11
51.26
 20
20.45
 21
20.505
  0
LINE
  8
0
 10
51.26
 11
50.795
 20
20.505
 21
20.668
  0
LINE
  8
0
 10
50.795
 11
50.378
 20
20.668
 21
20.93
  0
LINE
  8
0
 10
50.378
 11
50.03
 20
20.93
 21
21.278
  0
LINE
  8
0
 10
50.03
 11
49.768
 20
21.278
 21
21.695
  0
LINE
  8
0
 10
49.768
 11
49.605
 20
21.695
 21
22.16
  0
LINE
  8
0
 10
49.605
 11
49.55
 20
22.16
 21
22.65
  0
LINE
  8
0
 10
49.55
 11
49.605
 20
94.15
 21
94.64
  0
LINE
  8
0
 10
49.605
 11
49.768
 20
94.64
 21
95.105
  0
LINE
  8
0
 10
49.768
 11
50.03
 20
95.105
 21
95.522
  0
LINE
  8
0
 10
50.03
 11
50.378
 20
95.522
 21
95.87
  0
LINE
  8
0
 10
50.378
 11
50.795
 20
95.87
 21
96.132
  0
LINE
  8
0
 10
50.795
 11
51.26
 20
96.132
 21
96.295
  0
LINE
  8
0
 10
51.26
 11
51.75
 20
96.295
 21
96.35
  0
LINE
  8
0
 10
51.75
 11
52.24
 20
96.35
 21
96.295
  0
LINE
  8
0
 10
52.24
 11
52.705
 20
96.295
 21
96.132
  0
LINE
  8
0
 10
52.705
 11
53.122
 20
96.132
 21
95.87
  0
LINE
  8
0
 10
53.122
 11
53.47
 20
95.87
 21
95.522
  0
LINE
  8
0
 10
53.47
 11
53.732
 20
95.522
 21
95.105
  0
LINE
  8
0
 10
53.732
 11
53.895
 20
95.105
 21
94.64
  0
LINE
  8
0
 10
53.895
 11
53.95
 20
94.64
 21
94.15
  0
LINE
  8
0
 10
53.95
 11
53.895
 20
94.15
 21
93.66
  0
LINE
  8
0
 10
53.895
 11
53.732
 20
93.66
 21
93.195
  0
LINE
  8
0
 10
53.732
 11
53.47
 20
93.195
 21
92.778
  0
LINE
  8
0
 10
53.47
 11
53.122
 20
92.778
 21
92.43
  0
LINE
  8
0
 10
53.122
 11
52.705
 20
92.43
 21
92.168
  0
LINE
  8
0
 10
52.705
 11
52.24
 20
92.168
 21
92.005
  0
LINE
  8
0
 10
52.24
 11
51.75
 20
92.005
 21
91.95
  0
LINE
  8
0
 10
51.75
 11
51.26
 20
91.95
 21
92.005
  0
LINE
  8
0
 10
51.26
 11
50.795
 20
92.005
 21
92.168
  0
LINE
  8
0
 10
50.795
 11
50.378
 20
92.168
 21
92.43
  0
LINE
  8
0
 10
50.378
 11
50.03
 20
92.43
 21
92.778
  0
LINE
  8
0
 10
50.03
 11
49.768
 20
92.778
 21
93.195
  0
LINE
  8
0
 10
49.768
 11
49.605
 20
93.195
 21
93.66
  0
LINE
  8
0
 10
49.605
 11
49.55
 20
93.66
 21
94.15
  0
LINE
  8
0
 10
50
 11
50.143
 20
58.4
 21
61.668
  0
LINE
  8
0
 10
50.143
 11
50.57
 20
61.668
 21
64.912
  0
LINE
  8
0
 10
50.57
 11
51.278
 20
64.912
 21
68.106
  0
LINE
  8
0
 10
51.278
 11
52.262
 20
68.106
 21
71.226
  0
LINE
  8
0
 10
52.262
 11
53.513
 20
71.226
 21
74.248
  0
LINE
  8
0
 10
53.513
 11
55.024
 20
74.248
 21
77.15
  0
LINE
  8
0
 10
55.024
 11
56.782
 20
77.15
 21
79.909
  0
LINE
  8
0
 10
56.782
 11
58.773
 20
79.909
 21
82.505
  0
LINE
  8
0
 10
58.773
 11
60.983
 20
82.505
 21
84.917
  0
LINE
  8
0
 10
60.983
 11
63.395
 20
84.917
 21
87.127
  0
LINE
  8
0
 10
63.395
 11
65.991
 20
87.127
 21
89.118
  0
LINE
  8
0
 10
65.991
 11
68.75
 20
89.118
 21
90.876
  0
LINE
  8
0
 10
68.75
 11
71.652
 20
90.876
 21
92.387
  0
LINE
  8
0
 10
71.652
 11
74.674
 20
92.387
 21
93.638
  0
LINE
  8
0
 10
74.674
 11
77.794
 20
93.638
 21
94.622
  0
LINE
  8
0
 10
77.794
 11
80.988
 20
94.622
 21
95.33
  0
LINE
  8
0
 10
80.988
 11
84.232
 20
95.33
 21
95.757
  0
LINE
  8
0
 10
84.232
 11
87.5
 20
95.757
 21
95.9
  0
LINE
  8
0
 10
87.5
 11
90.768
 20
95.9
 21
95.757
  0
LINE
  8
0
 10
90.768
 11
94.012
 20
95.757
 21
95.33
  0
LINE
  8
0
 10
94.012
 11
97.206
 20
95.33
 21
94.622
  0
LINE
  8
0
 10
97.206
 11
100.326
 20
94.622
 21
93.638
  0
LINE
  8
0
 10
100.326
 11
103.348
 20
93.638
 21
92.387
  0
LINE
  8
0
 10
103.348
 11
106.25
 20
92.387
 21
90.876
  0
LINE
  8
0
 10
106.25
 11
109.009
 20
90.876
 21
89.118
  0
LINE
  8
0
 10
109.009
 11
111.605
 20
89.118
 21
87.127
  0
LINE
  8
0
 10
111.605
 11
114.017
 20
87.127
 21
84.917
  0
LINE
  8
0
 10
114.017
 11
116.227
 20
84.917
 21
82.505
  0
LINE
  8
0
 10
116.227
 11
118.218
 20
82.505
 21
79.909
  0
LINE
  8
0
 10
118.218
 11
119.976
 20
79.909
 21
77.15
  0
LINE
  8
0
 10
119.976
 11
121.487
 20
77.15
 21
74.248
  0
LINE
  8
0
 10
121.487
 11
122.738
 20
74.248
 21
71.226
  0
LINE
  8
0
 10
122.738
 11
123.722
 20
71.226
 21
68.106
  0
LINE
  8
0
 10
123.722
 11
124.43
 20
68.106
 21
64.912
  0
LINE
  8
0
 10
124.43
 11
124.857
 20
64.912
 21
61.668
  0
LINE
  8
0
 10
124.857
 11
125
 20
61.668
 21
58.4
  0
LINE
  8
0
 10
125
 11
124.857
 20
58.4
 21
55.132
  0
LINE
  8
0
 10
124.857
 11
124.43
 20
55.132
 21
51.888
  0
LINE
  8
0
 10
124.43
 11
123.722
 20
51.888
 21
48.694
  0
LINE
  8
0
 10
123.722
 11
122.738
 20
48.694
 21
45.574
  0
LINE
  8
0
 10
122.738
 11
121.487
 20
45.574
 21
42.552
  0
LINE
  8
0
 10
121.487
 11
119.976
 20
42.552
 21
39.65
  0
LINE
  8
0
 10
119.976
 11
118.218
 20
39.65
 21
36.891
  0
LINE
  8
0
 10
118.218
 11
116.227
 20
36.891
 21
34.295
  0
LINE
  8
0
 10
116.227
 11
114.017
 20
34.295
 21
31.883
  0
LINE
  8
0
 10
114.017
 11
111.605
 20
31.883
 21
29.673
  0
LINE
  8
0
 10
111.605
 11
109.009
 20
29.673
 21
27.682
  0
LINE
  8
0
 10
109.009
 11
106.25
 20
27.682
 21
25.924
  0
LINE
  8
0
 10
106.25
 11
103.348
 20
25.924
 21
24.413
  0
LINE
  8
0
 10
103.348
 11
100.326
 20
24.413
 21
23.162
  0
LINE
  8
0
 10
100.326
 11
97.206
 20
23.162
 21
22.178
  0
LINE
  8
0
 10
97.206
 11
94.012
 20
22.178
 21
21.47
  0
LINE
  8
0
 10
94.012
 11
90.768
 20
21.47
 21
21.043
  0
LINE
  8
0
 10
90.768
 11
87.5
 20
21.043
 21
20.9
  0
LINE
  8
0
 10
87.5
 11
84.232
 20
20.9
 21
21.043
  0
LINE
  8
0
 10
84.232
 11
80.988
 20
21.043
 21
21.47
  0
LINE
  8
0
 10
80.988
 11
77.794
 20
21.47
 21
22.178
  0
LINE
  8
0
 10
77.794
 11
74.674
 20
22.178
 21
23.162
  0
LINE
  8
0
 10
74.674
 11
71.652
 20
23.162
 21
24.413
  0
LINE
  8
0
 10
71.652
 11
68.75
 20
24.413
 21
25.924
  0
LINE
  8
0
 10
68.75
 11
65.991
 20
25.924
 21
27.682
  0
LINE
  8
0
 10
65.991
 11
63.395
 20
27.682
 21
29.673
  0
LINE
  8
0
 10
63.395
 11
60.983
 20
29.673
 21
31.883
  0
LINE
  8
0
 10
60.983
 11
58.773
 20
31.883
 21
34.295
  0
LINE
  8
0
 10
58.773
 11
56.782
 20
34.295
 21
36.891
  0
LINE
  8
0
 10
56.782
 11
55.024
 20
36.891
 21
39.65
  0
LINE
  8
0
 10
55.024
 11
53.513
 20
39.65
 21
42.552
  0
LINE
  8
0
 10
53.513
 11
52.262
 20
42.552
 21
45.574
  0
LINE
  8
0
 10
52.262
 11
51.278
 20
45.574
 21
48.694
  0
LINE
  8
0
 10
51.278
 11
50.57
 20
48.694
 21
51.888
  0
LINE
  8
0
 10
50.57
 11
50.143
 20
51.888
 21
55.132
  0
LINE
  8
0
 10
50.143
 11
50
 20
55.132
 21
58.4
  0
LINE
  8
0
 10
121.05
 11
121.105
 20
22.65
 21
23.14
  0
LINE
  8
0
 10
121.105
 11
121.268
 20
23.14
 21
23.605
  0
LINE
  8
0
 10
121.268
 11
121.53
 20
23.605
 21
24.022
  0
LINE
  8
0
 10
121.53
 11
121.878
 20
24.022
 21
24.37
  0
LINE
  8
0
 10
121.878
 11
122.295
 20
24.37
 21
24.632
  0
LINE
  8
0
 10
122.295
 11
122.76
 20
24.632
 21
24.795
  0
LINE
  8
0
 10
122.76
 11
123.25
 20
24.795
 21
24.85
  0
LINE
  8
0
 10
123.25
 11
123.74
 20
24.85
 21
24.795
  0
LINE
  8
0
 10
123.74
 11
124.205
 20
24.795
 21
24.632
  0
LINE
  8
0
 10
124.205
 11
124.622
 20
24.632
 21
24.37
  0
LINE
  8
0
 10
124.622
 11
124.97
 20
24.37
 21
24.022
  0
LINE
  8
0
 10
124.97
 11
125.232
 20
24.022
 21
23.605
  0
LINE
  8
0
 10
125.232
 11
125.395
 20
23.605
 21
23.14
  0
LINE
  8
0
 10
125.395
 11
125.45
 20
23.14
 21
22.65
  0
LINE
  8
0
 10
125.45
 11
125.395
 20
22.65
 21
22.16
  0
LINE
  8
0
 10
125.395
 11
125.232
 20
22.16
 21
21.695
  0
LINE
  8
0
 10
125.232
 11
124.97
 20
21.695
 21
21.278
  0
LINE
  8
0
 10
124.97
 11
124.622
 20
21.278
 21
20.93
  0
LINE
  8
0
 10
124.622
 11
124.205
 20
20.93
 21
20.668
  0
LINE
  8
0
 10
124.205
 11
123.74
 20
20.668
 21
20.505
  0
LINE
  8
0
 10
123.74
 11
123.25
 20
20.505
 21
20.45
  0
LINE
  8
0
 10
123.25
 11
122.76
 20
20.45
 21
20.505
  0
LINE
  8
0
 10
122.76
 11
122.295
 20
20.505
 21
20.668
  0
LINE
  8
0
 10
122.295
 11
121.878
 20
20.668
 21
20.93
  0
LINE
  8
0
 10
121.878
 11
121.53
 20
20.93
 21
21.278
  0
LINE
  8
0
 10
121.53
 11
121.268
 20
21.278
 21
21.695
  0
LINE
  8
0
 10
121.268
 11
121.105
 20
21.695
 21
22.16
  0
LINE
  8
0
 10
121.105
 11
121.05
 20
22.16
 21
22.65
  0
LINE
  8
0
 10
121.05
 11
121.105
 20
94.15
 21
94.64
  0
LINE
  8
0
 10
121.105
 11
121.268
 20
94.64
 21
95.105
  0
LINE
  8
0
 10
121.268
 11
121.53
 20
95.105
 21
95.522
  0
LINE
  8
0
 10
121.53
 11
121.878
 20
95.522
 21
95.87
  0
LINE
  8
0
 10
121.878
 11
122.295
 20
95.87
 21
96.132
  0
LINE
  8
0
 10
122.295
 11
122.76
 20
96.132
 21
96.295
  0
LINE
  8
0
 10
122.76
 11
123.25
 20
96.295
 21
96.35
  0
LINE
  8
0
 10
123.25
 11
123.74
 20
96.35
 21
96.295
  0
LINE
  8
0
 10
123.74
 11
124.205
 20
96.295
 21
96.132
  0
LINE
  8
0
 10
124.205
 11
124.622
 20
96.132
 21
95.87
  0
LINE
  8
0
 10
124.622
 11
124.97
 20
95.87
 21
95.522
  0
LINE
  8
0
 10
124.97
 11
125.232
 20
95.522
 21
95.105
  0
LINE
  8
0
 10
125.232
 11
125.395
 20
95.105
 21
94.64
  0
LINE
  8
0
 10
125.395
 11
125.45
 20
94.64
 21
94.15
  0
LINE
  8
0
 10
125.45
 11
125.395
 20
94.15
 21
93.66
  0
LINE
  8
0
 10
125.395
 11
125.232
 20
93.66
 21
93.195
  0
LINE
  8
0
 10
125.232
 11
124.97
 20
93.195
 21
92.778
  0
LINE
  8
0
 10
124.97
 11
124.622
 20
92.778
 21
92.43
  0
LINE
  8
0
 10
124.622
 11
124.205
 20
92.43
 21
92.168
  0
LINE
  8
0
 10
124.205
 11
123.74
 20
92.168
 21
92.005
  0
LINE
  8
0
 10
123.74
 11
123.25
 20
92.005
 21
91.95
  0
LINE
  8
0
 10
123.25
 11
122.76
 20
91.95
 21
92.005
  0
LINE
  8
0
 10
122.76
 11
122.295
 20
92.005
 21
92.168
  0
LINE
  8
0
 10
122.295
 11
121.878
 20
92.168
 21
92.43
  0
LINE
  8
0
 10
121.878
 11
121.53
 20
92.43
 21
92.778
  0
LINE
  8
0
 10
121.53
 11
121.268
 20
92.778
 21
93.195
  0
LINE
  8
0
 10
121.268
 11
121.105
 20
93.195
 21
93.66
  0
LINE
  8
0
 10
121.105
 11
121.05
 20
93.66
 21
94.15
  0
LINE
  8
0
 10
147.7
 11
147.755
 20
-151.5
 21
-151.01
  0
LINE
  8
0
 10
147.755
 11
147.918
 20
-151.01
 21
-150.545
  0
LINE
  8
0
 10
147.918
 11
148.18
 20
-150.545
 21
-150.128
  0
LINE
  8
0
 10
148.18
 11
148.528
 20
-150.128
 21
-149.78
  0
LINE
  8
0
 10
148.528
 11
148.945
 20
-149.78
 21
-149.518
  0
LINE
  8
0
 10
148.945
 11
149.41
 20
-149.518
 21
-149.355
  0
LINE
  8
0
 10
149.41
 11
149.9
 20
-149.355
 21
-149.3
  0
LINE
  8
0
 10
149.9
 11
150.39
 20
-149.3
 21
-149.355
  0
LINE
  8
0
 10
150.39
 11
150.855
 20
-149.355
 21
-149.518
  0
LINE
  8
0
 10
150.855
 11
151.272
 20
-149.518
 21
-149.78
  0
LINE
  8
0
 10
151.272
 11
151.62
 20
-149.78
 21
-150.128
  0
LINE
  8
0
 10
151.62
 11
151.882
 20
-150.128
 21
-150.545
  0
LINE
  8
0
 10
151.882
 11
152.045
 20
-150.545
 21
-151.01
  0
LINE
  8
0
 10
152.045
 11
152.1
 20
-151.01
 21
-151.5
  0
LINE
  8
0
 10
152.1
 11
152.045
 20
-151.5
 21
-151.99
  0
LINE
  8
0
 10
152.045
 11
151.882
 20
-151.99
 21
-152.455
  0
LINE
  8
0
 10
151.882
 11
151.62
 20
-152.455
 21
-152.872
  0
LINE
  8
0
 10
151.62
 11
151.272
 20
-152.872
 21
-153.22
  0
LINE
  8
0
 10
151.272
 11
150.855
 20
-153.22
 21
-153.482
  0
LINE
  8
0
 10
150.855
 11
150.39
 20
-153.482
 21
-153.645
  0
LINE
  8
0
 10
150.39
 11
149.9
 20
-153.645
 21
-153.7
  0
LINE
  8
0
 10
149.9
 11
149.41
 20
-153.7
 21
-153.645
  0
LINE
  8
0
 10
149.41
 11
148.945
 20
-153.645
 21
-153.482
  0
LINE
  8
0
 10
148.945
 11
148.528
 20
-153.482
 21
-153.22
  0
LINE
  8
0
 10
148.528
 11
148.18
 20
-153.22
 21
-152.872
  0
LINE
  8
0
 10
148.18
 11
147.918
 20
-152.872
 21
-152.455
  0
LINE
  8
0
 10
147.918
 11
147.755
 20
-152.455
 21
-151.99
  0
LINE
  8
0
 10
147.755
 11
147.7
 20
-151.99
 21
-151.5
  0
LINE
  8
0
 10
190.65
 11
190.734
 20
-143.95
 21
-143.471
  0
LINE
  8
0
 10
190.734
 11
190.978
 20
-143.471
 21
-143.05
  0
LINE
  8
0
 10
190.978
 11
191.35
 20
-143.05
 21
-142.738
  0
LINE
  8
0
 10
191.35
 11
191.807
 20
-142.738
 21
-142.571
  0
LINE
  8
0
 10
191.807
 11
192.293
 20
-142.571
 21
-142.571
  0
LINE
  8
0
 10
192.293
 11
192.75
 20
-142.571
 21
-142.738
  0
LINE
  8
0
 10
192.75
 11
193.122
 20
-142.738
 21
-143.05
  0
LINE
  8
0
 10
193.122
 11
193.366
 20
-143.05
 21
-143.471
  0
LINE
  8
0
 10
193.366
 11
193.45
 20
-143.471
 21
-143.95
  0
LINE
  8
0
 10
193.45
 11
193.366
 20
-143.95
 21
-144.429
  0
LINE
  8
0
 10
193.366
 11
193.122
 20
-144.429
 21
-144.85
  0
LINE
  8
0
 10
193.122
 11
192.75
 20
-144.85
 21
-145.162
  0
LINE
  8
0
 10
192.75
 11
192.293
 20
-145.162
 21
-145.329
  0
LINE
  8
0
 10
192.293
 11
191.807
 20
-145.329
 21
-145.329
  0
LINE
  8
0
 10
191.807
 11
191.35
 20
-145.329
 21
-145.162
  0
LINE
  8
0
 10
191.35
 11
190.978
 20
-145.162
 21
-144.85
  0
LINE
  8
0
 10
190.978
 11
190.734
 20
-144.85
 21
-144.429
  0
LINE
  8
0
 10
190.734
 11
190.65
 20
-144.429
 21
-143.95
  0
LINE
  8
0
 10
190.65
 11
190.734
 20
-112.45
 21
-111.971
  0
LINE
  8
0
 10
190.734
 11
190.978
 20
-111.971
 21
-111.55
  0
LINE
  8
0
 10
190.978
 11
191.35
 20
-111.55
 21
-111.238
  0
LINE
  8
0
 10
191.35
 11
191.807
 20
-111.238
 21
-111.071
  0
LINE
  8
0
 10
191.807
 11
192.293
 20
-111.071
 21
-111.071
  0
LINE
  8
0
 10
192.293
 11
192.75
 20
-111.071
 21
-111.238
  0
LINE
  8
0
 10
192.75
 11
193.122
 20
-111.238
 21
-111.55
  0
LINE
  8
0
 10
193.122
 11
193.366
 20
-111.55
 21
-111.971
  0
LINE
  8
0
 10
193.366
 11
193.45
 20
-111.971
 21
-112.45
  0
LINE
  8
0
 10
193.45
 11
193.366
 20
-112.45
 21
-112.929
  0
LINE
  8
0
 10
193.366
 11
193.122
 20
-112.929
 21
-113.35
  0
LINE
  8
0
 10
193.122
 11
192.75
 20
-113.35
 21
-113.662
  0
LINE
  8
0
 10
192.75
 11
192.293
 20
-113.662
 21
-113.829
  0
LINE
  8
0
 10
192.293
 11
191.807
 20
-113.829
 21
-113.829
  0
LINE
  8
0
 10
191.807
 11
191.35
 20
-113.829
 21
-113.662
  0
LINE
  8
0
 10
191.35
 11
190.978
 20
-113.662
 21
-113.35
  0
LINE
  8
0
 10
190.978
 11
190.734
 20
-113.35
 21
-112.929
  0
LINE
  8
0
 10
190.734
 11
190.65
 20
-112.929
 21
-112.45
  0
LINE
  8
0
 10
204.95
 11
205.034
 20
-128.05
 21
-127.571
  0
LINE
  8
0
 10
205.034
 11
205.278
 20
-127.571
 21
-127.15
  0
LINE
  8
0
 10
205.278
 11
205.65
 20
-127.15
 21
-126.838
  0
LINE
  8
0
 10
205.65
 11
206.107
 20
-126.838
 21
-126.671
  0
LINE
  8
0
 10
206.107
 11
206.593
 20
-126.671
 21
-126.671
  0
LINE
  8
0
 10
206.593
 11
207.05
 20
-126.671
 21
-126.838
  0
LINE
  8
0
 10
207.05
 11
207.422
 20
-126.838
 21
-127.15
  0
LINE
  8
0
 10
207.422
 11
207.666
 20
-127.15
 21
-127.571
  0
LINE
  8
0
 10
207.666
 11
207.75
 20
-127.571
 21
-128.05
  0
LINE
  8
0
 10
207.75
 11
207.666
 20
-128.05
 21
-128.529
  0
LINE
  8
0
 10
207.666
 11
207.422
 20
-128.529
 21
-128.95
  0
LINE
  8
0
 10
207.422
 11
207.05
 20
-128.95
 21
-129.262
  0
LINE
  8
0
 10
207.05
 11
206.593
 20
-129.262
 21
-129.429
  0
LINE
  8
0
 10
206.593
 11
206.107
 20
-129.429
 21
-129.429
  0
LINE
  8
0
 10
206.107
 11
205.65
 20
-129.429
 21
-129.262
  0
LINE
  8
0
 10
205.65
 11
205.278
 20
-129.262
 21
-128.95
  0
LINE
  8
0
 10
205.278
 11
205.034
 20
-128.95
 21
-128.529
  0
LINE
  8
0
 10
205.034
 11
204.95
 20
-128.529
 21
-128.05
  0
LINE
  8
0
 10
204.95
 11
205.034
 20
-96.55
 21
-96.071
  0
LINE
  8
0
 10
205.034
 11
205.278
 20
-96.071
 21
-95.65
  0
LINE
  8
0
 10
205.278
 11
205.65
 20
-95.65
 21
-95.338
  0
LINE
  8
0
 10
205.65
 11
206.107
 20
-95.338
 21
-95.171
  0
LINE
  8
0
 10
206.107
 11
206.593
 20
-95.171
 21
-95.171
  0
LINE
  8
0
 10
206.593
 11
207.05
 20
-95.171
 21
-95.338
  0
LINE
  8
0
 10
207.05
 11
207.422
 20
-95.338
 21
-95.65
  0
LINE
  8
0
 10
207.422
 11
207.666
 20
-95.65
 21
-96.071
  0
LINE
  8
0
 10
207.666
 11
207.75
 20
-96.071
 21
-96.55
  0
LINE
  8
0
 10
207.75
 11
207.666
 20
-96.55
 21
-97.029
  0
LINE
  8
0
 10
207.666
 11
207.422
 20
-97.029
 21
-97.45
  0
LINE
  8
0
 10
207.422
 11
207.05
 20
-97.45
 21
-97.762
  0
LINE
  8
0
 10
207.05
 11
206.593
 20
-97.762
 21
-97.929
  0
LINE
  8
0
 10
206.593
 11
206.107
 20
-97.929
 21
-97.929
  0
LINE
  8
0
 10
206.107
 11
205.65
 20
-97.929
 21
-97.762
  0
LINE
  8
0
 10
205.65
 11
205.278
 20
-97.762
 21
-97.45
  0
LINE
  8
0
 10
205.278
 11
205.034
 20
-97.45
 21
-97.029
  0
LINE
  8
0
 10
205.034
 11
204.95
 20
-97.029
 21
-96.55
  0
LINE
  8
0
 10
255.872
 11
255.927
 20
-33.95
 21
-33.46
  0
LINE
  8
0
 10
255.927
 11
256.09
 20
-33.46
 21
-32.995
  0
LINE
  8
0
 10
256.09
 11
256.352
 20
-32.995
 21
-32.578
  0
LINE
  8
0
 10
256.352
 11
256.701
 20
-32.578
 21
-32.23
  0
LINE
  8
0
 10
256.701
 11
257.118
 20
-32.23
 21
-31.968
  0
LINE
  8
0
 10
257.118
 11
257.583
 20
-31.968
 21
-31.805
  0
LINE
  8
0
 10
257.583
 11
258.072
 20
-31.805
 21
-31.75
  0
LINE
  8
0
 10
258.072
 11
258.562
 20
-31.75
 21
-31.805
  0
LINE
  8
0
 10
258.562
 11
259.027
 20
-31.805
 21
-31.968
  0
LINE
  8
0
 10
259.027
 11
259.444
 20
-31.968
 21
-32.23
  0
LINE
  8
0
 10
259.444
 11
259.792
 20
-32.23
 21
-32.578
  0
LINE
  8
0
 10
259.792
 11
260.054
 20
-32.578
 21
-32.995
  0
LINE
  8
0
 10
260.054
 11
260.217
 20
-32.995
 21
-33.46
  0
LINE
  8
0
 10
260.217
 11
260.272
 20
-33.46
 21
-33.95
  0
LINE
  8
0
 10
260.272
 11
260.217
 20
-33.95
 21
-34.44
  0
LINE
  8
0
 10
260.217
 11
260.054
 20
-34.44
 21
-34.905
  0
LINE
  8
0
 10
260.054
 11
259.792
 20
-34.905
 21
-35.322
  0
LINE
  8
0
 10
259.792
 11
259.444
 20
-35.322
 21
-35.67
  0
LINE
  8
0
 10
259.444
 11
259.027
 20
-35.67
 21
-35.932
  0
LINE
  8
0
 10
259.027
 11
258.562
 20
-35.932
 21
-36.095
  0
LINE
  8
0
 10
258.562
 11
258.072
 20
-36.095
 21
-36.15
  0
LINE
  8
0
 10
258.072
 11
257.583
 20
-36.15
 21
-36.095
  0
LINE
  8
0
 10
257.583
 11
257.118
 20
-36.095
 21
-35.932
  0
LINE
  8
0
 10
257.118
 11
256.701
 20
-35.932
 21
-35.67
  0
LINE
  8
0
 10
256.701
 11
256.352
 20
-35.67
 21
-35.322
  0
LINE
  8
0
 10
256.352
 11
256.09
 20
-35.322
 21
-34.905
  0
LINE
  8
0
 10
256.09
 11
255.927
 20
-34.905
 21
-34.44
  0
LINE
  8
0
 10
255.927
 11
255.872
 20
-34.44
 21
-33.95
  0
LINE
  8
0
 10
255.872
 11
255.927
 20
55.05
 21
55.54
  0
LINE
  8
0
 10
255.927
 11
256.09
 20
55.54
 21
56.005
  0
LINE
  8
0
 10
256.09
 11
256.352
 20
56.005
 21
56.422
  0
LINE
  8
0
 10
256.352
 11
256.701
 20
56.422
 21
56.77
  0
LINE
  8
0
 10
256.701
 11
257.118
 20
56.77
 21
57.032
  0
LINE
  8
0
 10
257.118
 11
257.583
 20
57.032
 21
57.195
  0
LINE
  8
0
 10
257.583
 11
258.072
 20
57.195
 21
57.25
  0
LINE
  8
0
 10
258.072
 11
258.562
 20
57.25
 21
57.195
  0
LINE
  8
0
 10
258.562
 11
259.027
 20
57.195
 21
57.032
  0
LINE
  8
0
 10
259.027
 11
259.444
 20
57.032
 21
56.77
  0
LINE
  8
0
 10
259.444
 11
259.792
 20
56.77
 21
56.422
  0
LINE
  8
0
 10
259.792
 11
260.054
 20
56.422
 21
56.005
  0
LINE
  8
0
 10
260.054
 11
260.217
 20
56.005
 21
55.54
  0
LINE
  8
0
 10
260.217
 11
260.272
 20
55.54
 21
55.05
  0
LINE
  8
0
 10
260.272
 11
260.217
 20
55.05
 21
54.56
  0
LINE
  8
0
 10
260.217
 11
260.054
 20
54.56
 21
54.095
  0
LINE
  8
0
 10
260.054
 11
259.792
 20
54.095
 21
53.678
  0
LINE
  8
0
 10
259.792
 11
259.444
 20
53.678
 21
53.33
  0
LINE
  8
0
 10
259.444
 11
259.027
 20
53.33
 21
53.068
  0
LINE
  8
0
 10
259.027
 11
258.562
 20
53.068
 21
52.905
  0
LINE
  8
0
 10
258.562
 11
258.072
 20
52.905
 21
52.85
  0
LINE
  8
0
 10
258.072
 11
257.583
 20
52.85
 21
52.905
  0
LINE
  8
0
 10
257.583
 11
257.118
 20
52.905
 21
53.068
  0
LINE
  8
0
 10
257.118
 11
256.701
 20
53.068
 21
53.33
  0
LINE
  8
0
 10
256.701
 11
256.352
 20
53.33
 21
53.678
  0
LINE
  8
0
 10
256.352
 11
256.09
 20
53.678
 21
54.095
  0
LINE
  8
0
 10
256.09
 11
255.927
 20
54.095
 21
54.56
  0
LINE
  8
0
 10
255.927
 11
255.872
 20
54.56
 21
55.05
  0
LINE
  8
0
 10
309.68
 11
309.721
 20
-12
 21
-11.506
  0
LINE
  8
0
 10
309.721
 11
309.843
 20
-11.506
 21
-11.026
  0
LINE
  8
0
 10
309.843
 11
310.042
 20
-11.026
 21
-10.572
  0
LINE
  8
0
 10
310.042
 11
310.313
 20
-10.572
 21
-10.157
  0
LINE
  8
0
 10
310.313
 11
310.648
 20
-10.157
 21
-9.793
  0
LINE
  8
0
 10
310.648
 11
311.039
 20
-9.793
 21
-9.489
  0
LINE
  8
0
 10
311.039
 11
311.475
 20
-9.489
 21
-9.253
  0
LINE
  8
0
 10
311.475
 11
311.944
 20
-9.253
 21
-9.092
  0
LINE
  8
0
 10
311.944
 11
312.432
 20
-9.092
 21
-9.01
  0
LINE
  8
0
 10
312.432
 11
312.928
 20
-9.01
 21
-9.01
  0
LINE
  8
0
 10
312.928
 11
313.416
 20
-9.01
 21
-9.092
  0
LINE
  8
0
 10
313.416
 11
313.885
 20
-9.092
 21
-9.253
  0
LINE
  8
0
 10
313.885
 11
314.321
 20
-9.253
 21
-9.489
  0
LINE
  8
0
 10
314.321
 11
314.712
 20
-9.489
 21
-9.793
  0
LINE
  8
0
 10
314.712
 11
315.047
 20
-9.793
 21
-10.157
  0
LINE
  8
0
 10
315.047
 11
315.318
 20
-10.157
 21
-10.572
  0
LINE
  8
0
 10
315.318
 11
315.517
 20
-10.572
 21
-11.026
  0
LINE
  8
0
 10
315.517
 11
315.639
 20
-11.026
 21
-11.506
  0
LINE
  8
0
 10
315.639
 11
315.68
 20
-11.506
 21
-12
  0
LINE
  8
0
 10
315.68
 11
315.639
 20
-12
 21
-12.494
  0
LINE
  8
0
 10
315.639
 11
315.517
 20
-12.494
 21
-12.974
  0
LINE
  8
0
 10
315.517
 11
315.318
 20
-12.974
 21
-13.428
  0
LINE
  8
0
 10
315.318
 11
315.047
 20
-13.428
 21
-13.843
  0
LINE
  8
0
 10
315.047
 11
314.712
 20
-13.843
 21
-14.207
  0
LINE
  8
0
 10
314.712
 11
314.321
 20
-14.207
 21
-14.511
  0
LINE
  8
0
 10
314.321
 11
313.885
 20
-14.511
 21
-14.747
  0
LINE
  8
0
 10
313.885
 11
313.416
 20
-14.747
 21
-14.908
  0
LINE
  8
0
 10
313.416
 11
312.928
 20
-14.908
 21
-14.99
  0
LINE
  8
0
 10
312.928
 11
312.432
 20
-14.99
 21
-14.99
  0
LINE
  8
0
 10
312.432
 11
311.944
 20
-14.99
 21
-14.908
  0
LINE
  8
0
 10
311.944
 11
311.475
 20
-14.908
 21
-14.747
  0
LINE
  8
0
 10
311.475
 11
311.039
 20
-14.747
 21
-14.511
  0
LINE
  8
0
 10
311.039
 11
310.648
 20
-14.511
 21
-14.207
  0
LINE
  8
0
 10
310.648
 11
310.313
 20
-14.207
 21
-13.843
  0
LINE
  8
0
 10
310.313
 11
310.042
 20
-13.843
 21
-13.428
  0
LINE
  8
0
 10
310.042
 11
309.843
 20
-13.428
 21
-12.974
  0
LINE
  8
0
 10
309.843
 11
309.721
 20
-12.974
 21
-12.494
  0
LINE
  8
0
 10
309.721
 11
309.68
 20
-12.494
 21
-12
  0
LINE
  8
0
 10
309.68
 11
309.721
 20
8
 21
8.494
  0
LINE
  8
0
 10
309.721
 11
309.843
 20
8.494
 21
8.974
  0
LINE
  8
0
 10
309.843
 11
310.042
 20
8.974
 21
9.428
  0
LINE
  8
0
 10
310.042
 11
310.313
 20
9.428
 21
9.843
  0
LINE
  8
0
 10
310.313
 11
310.648
 20
9.843
 21
10.207
  0
LINE
  8
0
 10
310.648
 11
311.039
 20
10.207
 21
10.511
  0
LINE
  8
0
 10
311.039
 11
311.475
 20
10.511
 21
10.747
  0
LINE
  8
0
 10
311.475
 11
311.944
 20
10.747
 21
10.908
  0
LINE
  8
0
 10
311.944
 11
312.432
 20
10.908
 21
10.99
  0
LINE
  8
0
 10
312.432
 11
312.928
 20
10.99
 21
10.99
  0
LINE
  8
0
 10
312.928
 11
313.416
 20
10.99
 21
10.908
  0
LINE
  8
0
 10
313.416
 11
313.885
 20
10.908
 21
10.747
  0
LINE
  8
0
 10
313.885
 11
314.321
 20
10.747
 21
10.511
  0
LINE
  8
0
 10
314.321
 11
314.712
 20
10.511
 21
10.207
  0
LINE
  8
0
 10
314.712
 11
315.047
 20
10.207
 21
9.843
  0
LINE
  8
0
 10
315.047
 11
315.318
 20
9.843
 21
9.428
  0
LINE
  8
0
 10
315.318
 11
315.517
 20
9.428
 21
8.974
  0
LINE
  8
0
 10
315.517
 11
315.639
 20
8.974
 21
8.494
  0
LINE
  8
0
 10
315.639
 11
315.68
 20
8.494
 21
8
  0
LINE
  8
0
 10
315.68
 11
315.639
 20
8
 21
7.506
  0
LINE
  8
0
 10
315.639
 11
315.517
 20
7.506
 21
7.026
  0
LINE
  8
0
 10
315.517
 11
315.318
 20
7.026
 21
6.572
  0
LINE
  8
0
 10
315.318
 11
315.047
 20
6.572
 21
6.157
  0
LINE
  8
0
 10
315.047
 11
314.712
 20
6.157
 21
5.793
  0
LINE
  8
0
 10
314.712
 11
314.321
 20
5.793
 21
5.489
  0
LINE
  8
0
 10
314.321
 11
313.885
 20
5.489
 21
5.253
  0
LINE
  8
0
 10
313.885
 11
313.416
 20
5.253
 21
5.092
  0
LINE
  8
0
 10
313.416
 11
312.928
 20
5.092
 21
5.01
  0
LINE
  8
0
 10
312.928
 11
312.432
 20
5.01
 21
5.01
  0
LINE
  8
0
 10
312.432
 11
311.944
 20
5.01
 21
5.092
  0
LINE
  8
0
 10
311.944
 11
311.475
 20
5.092
 21
5.253
  0
LINE
  8
0
 10
311.475
 11
311.039
 20
5.253
 21
5.489
  0
LINE
  8
0
 10
311.039
 11
310.648
 20
5.489
 21
5.793
  0
LINE
  8
0
 10
310.648
 11
310.313
 20
5.793
 21
6.157
  0
LINE
  8
0
 10
310.313
 11
310.042
 20
6.157
 21
6.572
  0
LINE
  8
0
 10
310.042
 11
309.843
 20
6.572
 21
7.026
  0
LINE
  8
0
 10
309.843
 11
309.721
 20
7.026
 21
7.506
  0
LINE
  8
0
 10
309.721
 11
309.68
 20
7.506
 21
8
  0
LINE
  8
0
 10
322.58
 11
322.638
 20
-11
 21
-10.521
  0
LINE
  8
0
 10
322.638
 11
322.809
 20
-10.521
 21
-10.071
  0
LINE
  8
0
 10
322.809
 11
323.083
 20
-10.071
 21
-9.674
  0
LINE
  8
0
 10
323.083
 11
323.444
 20
-9.674
 21
-9.354
  0
LINE
  8
0
 10
323.444
 11
323.871
 20
-9.354
 21
-9.13
  0
LINE
  8
0
 10
323.871
 11
324.339
 20
-9.13
 21
-9.015
  0
LINE
  8
0
 10
324.339
 11
324.821
 20
-9.015
 21
-9.015
  0
LINE
  8
0
 10
324.821
 11
325.289
 20
-9.015
 21
-9.13
  0
LINE
  8
0
 10
325.289
 11
325.716
 20
-9.13
 21
-9.354
  0
LINE
  8
0
 10
325.716
 11
326.077
 20
-9.354
 21
-9.674
  0
LINE
  8
0
 10
326.077
 11
326.351
 20
-9.674
 21
-10.071
  0
LINE
  8
0
 10
326.351
 11
326.522
 20
-10.071
 21
-10.521
  0
LINE
  8
0
 10
326.522
 11
326.58
 20
-10.521
 21
-11
  0
LINE
  8
0
 10
326.58
 11
326.522
 20
-11
 21
-11.479
  0
LINE
  8
0
 10
326.522
 11
326.351
 20
-11.479
 21
-11.929
  0
LINE
  8
0
 10
326.351
 11
326.077
 20
-11.929
 21
-12.326
  0
LINE
  8
0
 10
326.077
 11
325.716
 20
-12.326
 21
-12.646
  0
LINE
  8
0
 10
325.716
 11
325.289
 20
-12.646
 21
-12.87
  0
LINE
  8
0
 10
325.289
 11
324.821
 20
-12.87
 21
-12.985
  0
LINE
  8
0
 10
324.821
 11
324.339
 20
-12.985
 21
-12.985
  0
LINE
  8
0
 10
324.339
 11
323.871
 20
-12.985
 21
-12.87
  0
LINE
  8
0
 10
323.871
 11
323.444
 20
-12.87
 21
-12.646
  0
LINE
  8
0
 10
323.444
 11
323.083
 20
-12.646
 21
-12.326
  0
LINE
  8
0
 10
323.083
 11
322.809
 20
-12.326
 21
-11.929
  0
LINE
  8
0
 10
322.809
 11
322.638
 20
-11.929
 21
-11.479
  0
LINE
  8
0
 10
322.638
 11
322.58
 20
-11.479
 21
-11
  0
LINE
  8
0
 10
322.58
 11
322.638
 20
7
 21
7.479
  0
LINE
  8
0
 10
322.638
 11
322.809
 20
7.479
 21
7.929
  0
LINE
  8
0
 10
322.809
 11
323.083
 20
7.929
 21
8.326
  0
LINE
  8
0
 10
323.083
 11
323.444
 20
8.326
 21
8.646
  0
LINE
  8
0
 10
323.444
 11
323.871
 20
8.646
 21
8.87
  0
LINE
  8
0
 10
323.871
 11
324.339
 20
8.87
 21
8.985
  0
LINE
  8
0
 10
324.339
 11
324.821
 20
8.985
 21
8.985
  0
LINE
  8
0
 10
324.821
 11
325.289
 20
8.985
 21
8.87
  0
LINE
  8
0
 10
325.289
 11
325.716
 20
8.87
 21
8.646
  0
LINE
  8
0
 10
325.716
 11
326.077
 20
8.646
 21
8.326
  0
LINE
  8
0
 10
326.077
 11
326.351
 20
8.326
 21
7.929
  0
LINE
  8
0
 10
326.351
 11
326.522
 20
7.929
 21
7.479
  0
LINE
  8
0
 10
326.522
 11
326.58
 20
7.479
 21
7
  0
LINE
  8
0
 10
326.58
 11
326.522
 20
7
 21
6.521
  0
LINE
  8
0
 10
326.522
 11
326.351
 20
6.521
 21
6.071
  0
LINE
  8
0
 10
326.351
 11
326.077
 20
6.071
 21
5.674
  0
LINE
  8
0
 10
326.077
 11
325.716
 20
5.674
 21
5.354
  0
LINE
  8
0
 10
325.716
 11
325.289
 20
5.354
 21
5.13
  0
LINE
  8
0
 10
325.289
 11
324.821
 20
5.13
 21
5.015
  0
LINE
  8
0
 10
324.821
 11
324.339
 20
5.015
 21
5.015
  0
LINE
  8
0
 10
324.339
 11
323.871
 20
5.015
 21
5.13
  0
LINE
  8
0
 10
323.871
 11
323.444
 20
5.13
 21
5.354
  0
LINE
  8
0
 10
323.444
 11
323.083
 20
5.354
 21
5.674
  0
LINE
  8
0
 10
323.083
 11
322.809
 20
5.674
 21
6.071
  0
LINE
  8
0
 10
322.809
 11
322.638
 20
6.071
 21
6.521
  0
LINE
  8
0
 10
322.638
 11
322.58
 20
6.521
 21
7
  0
LINE
  8
0
 10
335.48
 11
335.535
 20
-12.2
 21
-11.71
  0
LINE
  8
0
 10
335.535
 11
335.698
 20
-11.71
 21
-11.245
  0
LINE
  8
0
 10
335.698
 11
335.96
 20
-11.245
 21
-10.828
  0
LINE
  8
0
 10
335.96
 11
336.308
 20
-10.828
 21
-10.48
  0
LINE
  8
0
 10
336.308
 11
336.725
 20
-10.48
 21
-10.218
  0
LINE
  8
0
 10
336.725
 11
337.19
 20
-10.218
 21
-10.055
  0
LINE
  8
0
 10
337.19
 11
337.68
 20
-10.055
 21
-10
  0
LINE
  8
0
 10
337.68
 11
338.17
 20
-10
 21
-10.055
  0
LINE
  8
0
 10
338.17
 11
338.635
 20
-10.055
 21
-10.218
  0
LINE
  8
0
 10
338.635
 11
339.052
 20
-10.218
 21
-10.48
  0
LINE
  8
0
 10
339.052
 11
339.4
 20
-10.48
 21
-10.828
  0
LINE
  8
0
 10
339.4
 11
339.662
 20
-10.828
 21
-11.245
  0
LINE
  8
0
 10
339.662
 11
339.825
 20
-11.245
 21
-11.71
  0
LINE
  8
0
 10
339.825
 11
339.88
 20
-11.71
 21
-12.2
  0
LINE
  8
0
 10
339.88
 11
339.825
 20
-12.2
 21
-12.69
  0
LINE
  8
0
 10
339.825
 11
339.662
 20
-12.69
 21
-13.155
  0
LINE
  8
0
 10
339.662
 11
339.4
 20
-13.155
 21
-13.572
  0
LINE
  8
0
 10
339.4
 11
339.052
 20
-13.572
 21
-13.92
  0
LINE
  8
0
 10
339.052
 11
338.635
 20
-13.92
 21
-14.182
  0
LINE
  8
0
 10
338.635
 11
338.17
 20
-14.182
 21
-14.345
  0
LINE
  8
0
 10
338.17
 11
337.68
 20
-14.345
 21
-14.4
  0
LINE
  8
0
 10
337.68
 11
337.19
 20
-14.4
 21
-14.345
  0
LINE
  8
0
 10
337.19
 11
336.725
 20
-14.345
 21
-14.182
  0
LINE
  8
0
 10
336.725
 11
336.308
 20
-14.182
 21
-13.92
  0
LINE
  8
0
 10
336.308
 11
335.96
 20
-13.92
 21
-13.572
  0
LINE
  8
0
 10
335.96
 11
335.698
 20
-13.572
 21
-13.155
  0
LINE
  8
0
 10
335.698
 11
335.535
 20
-13.155
 21
-12.69
  0
LINE
  8
0
 10
335.535
 11
335.48
 20
-12.69
 21
-12.2
  0
LINE
  8
0
 10
335.48
 11
335.535
 20
8.2
 21
8.69
  0
LINE
  8
0
 10
335.535
 11
335.698
 20
8.69
 21
9.155
  0
LINE
  8
0
 10
335.698
 11
335.96
 20
9.155
 21
9.572
  0
LINE
  8
0
 10
335.96
 11
336.308
 20
9.572
 21
9.92
  0
LINE
  8
0
 10
336.308
 11
336.725
 20
9.92
 21
10.182
  0
LINE
  8
0
 10
336.725
 11
337.19
 20
10.182
 21
10.345
  0
LINE
  8
0
 10
337.19
 11
337.68
 20
10.345
 21
10.4
  0
LINE
  8
0
 10
337.68
 11
338.17
 20
10.4
 21
10.345
  0
LINE
  8
0
 10
338.17
 11
338.635
 20
10.345
 21
10.182
  0
LINE
  8
0
 10
338.635
 11
339.052
 20
10.182
 21
9.92
  0
LINE
  8
0
 10
339.052
 11
339.4
 20
9.92
 21
9.572
  0
LINE
  8
0
 10
339.4
 11
339.662
 20
9.572
 21
9.155
  0
LINE
  8
0
 10
339.662
 11
339.825
 20
9.155
 21
8.69
  0
LINE
  8
0
 10
339.825
 11
339.88
 20
8.69
 21
8.2
  0
LINE
  8
0
 10
339.88
 11
339.825
 20
8.2
 21
7.71
  0
LINE
  8
0
 10
339.825
 11
339.662
 20
7.71
 21
7.245
  0
LINE
  8
0
 10
339.662
 11
339.4
 20
7.245
 21
6.828
  0
LINE
  8
0
 10
339.4
 11
339.052
 20
6.828
 21
6.48
  0
LINE
  8
0
 10
339.052
 11
338.635
 20
6.48
 21
6.218
  0
LINE
  8
0
 10
338.635
 11
338.17
 20
6.218
 21
6.055
  0
LINE
  8
0
 10
338.17
 11
337.68
 20
6.055
 21
6
  0
LINE
  8
0
 10
337.68
 11
337.19
 20
6
 21
6.055
  0
LINE
  8
0
 10
337.19
 11
336.725
 20
6.055
 21
6.218
  0
LINE
  8
0
 10
336.725
 11
336.308
 20
6.218
 21
6.48
  0
LINE
  8
0
 10
336.308
 11
335.96
 20
6.48
 21
6.828
  0
LINE
  8
0
 10
335.96
 11
335.698
 20
6.828
 21
7.245
  0
LINE
  8
0
 10
335.698
 11
335.535
 20
7.245
 21
7.71
  0
LINE
  8
0
 10
335.535
 11
335.48
 20
7.71
 21
8.2
  0
LINE
  8
0
 10
356.7
 11
356.755
 20
-12.2
 21
-11.71
  0
LINE
  8
0
 10
356.755
 11
356.918
 20
-11.71
 21
-11.245
  0
LINE
  8
0
 10
356.918
 11
357.18
 20
-11.245
 21
-10.828
  0
LINE
  8
0
 10
357.18
 11
357.528
 20
-10.828
 21
-10.48
  0
LINE
  8
0
 10
357.528
 11
357.945
 20
-10.48
 21
-10.218
  0
LINE
  8
0
 10
357.945
 11
358.41
 20
-10.218
 21
-10.055
  0
LINE
  8
0
 10
358.41
 11
358.9
 20
-10.055
 21
-10
  0
LINE
  8
0
 10
358.9
 11
359.39
 20
-10
 21
-10.055
  0
LINE
  8
0
 10
359.39
 11
359.855
 20
-10.055
 21
-10.218
  0
LINE
  8
0
 10
359.855
 11
360.272
 20
-10.218
 21
-10.48
  0
LINE
  8
0
 10
360.272
 11
360.62
 20
-10.48
 21
-10.828
  0
LINE
  8
0
 10
360.62
 11
360.882
 20
-10.828
 21
-11.245
  0
LINE
  8
0
 10
360.882
 11
361.045
 20
-11.245
 21
-11.71
  0
LINE
  8
0
 10
361.045
 11
361.1
 20
-11.71
 21
-12.2
  0
LINE
  8
0
 10
361.1
 11
361.045
 20
-12.2
 21
-12.69
  0
LINE
  8
0
 10
361.045
 11
360.882
 20
-12.69
 21
-13.155
  0
LINE
  8
0
 10
360.882
 11
360.62
 20
-13.155
 21
-13.572
  0
LINE
  8
0
 10
360.62
 11
360.272
 20
-13.572
 21
-13.92
  0
LINE
  8
0
 10
360.272
 11
359.855
 20
-13.92
 21
-14.182
  0
LINE
  8
0
 10
359.855
 11
359.39
 20
-14.182
 21
-14.345
  0
LINE
  8
0
 10
359.39
 11
358.9
 20
-14.345
 21
-14.4
  0
LINE
  8
0
 10
358.9
 11
358.41
 20
-14.4
 21
-14.345
  0
LINE
  8
0
 10
358.41
 11
357.945
 20
-14.345
 21
-14.182
  0
LINE
  8
0
 10
357.945
 11
357.528
 20
-14.182
 21
-13.92
  0
LINE
  8
0
 10
357.528
 11
357.18
 20
-13.92
 21
-13.572
  0
LINE
  8
0
 10
357.18
 11
356.918
 20
-13.572
 21
-13.155
  0
LINE
  8
0
 10
356.918
 11
356.755
 20
-13.155
 21
-12.69
  0
LINE
  8
0
 10
356.755
 11
356.7
 20
-12.69
 21
-12.2
  0
LINE
  8
0
 10
356.7
 11
356.755
 20
8.2
 21
8.69
  0
LINE
  8
0
 10
356.755
 11
356.918
 20
8.69
 21
9.155
  0
LINE
  8
0
 10
356.918
 11
357.18
 20
9.155
 21
9.572
  0
LINE
  8
0
 10
357.18
 11
357.528
 20
9.572
 21
9.92
  0
LINE
  8
0
 10
357.528
 11
357.945
 20
9.92
 21
10.182
  0
LINE
  8
0
 10
357.945
 11
358.41
 20
10.182
 21
10.345
  0
LINE
  8
0
 10
358.41
 11
358.9
 20
10.345
 21
10.4
  0
LINE
  8
0
 10
358.9
 11
359.39
 20
10.4
 21
10.345
  0
LINE
  8
0
 10
359.39
 11
359.855
 20
10.345
 21
10.182
  0
LINE
  8
0
 10
359.855
 11
360.272
 20
10.182
 21
9.92
  0
LINE
  8
0
 10
360.272
 11
360.62
 20
9.92
 21
9.572
  0
LINE
  8
0
 10
360.62
 11
360.882
 20
9.572
 21
9.155
  0
LINE
  8
0
 10
360.882
 11
361.045
 20
9.155
 21
8.69
  0
LINE
  8
0
 10
361.045
 11
361.1
 20
8.69
 21
8.2
  0
LINE
  8
0
 10
361.1
 11
361.045
 20
8.2
 21
7.71
  0
LINE
  8
0
 10
361.045
 11
360.882
 20
7.71
 21
7.245
  0
LINE
  8
0
 10
360.882
 11
360.62
 20
7.245
 21
6.828
  0
LINE
  8
0
 10
360.62
 11
360.272
 20
6.828
 21
6.48
  0
LINE
  8
0
 10
360.272
 11
359.855
 20
6.48
 21
6.218
  0
LINE
  8
0
 10
359.855
 11
359.39
 20
6.218
 21
6.055
  0
LINE
  8
0
 10
359.39
 11
358.9
 20
6.055
 21
6
  0
LINE
  8
0
 10
358.9
 11
358.41
 20
6
 21
6.055
  0
LINE
  8
0
 10
358.41
 11
357.945
 20
6.055
 21
6.218
  0
LINE
  8
0
 10
357.945
 11
357.528
 20
6.218
 21
6.48
  0
LINE
  8
0
 10
357.528
 11
357.18
 20
6.48
 21
6.828
  0
LINE
  8
0
 10
357.18
 11
356.918
 20
6.828
 21
7.245
  0
LINE
  8
0
 10
356.918
 11
356.755
 20
7.245
 21
7.71
  0
LINE
  8
0
 10
356.755
 11
356.7
 20
7.71
 21
8.2
  0
ENDSEC
  0
SECTION
  2
OBJECTS
  0
DICTIONARY
  0
ENDSEC
  0
EOF
