  0
SECTION
  2
BLOCKS
  0
ENDSEC
  0
SECTION
  2
ENTITIES
  0
LINE
  8
0
 10
-237.25
 11
-237.25
 20
-201
 21
201
  0
LINE
  8
0
 10
-237.25
 11
-237.212
 20
201
 21
201.872
  0
LINE
  8
0
 10
-237.212
 11
-237.098
 20
201.872
 21
202.736
  0
LINE
  8
0
 10
-237.098
 11
-236.909
 20
202.736
 21
203.588
  0
LINE
  8
0
 10
-236.909
 11
-236.647
 20
203.588
 21
204.42
  0
LINE
  8
0
 10
-236.647
 11
-236.313
 20
204.42
 21
205.226
  0
LINE
  8
0
 10
-236.313
 11
-235.91
 20
205.226
 21
206
  0
LINE
  8
0
 10
-235.91
 11
-235.442
 20
206
 21
206.736
  0
LINE
  8
0
 10
-235.442
 11
-234.91
 20
206.736
 21
207.428
  0
LINE
  8
0
 10
-234.91
 11
-234.321
 20
207.428
 21
208.071
  0
LINE
  8
0
 10
-234.321
 11
-233.678
 20
208.071
 21
208.66
  0
LINE
  8
0
 10
-233.678
 11
-232.986
 20
208.66
 21
209.192
  0
LINE
  8
0
 10
-232.986
 11
-232.25
 20
209.192
 21
209.66
  0
LINE
  8
0
 10
-232.25
 11
-231.476
 20
209.66
 21
210.063
  0
LINE
  8
0
 10
-231.476
 11
-230.67
 20
210.063
 21
210.397
  0
LINE
  8
0
 10
-230.67
 11
-229.838
 20
210.397
 21
210.659
  0
LINE
  8
0
 10
-229.838
 11
-228.986
 20
210.659
 21
210.848
  0
LINE
  8
0
 10
-228.986
 11
-228.122
 20
210.848
 21
210.962
  0
LINE
  8
0
 10
-228.122
 11
-227.25
 20
210.962
 21
211
  0
LINE
  8
0
 10
-227.25
 11
227.25
 20
211
 21
211
  0
LINE
  8
0
 10
227.25
 11
228.122
 20
211
 21
210.962
  0
LINE
  8
0
 10
228.122
 11
228.986
 20
210.962
 21
210.848
  0
LINE
  8
0
 10
228.986
 11
229.838
 20
210.848
 21
210.659
  0
LINE
  8
0
 10
229.838
 11
230.67
 20
210.659
 21
210.397
  0
LINE
  8
0
 10
230.67
 11
231.476
 20
210.397
 21
210.063
  0
LINE
  8
0
 10
231.476
 11
232.25
 20
210.063
 21
209.66
  0
LINE
  8
0
 10
232.25
 11
232.986
 20
209.66
 21
209.192
  0
LINE
  8
0
 10
232.986
 11
233.678
 20
209.192
 21
208.66
  0
LINE
  8
0
 10
233.678
 11
234.321
 20
208.66
 21
208.071
  0
LINE
  8
0
 10
234.321
 11
234.91
 20
208.071
 21
207.428
  0
LINE
  8
0
 10
234.91
 11
235.442
 20
207.428
 21
206.736
  0
LINE
  8
0
 10
235.442
 11
235.91
 20
206.736
 21
206
  0
LINE
  8
0
 10
235.91
 11
236.313
 20
206
 21
205.226
  0
LINE
  8
0
 10
236.313
 11
236.647
 20
205.226
 21
204.42
  0
LINE
  8
0
 10
236.647
 11
236.909
 20
204.42
 21
203.588
  0
LINE
  8
0
 10
236.909
 11
237.098
 20
203.588
 21
202.736
  0
LINE
  8
0
 10
237.098
 11
237.212
 20
202.736
 21
201.872
  0
LINE
  8
0
 10
237.212
 11
237.25
 20
201.872
 21
201
  0
LINE
  8
0
 10
237.25
 11
237.25
 20
201
 21
-201
  0
LINE
  8
0
 10
237.25
 11
237.212
 20
-201
 21
-201.872
  0
LINE
  8
0
 10
237.212
 11
237.098
 20
-201.872
 21
-202.736
  0
LINE
  8
0
 10
237.098
 11
236.909
 20
-202.736
 21
-203.588
  0
LINE
  8
0
 10
236.909
 11
236.647
 20
-203.588
 21
-204.42
  0
LINE
  8
0
 10
236.647
 11
236.313
 20
-204.42
 21
-205.226
  0
LINE
  8
0
 10
236.313
 11
235.91
 20
-205.226
 21
-206
  0
LINE
  8
0
 10
235.91
 11
235.442
 20
-206
 21
-206.736
  0
LINE
  8
0
 10
235.442
 11
234.91
 20
-206.736
 21
-207.428
  0
LINE
  8
0
 10
234.91
 11
234.321
 20
-207.428
 21
-208.071
  0
LINE
  8
0
 10
234.321
 11
233.678
 20
-208.071
 21
-208.66
  0
LINE
  8
0
 10
233.678
 11
232.986
 20
-208.66
 21
-209.192
  0
LINE
  8
0
 10
232.986
 11
232.25
 20
-209.192
 21
-209.66
  0
LINE
  8
0
 10
232.25
 11
231.476
 20
-209.66
 21
-210.063
  0
LINE
  8
0
 10
231.476
 11
230.67
 20
-210.063
 21
-210.397
  0
LINE
  8
0
 10
230.67
 11
229.838
 20
-210.397
 21
-210.659
  0
LINE
  8
0
 10
229.838
 11
228.986
 20
-210.659
 21
-210.848
  0
LINE
  8
0
 10
228.986
 11
228.122
 20
-210.848
 21
-210.962
  0
LINE
  8
0
 10
228.122
 11
227.25
 20
-210.962
 21
-211
  0
LINE
  8
0
 10
227.25
 11
-227.25
 20
-211
 21
-211
  0
LINE
  8
0
 10
-227.25
 11
-228.122
 20
-211
 21
-210.962
  0
LINE
  8
0
 10
-228.122
 11
-228.986
 20
-210.962
 21
-210.848
  0
LINE
  8
0
 10
-228.986
 11
-229.838
 20
-210.848
 21
-210.659
  0
LINE
  8
0
 10
-229.838
 11
-230.67
 20
-210.659
 21
-210.397
  0
LINE
  8
0
 10
-230.67
 11
-231.476
 20
-210.397
 21
-210.063
  0
LINE
  8
0
 10
-231.476
 11
-232.25
 20
-210.063
 21
-209.66
  0
LINE
  8
0
 10
-232.25
 11
-232.986
 20
-209.66
 21
-209.192
  0
LINE
  8
0
 10
-232.986
 11
-233.678
 20
-209.192
 21
-208.66
  0
LINE
  8
0
 10
-233.678
 11
-234.321
 20
-208.66
 21
-208.071
  0
LINE
  8
0
 10
-234.321
 11
-234.91
 20
-208.071
 21
-207.428
  0
LINE
  8
0
 10
-234.91
 11
-235.442
 20
-207.428
 21
-206.736
  0
LINE
  8
0
 10
-235.442
 11
-235.91
 20
-206.736
 21
-206
  0
LINE
  8
0
 10
-235.91
 11
-236.313
 20
-206
 21
-205.226
  0
LINE
  8
0
 10
-236.313
 11
-236.647
 20
-205.226
 21
-204.42
  0
LINE
  8
0
 10
-236.647
 11
-236.909
 20
-204.42
 21
-203.588
  0
LINE
  8
0
 10
-236.909
 11
-237.098
 20
-203.588
 21
-202.736
  0
LINE
  8
0
 10
-237.098
 11
-237.212
 20
-202.736
 21
-201.872
  0
LINE
  8
0
 10
-237.212
 11
-237.25
 20
-201.872
 21
-201
  0
LINE
  8
0
 10
-219.14
 11
-219.085
 20
64.7
 21
65.19
  0
LINE
  8
0
 10
-219.085
 11
-218.922
 20
65.19
 21
65.655
  0
LINE
  8
0
 10
-218.922
 11
-218.66
 20
65.655
 21
66.072
  0
LINE
  8
0
 10
-218.66
 11
-218.312
 20
66.072
 21
66.42
  0
LINE
  8
0
 10
-218.312
 11
-217.895
 20
66.42
 21
66.682
  0
LINE
  8
0
 10
-217.895
 11
-217.43
 20
66.682
 21
66.845
  0
LINE
  8
0
 10
-217.43
 11
-216.94
 20
66.845
 21
66.9
  0
LINE
  8
0
 10
-216.94
 11
-216.45
 20
66.9
 21
66.845
  0
LINE
  8
0
 10
-216.45
 11
-215.985
 20
66.845
 21
66.682
  0
LINE
  8
0
 10
-215.985
 11
-215.568
 20
66.682
 21
66.42
  0
LINE
  8
0
 10
-215.568
 11
-215.22
 20
66.42
 21
66.072
  0
LINE
  8
0
 10
-215.22
 11
-214.958
 20
66.072
 21
65.655
  0
LINE
  8
0
 10
-214.958
 11
-214.795
 20
65.655
 21
65.19
  0
LINE
  8
0
 10
-214.795
 11
-214.74
 20
65.19
 21
64.7
  0
LINE
  8
0
 10
-214.74
 11
-214.795
 20
64.7
 21
64.21
  0
LINE
  8
0
 10
-214.795
 11
-214.958
 20
64.21
 21
63.745
  0
LINE
  8
0
 10
-214.958
 11
-215.22
 20
63.745
 21
63.328
  0
LINE
  8
0
 10
-215.22
 11
-215.568
 20
63.328
 21
62.98
  0
LINE
  8
0
 10
-215.568
 11
-215.985
 20
62.98
 21
62.718
  0
LINE
  8
0
 10
-215.985
 11
-216.45
 20
62.718
 21
62.555
  0
LINE
  8
0
 10
-216.45
 11
-216.94
 20
62.555
 21
62.5
  0
LINE
  8
0
 10
-216.94
 11
-217.43
 20
62.5
 21
62.555
  0
LINE
  8
0
 10
-217.43
 11
-217.895
 20
62.555
 21
62.718
  0
LINE
  8
0
 10
-217.895
 11
-218.312
 20
62.718
 21
62.98
  0
LINE
  8
0
 10
-218.312
 11
-218.66
 20
62.98
 21
63.328
  0
LINE
  8
0
 10
-218.66
 11
-218.922
 20
63.328
 21
63.745
  0
LINE
  8
0
 10
-218.922
 11
-219.085
 20
63.745
 21
64.21
  0
LINE
  8
0
 10
-219.085
 11
-219.14
 20
64.21
 21
64.7
  0
LINE
  8
0
 10
-208.742
 11
-208.742
 20
-0.246
 21
0.246
  0
LINE
  8
0
 10
-208.742
 11
-208.682
 20
0.246
 21
0.735
  0
LINE
  8
0
 10
-208.682
 11
-208.562
 20
0.735
 21
1.213
  0
LINE
  8
0
 10
-208.562
 11
-208.384
 20
1.213
 21
1.672
  0
LINE
  8
0
 10
-208.384
 11
-208.151
 20
1.672
 21
2.106
  0
LINE
  8
0
 10
-208.151
 11
-207.866
 20
2.106
 21
2.508
  0
LINE
  8
0
 10
-207.866
 11
-207.535
 20
2.508
 21
2.872
  0
LINE
  8
0
 10
-207.535
 11
-207.161
 20
2.872
 21
3.192
  0
LINE
  8
0
 10
-207.161
 11
-206.75
 20
3.192
 21
3.464
  0
LINE
  8
0
 10
-206.75
 11
-206.309
 20
3.464
 21
3.684
  0
LINE
  8
0
 10
-206.309
 11
-205.845
 20
3.684
 21
3.847
  0
LINE
  8
0
 10
-205.845
 11
-205.364
 20
3.847
 21
3.953
  0
LINE
  8
0
 10
-205.364
 11
-204.873
 20
3.953
 21
3.998
  0
LINE
  8
0
 10
-204.873
 11
-204.381
 20
3.998
 21
3.983
  0
LINE
  8
0
 10
-204.381
 11
-203.894
 20
3.983
 21
3.907
  0
LINE
  8
0
 10
-203.894
 11
-203.421
 20
3.907
 21
3.773
  0
LINE
  8
0
 10
-203.421
 11
-202.967
 20
3.773
 21
3.581
  0
LINE
  8
0
 10
-202.967
 11
-202.541
 20
3.581
 21
3.334
  0
LINE
  8
0
 10
-202.541
 11
-202.148
 20
3.334
 21
3.038
  0
LINE
  8
0
 10
-202.148
 11
-201.794
 20
3.038
 21
2.695
  0
LINE
  8
0
 10
-201.794
 11
-201.485
 20
2.695
 21
2.311
  0
LINE
  8
0
 10
-201.485
 11
-201.226
 20
2.311
 21
1.892
  0
LINE
  8
0
 10
-201.226
 11
-201.02
 20
1.892
 21
1.445
  0
LINE
  8
0
 10
-201.02
 11
-200.871
 20
1.445
 21
0.976
  0
LINE
  8
0
 10
-200.871
 11
-200.78
 20
0.976
 21
0.492
  0
LINE
  8
0
 10
-200.78
 11
-200.75
 20
0.492
 21
0
  0
LINE
  8
0
 10
-200.75
 11
-200.78
 20
0
 21
-0.492
  0
LINE
  8
0
 10
-200.78
 11
-200.871
 20
-0.492
 21
-0.976
  0
LINE
  8
0
 10
-200.871
 11
-201.02
 20
-0.976
 21
-1.445
  0
LINE
  8
0
 10
-201.02
 11
-201.226
 20
-1.445
 21
-1.892
  0
LINE
  8
0
 10
-201.226
 11
-201.485
 20
-1.892
 21
-2.311
  0
LINE
  8
0
 10
-201.485
 11
-201.794
 20
-2.311
 21
-2.695
  0
LINE
  8
0
 10
-201.794
 11
-202.148
 20
-2.695
 21
-3.038
  0
LINE
  8
0
 10
-202.148
 11
-202.541
 20
-3.038
 21
-3.334
  0
LINE
  8
0
 10
-202.541
 11
-202.967
 20
-3.334
 21
-3.581
  0
LINE
  8
0
 10
-202.967
 11
-203.421
 20
-3.581
 21
-3.773
  0
LINE
  8
0
 10
-203.421
 11
-203.894
 20
-3.773
 21
-3.907
  0
LINE
  8
0
 10
-203.894
 11
-204.381
 20
-3.907
 21
-3.983
  0
LINE
  8
0
 10
-204.381
 11
-204.873
 20
-3.983
 21
-3.998
  0
LINE
  8
0
 10
-204.873
 11
-205.364
 20
-3.998
 21
-3.953
  0
LINE
  8
0
 10
-205.364
 11
-205.845
 20
-3.953
 21
-3.847
  0
LINE
  8
0
 10
-205.845
 11
-206.309
 20
-3.847
 21
-3.684
  0
LINE
  8
0
 10
-206.309
 11
-206.75
 20
-3.684
 21
-3.464
  0
LINE
  8
0
 10
-206.75
 11
-207.161
 20
-3.464
 21
-3.192
  0
LINE
  8
0
 10
-207.161
 11
-207.535
 20
-3.192
 21
-2.872
  0
LINE
  8
0
 10
-207.535
 11
-207.866
 20
-2.872
 21
-2.508
  0
LINE
  8
0
 10
-207.866
 11
-208.151
 20
-2.508
 21
-2.106
  0
LINE
  8
0
 10
-208.151
 11
-208.384
 20
-2.106
 21
-1.672
  0
LINE
  8
0
 10
-208.384
 11
-208.562
 20
-1.672
 21
-1.213
  0
LINE
  8
0
 10
-208.562
 11
-208.682
 20
-1.213
 21
-0.735
  0
LINE
  8
0
 10
-208.682
 11
-208.742
 20
-0.735
 21
-0.246
  0
LINE
  8
0
 10
-165.25
 11
-165.195
 20
-190.69
 21
-190.2
  0
LINE
  8
0
 10
-165.195
 11
-165.032
 20
-190.2
 21
-189.735
  0
LINE
  8
0
 10
-165.032
 11
-164.77
 20
-189.735
 21
-189.318
  0
LINE
  8
0
 10
-164.77
 11
-164.422
 20
-189.318
 21
-188.97
  0
LINE
  8
0
 10
-164.422
 11
-164.005
 20
-188.97
 21
-188.708
  0
LINE
  8
0
 10
-164.005
 11
-163.54
 20
-188.708
 21
-188.545
  0
LINE
  8
0
 10
-163.54
 11
-163.05
 20
-188.545
 21
-188.49
  0
LINE
  8
0
 10
-163.05
 11
-162.56
 20
-188.49
 21
-188.545
  0
LINE
  8
0
 10
-162.56
 11
-162.095
 20
-188.545
 21
-188.708
  0
LINE
  8
0
 10
-162.095
 11
-161.678
 20
-188.708
 21
-188.97
  0
LINE
  8
0
 10
-161.678
 11
-161.33
 20
-188.97
 21
-189.318
  0
LINE
  8
0
 10
-161.33
 11
-161.068
 20
-189.318
 21
-189.735
  0
LINE
  8
0
 10
-161.068
 11
-160.905
 20
-189.735
 21
-190.2
  0
LINE
  8
0
 10
-160.905
 11
-160.85
 20
-190.2
 21
-190.69
  0
LINE
  8
0
 10
-160.85
 11
-160.905
 20
-190.69
 21
-191.18
  0
LINE
  8
0
 10
-160.905
 11
-161.068
 20
-191.18
 21
-191.645
  0
LINE
  8
0
 10
-161.068
 11
-161.33
 20
-191.645
 21
-192.062
  0
LINE
  8
0
 10
-161.33
 11
-161.678
 20
-192.062
 21
-192.41
  0
LINE
  8
0
 10
-161.678
 11
-162.095
 20
-192.41
 21
-192.672
  0
LINE
  8
0
 10
-162.095
 11
-162.56
 20
-192.672
 21
-192.835
  0
LINE
  8
0
 10
-162.56
 11
-163.05
 20
-192.835
 21
-192.89
  0
LINE
  8
0
 10
-163.05
 11
-163.54
 20
-192.89
 21
-192.835
  0
LINE
  8
0
 10
-163.54
 11
-164.005
 20
-192.835
 21
-192.672
  0
LINE
  8
0
 10
-164.005
 11
-164.422
 20
-192.672
 21
-192.41
  0
LINE
  8
0
 10
-164.422
 11
-164.77
 20
-192.41
 21
-192.062
  0
LINE
  8
0
 10
-164.77
 11
-165.032
 20
-192.062
 21
-191.645
  0
LINE
  8
0
 10
-165.032
 11
-165.195
 20
-191.645
 21
-191.18
  0
LINE
  8
0
 10
-165.195
 11
-165.25
 20
-191.18
 21
-190.69
  0
LINE
  8
0
 10
-165.25
 11
-165.195
 20
190.69
 21
191.18
  0
LINE
  8
0
 10
-165.195
 11
-165.032
 20
191.18
 21
191.645
  0
LINE
  8
0
 10
-165.032
 11
-164.77
 20
191.645
 21
192.062
  0
LINE
  8
0
 10
-164.77
 11
-164.422
 20
192.062
 21
192.41
  0
LINE
  8
0
 10
-164.422
 11
-164.005
 20
192.41
 21
192.672
  0
LINE
  8
0
 10
-164.005
 11
-163.54
 20
192.672
 21
192.835
  0
LINE
  8
0
 10
-163.54
 11
-163.05
 20
192.835
 21
192.89
  0
LINE
  8
0
 10
-163.05
 11
-162.56
 20
192.89
 21
192.835
  0
LINE
  8
0
 10
-162.56
 11
-162.095
 20
192.835
 21
192.672
  0
LINE
  8
0
 10
-162.095
 11
-161.678
 20
192.672
 21
192.41
  0
LINE
  8
0
 10
-161.678
 11
-161.33
 20
192.41
 21
192.062
  0
LINE
  8
0
 10
-161.33
 11
-161.068
 20
192.062
 21
191.645
  0
LINE
  8
0
 10
-161.068
 11
-160.905
 20
191.645
 21
191.18
  0
LINE
  8
0
 10
-160.905
 11
-160.85
 20
191.18
 21
190.69
  0
LINE
  8
0
 10
-160.85
 11
-160.905
 20
190.69
 21
190.2
  0
LINE
  8
0
 10
-160.905
 11
-161.068
 20
190.2
 21
189.735
  0
LINE
  8
0
 10
-161.068
 11
-161.33
 20
189.735
 21
189.318
  0
LINE
  8
0
 10
-161.33
 11
-161.678
 20
189.318
 21
188.97
  0
LINE
  8
0
 10
-161.678
 11
-162.095
 20
188.97
 21
188.708
  0
LINE
  8
0
 10
-162.095
 11
-162.56
 20
188.708
 21
188.545
  0
LINE
  8
0
 10
-162.56
 11
-163.05
 20
188.545
 21
188.49
  0
LINE
  8
0
 10
-163.05
 11
-163.54
 20
188.49
 21
188.545
  0
LINE
  8
0
 10
-163.54
 11
-164.005
 20
188.545
 21
188.708
  0
LINE
  8
0
 10
-164.005
 11
-164.422
 20
188.708
 21
188.97
  0
LINE
  8
0
 10
-164.422
 11
-164.77
 20
188.97
 21
189.318
  0
LINE
  8
0
 10
-164.77
 11
-165.032
 20
189.318
 21
189.735
  0
LINE
  8
0
 10
-165.032
 11
-165.195
 20
189.735
 21
190.2
  0
LINE
  8
0
 10
-165.195
 11
-165.25
 20
190.2
 21
190.69
  0
LINE
  8
0
 10
-153.76
 11
-153.705
 20
64.7
 21
65.19
  0
LINE
  8
0
 10
-153.705
 11
-153.542
 20
65.19
 21
65.655
  0
LINE
  8
0
 10
-153.542
 11
-153.28
 20
65.655
 21
66.072
  0
LINE
  8
0
 10
-153.28
 11
-152.932
 20
66.072
 21
66.42
  0
LINE
  8
0
 10
-152.932
 11
-152.515
 20
66.42
 21
66.682
  0
LINE
  8
0
 10
-152.515
 11
-152.05
 20
66.682
 21
66.845
  0
LINE
  8
0
 10
-152.05
 11
-151.56
 20
66.845
 21
66.9
  0
LINE
  8
0
 10
-151.56
 11
-151.07
 20
66.9
 21
66.845
  0
LINE
  8
0
 10
-151.07
 11
-150.605
 20
66.845
 21
66.682
  0
LINE
  8
0
 10
-150.605
 11
-150.188
 20
66.682
 21
66.42
  0
LINE
  8
0
 10
-150.188
 11
-149.84
 20
66.42
 21
66.072
  0
LINE
  8
0
 10
-149.84
 11
-149.578
 20
66.072
 21
65.655
  0
LINE
  8
0
 10
-149.578
 11
-149.415
 20
65.655
 21
65.19
  0
LINE
  8
0
 10
-149.415
 11
-149.36
 20
65.19
 21
64.7
  0
LINE
  8
0
 10
-149.36
 11
-149.415
 20
64.7
 21
64.21
  0
LINE
  8
0
 10
-149.415
 11
-149.578
 20
64.21
 21
63.745
  0
LINE
  8
0
 10
-149.578
 11
-149.84
 20
63.745
 21
63.328
  0
LINE
  8
0
 10
-149.84
 11
-150.188
 20
63.328
 21
62.98
  0
LINE
  8
0
 10
-150.188
 11
-150.605
 20
62.98
 21
62.718
  0
LINE
  8
0
 10
-150.605
 11
-151.07
 20
62.718
 21
62.555
  0
LINE
  8
0
 10
-151.07
 11
-151.56
 20
62.555
 21
62.5
  0
LINE
  8
0
 10
-151.56
 11
-152.05
 20
62.5
 21
62.555
  0
LINE
  8
0
 10
-152.05
 11
-152.515
 20
62.555
 21
62.718
  0
LINE
  8
0
 10
-152.515
 11
-152.932
 20
62.718
 21
62.98
  0
LINE
  8
0
 10
-152.932
 11
-153.28
 20
62.98
 21
63.328
  0
LINE
  8
0
 10
-153.28
 11
-153.542
 20
63.328
 21
63.745
  0
LINE
  8
0
 10
-153.542
 11
-153.705
 20
63.745
 21
64.21
  0
LINE
  8
0
 10
-153.705
 11
-153.76
 20
64.21
 21
64.7
  0
LINE
  8
0
 10
-106.45
 11
-106.395
 20
-202.5
 21
-202.01
  0
LINE
  8
0
 10
-106.395
 11
-106.232
 20
-202.01
 21
-201.545
  0
LINE
  8
0
 10
-106.232
 11
-105.97
 20
-201.545
 21
-201.128
  0
LINE
  8
0
 10
-105.97
 11
-105.622
 20
-201.128
 21
-200.78
  0
LINE
  8
0
 10
-105.622
 11
-105.205
 20
-200.78
 21
-200.518
  0
LINE
  8
0
 10
-105.205
 11
-104.74
 20
-200.518
 21
-200.355
  0
LINE
  8
0
 10
-104.74
 11
-104.25
 20
-200.355
 21
-200.3
  0
LINE
  8
0
 10
-104.25
 11
-103.76
 20
-200.3
 21
-200.355
  0
LINE
  8
0
 10
-103.76
 11
-103.295
 20
-200.355
 21
-200.518
  0
LINE
  8
0
 10
-103.295
 11
-102.878
 20
-200.518
 21
-200.78
  0
LINE
  8
0
 10
-102.878
 11
-102.53
 20
-200.78
 21
-201.128
  0
LINE
  8
0
 10
-102.53
 11
-102.268
 20
-201.128
 21
-201.545
  0
LINE
  8
0
 10
-102.268
 11
-102.105
 20
-201.545
 21
-202.01
  0
LINE
  8
0
 10
-102.105
 11
-102.05
 20
-202.01
 21
-202.5
  0
LINE
  8
0
 10
-102.05
 11
-102.105
 20
-202.5
 21
-202.99
  0
LINE
  8
0
 10
-102.105
 11
-102.268
 20
-202.99
 21
-203.455
  0
LINE
  8
0
 10
-102.268
 11
-102.53
 20
-203.455
 21
-203.872
  0
LINE
  8
0
 10
-102.53
 11
-102.878
 20
-203.872
 21
-204.22
  0
LINE
  8
0
 10
-102.878
 11
-103.295
 20
-204.22
 21
-204.482
  0
LINE
  8
0
 10
-103.295
 11
-103.76
 20
-204.482
 21
-204.645
  0
LINE
  8
0
 10
-103.76
 11
-104.25
 20
-204.645
 21
-204.7
  0
LINE
  8
0
 10
-104.25
 11
-104.74
 20
-204.7
 21
-204.645
  0
LINE
  8
0
 10
-104.74
 11
-105.205
 20
-204.645
 21
-204.482
  0
LINE
  8
0
 10
-105.205
 11
-105.622
 20
-204.482
 21
-204.22
  0
LINE
  8
0
 10
-105.622
 11
-105.97
 20
-204.22
 21
-203.872
  0
LINE
  8
0
 10
-105.97
 11
-106.232
 20
-203.872
 21
-203.455
  0
LINE
  8
0
 10
-106.232
 11
-106.395
 20
-203.455
 21
-202.99
  0
LINE
  8
0
 10
-106.395
 11
-106.45
 20
-202.99
 21
-202.5
  0
LINE
  8
0
 10
-106.45
 11
-106.395
 20
202.5
 21
202.99
  0
LINE
  8
0
 10
-106.395
 11
-106.232
 20
202.99
 21
203.455
  0
LINE
  8
0
 10
-106.232
 11
-105.97
 20
203.455
 21
203.872
  0
LINE
  8
0
 10
-105.97
 11
-105.622
 20
203.872
 21
204.22
  0
LINE
  8
0
 10
-105.622
 11
-105.205
 20
204.22
 21
204.482
  0
LINE
  8
0
 10
-105.205
 11
-104.74
 20
204.482
 21
204.645
  0
LINE
  8
0
 10
-104.74
 11
-104.25
 20
204.645
 21
204.7
  0
LINE
  8
0
 10
-104.25
 11
-103.76
 20
204.7
 21
204.645
  0
LINE
  8
0
 10
-103.76
 11
-103.295
 20
204.645
 21
204.482
  0
LINE
  8
0
 10
-103.295
 11
-102.878
 20
204.482
 21
204.22
  0
LINE
  8
0
 10
-102.878
 11
-102.53
 20
204.22
 21
203.872
  0
LINE
  8
0
 10
-102.53
 11
-102.268
 20
203.872
 21
203.455
  0
LINE
  8
0
 10
-102.268
 11
-102.105
 20
203.455
 21
202.99
  0
LINE
  8
0
 10
-102.105
 11
-102.05
 20
202.99
 21
202.5
  0
LINE
  8
0
 10
-102.05
 11
-102.105
 20
202.5
 21
202.01
  0
LINE
  8
0
 10
-102.105
 11
-102.268
 20
202.01
 21
201.545
  0
LINE
  8
0
 10
-102.268
 11
-102.53
 20
201.545
 21
201.128
  0
LINE
  8
0
 10
-102.53
 11
-102.878
 20
201.128
 21
200.78
  0
LINE
  8
0
 10
-102.878
 11
-103.295
 20
200.78
 21
200.518
  0
LINE
  8
0
 10
-103.295
 11
-103.76
 20
200.518
 21
200.355
  0
LINE
  8
0
 10
-103.76
 11
-104.25
 20
200.355
 21
200.3
  0
LINE
  8
0
 10
-104.25
 11
-104.74
 20
200.3
 21
200.355
  0
LINE
  8
0
 10
-104.74
 11
-105.205
 20
200.355
 21
200.518
  0
LINE
  8
0
 10
-105.205
 11
-105.622
 20
200.518
 21
200.78
  0
LINE
  8
0
 10
-105.622
 11
-105.97
 20
200.78
 21
201.128
  0
LINE
  8
0
 10
-105.97
 11
-106.232
 20
201.128
 21
201.545
  0
LINE
  8
0
 10
-106.232
 11
-106.395
 20
201.545
 21
202.01
  0
LINE
  8
0
 10
-106.395
 11
-106.45
 20
202.01
 21
202.5
  0
LINE
  8
0
 10
-71.45
 11
-71.395
 20
-202.5
 21
-202.01
  0
LINE
  8
0
 10
-71.395
 11
-71.232
 20
-202.01
 21
-201.545
  0
LINE
  8
0
 10
-71.232
 11
-70.97
 20
-201.545
 21
-201.128
  0
LINE
  8
0
 10
-70.97
 11
-70.622
 20
-201.128
 21
-200.78
  0
LINE
  8
0
 10
-70.622
 11
-70.205
 20
-200.78
 21
-200.518
  0
LINE
  8
0
 10
-70.205
 11
-69.74
 20
-200.518
 21
-200.355
  0
LINE
  8
0
 10
-69.74
 11
-69.25
 20
-200.355
 21
-200.3
  0
LINE
  8
0
 10
-69.25
 11
-68.76
 20
-200.3
 21
-200.355
  0
LINE
  8
0
 10
-68.76
 11
-68.295
 20
-200.355
 21
-200.518
  0
LINE
  8
0
 10
-68.295
 11
-67.878
 20
-200.518
 21
-200.78
  0
LINE
  8
0
 10
-67.878
 11
-67.53
 20
-200.78
 21
-201.128
  0
LINE
  8
0
 10
-67.53
 11
-67.268
 20
-201.128
 21
-201.545
  0
LINE
  8
0
 10
-67.268
 11
-67.105
 20
-201.545
 21
-202.01
  0
LINE
  8
0
 10
-67.105
 11
-67.05
 20
-202.01
 21
-202.5
  0
LINE
  8
0
 10
-67.05
 11
-67.105
 20
-202.5
 21
-202.99
  0
LINE
  8
0
 10
-67.105
 11
-67.268
 20
-202.99
 21
-203.455
  0
LINE
  8
0
 10
-67.268
 11
-67.53
 20
-203.455
 21
-203.872
  0
LINE
  8
0
 10
-67.53
 11
-67.878
 20
-203.872
 21
-204.22
  0
LINE
  8
0
 10
-67.878
 11
-68.295
 20
-204.22
 21
-204.482
  0
LINE
  8
0
 10
-68.295
 11
-68.76
 20
-204.482
 21
-204.645
  0
LINE
  8
0
 10
-68.76
 11
-69.25
 20
-204.645
 21
-204.7
  0
LINE
  8
0
 10
-69.25
 11
-69.74
 20
-204.7
 21
-204.645
  0
LINE
  8
0
 10
-69.74
 11
-70.205
 20
-204.645
 21
-204.482
  0
LINE
  8
0
 10
-70.205
 11
-70.622
 20
-204.482
 21
-204.22
  0
LINE
  8
0
 10
-70.622
 11
-70.97
 20
-204.22
 21
-203.872
  0
LINE
  8
0
 10
-70.97
 11
-71.232
 20
-203.872
 21
-203.455
  0
LINE
  8
0
 10
-71.232
 11
-71.395
 20
-203.455
 21
-202.99
  0
LINE
  8
0
 10
-71.395
 11
-71.45
 20
-202.99
 21
-202.5
  0
LINE
  8
0
 10
-71.45
 11
-71.395
 20
202.5
 21
202.99
  0
LINE
  8
0
 10
-71.395
 11
-71.232
 20
202.99
 21
203.455
  0
LINE
  8
0
 10
-71.232
 11
-70.97
 20
203.455
 21
203.872
  0
LINE
  8
0
 10
-70.97
 11
-70.622
 20
203.872
 21
204.22
  0
LINE
  8
0
 10
-70.622
 11
-70.205
 20
204.22
 21
204.482
  0
LINE
  8
0
 10
-70.205
 11
-69.74
 20
204.482
 21
204.645
  0
LINE
  8
0
 10
-69.74
 11
-69.25
 20
204.645
 21
204.7
  0
LINE
  8
0
 10
-69.25
 11
-68.76
 20
204.7
 21
204.645
  0
LINE
  8
0
 10
-68.76
 11
-68.295
 20
204.645
 21
204.482
  0
LINE
  8
0
 10
-68.295
 11
-67.878
 20
204.482
 21
204.22
  0
LINE
  8
0
 10
-67.878
 11
-67.53
 20
204.22
 21
203.872
  0
LINE
  8
0
 10
-67.53
 11
-67.268
 20
203.872
 21
203.455
  0
LINE
  8
0
 10
-67.268
 11
-67.105
 20
203.455
 21
202.99
  0
LINE
  8
0
 10
-67.105
 11
-67.05
 20
202.99
 21
202.5
  0
LINE
  8
0
 10
-67.05
 11
-67.105
 20
202.5
 21
202.01
  0
LINE
  8
0
 10
-67.105
 11
-67.268
 20
202.01
 21
201.545
  0
LINE
  8
0
 10
-67.268
 11
-67.53
 20
201.545
 21
201.128
  0
LINE
  8
0
 10
-67.53
 11
-67.878
 20
201.128
 21
200.78
  0
LINE
  8
0
 10
-67.878
 11
-68.295
 20
200.78
 21
200.518
  0
LINE
  8
0
 10
-68.295
 11
-68.76
 20
200.518
 21
200.355
  0
LINE
  8
0
 10
-68.76
 11
-69.25
 20
200.355
 21
200.3
  0
LINE
  8
0
 10
-69.25
 11
-69.74
 20
200.3
 21
200.355
  0
LINE
  8
0
 10
-69.74
 11
-70.205
 20
200.355
 21
200.518
  0
LINE
  8
0
 10
-70.205
 11
-70.622
 20
200.518
 21
200.78
  0
LINE
  8
0
 10
-70.622
 11
-70.97
 20
200.78
 21
201.128
  0
LINE
  8
0
 10
-70.97
 11
-71.232
 20
201.128
 21
201.545
  0
LINE
  8
0
 10
-71.232
 11
-71.395
 20
201.545
 21
202.01
  0
LINE
  8
0
 10
-71.395
 11
-71.45
 20
202.01
 21
202.5
  0
LINE
  8
0
 10
-40.46
 11
-40.405
 20
188.5
 21
188.99
  0
LINE
  8
0
 10
-40.405
 11
-40.242
 20
188.99
 21
189.455
  0
LINE
  8
0
 10
-40.242
 11
-39.98
 20
189.455
 21
189.872
  0
LINE
  8
0
 10
-39.98
 11
-39.632
 20
189.872
 21
190.22
  0
LINE
  8
0
 10
-39.632
 11
-39.215
 20
190.22
 21
190.482
  0
LINE
  8
0
 10
-39.215
 11
-38.75
 20
190.482
 21
190.645
  0
LINE
  8
0
 10
-38.75
 11
-38.26
 20
190.645
 21
190.7
  0
LINE
  8
0
 10
-38.26
 11
-37.77
 20
190.7
 21
190.645
  0
LINE
  8
0
 10
-37.77
 11
-37.305
 20
190.645
 21
190.482
  0
LINE
  8
0
 10
-37.305
 11
-36.888
 20
190.482
 21
190.22
  0
LINE
  8
0
 10
-36.888
 11
-36.54
 20
190.22
 21
189.872
  0
LINE
  8
0
 10
-36.54
 11
-36.278
 20
189.872
 21
189.455
  0
LINE
  8
0
 10
-36.278
 11
-36.115
 20
189.455
 21
188.99
  0
LINE
  8
0
 10
-36.115
 11
-36.06
 20
188.99
 21
188.5
  0
LINE
  8
0
 10
-36.06
 11
-36.115
 20
188.5
 21
188.01
  0
LINE
  8
0
 10
-36.115
 11
-36.278
 20
188.01
 21
187.545
  0
LINE
  8
0
 10
-36.278
 11
-36.54
 20
187.545
 21
187.128
  0
LINE
  8
0
 10
-36.54
 11
-36.888
 20
187.128
 21
186.78
  0
LINE
  8
0
 10
-36.888
 11
-37.305
 20
186.78
 21
186.518
  0
LINE
  8
0
 10
-37.305
 11
-37.77
 20
186.518
 21
186.355
  0
LINE
  8
0
 10
-37.77
 11
-38.26
 20
186.355
 21
186.3
  0
LINE
  8
0
 10
-38.26
 11
-38.75
 20
186.3
 21
186.355
  0
LINE
  8
0
 10
-38.75
 11
-39.215
 20
186.355
 21
186.518
  0
LINE
  8
0
 10
-39.215
 11
-39.632
 20
186.518
 21
186.78
  0
LINE
  8
0
 10
-39.632
 11
-39.98
 20
186.78
 21
187.128
  0
LINE
  8
0
 10
-39.98
 11
-40.242
 20
187.128
 21
187.545
  0
LINE
  8
0
 10
-40.242
 11
-40.405
 20
187.545
 21
188.01
  0
LINE
  8
0
 10
-40.405
 11
-40.46
 20
188.01
 21
188.5
  0
LINE
  8
0
 10
-30.16
 11
-30.105
 20
96.8
 21
97.29
  0
LINE
  8
0
 10
-30.105
 11
-29.942
 20
97.29
 21
97.755
  0
LINE
  8
0
 10
-29.942
 11
-29.68
 20
97.755
 21
98.172
  0
LINE
  8
0
 10
-29.68
 11
-29.332
 20
98.172
 21
98.52
  0
LINE
  8
0
 10
-29.332
 11
-28.915
 20
98.52
 21
98.782
  0
LINE
  8
0
 10
-28.915
 11
-28.45
 20
98.782
 21
98.945
  0
LINE
  8
0
 10
-28.45
 11
-27.96
 20
98.945
 21
99
  0
LINE
  8
0
 10
-27.96
 11
-27.47
 20
99
 21
98.945
  0
LINE
  8
0
 10
-27.47
 11
-27.005
 20
98.945
 21
98.782
  0
LINE
  8
0
 10
-27.005
 11
-26.588
 20
98.782
 21
98.52
  0
LINE
  8
0
 10
-26.588
 11
-26.24
 20
98.52
 21
98.172
  0
LINE
  8
0
 10
-26.24
 11
-25.978
 20
98.172
 21
97.755
  0
LINE
  8
0
 10
-25.978
 11
-25.815
 20
97.755
 21
97.29
  0
LINE
  8
0
 10
-25.815
 11
-25.76
 20
97.29
 21
96.8
  0
LINE
  8
0
 10
-25.76
 11
-25.815
 20
96.8
 21
96.31
  0
LINE
  8
0
 10
-25.815
 11
-25.978
 20
96.31
 21
95.845
  0
LINE
  8
0
 10
-25.978
 11
-26.24
 20
95.845
 21
95.428
  0
LINE
  8
0
 10
-26.24
 11
-26.588
 20
95.428
 21
95.08
  0
LINE
  8
0
 10
-26.588
 11
-27.005
 20
95.08
 21
94.818
  0
LINE
  8
0
 10
-27.005
 11
-27.47
 20
94.818
 21
94.655
  0
LINE
  8
0
 10
-27.47
 11
-27.96
 20
94.655
 21
94.6
  0
LINE
  8
0
 10
-27.96
 11
-28.45
 20
94.6
 21
94.655
  0
LINE
  8
0
 10
-28.45
 11
-28.915
 20
94.655
 21
94.818
  0
LINE
  8
0
 10
-28.915
 11
-29.332
 20
94.818
 21
95.08
  0
LINE
  8
0
 10
-29.332
 11
-29.68
 20
95.08
 21
95.428
  0
LINE
  8
0
 10
-29.68
 11
-29.942
 20
95.428
 21
95.845
  0
LINE
  8
0
 10
-29.942
 11
-30.105
 20
95.845
 21
96.31
  0
LINE
  8
0
 10
-30.105
 11
-30.16
 20
96.31
 21
96.8
  0
LINE
  8
0
 10
-21.96
 11
-21.905
 20
-203.5
 21
-203.01
  0
LINE
  8
0
 10
-21.905
 11
-21.742
 20
-203.01
 21
-202.545
  0
LINE
  8
0
 10
-21.742
 11
-21.48
 20
-202.545
 21
-202.128
  0
LINE
  8
0
 10
-21.48
 11
-21.132
 20
-202.128
 21
-201.78
  0
LINE
  8
0
 10
-21.132
 11
-20.715
 20
-201.78
 21
-201.518
  0
LINE
  8
0
 10
-20.715
 11
-20.25
 20
-201.518
 21
-201.355
  0
LINE
  8
0
 10
-20.25
 11
-19.76
 20
-201.355
 21
-201.3
  0
LINE
  8
0
 10
-19.76
 11
-19.27
 20
-201.3
 21
-201.355
  0
LINE
  8
0
 10
-19.27
 11
-18.805
 20
-201.355
 21
-201.518
  0
LINE
  8
0
 10
-18.805
 11
-18.388
 20
-201.518
 21
-201.78
  0
LINE
  8
0
 10
-18.388
 11
-18.04
 20
-201.78
 21
-202.128
  0
LINE
  8
0
 10
-18.04
 11
-17.778
 20
-202.128
 21
-202.545
  0
LINE
  8
0
 10
-17.778
 11
-17.615
 20
-202.545
 21
-203.01
  0
LINE
  8
0
 10
-17.615
 11
-17.56
 20
-203.01
 21
-203.5
  0
LINE
  8
0
 10
-17.56
 11
-17.615
 20
-203.5
 21
-203.99
  0
LINE
  8
0
 10
-17.615
 11
-17.778
 20
-203.99
 21
-204.455
  0
LINE
  8
0
 10
-17.778
 11
-18.04
 20
-204.455
 21
-204.872
  0
LINE
  8
0
 10
-18.04
 11
-18.388
 20
-204.872
 21
-205.22
  0
LINE
  8
0
 10
-18.388
 11
-18.805
 20
-205.22
 21
-205.482
  0
LINE
  8
0
 10
-18.805
 11
-19.27
 20
-205.482
 21
-205.645
  0
LINE
  8
0
 10
-19.27
 11
-19.76
 20
-205.645
 21
-205.7
  0
LINE
  8
0
 10
-19.76
 11
-20.25
 20
-205.7
 21
-205.645
  0
LINE
  8
0
 10
-20.25
 11
-20.715
 20
-205.645
 21
-205.482
  0
LINE
  8
0
 10
-20.715
 11
-21.132
 20
-205.482
 21
-205.22
  0
LINE
  8
0
 10
-21.132
 11
-21.48
 20
-205.22
 21
-204.872
  0
LINE
  8
0
 10
-21.48
 11
-21.742
 20
-204.872
 21
-204.455
  0
LINE
  8
0
 10
-21.742
 11
-21.905
 20
-204.455
 21
-203.99
  0
LINE
  8
0
 10
-21.905
 11
-21.96
 20
-203.99
 21
-203.5
  0
LINE
  8
0
 10
-21.96
 11
-21.905
 20
-140.5
 21
-140.01
  0
LINE
  8
0
 10
-21.905
 11
-21.742
 20
-140.01
 21
-139.545
  0
LINE
  8
0
 10
-21.742
 11
-21.48
 20
-139.545
 21
-139.128
  0
LINE
  8
0
 10
-21.48
 11
-21.132
 20
-139.128
 21
-138.78
  0
LINE
  8
0
 10
-21.132
 11
-20.715
 20
-138.78
 21
-138.518
  0
LINE
  8
0
 10
-20.715
 11
-20.25
 20
-138.518
 21
-138.355
  0
LINE
  8
0
 10
-20.25
 11
-19.76
 20
-138.355
 21
-138.3
  0
LINE
  8
0
 10
-19.76
 11
-19.27
 20
-138.3
 21
-138.355
  0
LINE
  8
0
 10
-19.27
 11
-18.805
 20
-138.355
 21
-138.518
  0
LINE
  8
0
 10
-18.805
 11
-18.388
 20
-138.518
 21
-138.78
  0
LINE
  8
0
 10
-18.388
 11
-18.04
 20
-138.78
 21
-139.128
  0
LINE
  8
0
 10
-18.04
 11
-17.778
 20
-139.128
 21
-139.545
  0
LINE
  8
0
 10
-17.778
 11
-17.615
 20
-139.545
 21
-140.01
  0
LINE
  8
0
 10
-17.615
 11
-17.56
 20
-140.01
 21
-140.5
  0
LINE
  8
0
 10
-17.56
 11
-17.615
 20
-140.5
 21
-140.99
  0
LINE
  8
0
 10
-17.615
 11
-17.778
 20
-140.99
 21
-141.455
  0
LINE
  8
0
 10
-17.778
 11
-18.04
 20
-141.455
 21
-141.872
  0
LINE
  8
0
 10
-18.04
 11
-18.388
 20
-141.872
 21
-142.22
  0
LINE
  8
0
 10
-18.388
 11
-18.805
 20
-142.22
 21
-142.482
  0
LINE
  8
0
 10
-18.805
 11
-19.27
 20
-142.482
 21
-142.645
  0
LINE
  8
0
 10
-19.27
 11
-19.76
 20
-142.645
 21
-142.7
  0
LINE
  8
0
 10
-19.76
 11
-20.25
 20
-142.7
 21
-142.645
  0
LINE
  8
0
 10
-20.25
 11
-20.715
 20
-142.645
 21
-142.482
  0
LINE
  8
0
 10
-20.715
 11
-21.132
 20
-142.482
 21
-142.22
  0
LINE
  8
0
 10
-21.132
 11
-21.48
 20
-142.22
 21
-141.872
  0
LINE
  8
0
 10
-21.48
 11
-21.742
 20
-141.872
 21
-141.455
  0
LINE
  8
0
 10
-21.742
 11
-21.905
 20
-141.455
 21
-140.99
  0
LINE
  8
0
 10
-21.905
 11
-21.96
 20
-140.99
 21
-140.5
  0
LINE
  8
0
 10
8.04
 11
8.095
 20
-203.5
 21
-203.01
  0
LINE
  8
0
 10
8.095
 11
8.258
 20
-203.01
 21
-202.545
  0
LINE
  8
0
 10
8.258
 11
8.52
 20
-202.545
 21
-202.128
  0
LINE
  8
0
 10
8.52
 11
8.868
 20
-202.128
 21
-201.78
  0
LINE
  8
0
 10
8.868
 11
9.285
 20
-201.78
 21
-201.518
  0
LINE
  8
0
 10
9.285
 11
9.75
 20
-201.518
 21
-201.355
  0
LINE
  8
0
 10
9.75
 11
10.24
 20
-201.355
 21
-201.3
  0
LINE
  8
0
 10
10.24
 11
10.73
 20
-201.3
 21
-201.355
  0
LINE
  8
0
 10
10.73
 11
11.195
 20
-201.355
 21
-201.518
  0
LINE
  8
0
 10
11.195
 11
11.612
 20
-201.518
 21
-201.78
  0
LINE
  8
0
 10
11.612
 11
11.96
 20
-201.78
 21
-202.128
  0
LINE
  8
0
 10
11.96
 11
12.222
 20
-202.128
 21
-202.545
  0
LINE
  8
0
 10
12.222
 11
12.385
 20
-202.545
 21
-203.01
  0
LINE
  8
0
 10
12.385
 11
12.44
 20
-203.01
 21
-203.5
  0
LINE
  8
0
 10
12.44
 11
12.385
 20
-203.5
 21
-203.99
  0
LINE
  8
0
 10
12.385
 11
12.222
 20
-203.99
 21
-204.455
  0
LINE
  8
0
 10
12.222
 11
11.96
 20
-204.455
 21
-204.872
  0
LINE
  8
0
 10
11.96
 11
11.612
 20
-204.872
 21
-205.22
  0
LINE
  8
0
 10
11.612
 11
11.195
 20
-205.22
 21
-205.482
  0
LINE
  8
0
 10
11.195
 11
10.73
 20
-205.482
 21
-205.645
  0
LINE
  8
0
 10
10.73
 11
10.24
 20
-205.645
 21
-205.7
  0
LINE
  8
0
 10
10.24
 11
9.75
 20
-205.7
 21
-205.645
  0
LINE
  8
0
 10
9.75
 11
9.285
 20
-205.645
 21
-205.482
  0
LINE
  8
0
 10
9.285
 11
8.868
 20
-205.482
 21
-205.22
  0
LINE
  8
0
 10
8.868
 11
8.52
 20
-205.22
 21
-204.872
  0
LINE
  8
0
 10
8.52
 11
8.258
 20
-204.872
 21
-204.455
  0
LINE
  8
0
 10
8.258
 11
8.095
 20
-204.455
 21
-203.99
  0
LINE
  8
0
 10
8.095
 11
8.04
 20
-203.99
 21
-203.5
  0
LINE
  8
0
 10
8.04
 11
8.095
 20
-140.5
 21
-140.01
  0
LINE
  8
0
 10
8.095
 11
8.258
 20
-140.01
 21
-139.545
  0
LINE
  8
0
 10
8.258
 11
8.52
 20
-139.545
 21
-139.128
  0
LINE
  8
0
 10
8.52
 11
8.868
 20
-139.128
 21
-138.78
  0
LINE
  8
0
 10
8.868
 11
9.285
 20
-138.78
 21
-138.518
  0
LINE
  8
0
 10
9.285
 11
9.75
 20
-138.518
 21
-138.355
  0
LINE
  8
0
 10
9.75
 11
10.24
 20
-138.355
 21
-138.3
  0
LINE
  8
0
 10
10.24
 11
10.73
 20
-138.3
 21
-138.355
  0
LINE
  8
0
 10
10.73
 11
11.195
 20
-138.355
 21
-138.518
  0
LINE
  8
0
 10
11.195
 11
11.612
 20
-138.518
 21
-138.78
  0
LINE
  8
0
 10
11.612
 11
11.96
 20
-138.78
 21
-139.128
  0
LINE
  8
0
 10
11.96
 11
12.222
 20
-139.128
 21
-139.545
  0
LINE
  8
0
 10
12.222
 11
12.385
 20
-139.545
 21
-140.01
  0
LINE
  8
0
 10
12.385
 11
12.44
 20
-140.01
 21
-140.5
  0
LINE
  8
0
 10
12.44
 11
12.385
 20
-140.5
 21
-140.99
  0
LINE
  8
0
 10
12.385
 11
12.222
 20
-140.99
 21
-141.455
  0
LINE
  8
0
 10
12.222
 11
11.96
 20
-141.455
 21
-141.872
  0
LINE
  8
0
 10
11.96
 11
11.612
 20
-141.872
 21
-142.22
  0
LINE
  8
0
 10
11.612
 11
11.195
 20
-142.22
 21
-142.482
  0
LINE
  8
0
 10
11.195
 11
10.73
 20
-142.482
 21
-142.645
  0
LINE
  8
0
 10
10.73
 11
10.24
 20
-142.645
 21
-142.7
  0
LINE
  8
0
 10
10.24
 11
9.75
 20
-142.7
 21
-142.645
  0
LINE
  8
0
 10
9.75
 11
9.285
 20
-142.645
 21
-142.482
  0
LINE
  8
0
 10
9.285
 11
8.868
 20
-142.482
 21
-142.22
  0
LINE
  8
0
 10
8.868
 11
8.52
 20
-142.22
 21
-141.872
  0
LINE
  8
0
 10
8.52
 11
8.258
 20
-141.872
 21
-141.455
  0
LINE
  8
0
 10
8.258
 11
8.095
 20
-141.455
 21
-140.99
  0
LINE
  8
0
 10
8.095
 11
8.04
 20
-140.99
 21
-140.5
  0
LINE
  8
0
 10
12.26
 11
12.315
 20
96.8
 21
97.29
  0
LINE
  8
0
 10
12.315
 11
12.478
 20
97.29
 21
97.755
  0
LINE
  8
0
 10
12.478
 11
12.74
 20
97.755
 21
98.172
  0
LINE
  8
0
 10
12.74
 11
13.088
 20
98.172
 21
98.52
  0
LINE
  8
0
 10
13.088
 11
13.505
 20
98.52
 21
98.782
  0
LINE
  8
0
 10
13.505
 11
13.97
 20
98.782
 21
98.945
  0
LINE
  8
0
 10
13.97
 11
14.46
 20
98.945
 21
99
  0
LINE
  8
0
 10
14.46
 11
14.95
 20
99
 21
98.945
  0
LINE
  8
0
 10
14.95
 11
15.415
 20
98.945
 21
98.782
  0
LINE
  8
0
 10
15.415
 11
15.832
 20
98.782
 21
98.52
  0
LINE
  8
0
 10
15.832
 11
16.18
 20
98.52
 21
98.172
  0
LINE
  8
0
 10
16.18
 11
16.442
 20
98.172
 21
97.755
  0
LINE
  8
0
 10
16.442
 11
16.605
 20
97.755
 21
97.29
  0
LINE
  8
0
 10
16.605
 11
16.66
 20
97.29
 21
96.8
  0
LINE
  8
0
 10
16.66
 11
16.605
 20
96.8
 21
96.31
  0
LINE
  8
0
 10
16.605
 11
16.442
 20
96.31
 21
95.845
  0
LINE
  8
0
 10
16.442
 11
16.18
 20
95.845
 21
95.428
  0
LINE
  8
0
 10
16.18
 11
15.832
 20
95.428
 21
95.08
  0
LINE
  8
0
 10
15.832
 11
15.415
 20
95.08
 21
94.818
  0
LINE
  8
0
 10
15.415
 11
14.95
 20
94.818
 21
94.655
  0
LINE
  8
0
 10
14.95
 11
14.46
 20
94.655
 21
94.6
  0
LINE
  8
0
 10
14.46
 11
13.97
 20
94.6
 21
94.655
  0
LINE
  8
0
 10
13.97
 11
13.505
 20
94.655
 21
94.818
  0
LINE
  8
0
 10
13.505
 11
13.088
 20
94.818
 21
95.08
  0
LINE
  8
0
 10
13.088
 11
12.74
 20
95.08
 21
95.428
  0
LINE
  8
0
 10
12.74
 11
12.478
 20
95.428
 21
95.845
  0
LINE
  8
0
 10
12.478
 11
12.315
 20
95.845
 21
96.31
  0
LINE
  8
0
 10
12.315
 11
12.26
 20
96.31
 21
96.8
  0
LINE
  8
0
 10
16.005
 11
16.046
 20
133.876
 21
134.368
  0
LINE
  8
0
 10
16.046
 11
16.244
 20
134.368
 21
134.82
  0
LINE
  8
0
 10
16.244
 11
16.579
 20
134.82
 21
135.184
  0
LINE
  8
0
 10
16.579
 11
17.013
 20
135.184
 21
135.419
  0
LINE
  8
0
 10
17.013
 11
17.5
 20
135.419
 21
135.5
  0
LINE
  8
0
 10
17.5
 11
17.987
 20
135.5
 21
135.419
  0
LINE
  8
0
 10
17.987
 11
18.421
 20
135.419
 21
135.184
  0
LINE
  8
0
 10
18.421
 11
18.756
 20
135.184
 21
134.82
  0
LINE
  8
0
 10
18.756
 11
18.954
 20
134.82
 21
134.368
  0
LINE
  8
0
 10
18.954
 11
18.995
 20
134.368
 21
133.876
  0
LINE
  8
0
 10
18.995
 11
18.874
 20
133.876
 21
133.397
  0
LINE
  8
0
 10
18.874
 11
18.604
 20
133.397
 21
132.984
  0
LINE
  8
0
 10
18.604
 11
18.214
 20
132.984
 21
132.681
  0
LINE
  8
0
 10
18.214
 11
17.747
 20
132.681
 21
132.52
  0
LINE
  8
0
 10
17.747
 11
17.253
 20
132.52
 21
132.52
  0
LINE
  8
0
 10
17.253
 11
16.786
 20
132.52
 21
132.681
  0
LINE
  8
0
 10
16.786
 11
16.396
 20
132.681
 21
132.984
  0
LINE
  8
0
 10
16.396
 11
16.126
 20
132.984
 21
133.397
  0
LINE
  8
0
 10
16.126
 11
16.005
 20
133.397
 21
133.876
  0
LINE
  8
0
 10
16.005
 11
16.046
 20
139.676
 21
140.168
  0
LINE
  8
0
 10
16.046
 11
16.244
 20
140.168
 21
140.62
  0
LINE
  8
0
 10
16.244
 11
16.579
 20
140.62
 21
140.984
  0
LINE
  8
0
 10
16.579
 11
17.013
 20
140.984
 21
141.219
  0
LINE
  8
0
 10
17.013
 11
17.5
 20
141.219
 21
141.3
  0
LINE
  8
0
 10
17.5
 11
17.987
 20
141.3
 21
141.219
  0
LINE
  8
0
 10
17.987
 11
18.421
 20
141.219
 21
140.984
  0
LINE
  8
0
 10
18.421
 11
18.756
 20
140.984
 21
140.62
  0
LINE
  8
0
 10
18.756
 11
18.954
 20
140.62
 21
140.168
  0
LINE
  8
0
 10
18.954
 11
18.995
 20
140.168
 21
139.676
  0
LINE
  8
0
 10
18.995
 11
18.874
 20
139.676
 21
139.197
  0
LINE
  8
0
 10
18.874
 11
18.604
 20
139.197
 21
138.784
  0
LINE
  8
0
 10
18.604
 11
18.214
 20
138.784
 21
138.481
  0
LINE
  8
0
 10
18.214
 11
17.747
 20
138.481
 21
138.32
  0
LINE
  8
0
 10
17.747
 11
17.253
 20
138.32
 21
138.32
  0
LINE
  8
0
 10
17.253
 11
16.786
 20
138.32
 21
138.481
  0
LINE
  8
0
 10
16.786
 11
16.396
 20
138.481
 21
138.784
  0
LINE
  8
0
 10
16.396
 11
16.126
 20
138.784
 21
139.197
  0
LINE
  8
0
 10
16.126
 11
16.005
 20
139.197
 21
139.676
  0
LINE
  8
0
 10
17.24
 11
17.288
 20
-172
 21
-171.512
  0
LINE
  8
0
 10
17.288
 11
17.43
 20
-171.512
 21
-171.043
  0
LINE
  8
0
 10
17.43
 11
17.661
 20
-171.043
 21
-170.611
  0
LINE
  8
0
 10
17.661
 11
17.972
 20
-170.611
 21
-170.232
  0
LINE
  8
0
 10
17.972
 11
18.351
 20
-170.232
 21
-169.921
  0
LINE
  8
0
 10
18.351
 11
18.783
 20
-169.921
 21
-169.69
  0
LINE
  8
0
 10
18.783
 11
19.252
 20
-169.69
 21
-169.548
  0
LINE
  8
0
 10
19.252
 11
19.74
 20
-169.548
 21
-169.5
  0
LINE
  8
0
 10
19.74
 11
20.228
 20
-169.5
 21
-169.548
  0
LINE
  8
0
 10
20.228
 11
20.697
 20
-169.548
 21
-169.69
  0
LINE
  8
0
 10
20.697
 11
21.129
 20
-169.69
 21
-169.921
  0
LINE
  8
0
 10
21.129
 11
21.508
 20
-169.921
 21
-170.232
  0
LINE
  8
0
 10
21.508
 11
21.819
 20
-170.232
 21
-170.611
  0
LINE
  8
0
 10
21.819
 11
22.05
 20
-170.611
 21
-171.043
  0
LINE
  8
0
 10
22.05
 11
22.192
 20
-171.043
 21
-171.512
  0
LINE
  8
0
 10
22.192
 11
22.24
 20
-171.512
 21
-172
  0
LINE
  8
0
 10
22.24
 11
22.192
 20
-172
 21
-172.488
  0
LINE
  8
0
 10
22.192
 11
22.05
 20
-172.488
 21
-172.957
  0
LINE
  8
0
 10
22.05
 11
21.819
 20
-172.957
 21
-173.389
  0
LINE
  8
0
 10
21.819
 11
21.508
 20
-173.389
 21
-173.768
  0
LINE
  8
0
 10
21.508
 11
21.129
 20
-173.768
 21
-174.079
  0
LINE
  8
0
 10
21.129
 11
20.697
 20
-174.079
 21
-174.31
  0
LINE
  8
0
 10
20.697
 11
20.228
 20
-174.31
 21
-174.452
  0
LINE
  8
0
 10
20.228
 11
19.74
 20
-174.452
 21
-174.5
  0
LINE
  8
0
 10
19.74
 11
19.252
 20
-174.5
 21
-174.452
  0
LINE
  8
0
 10
19.252
 11
18.783
 20
-174.452
 21
-174.31
  0
LINE
  8
0
 10
18.783
 11
18.351
 20
-174.31
 21
-174.079
  0
LINE
  8
0
 10
18.351
 11
17.972
 20
-174.079
 21
-173.768
  0
LINE
  8
0
 10
17.972
 11
17.661
 20
-173.768
 21
-173.389
  0
LINE
  8
0
 10
17.661
 11
17.43
 20
-173.389
 21
-172.957
  0
LINE
  8
0
 10
17.43
 11
17.288
 20
-172.957
 21
-172.488
  0
LINE
  8
0
 10
17.288
 11
17.24
 20
-172.488
 21
-172
  0
LINE
  8
0
 10
21.005
 11
21.126
 20
145.324
 21
145.803
  0
LINE
  8
0
 10
21.126
 11
21.396
 20
145.803
 21
146.216
  0
LINE
  8
0
 10
21.396
 11
21.786
 20
146.216
 21
146.519
  0
LINE
  8
0
 10
21.786
 11
22.253
 20
146.519
 21
146.68
  0
LINE
  8
0
 10
22.253
 11
22.747
 20
146.68
 21
146.68
  0
LINE
  8
0
 10
22.747
 11
23.214
 20
146.68
 21
146.519
  0
LINE
  8
0
 10
23.214
 11
23.604
 20
146.519
 21
146.216
  0
LINE
  8
0
 10
23.604
 11
23.874
 20
146.216
 21
145.803
  0
LINE
  8
0
 10
23.874
 11
23.995
 20
145.803
 21
145.324
  0
LINE
  8
0
 10
23.995
 11
23.954
 20
145.324
 21
144.832
  0
LINE
  8
0
 10
23.954
 11
23.756
 20
144.832
 21
144.38
  0
LINE
  8
0
 10
23.756
 11
23.421
 20
144.38
 21
144.016
  0
LINE
  8
0
 10
23.421
 11
22.987
 20
144.016
 21
143.781
  0
LINE
  8
0
 10
22.987
 11
22.5
 20
143.781
 21
143.7
  0
LINE
  8
0
 10
22.5
 11
22.013
 20
143.7
 21
143.781
  0
LINE
  8
0
 10
22.013
 11
21.579
 20
143.781
 21
144.016
  0
LINE
  8
0
 10
21.579
 11
21.244
 20
144.016
 21
144.38
  0
LINE
  8
0
 10
21.244
 11
21.046
 20
144.38
 21
144.832
  0
LINE
  8
0
 10
21.046
 11
21.005
 20
144.832
 21
145.324
  0
LINE
  8
0
 10
21.005
 11
21.126
 20
153.924
 21
154.403
  0
LINE
  8
0
 10
21.126
 11
21.396
 20
154.403
 21
154.816
  0
LINE
  8
0
 10
21.396
 11
21.786
 20
154.816
 21
155.119
  0
LINE
  8
0
 10
21.786
 11
22.253
 20
155.119
 21
155.28
  0
LINE
  8
0
 10
22.253
 11
22.747
 20
155.28
 21
155.28
  0
LINE
  8
0
 10
22.747
 11
23.214
 20
155.28
 21
155.119
  0
LINE
  8
0
 10
23.214
 11
23.604
 20
155.119
 21
154.816
  0
LINE
  8
0
 10
23.604
 11
23.874
 20
154.816
 21
154.403
  0
LINE
  8
0
 10
23.874
 11
23.995
 20
154.403
 21
153.924
  0
LINE
  8
0
 10
23.995
 11
23.954
 20
153.924
 21
153.432
  0
LINE
  8
0
 10
23.954
 11
23.756
 20
153.432
 21
152.98
  0
LINE
  8
0
 10
23.756
 11
23.421
 20
152.98
 21
152.616
  0
LINE
  8
0
 10
23.421
 11
22.987
 20
152.616
 21
152.381
  0
LINE
  8
0
 10
22.987
 11
22.5
 20
152.381
 21
152.3
  0
LINE
  8
0
 10
22.5
 11
22.013
 20
152.3
 21
152.381
  0
LINE
  8
0
 10
22.013
 11
21.579
 20
152.381
 21
152.616
  0
LINE
  8
0
 10
21.579
 11
21.244
 20
152.616
 21
152.98
  0
LINE
  8
0
 10
21.244
 11
21.046
 20
152.98
 21
153.432
  0
LINE
  8
0
 10
21.046
 11
21.005
 20
153.432
 21
153.924
  0
LINE
  8
0
 10
53.55
 11
53.605
 20
-136.5
 21
-136.01
  0
LINE
  8
0
 10
53.605
 11
53.768
 20
-136.01
 21
-135.545
  0
LINE
  8
0
 10
53.768
 11
54.03
 20
-135.545
 21
-135.128
  0
LINE
  8
0
 10
54.03
 11
54.378
 20
-135.128
 21
-134.78
  0
LINE
  8
0
 10
54.378
 11
54.795
 20
-134.78
 21
-134.518
  0
LINE
  8
0
 10
54.795
 11
55.26
 20
-134.518
 21
-134.355
  0
LINE
  8
0
 10
55.26
 11
55.75
 20
-134.355
 21
-134.3
  0
LINE
  8
0
 10
55.75
 11
56.24
 20
-134.3
 21
-134.355
  0
LINE
  8
0
 10
56.24
 11
56.705
 20
-134.355
 21
-134.518
  0
LINE
  8
0
 10
56.705
 11
57.122
 20
-134.518
 21
-134.78
  0
LINE
  8
0
 10
57.122
 11
57.47
 20
-134.78
 21
-135.128
  0
LINE
  8
0
 10
57.47
 11
57.732
 20
-135.128
 21
-135.545
  0
LINE
  8
0
 10
57.732
 11
57.895
 20
-135.545
 21
-136.01
  0
LINE
  8
0
 10
57.895
 11
57.95
 20
-136.01
 21
-136.5
  0
LINE
  8
0
 10
57.95
 11
57.895
 20
-136.5
 21
-136.99
  0
LINE
  8
0
 10
57.895
 11
57.732
 20
-136.99
 21
-137.455
  0
LINE
  8
0
 10
57.732
 11
57.47
 20
-137.455
 21
-137.872
  0
LINE
  8
0
 10
57.47
 11
57.122
 20
-137.872
 21
-138.22
  0
LINE
  8
0
 10
57.122
 11
56.705
 20
-138.22
 21
-138.482
  0
LINE
  8
0
 10
56.705
 11
56.24
 20
-138.482
 21
-138.645
  0
LINE
  8
0
 10
56.24
 11
55.75
 20
-138.645
 21
-138.7
  0
LINE
  8
0
 10
55.75
 11
55.26
 20
-138.7
 21
-138.645
  0
LINE
  8
0
 10
55.26
 11
54.795
 20
-138.645
 21
-138.482
  0
LINE
  8
0
 10
54.795
 11
54.378
 20
-138.482
 21
-138.22
  0
LINE
  8
0
 10
54.378
 11
54.03
 20
-138.22
 21
-137.872
  0
LINE
  8
0
 10
54.03
 11
53.768
 20
-137.872
 21
-137.455
  0
LINE
  8
0
 10
53.768
 11
53.605
 20
-137.455
 21
-136.99
  0
LINE
  8
0
 10
53.605
 11
53.55
 20
-136.99
 21
-136.5
  0
LINE
  8
0
 10
53.55
 11
53.605
 20
126.5
 21
126.99
  0
LINE
  8
0
 10
53.605
 11
53.768
 20
126.99
 21
127.455
  0
LINE
  8
0
 10
53.768
 11
54.03
 20
127.455
 21
127.872
  0
LINE
  8
0
 10
54.03
 11
54.378
 20
127.872
 21
128.22
  0
LINE
  8
0
 10
54.378
 11
54.795
 20
128.22
 21
128.482
  0
LINE
  8
0
 10
54.795
 11
55.26
 20
128.482
 21
128.645
  0
LINE
  8
0
 10
55.26
 11
55.75
 20
128.645
 21
128.7
  0
LINE
  8
0
 10
55.75
 11
56.24
 20
128.7
 21
128.645
  0
LINE
  8
0
 10
56.24
 11
56.705
 20
128.645
 21
128.482
  0
LINE
  8
0
 10
56.705
 11
57.122
 20
128.482
 21
128.22
  0
LINE
  8
0
 10
57.122
 11
57.47
 20
128.22
 21
127.872
  0
LINE
  8
0
 10
57.47
 11
57.732
 20
127.872
 21
127.455
  0
LINE
  8
0
 10
57.732
 11
57.895
 20
127.455
 21
126.99
  0
LINE
  8
0
 10
57.895
 11
57.95
 20
126.99
 21
126.5
  0
LINE
  8
0
 10
57.95
 11
57.895
 20
126.5
 21
126.01
  0
LINE
  8
0
 10
57.895
 11
57.732
 20
126.01
 21
125.545
  0
LINE
  8
0
 10
57.732
 11
57.47
 20
125.545
 21
125.128
  0
LINE
  8
0
 10
57.47
 11
57.122
 20
125.128
 21
124.78
  0
LINE
  8
0
 10
57.122
 11
56.705
 20
124.78
 21
124.518
  0
LINE
  8
0
 10
56.705
 11
56.24
 20
124.518
 21
124.355
  0
LINE
  8
0
 10
56.24
 11
55.75
 20
124.355
 21
124.3
  0
LINE
  8
0
 10
55.75
 11
55.26
 20
124.3
 21
124.355
  0
LINE
  8
0
 10
55.26
 11
54.795
 20
124.355
 21
124.518
  0
LINE
  8
0
 10
54.795
 11
54.378
 20
124.518
 21
124.78
  0
LINE
  8
0
 10
54.378
 11
54.03
 20
124.78
 21
125.128
  0
LINE
  8
0
 10
54.03
 11
53.768
 20
125.128
 21
125.545
  0
LINE
  8
0
 10
53.768
 11
53.605
 20
125.545
 21
126.01
  0
LINE
  8
0
 10
53.605
 11
53.55
 20
126.01
 21
126.5
  0
LINE
  8
0
 10
88.55
 11
88.605
 20
-136.5
 21
-136.01
  0
LINE
  8
0
 10
88.605
 11
88.768
 20
-136.01
 21
-135.545
  0
LINE
  8
0
 10
88.768
 11
89.03
 20
-135.545
 21
-135.128
  0
LINE
  8
0
 10
89.03
 11
89.378
 20
-135.128
 21
-134.78
  0
LINE
  8
0
 10
89.378
 11
89.795
 20
-134.78
 21
-134.518
  0
LINE
  8
0
 10
89.795
 11
90.26
 20
-134.518
 21
-134.355
  0
LINE
  8
0
 10
90.26
 11
90.75
 20
-134.355
 21
-134.3
  0
LINE
  8
0
 10
90.75
 11
91.24
 20
-134.3
 21
-134.355
  0
LINE
  8
0
 10
91.24
 11
91.705
 20
-134.355
 21
-134.518
  0
LINE
  8
0
 10
91.705
 11
92.122
 20
-134.518
 21
-134.78
  0
LINE
  8
0
 10
92.122
 11
92.47
 20
-134.78
 21
-135.128
  0
LINE
  8
0
 10
92.47
 11
92.732
 20
-135.128
 21
-135.545
  0
LINE
  8
0
 10
92.732
 11
92.895
 20
-135.545
 21
-136.01
  0
LINE
  8
0
 10
92.895
 11
92.95
 20
-136.01
 21
-136.5
  0
LINE
  8
0
 10
92.95
 11
92.895
 20
-136.5
 21
-136.99
  0
LINE
  8
0
 10
92.895
 11
92.732
 20
-136.99
 21
-137.455
  0
LINE
  8
0
 10
92.732
 11
92.47
 20
-137.455
 21
-137.872
  0
LINE
  8
0
 10
92.47
 11
92.122
 20
-137.872
 21
-138.22
  0
LINE
  8
0
 10
92.122
 11
91.705
 20
-138.22
 21
-138.482
  0
LINE
  8
0
 10
91.705
 11
91.24
 20
-138.482
 21
-138.645
  0
LINE
  8
0
 10
91.24
 11
90.75
 20
-138.645
 21
-138.7
  0
LINE
  8
0
 10
90.75
 11
90.26
 20
-138.7
 21
-138.645
  0
LINE
  8
0
 10
90.26
 11
89.795
 20
-138.645
 21
-138.482
  0
LINE
  8
0
 10
89.795
 11
89.378
 20
-138.482
 21
-138.22
  0
LINE
  8
0
 10
89.378
 11
89.03
 20
-138.22
 21
-137.872
  0
LINE
  8
0
 10
89.03
 11
88.768
 20
-137.872
 21
-137.455
  0
LINE
  8
0
 10
88.768
 11
88.605
 20
-137.455
 21
-136.99
  0
LINE
  8
0
 10
88.605
 11
88.55
 20
-136.99
 21
-136.5
  0
LINE
  8
0
 10
88.55
 11
88.605
 20
126.5
 21
126.99
  0
LINE
  8
0
 10
88.605
 11
88.768
 20
126.99
 21
127.455
  0
LINE
  8
0
 10
88.768
 11
89.03
 20
127.455
 21
127.872
  0
LINE
  8
0
 10
89.03
 11
89.378
 20
127.872
 21
128.22
  0
LINE
  8
0
 10
89.378
 11
89.795
 20
128.22
 21
128.482
  0
LINE
  8
0
 10
89.795
 11
90.26
 20
128.482
 21
128.645
  0
LINE
  8
0
 10
90.26
 11
90.75
 20
128.645
 21
128.7
  0
LINE
  8
0
 10
90.75
 11
91.24
 20
128.7
 21
128.645
  0
LINE
  8
0
 10
91.24
 11
91.705
 20
128.645
 21
128.482
  0
LINE
  8
0
 10
91.705
 11
92.122
 20
128.482
 21
128.22
  0
LINE
  8
0
 10
92.122
 11
92.47
 20
128.22
 21
127.872
  0
LINE
  8
0
 10
92.47
 11
92.732
 20
127.872
 21
127.455
  0
LINE
  8
0
 10
92.732
 11
92.895
 20
127.455
 21
126.99
  0
LINE
  8
0
 10
92.895
 11
92.95
 20
126.99
 21
126.5
  0
LINE
  8
0
 10
92.95
 11
92.895
 20
126.5
 21
126.01
  0
LINE
  8
0
 10
92.895
 11
92.732
 20
126.01
 21
125.545
  0
LINE
  8
0
 10
92.732
 11
92.47
 20
125.545
 21
125.128
  0
LINE
  8
0
 10
92.47
 11
92.122
 20
125.128
 21
124.78
  0
LINE
  8
0
 10
92.122
 11
91.705
 20
124.78
 21
124.518
  0
LINE
  8
0
 10
91.705
 11
91.24
 20
124.518
 21
124.355
  0
LINE
  8
0
 10
91.24
 11
90.75
 20
124.355
 21
124.3
  0
LINE
  8
0
 10
90.75
 11
90.26
 20
124.3
 21
124.355
  0
LINE
  8
0
 10
90.26
 11
89.795
 20
124.355
 21
124.518
  0
LINE
  8
0
 10
89.795
 11
89.378
 20
124.518
 21
124.78
  0
LINE
  8
0
 10
89.378
 11
89.03
 20
124.78
 21
125.128
  0
LINE
  8
0
 10
89.03
 11
88.768
 20
125.128
 21
125.545
  0
LINE
  8
0
 10
88.768
 11
88.605
 20
125.545
 21
126.01
  0
LINE
  8
0
 10
88.605
 11
88.55
 20
126.01
 21
126.5
  0
LINE
  8
0
 10
88.75
 11
88.808
 20
-123
 21
-122.521
  0
LINE
  8
0
 10
88.808
 11
88.979
 20
-122.521
 21
-122.071
  0
LINE
  8
0
 10
88.979
 11
89.253
 20
-122.071
 21
-121.674
  0
LINE
  8
0
 10
89.253
 11
89.614
 20
-121.674
 21
-121.354
  0
LINE
  8
0
 10
89.614
 11
90.041
 20
-121.354
 21
-121.13
  0
LINE
  8
0
 10
90.041
 11
90.509
 20
-121.13
 21
-121.015
  0
LINE
  8
0
 10
90.509
 11
90.991
 20
-121.015
 21
-121.015
  0
LINE
  8
0
 10
90.991
 11
91.459
 20
-121.015
 21
-121.13
  0
LINE
  8
0
 10
91.459
 11
91.886
 20
-121.13
 21
-121.354
  0
LINE
  8
0
 10
91.886
 11
92.247
 20
-121.354
 21
-121.674
  0
LINE
  8
0
 10
92.247
 11
92.521
 20
-121.674
 21
-122.071
  0
LINE
  8
0
 10
92.521
 11
92.692
 20
-122.071
 21
-122.521
  0
LINE
  8
0
 10
92.692
 11
92.75
 20
-122.521
 21
-123
  0
LINE
  8
0
 10
92.75
 11
92.692
 20
-123
 21
-123.479
  0
LINE
  8
0
 10
92.692
 11
92.521
 20
-123.479
 21
-123.929
  0
LINE
  8
0
 10
92.521
 11
92.247
 20
-123.929
 21
-124.326
  0
LINE
  8
0
 10
92.247
 11
91.886
 20
-124.326
 21
-124.646
  0
LINE
  8
0
 10
91.886
 11
91.459
 20
-124.646
 21
-124.87
  0
LINE
  8
0
 10
91.459
 11
90.991
 20
-124.87
 21
-124.985
  0
LINE
  8
0
 10
90.991
 11
90.509
 20
-124.985
 21
-124.985
  0
LINE
  8
0
 10
90.509
 11
90.041
 20
-124.985
 21
-124.87
  0
LINE
  8
0
 10
90.041
 11
89.614
 20
-124.87
 21
-124.646
  0
LINE
  8
0
 10
89.614
 11
89.253
 20
-124.646
 21
-124.326
  0
LINE
  8
0
 10
89.253
 11
88.979
 20
-124.326
 21
-123.929
  0
LINE
  8
0
 10
88.979
 11
88.808
 20
-123.929
 21
-123.479
  0
LINE
  8
0
 10
88.808
 11
88.75
 20
-123.479
 21
-123
  0
LINE
  8
0
 10
99.27
 11
99.27
 20
-115.747
 21
-115.253
  0
LINE
  8
0
 10
99.27
 11
99.431
 20
-115.253
 21
-114.786
  0
LINE
  8
0
 10
99.431
 11
99.734
 20
-114.786
 21
-114.396
  0
LINE
  8
0
 10
99.734
 11
100.147
 20
-114.396
 21
-114.126
  0
LINE
  8
0
 10
100.147
 11
100.626
 20
-114.126
 21
-114.005
  0
LINE
  8
0
 10
100.626
 11
101.118
 20
-114.005
 21
-114.046
  0
LINE
  8
0
 10
101.118
 11
101.57
 20
-114.046
 21
-114.244
  0
LINE
  8
0
 10
101.57
 11
101.934
 20
-114.244
 21
-114.579
  0
LINE
  8
0
 10
101.934
 11
102.169
 20
-114.579
 21
-115.013
  0
LINE
  8
0
 10
102.169
 11
102.25
 20
-115.013
 21
-115.5
  0
LINE
  8
0
 10
102.25
 11
102.169
 20
-115.5
 21
-115.987
  0
LINE
  8
0
 10
102.169
 11
101.934
 20
-115.987
 21
-116.421
  0
LINE
  8
0
 10
101.934
 11
101.57
 20
-116.421
 21
-116.756
  0
LINE
  8
0
 10
101.57
 11
101.118
 20
-116.756
 21
-116.954
  0
LINE
  8
0
 10
101.118
 11
100.626
 20
-116.954
 21
-116.995
  0
LINE
  8
0
 10
100.626
 11
100.147
 20
-116.995
 21
-116.874
  0
LINE
  8
0
 10
100.147
 11
99.734
 20
-116.874
 21
-116.604
  0
LINE
  8
0
 10
99.734
 11
99.431
 20
-116.604
 21
-116.214
  0
LINE
  8
0
 10
99.431
 11
99.27
 20
-116.214
 21
-115.747
  0
LINE
  8
0
 10
99.27
 11
99.27
 20
70.153
 21
70.647
  0
LINE
  8
0
 10
99.27
 11
99.431
 20
70.647
 21
71.114
  0
LINE
  8
0
 10
99.431
 11
99.734
 20
71.114
 21
71.504
  0
LINE
  8
0
 10
99.734
 11
100.147
 20
71.504
 21
71.774
  0
LINE
  8
0
 10
100.147
 11
100.626
 20
71.774
 21
71.895
  0
LINE
  8
0
 10
100.626
 11
101.118
 20
71.895
 21
71.854
  0
LINE
  8
0
 10
101.118
 11
101.57
 20
71.854
 21
71.656
  0
LINE
  8
0
 10
101.57
 11
101.934
 20
71.656
 21
71.321
  0
LINE
  8
0
 10
101.934
 11
102.169
 20
71.321
 21
70.887
  0
LINE
  8
0
 10
102.169
 11
102.25
 20
70.887
 21
70.4
  0
LINE
  8
0
 10
102.25
 11
102.169
 20
70.4
 21
69.913
  0
LINE
  8
0
 10
102.169
 11
101.934
 20
69.913
 21
69.479
  0
LINE
  8
0
 10
101.934
 11
101.57
 20
69.479
 21
69.144
  0
LINE
  8
0
 10
101.57
 11
101.118
 20
69.144
 21
68.946
  0
LINE
  8
0
 10
101.118
 11
100.626
 20
68.946
 21
68.905
  0
LINE
  8
0
 10
100.626
 11
100.147
 20
68.905
 21
69.026
  0
LINE
  8
0
 10
100.147
 11
99.734
 20
69.026
 21
69.296
  0
LINE
  8
0
 10
99.734
 11
99.431
 20
69.296
 21
69.686
  0
LINE
  8
0
 10
99.431
 11
99.27
 20
69.686
 21
70.153
  0
LINE
  8
0
 10
101.65
 11
101.708
 20
84.9
 21
85.379
  0
LINE
  8
0
 10
101.708
 11
101.879
 20
85.379
 21
85.829
  0
LINE
  8
0
 10
101.879
 11
102.153
 20
85.829
 21
86.226
  0
LINE
  8
0
 10
102.153
 11
102.514
 20
86.226
 21
86.546
  0
LINE
  8
0
 10
102.514
 11
102.941
 20
86.546
 21
86.77
  0
LINE
  8
0
 10
102.941
 11
103.409
 20
86.77
 21
86.885
  0
LINE
  8
0
 10
103.409
 11
103.891
 20
86.885
 21
86.885
  0
LINE
  8
0
 10
103.891
 11
104.359
 20
86.885
 21
86.77
  0
LINE
  8
0
 10
104.359
 11
104.786
 20
86.77
 21
86.546
  0
LINE
  8
0
 10
104.786
 11
105.147
 20
86.546
 21
86.226
  0
LINE
  8
0
 10
105.147
 11
105.421
 20
86.226
 21
85.829
  0
LINE
  8
0
 10
105.421
 11
105.592
 20
85.829
 21
85.379
  0
LINE
  8
0
 10
105.592
 11
105.65
 20
85.379
 21
84.9
  0
LINE
  8
0
 10
105.65
 11
105.592
 20
84.9
 21
84.421
  0
LINE
  8
0
 10
105.592
 11
105.421
 20
84.421
 21
83.971
  0
LINE
  8
0
 10
105.421
 11
105.147
 20
83.971
 21
83.574
  0
LINE
  8
0
 10
105.147
 11
104.786
 20
83.574
 21
83.254
  0
LINE
  8
0
 10
104.786
 11
104.359
 20
83.254
 21
83.03
  0
LINE
  8
0
 10
104.359
 11
103.891
 20
83.03
 21
82.915
  0
LINE
  8
0
 10
103.891
 11
103.409
 20
82.915
 21
82.915
  0
LINE
  8
0
 10
103.409
 11
102.941
 20
82.915
 21
83.03
  0
LINE
  8
0
 10
102.941
 11
102.514
 20
83.03
 21
83.254
  0
LINE
  8
0
 10
102.514
 11
102.153
 20
83.254
 21
83.574
  0
LINE
  8
0
 10
102.153
 11
101.879
 20
83.574
 21
83.971
  0
LINE
  8
0
 10
101.879
 11
101.708
 20
83.971
 21
84.421
  0
LINE
  8
0
 10
101.708
 11
101.65
 20
84.421
 21
84.9
  0
LINE
  8
0
 10
105.07
 11
105.07
 20
-115.747
 21
-115.253
  0
LINE
  8
0
 10
105.07
 11
105.231
 20
-115.253
 21
-114.786
  0
LINE
  8
0
 10
105.231
 11
105.534
 20
-114.786
 21
-114.396
  0
LINE
  8
0
 10
105.534
 11
105.947
 20
-114.396
 21
-114.126
  0
LINE
  8
0
 10
105.947
 11
106.426
 20
-114.126
 21
-114.005
  0
LINE
  8
0
 10
106.426
 11
106.918
 20
-114.005
 21
-114.046
  0
LINE
  8
0
 10
106.918
 11
107.37
 20
-114.046
 21
-114.244
  0
LINE
  8
0
 10
107.37
 11
107.734
 20
-114.244
 21
-114.579
  0
LINE
  8
0
 10
107.734
 11
107.969
 20
-114.579
 21
-115.013
  0
LINE
  8
0
 10
107.969
 11
108.05
 20
-115.013
 21
-115.5
  0
LINE
  8
0
 10
108.05
 11
107.969
 20
-115.5
 21
-115.987
  0
LINE
  8
0
 10
107.969
 11
107.734
 20
-115.987
 21
-116.421
  0
LINE
  8
0
 10
107.734
 11
107.37
 20
-116.421
 21
-116.756
  0
LINE
  8
0
 10
107.37
 11
106.918
 20
-116.756
 21
-116.954
  0
LINE
  8
0
 10
106.918
 11
106.426
 20
-116.954
 21
-116.995
  0
LINE
  8
0
 10
106.426
 11
105.947
 20
-116.995
 21
-116.874
  0
LINE
  8
0
 10
105.947
 11
105.534
 20
-116.874
 21
-116.604
  0
LINE
  8
0
 10
105.534
 11
105.231
 20
-116.604
 21
-116.214
  0
LINE
  8
0
 10
105.231
 11
105.07
 20
-116.214
 21
-115.747
  0
LINE
  8
0
 10
105.07
 11
105.07
 20
70.153
 21
70.647
  0
LINE
  8
0
 10
105.07
 11
105.231
 20
70.647
 21
71.114
  0
LINE
  8
0
 10
105.231
 11
105.534
 20
71.114
 21
71.504
  0
LINE
  8
0
 10
105.534
 11
105.947
 20
71.504
 21
71.774
  0
LINE
  8
0
 10
105.947
 11
106.426
 20
71.774
 21
71.895
  0
LINE
  8
0
 10
106.426
 11
106.918
 20
71.895
 21
71.854
  0
LINE
  8
0
 10
106.918
 11
107.37
 20
71.854
 21
71.656
  0
LINE
  8
0
 10
107.37
 11
107.734
 20
71.656
 21
71.321
  0
LINE
  8
0
 10
107.734
 11
107.969
 20
71.321
 21
70.887
  0
LINE
  8
0
 10
107.969
 11
108.05
 20
70.887
 21
70.4
  0
LINE
  8
0
 10
108.05
 11
107.969
 20
70.4
 21
69.913
  0
LINE
  8
0
 10
107.969
 11
107.734
 20
69.913
 21
69.479
  0
LINE
  8
0
 10
107.734
 11
107.37
 20
69.479
 21
69.144
  0
LINE
  8
0
 10
107.37
 11
106.918
 20
69.144
 21
68.946
  0
LINE
  8
0
 10
106.918
 11
106.426
 20
68.946
 21
68.905
  0
LINE
  8
0
 10
106.426
 11
105.947
 20
68.905
 21
69.026
  0
LINE
  8
0
 10
105.947
 11
105.534
 20
69.026
 21
69.296
  0
LINE
  8
0
 10
105.534
 11
105.231
 20
69.296
 21
69.686
  0
LINE
  8
0
 10
105.231
 11
105.07
 20
69.686
 21
70.153
  0
LINE
  8
0
 10
110.45
 11
110.531
 20
-120.5
 21
-120.013
  0
LINE
  8
0
 10
110.531
 11
110.766
 20
-120.013
 21
-119.579
  0
LINE
  8
0
 10
110.766
 11
111.13
 20
-119.579
 21
-119.244
  0
LINE
  8
0
 10
111.13
 11
111.582
 20
-119.244
 21
-119.046
  0
LINE
  8
0
 10
111.582
 11
112.074
 20
-119.046
 21
-119.005
  0
LINE
  8
0
 10
112.074
 11
112.553
 20
-119.005
 21
-119.126
  0
LINE
  8
0
 10
112.553
 11
112.966
 20
-119.126
 21
-119.396
  0
LINE
  8
0
 10
112.966
 11
113.269
 20
-119.396
 21
-119.786
  0
LINE
  8
0
 10
113.269
 11
113.43
 20
-119.786
 21
-120.253
  0
LINE
  8
0
 10
113.43
 11
113.43
 20
-120.253
 21
-120.747
  0
LINE
  8
0
 10
113.43
 11
113.269
 20
-120.747
 21
-121.214
  0
LINE
  8
0
 10
113.269
 11
112.966
 20
-121.214
 21
-121.604
  0
LINE
  8
0
 10
112.966
 11
112.553
 20
-121.604
 21
-121.874
  0
LINE
  8
0
 10
112.553
 11
112.074
 20
-121.874
 21
-121.995
  0
LINE
  8
0
 10
112.074
 11
111.582
 20
-121.995
 21
-121.954
  0
LINE
  8
0
 10
111.582
 11
111.13
 20
-121.954
 21
-121.756
  0
LINE
  8
0
 10
111.13
 11
110.766
 20
-121.756
 21
-121.421
  0
LINE
  8
0
 10
110.766
 11
110.531
 20
-121.421
 21
-120.987
  0
LINE
  8
0
 10
110.531
 11
110.45
 20
-120.987
 21
-120.5
  0
LINE
  8
0
 10
110.45
 11
110.531
 20
65.4
 21
65.887
  0
LINE
  8
0
 10
110.531
 11
110.766
 20
65.887
 21
66.321
  0
LINE
  8
0
 10
110.766
 11
111.13
 20
66.321
 21
66.656
  0
LINE
  8
0
 10
111.13
 11
111.582
 20
66.656
 21
66.854
  0
LINE
  8
0
 10
111.582
 11
112.074
 20
66.854
 21
66.895
  0
LINE
  8
0
 10
112.074
 11
112.553
 20
66.895
 21
66.774
  0
LINE
  8
0
 10
112.553
 11
112.966
 20
66.774
 21
66.504
  0
LINE
  8
0
 10
112.966
 11
113.269
 20
66.504
 21
66.114
  0
LINE
  8
0
 10
113.269
 11
113.43
 20
66.114
 21
65.647
  0
LINE
  8
0
 10
113.43
 11
113.43
 20
65.647
 21
65.153
  0
LINE
  8
0
 10
113.43
 11
113.269
 20
65.153
 21
64.686
  0
LINE
  8
0
 10
113.269
 11
112.966
 20
64.686
 21
64.296
  0
LINE
  8
0
 10
112.966
 11
112.553
 20
64.296
 21
64.026
  0
LINE
  8
0
 10
112.553
 11
112.074
 20
64.026
 21
63.905
  0
LINE
  8
0
 10
112.074
 11
111.582
 20
63.905
 21
63.946
  0
LINE
  8
0
 10
111.582
 11
111.13
 20
63.946
 21
64.144
  0
LINE
  8
0
 10
111.13
 11
110.766
 20
64.144
 21
64.479
  0
LINE
  8
0
 10
110.766
 11
110.531
 20
64.479
 21
64.913
  0
LINE
  8
0
 10
110.531
 11
110.45
 20
64.913
 21
65.4
  0
LINE
  8
0
 10
112.35
 11
112.398
 20
75.4
 21
75.888
  0
LINE
  8
0
 10
112.398
 11
112.54
 20
75.888
 21
76.357
  0
LINE
  8
0
 10
112.54
 11
112.771
 20
76.357
 21
76.789
  0
LINE
  8
0
 10
112.771
 11
113.082
 20
76.789
 21
77.168
  0
LINE
  8
0
 10
113.082
 11
113.461
 20
77.168
 21
77.479
  0
LINE
  8
0
 10
113.461
 11
113.893
 20
77.479
 21
77.71
  0
LINE
  8
0
 10
113.893
 11
114.362
 20
77.71
 21
77.852
  0
LINE
  8
0
 10
114.362
 11
114.85
 20
77.852
 21
77.9
  0
LINE
  8
0
 10
114.85
 11
115.338
 20
77.9
 21
77.852
  0
LINE
  8
0
 10
115.338
 11
115.807
 20
77.852
 21
77.71
  0
LINE
  8
0
 10
115.807
 11
116.239
 20
77.71
 21
77.479
  0
LINE
  8
0
 10
116.239
 11
116.618
 20
77.479
 21
77.168
  0
LINE
  8
0
 10
116.618
 11
116.929
 20
77.168
 21
76.789
  0
LINE
  8
0
 10
116.929
 11
117.16
 20
76.789
 21
76.357
  0
LINE
  8
0
 10
117.16
 11
117.302
 20
76.357
 21
75.888
  0
LINE
  8
0
 10
117.302
 11
117.35
 20
75.888
 21
75.4
  0
LINE
  8
0
 10
117.35
 11
117.302
 20
75.4
 21
74.912
  0
LINE
  8
0
 10
117.302
 11
117.16
 20
74.912
 21
74.443
  0
LINE
  8
0
 10
117.16
 11
116.929
 20
74.443
 21
74.011
  0
LINE
  8
0
 10
116.929
 11
116.618
 20
74.011
 21
73.632
  0
LINE
  8
0
 10
116.618
 11
116.239
 20
73.632
 21
73.321
  0
LINE
  8
0
 10
116.239
 11
115.807
 20
73.321
 21
73.09
  0
LINE
  8
0
 10
115.807
 11
115.338
 20
73.09
 21
72.948
  0
LINE
  8
0
 10
115.338
 11
114.85
 20
72.948
 21
72.9
  0
LINE
  8
0
 10
114.85
 11
114.362
 20
72.9
 21
72.948
  0
LINE
  8
0
 10
114.362
 11
113.893
 20
72.948
 21
73.09
  0
LINE
  8
0
 10
113.893
 11
113.461
 20
73.09
 21
73.321
  0
LINE
  8
0
 10
113.461
 11
113.082
 20
73.321
 21
73.632
  0
LINE
  8
0
 10
113.082
 11
112.771
 20
73.632
 21
74.011
  0
LINE
  8
0
 10
112.771
 11
112.54
 20
74.011
 21
74.443
  0
LINE
  8
0
 10
112.54
 11
112.398
 20
74.443
 21
74.912
  0
LINE
  8
0
 10
112.398
 11
112.35
 20
74.912
 21
75.4
  0
LINE
  8
0
 10
116.25
 11
116.331
 20
-120.5
 21
-120.013
  0
LINE
  8
0
 10
116.331
 11
116.566
 20
-120.013
 21
-119.579
  0
LINE
  8
0
 10
116.566
 11
116.93
 20
-119.579
 21
-119.244
  0
LINE
  8
0
 10
116.93
 11
117.382
 20
-119.244
 21
-119.046
  0
LINE
  8
0
 10
117.382
 11
117.874
 20
-119.046
 21
-119.005
  0
LINE
  8
0
 10
117.874
 11
118.353
 20
-119.005
 21
-119.126
  0
LINE
  8
0
 10
118.353
 11
118.766
 20
-119.126
 21
-119.396
  0
LINE
  8
0
 10
118.766
 11
119.069
 20
-119.396
 21
-119.786
  0
LINE
  8
0
 10
119.069
 11
119.23
 20
-119.786
 21
-120.253
  0
LINE
  8
0
 10
119.23
 11
119.23
 20
-120.253
 21
-120.747
  0
LINE
  8
0
 10
119.23
 11
119.069
 20
-120.747
 21
-121.214
  0
LINE
  8
0
 10
119.069
 11
118.766
 20
-121.214
 21
-121.604
  0
LINE
  8
0
 10
118.766
 11
118.353
 20
-121.604
 21
-121.874
  0
LINE
  8
0
 10
118.353
 11
117.874
 20
-121.874
 21
-121.995
  0
LINE
  8
0
 10
117.874
 11
117.382
 20
-121.995
 21
-121.954
  0
LINE
  8
0
 10
117.382
 11
116.93
 20
-121.954
 21
-121.756
  0
LINE
  8
0
 10
116.93
 11
116.566
 20
-121.756
 21
-121.421
  0
LINE
  8
0
 10
116.566
 11
116.331
 20
-121.421
 21
-120.987
  0
LINE
  8
0
 10
116.331
 11
116.25
 20
-120.987
 21
-120.5
  0
LINE
  8
0
 10
116.25
 11
116.331
 20
65.4
 21
65.887
  0
LINE
  8
0
 10
116.331
 11
116.566
 20
65.887
 21
66.321
  0
LINE
  8
0
 10
116.566
 11
116.93
 20
66.321
 21
66.656
  0
LINE
  8
0
 10
116.93
 11
117.382
 20
66.656
 21
66.854
  0
LINE
  8
0
 10
117.382
 11
117.874
 20
66.854
 21
66.895
  0
LINE
  8
0
 10
117.874
 11
118.353
 20
66.895
 21
66.774
  0
LINE
  8
0
 10
118.353
 11
118.766
 20
66.774
 21
66.504
  0
LINE
  8
0
 10
118.766
 11
119.069
 20
66.504
 21
66.114
  0
LINE
  8
0
 10
119.069
 11
119.23
 20
66.114
 21
65.647
  0
LINE
  8
0
 10
119.23
 11
119.23
 20
65.647
 21
65.153
  0
LINE
  8
0
 10
119.23
 11
119.069
 20
65.153
 21
64.686
  0
LINE
  8
0
 10
119.069
 11
118.766
 20
64.686
 21
64.296
  0
LINE
  8
0
 10
118.766
 11
118.353
 20
64.296
 21
64.026
  0
LINE
  8
0
 10
118.353
 11
117.874
 20
64.026
 21
63.905
  0
LINE
  8
0
 10
117.874
 11
117.382
 20
63.905
 21
63.946
  0
LINE
  8
0
 10
117.382
 11
116.93
 20
63.946
 21
64.144
  0
LINE
  8
0
 10
116.93
 11
116.566
 20
64.144
 21
64.479
  0
LINE
  8
0
 10
116.566
 11
116.331
 20
64.479
 21
64.913
  0
LINE
  8
0
 10
116.331
 11
116.25
 20
64.913
 21
65.4
  0
LINE
  8
0
 10
116.35
 11
116.405
 20
-190.69
 21
-190.2
  0
LINE
  8
0
 10
116.405
 11
116.568
 20
-190.2
 21
-189.735
  0
LINE
  8
0
 10
116.568
 11
116.83
 20
-189.735
 21
-189.318
  0
LINE
  8
0
 10
116.83
 11
117.178
 20
-189.318
 21
-188.97
  0
LINE
  8
0
 10
117.178
 11
117.595
 20
-188.97
 21
-188.708
  0
LINE
  8
0
 10
117.595
 11
118.06
 20
-188.708
 21
-188.545
  0
LINE
  8
0
 10
118.06
 11
118.55
 20
-188.545
 21
-188.49
  0
LINE
  8
0
 10
118.55
 11
119.04
 20
-188.49
 21
-188.545
  0
LINE
  8
0
 10
119.04
 11
119.505
 20
-188.545
 21
-188.708
  0
LINE
  8
0
 10
119.505
 11
119.922
 20
-188.708
 21
-188.97
  0
LINE
  8
0
 10
119.922
 11
120.27
 20
-188.97
 21
-189.318
  0
LINE
  8
0
 10
120.27
 11
120.532
 20
-189.318
 21
-189.735
  0
LINE
  8
0
 10
120.532
 11
120.695
 20
-189.735
 21
-190.2
  0
LINE
  8
0
 10
120.695
 11
120.75
 20
-190.2
 21
-190.69
  0
LINE
  8
0
 10
120.75
 11
120.695
 20
-190.69
 21
-191.18
  0
LINE
  8
0
 10
120.695
 11
120.532
 20
-191.18
 21
-191.645
  0
LINE
  8
0
 10
120.532
 11
120.27
 20
-191.645
 21
-192.062
  0
LINE
  8
0
 10
120.27
 11
119.922
 20
-192.062
 21
-192.41
  0
LINE
  8
0
 10
119.922
 11
119.505
 20
-192.41
 21
-192.672
  0
LINE
  8
0
 10
119.505
 11
119.04
 20
-192.672
 21
-192.835
  0
LINE
  8
0
 10
119.04
 11
118.55
 20
-192.835
 21
-192.89
  0
LINE
  8
0
 10
118.55
 11
118.06
 20
-192.89
 21
-192.835
  0
LINE
  8
0
 10
118.06
 11
117.595
 20
-192.835
 21
-192.672
  0
LINE
  8
0
 10
117.595
 11
117.178
 20
-192.672
 21
-192.41
  0
LINE
  8
0
 10
117.178
 11
116.83
 20
-192.41
 21
-192.062
  0
LINE
  8
0
 10
116.83
 11
116.568
 20
-192.062
 21
-191.645
  0
LINE
  8
0
 10
116.568
 11
116.405
 20
-191.645
 21
-191.18
  0
LINE
  8
0
 10
116.405
 11
116.35
 20
-191.18
 21
-190.69
  0
LINE
  8
0
 10
116.35
 11
116.405
 20
190.69
 21
191.18
  0
LINE
  8
0
 10
116.405
 11
116.568
 20
191.18
 21
191.645
  0
LINE
  8
0
 10
116.568
 11
116.83
 20
191.645
 21
192.062
  0
LINE
  8
0
 10
116.83
 11
117.178
 20
192.062
 21
192.41
  0
LINE
  8
0
 10
117.178
 11
117.595
 20
192.41
 21
192.672
  0
LINE
  8
0
 10
117.595
 11
118.06
 20
192.672
 21
192.835
  0
LINE
  8
0
 10
118.06
 11
118.55
 20
192.835
 21
192.89
  0
LINE
  8
0
 10
118.55
 11
119.04
 20
192.89
 21
192.835
  0
LINE
  8
0
 10
119.04
 11
119.505
 20
192.835
 21
192.672
  0
LINE
  8
0
 10
119.505
 11
119.922
 20
192.672
 21
192.41
  0
LINE
  8
0
 10
119.922
 11
120.27
 20
192.41
 21
192.062
  0
LINE
  8
0
 10
120.27
 11
120.532
 20
192.062
 21
191.645
  0
LINE
  8
0
 10
120.532
 11
120.695
 20
191.645
 21
191.18
  0
LINE
  8
0
 10
120.695
 11
120.75
 20
191.18
 21
190.69
  0
LINE
  8
0
 10
120.75
 11
120.695
 20
190.69
 21
190.2
  0
LINE
  8
0
 10
120.695
 11
120.532
 20
190.2
 21
189.735
  0
LINE
  8
0
 10
120.532
 11
120.27
 20
189.735
 21
189.318
  0
LINE
  8
0
 10
120.27
 11
119.922
 20
189.318
 21
188.97
  0
LINE
  8
0
 10
119.922
 11
119.505
 20
188.97
 21
188.708
  0
LINE
  8
0
 10
119.505
 11
119.04
 20
188.708
 21
188.545
  0
LINE
  8
0
 10
119.04
 11
118.55
 20
188.545
 21
188.49
  0
LINE
  8
0
 10
118.55
 11
118.06
 20
188.49
 21
188.545
  0
LINE
  8
0
 10
118.06
 11
117.595
 20
188.545
 21
188.708
  0
LINE
  8
0
 10
117.595
 11
117.178
 20
188.708
 21
188.97
  0
LINE
  8
0
 10
117.178
 11
116.83
 20
188.97
 21
189.318
  0
LINE
  8
0
 10
116.83
 11
116.568
 20
189.318
 21
189.735
  0
LINE
  8
0
 10
116.568
 11
116.405
 20
189.735
 21
190.2
  0
LINE
  8
0
 10
116.405
 11
116.35
 20
190.2
 21
190.69
  0
LINE
  8
0
 10
156.258
 11
156.258
 20
-0.246
 21
0.246
  0
LINE
  8
0
 10
156.258
 11
156.318
 20
0.246
 21
0.735
  0
LINE
  8
0
 10
156.318
 11
156.438
 20
0.735
 21
1.213
  0
LINE
  8
0
 10
156.438
 11
156.616
 20
1.213
 21
1.672
  0
LINE
  8
0
 10
156.616
 11
156.849
 20
1.672
 21
2.106
  0
LINE
  8
0
 10
156.849
 11
157.134
 20
2.106
 21
2.508
  0
LINE
  8
0
 10
157.134
 11
157.465
 20
2.508
 21
2.872
  0
LINE
  8
0
 10
157.465
 11
157.839
 20
2.872
 21
3.192
  0
LINE
  8
0
 10
157.839
 11
158.25
 20
3.192
 21
3.464
  0
LINE
  8
0
 10
158.25
 11
158.691
 20
3.464
 21
3.684
  0
LINE
  8
0
 10
158.691
 11
159.155
 20
3.684
 21
3.847
  0
LINE
  8
0
 10
159.155
 11
159.636
 20
3.847
 21
3.953
  0
LINE
  8
0
 10
159.636
 11
160.127
 20
3.953
 21
3.998
  0
LINE
  8
0
 10
160.127
 11
160.619
 20
3.998
 21
3.983
  0
LINE
  8
0
 10
160.619
 11
161.106
 20
3.983
 21
3.907
  0
LINE
  8
0
 10
161.106
 11
161.579
 20
3.907
 21
3.773
  0
LINE
  8
0
 10
161.579
 11
162.033
 20
3.773
 21
3.581
  0
LINE
  8
0
 10
162.033
 11
162.459
 20
3.581
 21
3.334
  0
LINE
  8
0
 10
162.459
 11
162.852
 20
3.334
 21
3.038
  0
LINE
  8
0
 10
162.852
 11
163.206
 20
3.038
 21
2.695
  0
LINE
  8
0
 10
163.206
 11
163.515
 20
2.695
 21
2.311
  0
LINE
  8
0
 10
163.515
 11
163.774
 20
2.311
 21
1.892
  0
LINE
  8
0
 10
163.774
 11
163.98
 20
1.892
 21
1.445
  0
LINE
  8
0
 10
163.98
 11
164.129
 20
1.445
 21
0.976
  0
LINE
  8
0
 10
164.129
 11
164.22
 20
0.976
 21
0.492
  0
LINE
  8
0
 10
164.22
 11
164.25
 20
0.492
 21
0
  0
LINE
  8
0
 10
164.25
 11
164.22
 20
0
 21
-0.492
  0
LINE
  8
0
 10
164.22
 11
164.129
 20
-0.492
 21
-0.976
  0
LINE
  8
0
 10
164.129
 11
163.98
 20
-0.976
 21
-1.445
  0
LINE
  8
0
 10
163.98
 11
163.774
 20
-1.445
 21
-1.892
  0
LINE
  8
0
 10
163.774
 11
163.515
 20
-1.892
 21
-2.311
  0
LINE
  8
0
 10
163.515
 11
163.206
 20
-2.311
 21
-2.695
  0
LINE
  8
0
 10
163.206
 11
162.852
 20
-2.695
 21
-3.038
  0
LINE
  8
0
 10
162.852
 11
162.459
 20
-3.038
 21
-3.334
  0
LINE
  8
0
 10
162.459
 11
162.033
 20
-3.334
 21
-3.581
  0
LINE
  8
0
 10
162.033
 11
161.579
 20
-3.581
 21
-3.773
  0
LINE
  8
0
 10
161.579
 11
161.106
 20
-3.773
 21
-3.907
  0
LINE
  8
0
 10
161.106
 11
160.619
 20
-3.907
 21
-3.983
  0
LINE
  8
0
 10
160.619
 11
160.127
 20
-3.983
 21
-3.998
  0
LINE
  8
0
 10
160.127
 11
159.636
 20
-3.998
 21
-3.953
  0
LINE
  8
0
 10
159.636
 11
159.155
 20
-3.953
 21
-3.847
  0
LINE
  8
0
 10
159.155
 11
158.691
 20
-3.847
 21
-3.684
  0
LINE
  8
0
 10
158.691
 11
158.25
 20
-3.684
 21
-3.464
  0
LINE
  8
0
 10
158.25
 11
157.839
 20
-3.464
 21
-3.192
  0
LINE
  8
0
 10
157.839
 11
157.465
 20
-3.192
 21
-2.872
  0
LINE
  8
0
 10
157.465
 11
157.134
 20
-2.872
 21
-2.508
  0
LINE
  8
0
 10
157.134
 11
156.849
 20
-2.508
 21
-2.106
  0
LINE
  8
0
 10
156.849
 11
156.616
 20
-2.106
 21
-1.672
  0
LINE
  8
0
 10
156.616
 11
156.438
 20
-1.672
 21
-1.213
  0
LINE
  8
0
 10
156.438
 11
156.318
 20
-1.213
 21
-0.735
  0
LINE
  8
0
 10
156.318
 11
156.258
 20
-0.735
 21
-0.246
  0
LINE
  8
0
 10
156.86
 11
156.915
 20
64.7
 21
65.19
  0
LINE
  8
0
 10
156.915
 11
157.078
 20
65.19
 21
65.655
  0
LINE
  8
0
 10
157.078
 11
157.34
 20
65.655
 21
66.072
  0
LINE
  8
0
 10
157.34
 11
157.688
 20
66.072
 21
66.42
  0
LINE
  8
0
 10
157.688
 11
158.105
 20
66.42
 21
66.682
  0
LINE
  8
0
 10
158.105
 11
158.57
 20
66.682
 21
66.845
  0
LINE
  8
0
 10
158.57
 11
159.06
 20
66.845
 21
66.9
  0
LINE
  8
0
 10
159.06
 11
159.55
 20
66.9
 21
66.845
  0
LINE
  8
0
 10
159.55
 11
160.015
 20
66.845
 21
66.682
  0
LINE
  8
0
 10
160.015
 11
160.432
 20
66.682
 21
66.42
  0
LINE
  8
0
 10
160.432
 11
160.78
 20
66.42
 21
66.072
  0
LINE
  8
0
 10
160.78
 11
161.042
 20
66.072
 21
65.655
  0
LINE
  8
0
 10
161.042
 11
161.205
 20
65.655
 21
65.19
  0
LINE
  8
0
 10
161.205
 11
161.26
 20
65.19
 21
64.7
  0
LINE
  8
0
 10
161.26
 11
161.205
 20
64.7
 21
64.21
  0
LINE
  8
0
 10
161.205
 11
161.042
 20
64.21
 21
63.745
  0
LINE
  8
0
 10
161.042
 11
160.78
 20
63.745
 21
63.328
  0
LINE
  8
0
 10
160.78
 11
160.432
 20
63.328
 21
62.98
  0
LINE
  8
0
 10
160.432
 11
160.015
 20
62.98
 21
62.718
  0
LINE
  8
0
 10
160.015
 11
159.55
 20
62.718
 21
62.555
  0
LINE
  8
0
 10
159.55
 11
159.06
 20
62.555
 21
62.5
  0
LINE
  8
0
 10
159.06
 11
158.57
 20
62.5
 21
62.555
  0
LINE
  8
0
 10
158.57
 11
158.105
 20
62.555
 21
62.718
  0
LINE
  8
0
 10
158.105
 11
157.688
 20
62.718
 21
62.98
  0
LINE
  8
0
 10
157.688
 11
157.34
 20
62.98
 21
63.328
  0
LINE
  8
0
 10
157.34
 11
157.078
 20
63.328
 21
63.745
  0
LINE
  8
0
 10
157.078
 11
156.915
 20
63.745
 21
64.21
  0
LINE
  8
0
 10
156.915
 11
156.86
 20
64.21
 21
64.7
  0
LINE
  8
0
 10
214.74
 11
214.795
 20
64.7
 21
65.19
  0
LINE
  8
0
 10
214.795
 11
214.958
 20
65.19
 21
65.655
  0
LINE
  8
0
 10
214.958
 11
215.22
 20
65.655
 21
66.072
  0
LINE
  8
0
 10
215.22
 11
215.568
 20
66.072
 21
66.42
  0
LINE
  8
0
 10
215.568
 11
215.985
 20
66.42
 21
66.682
  0
LINE
  8
0
 10
215.985
 11
216.45
 20
66.682
 21
66.845
  0
LINE
  8
0
 10
216.45
 11
216.94
 20
66.845
 21
66.9
  0
LINE
  8
0
 10
216.94
 11
217.43
 20
66.9
 21
66.845
  0
LINE
  8
0
 10
217.43
 11
217.895
 20
66.845
 21
66.682
  0
LINE
  8
0
 10
217.895
 11
218.312
 20
66.682
 21
66.42
  0
LINE
  8
0
 10
218.312
 11
218.66
 20
66.42
 21
66.072
  0
LINE
  8
0
 10
218.66
 11
218.922
 20
66.072
 21
65.655
  0
LINE
  8
0
 10
218.922
 11
219.085
 20
65.655
 21
65.19
  0
LINE
  8
0
 10
219.085
 11
219.14
 20
65.19
 21
64.7
  0
LINE
  8
0
 10
219.14
 11
219.085
 20
64.7
 21
64.21
  0
LINE
  8
0
 10
219.085
 11
218.922
 20
64.21
 21
63.745
  0
LINE
  8
0
 10
218.922
 11
218.66
 20
63.745
 21
63.328
  0
LINE
  8
0
 10
218.66
 11
218.312
 20
63.328
 21
62.98
  0
LINE
  8
0
 10
218.312
 11
217.895
 20
62.98
 21
62.718
  0
LINE
  8
0
 10
217.895
 11
217.43
 20
62.718
 21
62.555
  0
LINE
  8
0
 10
217.43
 11
216.94
 20
62.555
 21
62.5
  0
LINE
  8
0
 10
216.94
 11
216.45
 20
62.5
 21
62.555
  0
LINE
  8
0
 10
216.45
 11
215.985
 20
62.555
 21
62.718
  0
LINE
  8
0
 10
215.985
 11
215.568
 20
62.718
 21
62.98
  0
LINE
  8
0
 10
215.568
 11
215.22
 20
62.98
 21
63.328
  0
LINE
  8
0
 10
215.22
 11
214.958
 20
63.328
 21
63.745
  0
LINE
  8
0
 10
214.958
 11
214.795
 20
63.745
 21
64.21
  0
LINE
  8
0
 10
214.795
 11
214.74
 20
64.21
 21
64.7
  0
LINE
  8
0
 10
218.45
 11
218.505
 20
83.9
 21
84.39
  0
LINE
  8
0
 10
218.505
 11
218.668
 20
84.39
 21
84.855
  0
LINE
  8
0
 10
218.668
 11
218.93
 20
84.855
 21
85.272
  0
LINE
  8
0
 10
218.93
 11
219.278
 20
85.272
 21
85.62
  0
LINE
  8
0
 10
219.278
 11
219.695
 20
85.62
 21
85.882
  0
LINE
  8
0
 10
219.695
 11
220.16
 20
85.882
 21
86.045
  0
LINE
  8
0
 10
220.16
 11
220.65
 20
86.045
 21
86.1
  0
LINE
  8
0
 10
220.65
 11
221.14
 20
86.1
 21
86.045
  0
LINE
  8
0
 10
221.14
 11
221.605
 20
86.045
 21
85.882
  0
LINE
  8
0
 10
221.605
 11
222.022
 20
85.882
 21
85.62
  0
LINE
  8
0
 10
222.022
 11
222.37
 20
85.62
 21
85.272
  0
LINE
  8
0
 10
222.37
 11
222.632
 20
85.272
 21
84.855
  0
LINE
  8
0
 10
222.632
 11
222.795
 20
84.855
 21
84.39
  0
LINE
  8
0
 10
222.795
 11
222.85
 20
84.39
 21
83.9
  0
LINE
  8
0
 10
222.85
 11
222.795
 20
83.9
 21
83.41
  0
LINE
  8
0
 10
222.795
 11
222.632
 20
83.41
 21
82.945
  0
LINE
  8
0
 10
222.632
 11
222.37
 20
82.945
 21
82.528
  0
LINE
  8
0
 10
222.37
 11
222.022
 20
82.528
 21
82.18
  0
LINE
  8
0
 10
222.022
 11
221.605
 20
82.18
 21
81.918
  0
LINE
  8
0
 10
221.605
 11
221.14
 20
81.918
 21
81.755
  0
LINE
  8
0
 10
221.14
 11
220.65
 20
81.755
 21
81.7
  0
LINE
  8
0
 10
220.65
 11
220.16
 20
81.7
 21
81.755
  0
LINE
  8
0
 10
220.16
 11
219.695
 20
81.755
 21
81.918
  0
LINE
  8
0
 10
219.695
 11
219.278
 20
81.918
 21
82.18
  0
LINE
  8
0
 10
219.278
 11
218.93
 20
82.18
 21
82.528
  0
LINE
  8
0
 10
218.93
 11
218.668
 20
82.528
 21
82.945
  0
LINE
  8
0
 10
218.668
 11
218.505
 20
82.945
 21
83.41
  0
LINE
  8
0
 10
218.505
 11
218.45
 20
83.41
 21
83.9
  0
ENDSEC
  0
SECTION
  2
OBJECTS
  0
DICTIONARY
  0
ENDSEC
  0
EOF
