  0
SECTION
  2
BLOCKS
  0
ENDSEC
  0
SECTION
  2
ENTITIES
  0
LINE
  8
0
 10
-237.25
 11
-237.25
 20
0
 21
375
  0
LINE
  8
0
 10
-237.25
 11
-237.212
 20
375
 21
375.872
  0
LINE
  8
0
 10
-237.212
 11
-237.098
 20
375.872
 21
376.736
  0
LINE
  8
0
 10
-237.098
 11
-236.909
 20
376.736
 21
377.588
  0
LINE
  8
0
 10
-236.909
 11
-236.647
 20
377.588
 21
378.42
  0
LINE
  8
0
 10
-236.647
 11
-236.313
 20
378.42
 21
379.226
  0
LINE
  8
0
 10
-236.313
 11
-235.91
 20
379.226
 21
380
  0
LINE
  8
0
 10
-235.91
 11
-235.442
 20
380
 21
380.736
  0
LINE
  8
0
 10
-235.442
 11
-234.91
 20
380.736
 21
381.428
  0
LINE
  8
0
 10
-234.91
 11
-234.321
 20
381.428
 21
382.071
  0
LINE
  8
0
 10
-234.321
 11
-233.678
 20
382.071
 21
382.66
  0
LINE
  8
0
 10
-233.678
 11
-232.986
 20
382.66
 21
383.192
  0
LINE
  8
0
 10
-232.986
 11
-232.25
 20
383.192
 21
383.66
  0
LINE
  8
0
 10
-232.25
 11
-231.476
 20
383.66
 21
384.063
  0
LINE
  8
0
 10
-231.476
 11
-230.67
 20
384.063
 21
384.397
  0
LINE
  8
0
 10
-230.67
 11
-229.838
 20
384.397
 21
384.659
  0
LINE
  8
0
 10
-229.838
 11
-228.986
 20
384.659
 21
384.848
  0
LINE
  8
0
 10
-228.986
 11
-228.122
 20
384.848
 21
384.962
  0
LINE
  8
0
 10
-228.122
 11
-227.25
 20
384.962
 21
385
  0
LINE
  8
0
 10
-227.25
 11
227.25
 20
385
 21
385
  0
LINE
  8
0
 10
227.25
 11
228.122
 20
385
 21
384.962
  0
LINE
  8
0
 10
228.122
 11
228.986
 20
384.962
 21
384.848
  0
LINE
  8
0
 10
228.986
 11
229.838
 20
384.848
 21
384.659
  0
LINE
  8
0
 10
229.838
 11
230.67
 20
384.659
 21
384.397
  0
LINE
  8
0
 10
230.67
 11
231.476
 20
384.397
 21
384.063
  0
LINE
  8
0
 10
231.476
 11
232.25
 20
384.063
 21
383.66
  0
LINE
  8
0
 10
232.25
 11
232.986
 20
383.66
 21
383.192
  0
LINE
  8
0
 10
232.986
 11
233.678
 20
383.192
 21
382.66
  0
LINE
  8
0
 10
233.678
 11
234.321
 20
382.66
 21
382.071
  0
LINE
  8
0
 10
234.321
 11
234.91
 20
382.071
 21
381.428
  0
LINE
  8
0
 10
234.91
 11
235.442
 20
381.428
 21
380.736
  0
LINE
  8
0
 10
235.442
 11
235.91
 20
380.736
 21
380
  0
LINE
  8
0
 10
235.91
 11
236.313
 20
380
 21
379.226
  0
LINE
  8
0
 10
236.313
 11
236.647
 20
379.226
 21
378.42
  0
LINE
  8
0
 10
236.647
 11
236.909
 20
378.42
 21
377.588
  0
LINE
  8
0
 10
236.909
 11
237.098
 20
377.588
 21
376.736
  0
LINE
  8
0
 10
237.098
 11
237.212
 20
376.736
 21
375.872
  0
LINE
  8
0
 10
237.212
 11
237.25
 20
375.872
 21
375
  0
LINE
  8
0
 10
237.25
 11
237.25
 20
375
 21
0
  0
LINE
  8
0
 10
237.25
 11
118.25
 20
0
 21
0
  0
LINE
  8
0
 10
118.25
 11
118.25
 20
0
 21
34.544
  0
LINE
  8
0
 10
118.25
 11
118.55
 20
34.544
 21
34.51
  0
LINE
  8
0
 10
118.55
 11
119.04
 20
34.51
 21
34.565
  0
LINE
  8
0
 10
119.04
 11
119.505
 20
34.565
 21
34.728
  0
LINE
  8
0
 10
119.505
 11
119.922
 20
34.728
 21
34.99
  0
LINE
  8
0
 10
119.922
 11
120.27
 20
34.99
 21
35.338
  0
LINE
  8
0
 10
120.27
 11
120.532
 20
35.338
 21
35.755
  0
LINE
  8
0
 10
120.532
 11
120.695
 20
35.755
 21
36.22
  0
LINE
  8
0
 10
120.695
 11
120.75
 20
36.22
 21
36.71
  0
LINE
  8
0
 10
120.75
 11
120.695
 20
36.71
 21
37.2
  0
LINE
  8
0
 10
120.695
 11
120.532
 20
37.2
 21
37.665
  0
LINE
  8
0
 10
120.532
 11
120.27
 20
37.665
 21
38.082
  0
LINE
  8
0
 10
120.27
 11
119.922
 20
38.082
 21
38.43
  0
LINE
  8
0
 10
119.922
 11
119.505
 20
38.43
 21
38.692
  0
LINE
  8
0
 10
119.505
 11
119.04
 20
38.692
 21
38.855
  0
LINE
  8
0
 10
119.04
 11
118.55
 20
38.855
 21
38.91
  0
LINE
  8
0
 10
118.55
 11
118.25
 20
38.91
 21
38.876
  0
LINE
  8
0
 10
118.25
 11
118.25
 20
38.876
 21
278.1
  0
LINE
  8
0
 10
118.25
 11
118.225
 20
278.1
 21
278.598
  0
LINE
  8
0
 10
118.225
 11
118.151
 20
278.598
 21
279.091
  0
LINE
  8
0
 10
118.151
 11
118.028
 20
279.091
 21
279.574
  0
LINE
  8
0
 10
118.028
 11
117.857
 20
279.574
 21
280.042
  0
LINE
  8
0
 10
117.857
 11
117.641
 20
280.042
 21
280.491
  0
LINE
  8
0
 10
117.641
 11
117.381
 20
280.491
 21
280.917
  0
LINE
  8
0
 10
117.381
 11
117.08
 20
280.917
 21
281.314
  0
LINE
  8
0
 10
117.08
 11
116.741
 20
281.314
 21
281.679
  0
LINE
  8
0
 10
116.741
 11
116.367
 20
281.679
 21
282.009
  0
LINE
  8
0
 10
116.367
 11
115.963
 20
282.009
 21
282.3
  0
LINE
  8
0
 10
115.963
 11
115.531
 20
282.3
 21
282.549
  0
LINE
  8
0
 10
115.531
 11
115.077
 20
282.549
 21
282.754
  0
LINE
  8
0
 10
115.077
 11
114.604
 20
282.754
 21
282.913
  0
LINE
  8
0
 10
114.604
 11
114.118
 20
282.913
 21
283.024
  0
LINE
  8
0
 10
114.118
 11
113.624
 20
283.024
 21
283.086
  0
LINE
  8
0
 10
113.624
 11
113.25
 20
283.086
 21
283.095
  0
LINE
  8
0
 10
113.25
 11
113.25
 20
283.095
 21
283.1
  0
LINE
  8
0
 10
113.25
 11
-126.75
 20
283.1
 21
283.1
  0
LINE
  8
0
 10
-126.75
 11
-126.75
 20
283.1
 21
283.095
  0
LINE
  8
0
 10
-126.75
 11
-126.875
 20
283.095
 21
283.098
  0
LINE
  8
0
 10
-126.875
 11
-127.372
 20
283.098
 21
283.061
  0
LINE
  8
0
 10
-127.372
 11
-127.863
 20
283.061
 21
282.975
  0
LINE
  8
0
 10
-127.863
 11
-128.342
 20
282.975
 21
282.84
  0
LINE
  8
0
 10
-128.342
 11
-128.806
 20
282.84
 21
282.658
  0
LINE
  8
0
 10
-128.806
 11
-129.25
 20
282.658
 21
282.43
  0
LINE
  8
0
 10
-129.25
 11
-129.669
 20
282.43
 21
282.16
  0
LINE
  8
0
 10
-129.669
 11
-130.058
 20
282.16
 21
281.849
  0
LINE
  8
0
 10
-130.058
 11
-130.415
 20
281.849
 21
281.501
  0
LINE
  8
0
 10
-130.415
 11
-130.736
 20
281.501
 21
281.119
  0
LINE
  8
0
 10
-130.736
 11
-131.016
 20
281.119
 21
280.707
  0
LINE
  8
0
 10
-131.016
 11
-131.255
 20
280.707
 21
280.269
  0
LINE
  8
0
 10
-131.255
 11
-131.448
 20
280.269
 21
279.81
  0
LINE
  8
0
 10
-131.448
 11
-131.595
 20
279.81
 21
279.334
  0
LINE
  8
0
 10
-131.595
 11
-131.694
 20
279.334
 21
278.845
  0
LINE
  8
0
 10
-131.694
 11
-131.744
 20
278.845
 21
278.349
  0
LINE
  8
0
 10
-131.744
 11
-131.744
 20
278.349
 21
278.1
  0
LINE
  8
0
 10
-131.744
 11
-131.75
 20
278.1
 21
278.1
  0
LINE
  8
0
 10
-131.75
 11
-131.75
 20
278.1
 21
0
  0
LINE
  8
0
 10
-131.75
 11
-237.25
 20
0
 21
0
  0
LINE
  8
0
 10
-231.95
 11
-231.895
 20
109.1
 21
109.59
  0
LINE
  8
0
 10
-231.895
 11
-231.732
 20
109.59
 21
110.055
  0
LINE
  8
0
 10
-231.732
 11
-231.47
 20
110.055
 21
110.472
  0
LINE
  8
0
 10
-231.47
 11
-231.122
 20
110.472
 21
110.82
  0
LINE
  8
0
 10
-231.122
 11
-230.705
 20
110.82
 21
111.082
  0
LINE
  8
0
 10
-230.705
 11
-230.24
 20
111.082
 21
111.245
  0
LINE
  8
0
 10
-230.24
 11
-229.75
 20
111.245
 21
111.3
  0
LINE
  8
0
 10
-229.75
 11
-229.26
 20
111.3
 21
111.245
  0
LINE
  8
0
 10
-229.26
 11
-228.795
 20
111.245
 21
111.082
  0
LINE
  8
0
 10
-228.795
 11
-228.378
 20
111.082
 21
110.82
  0
LINE
  8
0
 10
-228.378
 11
-228.03
 20
110.82
 21
110.472
  0
LINE
  8
0
 10
-228.03
 11
-227.768
 20
110.472
 21
110.055
  0
LINE
  8
0
 10
-227.768
 11
-227.605
 20
110.055
 21
109.59
  0
LINE
  8
0
 10
-227.605
 11
-227.55
 20
109.59
 21
109.1
  0
LINE
  8
0
 10
-227.55
 11
-227.605
 20
109.1
 21
108.61
  0
LINE
  8
0
 10
-227.605
 11
-227.768
 20
108.61
 21
108.145
  0
LINE
  8
0
 10
-227.768
 11
-228.03
 20
108.145
 21
107.728
  0
LINE
  8
0
 10
-228.03
 11
-228.378
 20
107.728
 21
107.38
  0
LINE
  8
0
 10
-228.378
 11
-228.795
 20
107.38
 21
107.118
  0
LINE
  8
0
 10
-228.795
 11
-229.26
 20
107.118
 21
106.955
  0
LINE
  8
0
 10
-229.26
 11
-229.75
 20
106.955
 21
106.9
  0
LINE
  8
0
 10
-229.75
 11
-230.24
 20
106.9
 21
106.955
  0
LINE
  8
0
 10
-230.24
 11
-230.705
 20
106.955
 21
107.118
  0
LINE
  8
0
 10
-230.705
 11
-231.122
 20
107.118
 21
107.38
  0
LINE
  8
0
 10
-231.122
 11
-231.47
 20
107.38
 21
107.728
  0
LINE
  8
0
 10
-231.47
 11
-231.732
 20
107.728
 21
108.145
  0
LINE
  8
0
 10
-231.732
 11
-231.895
 20
108.145
 21
108.61
  0
LINE
  8
0
 10
-231.895
 11
-231.95
 20
108.61
 21
109.1
  0
LINE
  8
0
 10
-231.95
 11
-231.895
 20
150.5
 21
150.99
  0
LINE
  8
0
 10
-231.895
 11
-231.732
 20
150.99
 21
151.455
  0
LINE
  8
0
 10
-231.732
 11
-231.47
 20
151.455
 21
151.872
  0
LINE
  8
0
 10
-231.47
 11
-231.122
 20
151.872
 21
152.22
  0
LINE
  8
0
 10
-231.122
 11
-230.705
 20
152.22
 21
152.482
  0
LINE
  8
0
 10
-230.705
 11
-230.24
 20
152.482
 21
152.645
  0
LINE
  8
0
 10
-230.24
 11
-229.75
 20
152.645
 21
152.7
  0
LINE
  8
0
 10
-229.75
 11
-229.26
 20
152.7
 21
152.645
  0
LINE
  8
0
 10
-229.26
 11
-228.795
 20
152.645
 21
152.482
  0
LINE
  8
0
 10
-228.795
 11
-228.378
 20
152.482
 21
152.22
  0
LINE
  8
0
 10
-228.378
 11
-228.03
 20
152.22
 21
151.872
  0
LINE
  8
0
 10
-228.03
 11
-227.768
 20
151.872
 21
151.455
  0
LINE
  8
0
 10
-227.768
 11
-227.605
 20
151.455
 21
150.99
  0
LINE
  8
0
 10
-227.605
 11
-227.55
 20
150.99
 21
150.5
  0
LINE
  8
0
 10
-227.55
 11
-227.605
 20
150.5
 21
150.01
  0
LINE
  8
0
 10
-227.605
 11
-227.768
 20
150.01
 21
149.545
  0
LINE
  8
0
 10
-227.768
 11
-228.03
 20
149.545
 21
149.128
  0
LINE
  8
0
 10
-228.03
 11
-228.378
 20
149.128
 21
148.78
  0
LINE
  8
0
 10
-228.378
 11
-228.795
 20
148.78
 21
148.518
  0
LINE
  8
0
 10
-228.795
 11
-229.26
 20
148.518
 21
148.355
  0
LINE
  8
0
 10
-229.26
 11
-229.75
 20
148.355
 21
148.3
  0
LINE
  8
0
 10
-229.75
 11
-230.24
 20
148.3
 21
148.355
  0
LINE
  8
0
 10
-230.24
 11
-230.705
 20
148.355
 21
148.518
  0
LINE
  8
0
 10
-230.705
 11
-231.122
 20
148.518
 21
148.78
  0
LINE
  8
0
 10
-231.122
 11
-231.47
 20
148.78
 21
149.128
  0
LINE
  8
0
 10
-231.47
 11
-231.732
 20
149.128
 21
149.545
  0
LINE
  8
0
 10
-231.732
 11
-231.895
 20
149.545
 21
150.01
  0
LINE
  8
0
 10
-231.895
 11
-231.95
 20
150.01
 21
150.5
  0
LINE
  8
0
 10
-229.75
 11
-229.695
 20
8.2
 21
8.69
  0
LINE
  8
0
 10
-229.695
 11
-229.532
 20
8.69
 21
9.155
  0
LINE
  8
0
 10
-229.532
 11
-229.27
 20
9.155
 21
9.572
  0
LINE
  8
0
 10
-229.27
 11
-228.922
 20
9.572
 21
9.92
  0
LINE
  8
0
 10
-228.922
 11
-228.505
 20
9.92
 21
10.182
  0
LINE
  8
0
 10
-228.505
 11
-228.04
 20
10.182
 21
10.345
  0
LINE
  8
0
 10
-228.04
 11
-227.55
 20
10.345
 21
10.4
  0
LINE
  8
0
 10
-227.55
 11
-227.06
 20
10.4
 21
10.345
  0
LINE
  8
0
 10
-227.06
 11
-226.595
 20
10.345
 21
10.182
  0
LINE
  8
0
 10
-226.595
 11
-226.178
 20
10.182
 21
9.92
  0
LINE
  8
0
 10
-226.178
 11
-225.83
 20
9.92
 21
9.572
  0
LINE
  8
0
 10
-225.83
 11
-225.568
 20
9.572
 21
9.155
  0
LINE
  8
0
 10
-225.568
 11
-225.405
 20
9.155
 21
8.69
  0
LINE
  8
0
 10
-225.405
 11
-225.35
 20
8.69
 21
8.2
  0
LINE
  8
0
 10
-225.35
 11
-225.405
 20
8.2
 21
7.71
  0
LINE
  8
0
 10
-225.405
 11
-225.568
 20
7.71
 21
7.245
  0
LINE
  8
0
 10
-225.568
 11
-225.83
 20
7.245
 21
6.828
  0
LINE
  8
0
 10
-225.83
 11
-226.178
 20
6.828
 21
6.48
  0
LINE
  8
0
 10
-226.178
 11
-226.595
 20
6.48
 21
6.218
  0
LINE
  8
0
 10
-226.595
 11
-227.06
 20
6.218
 21
6.055
  0
LINE
  8
0
 10
-227.06
 11
-227.55
 20
6.055
 21
6
  0
LINE
  8
0
 10
-227.55
 11
-228.04
 20
6
 21
6.055
  0
LINE
  8
0
 10
-228.04
 11
-228.505
 20
6.055
 21
6.218
  0
LINE
  8
0
 10
-228.505
 11
-228.922
 20
6.218
 21
6.48
  0
LINE
  8
0
 10
-228.922
 11
-229.27
 20
6.48
 21
6.828
  0
LINE
  8
0
 10
-229.27
 11
-229.532
 20
6.828
 21
7.245
  0
LINE
  8
0
 10
-229.532
 11
-229.695
 20
7.245
 21
7.71
  0
LINE
  8
0
 10
-229.695
 11
-229.75
 20
7.71
 21
8.2
  0
LINE
  8
0
 10
-222.95
 11
-222.895
 20
61
 21
61.49
  0
LINE
  8
0
 10
-222.895
 11
-222.732
 20
61.49
 21
61.955
  0
LINE
  8
0
 10
-222.732
 11
-222.47
 20
61.955
 21
62.372
  0
LINE
  8
0
 10
-222.47
 11
-222.122
 20
62.372
 21
62.72
  0
LINE
  8
0
 10
-222.122
 11
-221.705
 20
62.72
 21
62.982
  0
LINE
  8
0
 10
-221.705
 11
-221.24
 20
62.982
 21
63.145
  0
LINE
  8
0
 10
-221.24
 11
-220.75
 20
63.145
 21
63.2
  0
LINE
  8
0
 10
-220.75
 11
-220.26
 20
63.2
 21
63.145
  0
LINE
  8
0
 10
-220.26
 11
-219.795
 20
63.145
 21
62.982
  0
LINE
  8
0
 10
-219.795
 11
-219.378
 20
62.982
 21
62.72
  0
LINE
  8
0
 10
-219.378
 11
-219.03
 20
62.72
 21
62.372
  0
LINE
  8
0
 10
-219.03
 11
-218.768
 20
62.372
 21
61.955
  0
LINE
  8
0
 10
-218.768
 11
-218.605
 20
61.955
 21
61.49
  0
LINE
  8
0
 10
-218.605
 11
-218.55
 20
61.49
 21
61
  0
LINE
  8
0
 10
-218.55
 11
-218.605
 20
61
 21
60.51
  0
LINE
  8
0
 10
-218.605
 11
-218.768
 20
60.51
 21
60.045
  0
LINE
  8
0
 10
-218.768
 11
-219.03
 20
60.045
 21
59.628
  0
LINE
  8
0
 10
-219.03
 11
-219.378
 20
59.628
 21
59.28
  0
LINE
  8
0
 10
-219.378
 11
-219.795
 20
59.28
 21
59.018
  0
LINE
  8
0
 10
-219.795
 11
-220.26
 20
59.018
 21
58.855
  0
LINE
  8
0
 10
-220.26
 11
-220.75
 20
58.855
 21
58.8
  0
LINE
  8
0
 10
-220.75
 11
-221.24
 20
58.8
 21
58.855
  0
LINE
  8
0
 10
-221.24
 11
-221.705
 20
58.855
 21
59.018
  0
LINE
  8
0
 10
-221.705
 11
-222.122
 20
59.018
 21
59.28
  0
LINE
  8
0
 10
-222.122
 11
-222.47
 20
59.28
 21
59.628
  0
LINE
  8
0
 10
-222.47
 11
-222.732
 20
59.628
 21
60.045
  0
LINE
  8
0
 10
-222.732
 11
-222.895
 20
60.045
 21
60.51
  0
LINE
  8
0
 10
-222.895
 11
-222.95
 20
60.51
 21
61
  0
LINE
  8
0
 10
-208.53
 11
-208.475
 20
8.2
 21
8.69
  0
LINE
  8
0
 10
-208.475
 11
-208.312
 20
8.69
 21
9.155
  0
LINE
  8
0
 10
-208.312
 11
-208.05
 20
9.155
 21
9.572
  0
LINE
  8
0
 10
-208.05
 11
-207.702
 20
9.572
 21
9.92
  0
LINE
  8
0
 10
-207.702
 11
-207.285
 20
9.92
 21
10.182
  0
LINE
  8
0
 10
-207.285
 11
-206.82
 20
10.182
 21
10.345
  0
LINE
  8
0
 10
-206.82
 11
-206.33
 20
10.345
 21
10.4
  0
LINE
  8
0
 10
-206.33
 11
-205.84
 20
10.4
 21
10.345
  0
LINE
  8
0
 10
-205.84
 11
-205.375
 20
10.345
 21
10.182
  0
LINE
  8
0
 10
-205.375
 11
-204.958
 20
10.182
 21
9.92
  0
LINE
  8
0
 10
-204.958
 11
-204.61
 20
9.92
 21
9.572
  0
LINE
  8
0
 10
-204.61
 11
-204.348
 20
9.572
 21
9.155
  0
LINE
  8
0
 10
-204.348
 11
-204.185
 20
9.155
 21
8.69
  0
LINE
  8
0
 10
-204.185
 11
-204.13
 20
8.69
 21
8.2
  0
LINE
  8
0
 10
-204.13
 11
-204.185
 20
8.2
 21
7.71
  0
LINE
  8
0
 10
-204.185
 11
-204.348
 20
7.71
 21
7.245
  0
LINE
  8
0
 10
-204.348
 11
-204.61
 20
7.245
 21
6.828
  0
LINE
  8
0
 10
-204.61
 11
-204.958
 20
6.828
 21
6.48
  0
LINE
  8
0
 10
-204.958
 11
-205.375
 20
6.48
 21
6.218
  0
LINE
  8
0
 10
-205.375
 11
-205.84
 20
6.218
 21
6.055
  0
LINE
  8
0
 10
-205.84
 11
-206.33
 20
6.055
 21
6
  0
LINE
  8
0
 10
-206.33
 11
-206.82
 20
6
 21
6.055
  0
LINE
  8
0
 10
-206.82
 11
-207.285
 20
6.055
 21
6.218
  0
LINE
  8
0
 10
-207.285
 11
-207.702
 20
6.218
 21
6.48
  0
LINE
  8
0
 10
-207.702
 11
-208.05
 20
6.48
 21
6.828
  0
LINE
  8
0
 10
-208.05
 11
-208.312
 20
6.828
 21
7.245
  0
LINE
  8
0
 10
-208.312
 11
-208.475
 20
7.245
 21
7.71
  0
LINE
  8
0
 10
-208.475
 11
-208.53
 20
7.71
 21
8.2
  0
LINE
  8
0
 10
-205.75
 11
-205.692
 20
73
 21
73.479
  0
LINE
  8
0
 10
-205.692
 11
-205.521
 20
73.479
 21
73.929
  0
LINE
  8
0
 10
-205.521
 11
-205.247
 20
73.929
 21
74.326
  0
LINE
  8
0
 10
-205.247
 11
-204.886
 20
74.326
 21
74.646
  0
LINE
  8
0
 10
-204.886
 11
-204.459
 20
74.646
 21
74.87
  0
LINE
  8
0
 10
-204.459
 11
-203.991
 20
74.87
 21
74.985
  0
LINE
  8
0
 10
-203.991
 11
-203.509
 20
74.985
 21
74.985
  0
LINE
  8
0
 10
-203.509
 11
-203.041
 20
74.985
 21
74.87
  0
LINE
  8
0
 10
-203.041
 11
-202.614
 20
74.87
 21
74.646
  0
LINE
  8
0
 10
-202.614
 11
-202.253
 20
74.646
 21
74.326
  0
LINE
  8
0
 10
-202.253
 11
-201.979
 20
74.326
 21
73.929
  0
LINE
  8
0
 10
-201.979
 11
-201.808
 20
73.929
 21
73.479
  0
LINE
  8
0
 10
-201.808
 11
-201.75
 20
73.479
 21
73
  0
LINE
  8
0
 10
-201.75
 11
-201.808
 20
73
 21
72.521
  0
LINE
  8
0
 10
-201.808
 11
-201.979
 20
72.521
 21
72.071
  0
LINE
  8
0
 10
-201.979
 11
-202.253
 20
72.071
 21
71.674
  0
LINE
  8
0
 10
-202.253
 11
-202.614
 20
71.674
 21
71.354
  0
LINE
  8
0
 10
-202.614
 11
-203.041
 20
71.354
 21
71.13
  0
LINE
  8
0
 10
-203.041
 11
-203.509
 20
71.13
 21
71.015
  0
LINE
  8
0
 10
-203.509
 11
-203.991
 20
71.015
 21
71.015
  0
LINE
  8
0
 10
-203.991
 11
-204.459
 20
71.015
 21
71.13
  0
LINE
  8
0
 10
-204.459
 11
-204.886
 20
71.13
 21
71.354
  0
LINE
  8
0
 10
-204.886
 11
-205.247
 20
71.354
 21
71.674
  0
LINE
  8
0
 10
-205.247
 11
-205.521
 20
71.674
 21
72.071
  0
LINE
  8
0
 10
-205.521
 11
-205.692
 20
72.071
 21
72.521
  0
LINE
  8
0
 10
-205.692
 11
-205.75
 20
72.521
 21
73
  0
LINE
  8
0
 10
-199.95
 11
-199.895
 20
376.5
 21
376.99
  0
LINE
  8
0
 10
-199.895
 11
-199.732
 20
376.99
 21
377.455
  0
LINE
  8
0
 10
-199.732
 11
-199.47
 20
377.455
 21
377.872
  0
LINE
  8
0
 10
-199.47
 11
-199.122
 20
377.872
 21
378.22
  0
LINE
  8
0
 10
-199.122
 11
-198.705
 20
378.22
 21
378.482
  0
LINE
  8
0
 10
-198.705
 11
-198.24
 20
378.482
 21
378.645
  0
LINE
  8
0
 10
-198.24
 11
-197.75
 20
378.645
 21
378.7
  0
LINE
  8
0
 10
-197.75
 11
-197.26
 20
378.7
 21
378.645
  0
LINE
  8
0
 10
-197.26
 11
-196.795
 20
378.645
 21
378.482
  0
LINE
  8
0
 10
-196.795
 11
-196.378
 20
378.482
 21
378.22
  0
LINE
  8
0
 10
-196.378
 11
-196.03
 20
378.22
 21
377.872
  0
LINE
  8
0
 10
-196.03
 11
-195.768
 20
377.872
 21
377.455
  0
LINE
  8
0
 10
-195.768
 11
-195.605
 20
377.455
 21
376.99
  0
LINE
  8
0
 10
-195.605
 11
-195.55
 20
376.99
 21
376.5
  0
LINE
  8
0
 10
-195.55
 11
-195.605
 20
376.5
 21
376.01
  0
LINE
  8
0
 10
-195.605
 11
-195.768
 20
376.01
 21
375.545
  0
LINE
  8
0
 10
-195.768
 11
-196.03
 20
375.545
 21
375.128
  0
LINE
  8
0
 10
-196.03
 11
-196.378
 20
375.128
 21
374.78
  0
LINE
  8
0
 10
-196.378
 11
-196.795
 20
374.78
 21
374.518
  0
LINE
  8
0
 10
-196.795
 11
-197.26
 20
374.518
 21
374.355
  0
LINE
  8
0
 10
-197.26
 11
-197.75
 20
374.355
 21
374.3
  0
LINE
  8
0
 10
-197.75
 11
-198.24
 20
374.3
 21
374.355
  0
LINE
  8
0
 10
-198.24
 11
-198.705
 20
374.355
 21
374.518
  0
LINE
  8
0
 10
-198.705
 11
-199.122
 20
374.518
 21
374.78
  0
LINE
  8
0
 10
-199.122
 11
-199.47
 20
374.78
 21
375.128
  0
LINE
  8
0
 10
-199.47
 11
-199.732
 20
375.128
 21
375.545
  0
LINE
  8
0
 10
-199.732
 11
-199.895
 20
375.545
 21
376.01
  0
LINE
  8
0
 10
-199.895
 11
-199.95
 20
376.01
 21
376.5
  0
LINE
  8
0
 10
-199.75
 11
-199.692
 20
366
 21
366.479
  0
LINE
  8
0
 10
-199.692
 11
-199.521
 20
366.479
 21
366.929
  0
LINE
  8
0
 10
-199.521
 11
-199.247
 20
366.929
 21
367.326
  0
LINE
  8
0
 10
-199.247
 11
-198.886
 20
367.326
 21
367.646
  0
LINE
  8
0
 10
-198.886
 11
-198.459
 20
367.646
 21
367.87
  0
LINE
  8
0
 10
-198.459
 11
-197.991
 20
367.87
 21
367.985
  0
LINE
  8
0
 10
-197.991
 11
-197.509
 20
367.985
 21
367.985
  0
LINE
  8
0
 10
-197.509
 11
-197.041
 20
367.985
 21
367.87
  0
LINE
  8
0
 10
-197.041
 11
-196.614
 20
367.87
 21
367.646
  0
LINE
  8
0
 10
-196.614
 11
-196.253
 20
367.646
 21
367.326
  0
LINE
  8
0
 10
-196.253
 11
-195.979
 20
367.326
 21
366.929
  0
LINE
  8
0
 10
-195.979
 11
-195.808
 20
366.929
 21
366.479
  0
LINE
  8
0
 10
-195.808
 11
-195.75
 20
366.479
 21
366
  0
LINE
  8
0
 10
-195.75
 11
-195.808
 20
366
 21
365.521
  0
LINE
  8
0
 10
-195.808
 11
-195.979
 20
365.521
 21
365.071
  0
LINE
  8
0
 10
-195.979
 11
-196.253
 20
365.071
 21
364.674
  0
LINE
  8
0
 10
-196.253
 11
-196.614
 20
364.674
 21
364.354
  0
LINE
  8
0
 10
-196.614
 11
-197.041
 20
364.354
 21
364.13
  0
LINE
  8
0
 10
-197.041
 11
-197.509
 20
364.13
 21
364.015
  0
LINE
  8
0
 10
-197.509
 11
-197.991
 20
364.015
 21
364.015
  0
LINE
  8
0
 10
-197.991
 11
-198.459
 20
364.015
 21
364.13
  0
LINE
  8
0
 10
-198.459
 11
-198.886
 20
364.13
 21
364.354
  0
LINE
  8
0
 10
-198.886
 11
-199.247
 20
364.354
 21
364.674
  0
LINE
  8
0
 10
-199.247
 11
-199.521
 20
364.674
 21
365.071
  0
LINE
  8
0
 10
-199.521
 11
-199.692
 20
365.071
 21
365.521
  0
LINE
  8
0
 10
-199.692
 11
-199.75
 20
365.521
 21
366
  0
LINE
  8
0
 10
-196.63
 11
-196.582
 20
7.5
 21
7.988
  0
LINE
  8
0
 10
-196.582
 11
-196.44
 20
7.988
 21
8.457
  0
LINE
  8
0
 10
-196.44
 11
-196.209
 20
8.457
 21
8.889
  0
LINE
  8
0
 10
-196.209
 11
-195.898
 20
8.889
 21
9.268
  0
LINE
  8
0
 10
-195.898
 11
-195.519
 20
9.268
 21
9.579
  0
LINE
  8
0
 10
-195.519
 11
-195.087
 20
9.579
 21
9.81
  0
LINE
  8
0
 10
-195.087
 11
-194.618
 20
9.81
 21
9.952
  0
LINE
  8
0
 10
-194.618
 11
-194.13
 20
9.952
 21
10
  0
LINE
  8
0
 10
-194.13
 11
-193.642
 20
10
 21
9.952
  0
LINE
  8
0
 10
-193.642
 11
-193.173
 20
9.952
 21
9.81
  0
LINE
  8
0
 10
-193.173
 11
-192.741
 20
9.81
 21
9.579
  0
LINE
  8
0
 10
-192.741
 11
-192.362
 20
9.579
 21
9.268
  0
LINE
  8
0
 10
-192.362
 11
-192.051
 20
9.268
 21
8.889
  0
LINE
  8
0
 10
-192.051
 11
-191.82
 20
8.889
 21
8.457
  0
LINE
  8
0
 10
-191.82
 11
-191.678
 20
8.457
 21
7.988
  0
LINE
  8
0
 10
-191.678
 11
-191.63
 20
7.988
 21
7.5
  0
LINE
  8
0
 10
-191.63
 11
-191.678
 20
7.5
 21
7.012
  0
LINE
  8
0
 10
-191.678
 11
-191.82
 20
7.012
 21
6.543
  0
LINE
  8
0
 10
-191.82
 11
-192.051
 20
6.543
 21
6.111
  0
LINE
  8
0
 10
-192.051
 11
-192.362
 20
6.111
 21
5.732
  0
LINE
  8
0
 10
-192.362
 11
-192.741
 20
5.732
 21
5.421
  0
LINE
  8
0
 10
-192.741
 11
-193.173
 20
5.421
 21
5.19
  0
LINE
  8
0
 10
-193.173
 11
-193.642
 20
5.19
 21
5.048
  0
LINE
  8
0
 10
-193.642
 11
-194.13
 20
5.048
 21
5
  0
LINE
  8
0
 10
-194.13
 11
-194.618
 20
5
 21
5.048
  0
LINE
  8
0
 10
-194.618
 11
-195.087
 20
5.048
 21
5.19
  0
LINE
  8
0
 10
-195.087
 11
-195.519
 20
5.19
 21
5.421
  0
LINE
  8
0
 10
-195.519
 11
-195.898
 20
5.421
 21
5.732
  0
LINE
  8
0
 10
-195.898
 11
-196.209
 20
5.732
 21
6.111
  0
LINE
  8
0
 10
-196.209
 11
-196.44
 20
6.111
 21
6.543
  0
LINE
  8
0
 10
-196.44
 11
-196.582
 20
6.543
 21
7.012
  0
LINE
  8
0
 10
-196.582
 11
-196.63
 20
7.012
 21
7.5
  0
LINE
  8
0
 10
-190.95
 11
-190.895
 20
61
 21
61.49
  0
LINE
  8
0
 10
-190.895
 11
-190.732
 20
61.49
 21
61.955
  0
LINE
  8
0
 10
-190.732
 11
-190.47
 20
61.955
 21
62.372
  0
LINE
  8
0
 10
-190.47
 11
-190.122
 20
62.372
 21
62.72
  0
LINE
  8
0
 10
-190.122
 11
-189.705
 20
62.72
 21
62.982
  0
LINE
  8
0
 10
-189.705
 11
-189.24
 20
62.982
 21
63.145
  0
LINE
  8
0
 10
-189.24
 11
-188.75
 20
63.145
 21
63.2
  0
LINE
  8
0
 10
-188.75
 11
-188.26
 20
63.2
 21
63.145
  0
LINE
  8
0
 10
-188.26
 11
-187.795
 20
63.145
 21
62.982
  0
LINE
  8
0
 10
-187.795
 11
-187.378
 20
62.982
 21
62.72
  0
LINE
  8
0
 10
-187.378
 11
-187.03
 20
62.72
 21
62.372
  0
LINE
  8
0
 10
-187.03
 11
-186.768
 20
62.372
 21
61.955
  0
LINE
  8
0
 10
-186.768
 11
-186.605
 20
61.955
 21
61.49
  0
LINE
  8
0
 10
-186.605
 11
-186.55
 20
61.49
 21
61
  0
LINE
  8
0
 10
-186.55
 11
-186.605
 20
61
 21
60.51
  0
LINE
  8
0
 10
-186.605
 11
-186.768
 20
60.51
 21
60.045
  0
LINE
  8
0
 10
-186.768
 11
-187.03
 20
60.045
 21
59.628
  0
LINE
  8
0
 10
-187.03
 11
-187.378
 20
59.628
 21
59.28
  0
LINE
  8
0
 10
-187.378
 11
-187.795
 20
59.28
 21
59.018
  0
LINE
  8
0
 10
-187.795
 11
-188.26
 20
59.018
 21
58.855
  0
LINE
  8
0
 10
-188.26
 11
-188.75
 20
58.855
 21
58.8
  0
LINE
  8
0
 10
-188.75
 11
-189.24
 20
58.8
 21
58.855
  0
LINE
  8
0
 10
-189.24
 11
-189.705
 20
58.855
 21
59.018
  0
LINE
  8
0
 10
-189.705
 11
-190.122
 20
59.018
 21
59.28
  0
LINE
  8
0
 10
-190.122
 11
-190.47
 20
59.28
 21
59.628
  0
LINE
  8
0
 10
-190.47
 11
-190.732
 20
59.628
 21
60.045
  0
LINE
  8
0
 10
-190.732
 11
-190.895
 20
60.045
 21
60.51
  0
LINE
  8
0
 10
-190.895
 11
-190.95
 20
60.51
 21
61
  0
LINE
  8
0
 10
-166.245
 11
-166.124
 20
321.804
 21
322.283
  0
LINE
  8
0
 10
-166.124
 11
-165.854
 20
322.283
 21
322.696
  0
LINE
  8
0
 10
-165.854
 11
-165.464
 20
322.696
 21
322.999
  0
LINE
  8
0
 10
-165.464
 11
-164.997
 20
322.999
 21
323.16
  0
LINE
  8
0
 10
-164.997
 11
-164.503
 20
323.16
 21
323.16
  0
LINE
  8
0
 10
-164.503
 11
-164.036
 20
323.16
 21
322.999
  0
LINE
  8
0
 10
-164.036
 11
-163.646
 20
322.999
 21
322.696
  0
LINE
  8
0
 10
-163.646
 11
-163.376
 20
322.696
 21
322.283
  0
LINE
  8
0
 10
-163.376
 11
-163.255
 20
322.283
 21
321.804
  0
LINE
  8
0
 10
-163.255
 11
-163.296
 20
321.804
 21
321.312
  0
LINE
  8
0
 10
-163.296
 11
-163.494
 20
321.312
 21
320.86
  0
LINE
  8
0
 10
-163.494
 11
-163.829
 20
320.86
 21
320.496
  0
LINE
  8
0
 10
-163.829
 11
-164.263
 20
320.496
 21
320.261
  0
LINE
  8
0
 10
-164.263
 11
-164.75
 20
320.261
 21
320.18
  0
LINE
  8
0
 10
-164.75
 11
-165.237
 20
320.18
 21
320.261
  0
LINE
  8
0
 10
-165.237
 11
-165.671
 20
320.261
 21
320.496
  0
LINE
  8
0
 10
-165.671
 11
-166.006
 20
320.496
 21
320.86
  0
LINE
  8
0
 10
-166.006
 11
-166.204
 20
320.86
 21
321.312
  0
LINE
  8
0
 10
-166.204
 11
-166.245
 20
321.312
 21
321.804
  0
LINE
  8
0
 10
-166.245
 11
-166.124
 20
327.604
 21
328.083
  0
LINE
  8
0
 10
-166.124
 11
-165.854
 20
328.083
 21
328.496
  0
LINE
  8
0
 10
-165.854
 11
-165.464
 20
328.496
 21
328.799
  0
LINE
  8
0
 10
-165.464
 11
-164.997
 20
328.799
 21
328.96
  0
LINE
  8
0
 10
-164.997
 11
-164.503
 20
328.96
 21
328.96
  0
LINE
  8
0
 10
-164.503
 11
-164.036
 20
328.96
 21
328.799
  0
LINE
  8
0
 10
-164.036
 11
-163.646
 20
328.799
 21
328.496
  0
LINE
  8
0
 10
-163.646
 11
-163.376
 20
328.496
 21
328.083
  0
LINE
  8
0
 10
-163.376
 11
-163.255
 20
328.083
 21
327.604
  0
LINE
  8
0
 10
-163.255
 11
-163.296
 20
327.604
 21
327.112
  0
LINE
  8
0
 10
-163.296
 11
-163.494
 20
327.112
 21
326.66
  0
LINE
  8
0
 10
-163.494
 11
-163.829
 20
326.66
 21
326.296
  0
LINE
  8
0
 10
-163.829
 11
-164.263
 20
326.296
 21
326.061
  0
LINE
  8
0
 10
-164.263
 11
-164.75
 20
326.061
 21
325.98
  0
LINE
  8
0
 10
-164.75
 11
-165.237
 20
325.98
 21
326.061
  0
LINE
  8
0
 10
-165.237
 11
-165.671
 20
326.061
 21
326.296
  0
LINE
  8
0
 10
-165.671
 11
-166.006
 20
326.296
 21
326.66
  0
LINE
  8
0
 10
-166.006
 11
-166.204
 20
326.66
 21
327.112
  0
LINE
  8
0
 10
-166.204
 11
-166.245
 20
327.112
 21
327.604
  0
LINE
  8
0
 10
-165.25
 11
-165.195
 20
36.71
 21
37.2
  0
LINE
  8
0
 10
-165.195
 11
-165.032
 20
37.2
 21
37.665
  0
LINE
  8
0
 10
-165.032
 11
-164.77
 20
37.665
 21
38.082
  0
LINE
  8
0
 10
-164.77
 11
-164.422
 20
38.082
 21
38.43
  0
LINE
  8
0
 10
-164.422
 11
-164.005
 20
38.43
 21
38.692
  0
LINE
  8
0
 10
-164.005
 11
-163.54
 20
38.692
 21
38.855
  0
LINE
  8
0
 10
-163.54
 11
-163.05
 20
38.855
 21
38.91
  0
LINE
  8
0
 10
-163.05
 11
-162.56
 20
38.91
 21
38.855
  0
LINE
  8
0
 10
-162.56
 11
-162.095
 20
38.855
 21
38.692
  0
LINE
  8
0
 10
-162.095
 11
-161.678
 20
38.692
 21
38.43
  0
LINE
  8
0
 10
-161.678
 11
-161.33
 20
38.43
 21
38.082
  0
LINE
  8
0
 10
-161.33
 11
-161.068
 20
38.082
 21
37.665
  0
LINE
  8
0
 10
-161.068
 11
-160.905
 20
37.665
 21
37.2
  0
LINE
  8
0
 10
-160.905
 11
-160.85
 20
37.2
 21
36.71
  0
LINE
  8
0
 10
-160.85
 11
-160.905
 20
36.71
 21
36.22
  0
LINE
  8
0
 10
-160.905
 11
-161.068
 20
36.22
 21
35.755
  0
LINE
  8
0
 10
-161.068
 11
-161.33
 20
35.755
 21
35.338
  0
LINE
  8
0
 10
-161.33
 11
-161.678
 20
35.338
 21
34.99
  0
LINE
  8
0
 10
-161.678
 11
-162.095
 20
34.99
 21
34.728
  0
LINE
  8
0
 10
-162.095
 11
-162.56
 20
34.728
 21
34.565
  0
LINE
  8
0
 10
-162.56
 11
-163.05
 20
34.565
 21
34.51
  0
LINE
  8
0
 10
-163.05
 11
-163.54
 20
34.51
 21
34.565
  0
LINE
  8
0
 10
-163.54
 11
-164.005
 20
34.565
 21
34.728
  0
LINE
  8
0
 10
-164.005
 11
-164.422
 20
34.728
 21
34.99
  0
LINE
  8
0
 10
-164.422
 11
-164.77
 20
34.99
 21
35.338
  0
LINE
  8
0
 10
-164.77
 11
-165.032
 20
35.338
 21
35.755
  0
LINE
  8
0
 10
-165.032
 11
-165.195
 20
35.755
 21
36.22
  0
LINE
  8
0
 10
-165.195
 11
-165.25
 20
36.22
 21
36.71
  0
LINE
  8
0
 10
-165.25
 11
-165.195
 20
348.29
 21
348.78
  0
LINE
  8
0
 10
-165.195
 11
-165.032
 20
348.78
 21
349.245
  0
LINE
  8
0
 10
-165.032
 11
-164.77
 20
349.245
 21
349.662
  0
LINE
  8
0
 10
-164.77
 11
-164.422
 20
349.662
 21
350.01
  0
LINE
  8
0
 10
-164.422
 11
-164.005
 20
350.01
 21
350.272
  0
LINE
  8
0
 10
-164.005
 11
-163.54
 20
350.272
 21
350.435
  0
LINE
  8
0
 10
-163.54
 11
-163.05
 20
350.435
 21
350.49
  0
LINE
  8
0
 10
-163.05
 11
-162.56
 20
350.49
 21
350.435
  0
LINE
  8
0
 10
-162.56
 11
-162.095
 20
350.435
 21
350.272
  0
LINE
  8
0
 10
-162.095
 11
-161.678
 20
350.272
 21
350.01
  0
LINE
  8
0
 10
-161.678
 11
-161.33
 20
350.01
 21
349.662
  0
LINE
  8
0
 10
-161.33
 11
-161.068
 20
349.662
 21
349.245
  0
LINE
  8
0
 10
-161.068
 11
-160.905
 20
349.245
 21
348.78
  0
LINE
  8
0
 10
-160.905
 11
-160.85
 20
348.78
 21
348.29
  0
LINE
  8
0
 10
-160.85
 11
-160.905
 20
348.29
 21
347.8
  0
LINE
  8
0
 10
-160.905
 11
-161.068
 20
347.8
 21
347.335
  0
LINE
  8
0
 10
-161.068
 11
-161.33
 20
347.335
 21
346.918
  0
LINE
  8
0
 10
-161.33
 11
-161.678
 20
346.918
 21
346.57
  0
LINE
  8
0
 10
-161.678
 11
-162.095
 20
346.57
 21
346.308
  0
LINE
  8
0
 10
-162.095
 11
-162.56
 20
346.308
 21
346.145
  0
LINE
  8
0
 10
-162.56
 11
-163.05
 20
346.145
 21
346.09
  0
LINE
  8
0
 10
-163.05
 11
-163.54
 20
346.09
 21
346.145
  0
LINE
  8
0
 10
-163.54
 11
-164.005
 20
346.145
 21
346.308
  0
LINE
  8
0
 10
-164.005
 11
-164.422
 20
346.308
 21
346.57
  0
LINE
  8
0
 10
-164.422
 11
-164.77
 20
346.57
 21
346.918
  0
LINE
  8
0
 10
-164.77
 11
-165.032
 20
346.918
 21
347.335
  0
LINE
  8
0
 10
-165.032
 11
-165.195
 20
347.335
 21
347.8
  0
LINE
  8
0
 10
-165.195
 11
-165.25
 20
347.8
 21
348.29
  0
LINE
  8
0
 10
-164.95
 11
-164.895
 20
376.5
 21
376.99
  0
LINE
  8
0
 10
-164.895
 11
-164.732
 20
376.99
 21
377.455
  0
LINE
  8
0
 10
-164.732
 11
-164.47
 20
377.455
 21
377.872
  0
LINE
  8
0
 10
-164.47
 11
-164.122
 20
377.872
 21
378.22
  0
LINE
  8
0
 10
-164.122
 11
-163.705
 20
378.22
 21
378.482
  0
LINE
  8
0
 10
-163.705
 11
-163.24
 20
378.482
 21
378.645
  0
LINE
  8
0
 10
-163.24
 11
-162.75
 20
378.645
 21
378.7
  0
LINE
  8
0
 10
-162.75
 11
-162.26
 20
378.7
 21
378.645
  0
LINE
  8
0
 10
-162.26
 11
-161.795
 20
378.645
 21
378.482
  0
LINE
  8
0
 10
-161.795
 11
-161.378
 20
378.482
 21
378.22
  0
LINE
  8
0
 10
-161.378
 11
-161.03
 20
378.22
 21
377.872
  0
LINE
  8
0
 10
-161.03
 11
-160.768
 20
377.872
 21
377.455
  0
LINE
  8
0
 10
-160.768
 11
-160.605
 20
377.455
 21
376.99
  0
LINE
  8
0
 10
-160.605
 11
-160.55
 20
376.99
 21
376.5
  0
LINE
  8
0
 10
-160.55
 11
-160.605
 20
376.5
 21
376.01
  0
LINE
  8
0
 10
-160.605
 11
-160.768
 20
376.01
 21
375.545
  0
LINE
  8
0
 10
-160.768
 11
-161.03
 20
375.545
 21
375.128
  0
LINE
  8
0
 10
-161.03
 11
-161.378
 20
375.128
 21
374.78
  0
LINE
  8
0
 10
-161.378
 11
-161.795
 20
374.78
 21
374.518
  0
LINE
  8
0
 10
-161.795
 11
-162.26
 20
374.518
 21
374.355
  0
LINE
  8
0
 10
-162.26
 11
-162.75
 20
374.355
 21
374.3
  0
LINE
  8
0
 10
-162.75
 11
-163.24
 20
374.3
 21
374.355
  0
LINE
  8
0
 10
-163.24
 11
-163.705
 20
374.355
 21
374.518
  0
LINE
  8
0
 10
-163.705
 11
-164.122
 20
374.518
 21
374.78
  0
LINE
  8
0
 10
-164.122
 11
-164.47
 20
374.78
 21
375.128
  0
LINE
  8
0
 10
-164.47
 11
-164.732
 20
375.128
 21
375.545
  0
LINE
  8
0
 10
-164.732
 11
-164.895
 20
375.545
 21
376.01
  0
LINE
  8
0
 10
-164.895
 11
-164.95
 20
376.01
 21
376.5
  0
LINE
  8
0
 10
-164.37
 11
-164.315
 20
8.2
 21
8.69
  0
LINE
  8
0
 10
-164.315
 11
-164.152
 20
8.69
 21
9.155
  0
LINE
  8
0
 10
-164.152
 11
-163.89
 20
9.155
 21
9.572
  0
LINE
  8
0
 10
-163.89
 11
-163.542
 20
9.572
 21
9.92
  0
LINE
  8
0
 10
-163.542
 11
-163.125
 20
9.92
 21
10.182
  0
LINE
  8
0
 10
-163.125
 11
-162.66
 20
10.182
 21
10.345
  0
LINE
  8
0
 10
-162.66
 11
-162.17
 20
10.345
 21
10.4
  0
LINE
  8
0
 10
-162.17
 11
-161.68
 20
10.4
 21
10.345
  0
LINE
  8
0
 10
-161.68
 11
-161.215
 20
10.345
 21
10.182
  0
LINE
  8
0
 10
-161.215
 11
-160.798
 20
10.182
 21
9.92
  0
LINE
  8
0
 10
-160.798
 11
-160.45
 20
9.92
 21
9.572
  0
LINE
  8
0
 10
-160.45
 11
-160.188
 20
9.572
 21
9.155
  0
LINE
  8
0
 10
-160.188
 11
-160.025
 20
9.155
 21
8.69
  0
LINE
  8
0
 10
-160.025
 11
-159.97
 20
8.69
 21
8.2
  0
LINE
  8
0
 10
-159.97
 11
-160.025
 20
8.2
 21
7.71
  0
LINE
  8
0
 10
-160.025
 11
-160.188
 20
7.71
 21
7.245
  0
LINE
  8
0
 10
-160.188
 11
-160.45
 20
7.245
 21
6.828
  0
LINE
  8
0
 10
-160.45
 11
-160.798
 20
6.828
 21
6.48
  0
LINE
  8
0
 10
-160.798
 11
-161.215
 20
6.48
 21
6.218
  0
LINE
  8
0
 10
-161.215
 11
-161.68
 20
6.218
 21
6.055
  0
LINE
  8
0
 10
-161.68
 11
-162.17
 20
6.055
 21
6
  0
LINE
  8
0
 10
-162.17
 11
-162.66
 20
6
 21
6.055
  0
LINE
  8
0
 10
-162.66
 11
-163.125
 20
6.055
 21
6.218
  0
LINE
  8
0
 10
-163.125
 11
-163.542
 20
6.218
 21
6.48
  0
LINE
  8
0
 10
-163.542
 11
-163.89
 20
6.48
 21
6.828
  0
LINE
  8
0
 10
-163.89
 11
-164.152
 20
6.828
 21
7.245
  0
LINE
  8
0
 10
-164.152
 11
-164.315
 20
7.245
 21
7.71
  0
LINE
  8
0
 10
-164.315
 11
-164.37
 20
7.71
 21
8.2
  0
LINE
  8
0
 10
-161.245
 11
-161.204
 20
308.956
 21
309.448
  0
LINE
  8
0
 10
-161.204
 11
-161.006
 20
309.448
 21
309.9
  0
LINE
  8
0
 10
-161.006
 11
-160.671
 20
309.9
 21
310.264
  0
LINE
  8
0
 10
-160.671
 11
-160.237
 20
310.264
 21
310.499
  0
LINE
  8
0
 10
-160.237
 11
-159.75
 20
310.499
 21
310.58
  0
LINE
  8
0
 10
-159.75
 11
-159.263
 20
310.58
 21
310.499
  0
LINE
  8
0
 10
-159.263
 11
-158.829
 20
310.499
 21
310.264
  0
LINE
  8
0
 10
-158.829
 11
-158.494
 20
310.264
 21
309.9
  0
LINE
  8
0
 10
-158.494
 11
-158.296
 20
309.9
 21
309.448
  0
LINE
  8
0
 10
-158.296
 11
-158.255
 20
309.448
 21
308.956
  0
LINE
  8
0
 10
-158.255
 11
-158.376
 20
308.956
 21
308.477
  0
LINE
  8
0
 10
-158.376
 11
-158.646
 20
308.477
 21
308.064
  0
LINE
  8
0
 10
-158.646
 11
-159.036
 20
308.064
 21
307.761
  0
LINE
  8
0
 10
-159.036
 11
-159.503
 20
307.761
 21
307.6
  0
LINE
  8
0
 10
-159.503
 11
-159.997
 20
307.6
 21
307.6
  0
LINE
  8
0
 10
-159.997
 11
-160.464
 20
307.6
 21
307.761
  0
LINE
  8
0
 10
-160.464
 11
-160.854
 20
307.761
 21
308.064
  0
LINE
  8
0
 10
-160.854
 11
-161.124
 20
308.064
 21
308.477
  0
LINE
  8
0
 10
-161.124
 11
-161.245
 20
308.477
 21
308.956
  0
LINE
  8
0
 10
-161.245
 11
-161.204
 20
316.156
 21
316.648
  0
LINE
  8
0
 10
-161.204
 11
-161.006
 20
316.648
 21
317.1
  0
LINE
  8
0
 10
-161.006
 11
-160.671
 20
317.1
 21
317.464
  0
LINE
  8
0
 10
-160.671
 11
-160.237
 20
317.464
 21
317.699
  0
LINE
  8
0
 10
-160.237
 11
-159.75
 20
317.699
 21
317.78
  0
LINE
  8
0
 10
-159.75
 11
-159.263
 20
317.78
 21
317.699
  0
LINE
  8
0
 10
-159.263
 11
-158.829
 20
317.699
 21
317.464
  0
LINE
  8
0
 10
-158.829
 11
-158.494
 20
317.464
 21
317.1
  0
LINE
  8
0
 10
-158.494
 11
-158.296
 20
317.1
 21
316.648
  0
LINE
  8
0
 10
-158.296
 11
-158.255
 20
316.648
 21
316.156
  0
LINE
  8
0
 10
-158.255
 11
-158.376
 20
316.156
 21
315.677
  0
LINE
  8
0
 10
-158.376
 11
-158.646
 20
315.677
 21
315.264
  0
LINE
  8
0
 10
-158.646
 11
-159.036
 20
315.264
 21
314.961
  0
LINE
  8
0
 10
-159.036
 11
-159.503
 20
314.961
 21
314.8
  0
LINE
  8
0
 10
-159.503
 11
-159.997
 20
314.8
 21
314.8
  0
LINE
  8
0
 10
-159.997
 11
-160.464
 20
314.8
 21
314.961
  0
LINE
  8
0
 10
-160.464
 11
-160.854
 20
314.961
 21
315.264
  0
LINE
  8
0
 10
-160.854
 11
-161.124
 20
315.264
 21
315.677
  0
LINE
  8
0
 10
-161.124
 11
-161.245
 20
315.677
 21
316.156
  0
LINE
  8
0
 10
-143.15
 11
-143.095
 20
8.2
 21
8.69
  0
LINE
  8
0
 10
-143.095
 11
-142.932
 20
8.69
 21
9.155
  0
LINE
  8
0
 10
-142.932
 11
-142.67
 20
9.155
 21
9.572
  0
LINE
  8
0
 10
-142.67
 11
-142.322
 20
9.572
 21
9.92
  0
LINE
  8
0
 10
-142.322
 11
-141.905
 20
9.92
 21
10.182
  0
LINE
  8
0
 10
-141.905
 11
-141.44
 20
10.182
 21
10.345
  0
LINE
  8
0
 10
-141.44
 11
-140.95
 20
10.345
 21
10.4
  0
LINE
  8
0
 10
-140.95
 11
-140.46
 20
10.4
 21
10.345
  0
LINE
  8
0
 10
-140.46
 11
-139.995
 20
10.345
 21
10.182
  0
LINE
  8
0
 10
-139.995
 11
-139.578
 20
10.182
 21
9.92
  0
LINE
  8
0
 10
-139.578
 11
-139.23
 20
9.92
 21
9.572
  0
LINE
  8
0
 10
-139.23
 11
-138.968
 20
9.572
 21
9.155
  0
LINE
  8
0
 10
-138.968
 11
-138.805
 20
9.155
 21
8.69
  0
LINE
  8
0
 10
-138.805
 11
-138.75
 20
8.69
 21
8.2
  0
LINE
  8
0
 10
-138.75
 11
-138.805
 20
8.2
 21
7.71
  0
LINE
  8
0
 10
-138.805
 11
-138.968
 20
7.71
 21
7.245
  0
LINE
  8
0
 10
-138.968
 11
-139.23
 20
7.245
 21
6.828
  0
LINE
  8
0
 10
-139.23
 11
-139.578
 20
6.828
 21
6.48
  0
LINE
  8
0
 10
-139.578
 11
-139.995
 20
6.48
 21
6.218
  0
LINE
  8
0
 10
-139.995
 11
-140.46
 20
6.218
 21
6.055
  0
LINE
  8
0
 10
-140.46
 11
-140.95
 20
6.055
 21
6
  0
LINE
  8
0
 10
-140.95
 11
-141.44
 20
6
 21
6.055
  0
LINE
  8
0
 10
-141.44
 11
-141.905
 20
6.055
 21
6.218
  0
LINE
  8
0
 10
-141.905
 11
-142.322
 20
6.218
 21
6.48
  0
LINE
  8
0
 10
-142.322
 11
-142.67
 20
6.48
 21
6.828
  0
LINE
  8
0
 10
-142.67
 11
-142.932
 20
6.828
 21
7.245
  0
LINE
  8
0
 10
-142.932
 11
-143.095
 20
7.245
 21
7.71
  0
LINE
  8
0
 10
-143.095
 11
-143.15
 20
7.71
 21
8.2
  0
LINE
  8
0
 10
-131.734
 11
-131.734
 20
277.851
 21
278.349
  0
LINE
  8
0
 10
-131.734
 11
-131.684
 20
278.349
 21
278.844
  0
LINE
  8
0
 10
-131.684
 11
-131.586
 20
278.844
 21
279.331
  0
LINE
  8
0
 10
-131.586
 11
-131.439
 20
279.331
 21
279.807
  0
LINE
  8
0
 10
-131.439
 11
-131.246
 20
279.807
 21
280.265
  0
LINE
  8
0
 10
-131.246
 11
-131.008
 20
280.265
 21
280.702
  0
LINE
  8
0
 10
-131.008
 11
-130.728
 20
280.702
 21
281.113
  0
LINE
  8
0
 10
-130.728
 11
-130.408
 20
281.113
 21
281.494
  0
LINE
  8
0
 10
-130.408
 11
-130.052
 20
281.494
 21
281.841
  0
LINE
  8
0
 10
-130.052
 11
-129.663
 20
281.841
 21
282.152
  0
LINE
  8
0
 10
-129.663
 11
-129.245
 20
282.152
 21
282.421
  0
LINE
  8
0
 10
-129.245
 11
-128.802
 20
282.421
 21
282.648
  0
LINE
  8
0
 10
-128.802
 11
-128.339
 20
282.648
 21
282.83
  0
LINE
  8
0
 10
-128.339
 11
-127.86
 20
282.83
 21
282.965
  0
LINE
  8
0
 10
-127.86
 11
-127.37
 20
282.965
 21
283.051
  0
LINE
  8
0
 10
-127.37
 11
-126.874
 20
283.051
 21
283.088
  0
LINE
  8
0
 10
-126.874
 11
-126.377
 20
283.088
 21
283.076
  0
LINE
  8
0
 10
-126.377
 11
-125.883
 20
283.076
 21
283.014
  0
LINE
  8
0
 10
-125.883
 11
-125.399
 20
283.014
 21
282.903
  0
LINE
  8
0
 10
-125.399
 11
-124.927
 20
282.903
 21
282.745
  0
LINE
  8
0
 10
-124.927
 11
-124.474
 20
282.745
 21
282.54
  0
LINE
  8
0
 10
-124.474
 11
-124.043
 20
282.54
 21
282.292
  0
LINE
  8
0
 10
-124.043
 11
-123.639
 20
282.292
 21
282.001
  0
LINE
  8
0
 10
-123.639
 11
-123.266
 20
282.001
 21
281.672
  0
LINE
  8
0
 10
-123.266
 11
-122.927
 20
281.672
 21
281.308
  0
LINE
  8
0
 10
-122.927
 11
-122.627
 20
281.308
 21
280.911
  0
LINE
  8
0
 10
-122.627
 11
-122.368
 20
280.911
 21
280.486
  0
LINE
  8
0
 10
-122.368
 11
-122.152
 20
280.486
 21
280.038
  0
LINE
  8
0
 10
-122.152
 11
-121.982
 20
280.038
 21
279.571
  0
LINE
  8
0
 10
-121.982
 11
-121.859
 20
279.571
 21
279.089
  0
LINE
  8
0
 10
-121.859
 11
-121.785
 20
279.089
 21
278.597
  0
LINE
  8
0
 10
-121.785
 11
-121.76
 20
278.597
 21
278.1
  0
LINE
  8
0
 10
-121.76
 11
-121.785
 20
278.1
 21
277.603
  0
LINE
  8
0
 10
-121.785
 11
-121.859
 20
277.603
 21
277.111
  0
LINE
  8
0
 10
-121.859
 11
-121.982
 20
277.111
 21
276.629
  0
LINE
  8
0
 10
-121.982
 11
-122.152
 20
276.629
 21
276.162
  0
LINE
  8
0
 10
-122.152
 11
-122.368
 20
276.162
 21
275.714
  0
LINE
  8
0
 10
-122.368
 11
-122.627
 20
275.714
 21
275.289
  0
LINE
  8
0
 10
-122.627
 11
-122.927
 20
275.289
 21
274.892
  0
LINE
  8
0
 10
-122.927
 11
-123.266
 20
274.892
 21
274.528
  0
LINE
  8
0
 10
-123.266
 11
-123.639
 20
274.528
 21
274.199
  0
LINE
  8
0
 10
-123.639
 11
-124.043
 20
274.199
 21
273.908
  0
LINE
  8
0
 10
-124.043
 11
-124.474
 20
273.908
 21
273.66
  0
LINE
  8
0
 10
-124.474
 11
-124.927
 20
273.66
 21
273.455
  0
LINE
  8
0
 10
-124.927
 11
-125.399
 20
273.455
 21
273.297
  0
LINE
  8
0
 10
-125.399
 11
-125.883
 20
273.297
 21
273.186
  0
LINE
  8
0
 10
-125.883
 11
-126.377
 20
273.186
 21
273.124
  0
LINE
  8
0
 10
-126.377
 11
-126.874
 20
273.124
 21
273.112
  0
LINE
  8
0
 10
-126.874
 11
-127.37
 20
273.112
 21
273.149
  0
LINE
  8
0
 10
-127.37
 11
-127.86
 20
273.149
 21
273.235
  0
LINE
  8
0
 10
-127.86
 11
-128.339
 20
273.235
 21
273.37
  0
LINE
  8
0
 10
-128.339
 11
-128.802
 20
273.37
 21
273.552
  0
LINE
  8
0
 10
-128.802
 11
-129.245
 20
273.552
 21
273.779
  0
LINE
  8
0
 10
-129.245
 11
-129.663
 20
273.779
 21
274.048
  0
LINE
  8
0
 10
-129.663
 11
-130.052
 20
274.048
 21
274.359
  0
LINE
  8
0
 10
-130.052
 11
-130.408
 20
274.359
 21
274.706
  0
LINE
  8
0
 10
-130.408
 11
-130.728
 20
274.706
 21
275.087
  0
LINE
  8
0
 10
-130.728
 11
-131.008
 20
275.087
 21
275.498
  0
LINE
  8
0
 10
-131.008
 11
-131.246
 20
275.498
 21
275.935
  0
LINE
  8
0
 10
-131.246
 11
-131.439
 20
275.935
 21
276.393
  0
LINE
  8
0
 10
-131.439
 11
-131.586
 20
276.393
 21
276.869
  0
LINE
  8
0
 10
-131.586
 11
-131.684
 20
276.869
 21
277.356
  0
LINE
  8
0
 10
-131.684
 11
-131.734
 20
277.356
 21
277.851
  0
LINE
  8
0
 10
108.266
 11
108.266
 20
277.851
 21
278.349
  0
LINE
  8
0
 10
108.266
 11
108.316
 20
278.349
 21
278.844
  0
LINE
  8
0
 10
108.316
 11
108.414
 20
278.844
 21
279.331
  0
LINE
  8
0
 10
108.414
 11
108.561
 20
279.331
 21
279.807
  0
LINE
  8
0
 10
108.561
 11
108.754
 20
279.807
 21
280.265
  0
LINE
  8
0
 10
108.754
 11
108.992
 20
280.265
 21
280.702
  0
LINE
  8
0
 10
108.992
 11
109.272
 20
280.702
 21
281.113
  0
LINE
  8
0
 10
109.272
 11
109.592
 20
281.113
 21
281.494
  0
LINE
  8
0
 10
109.592
 11
109.948
 20
281.494
 21
281.841
  0
LINE
  8
0
 10
109.948
 11
110.337
 20
281.841
 21
282.152
  0
LINE
  8
0
 10
110.337
 11
110.755
 20
282.152
 21
282.421
  0
LINE
  8
0
 10
110.755
 11
111.198
 20
282.421
 21
282.648
  0
LINE
  8
0
 10
111.198
 11
111.661
 20
282.648
 21
282.83
  0
LINE
  8
0
 10
111.661
 11
112.14
 20
282.83
 21
282.965
  0
LINE
  8
0
 10
112.14
 11
112.63
 20
282.965
 21
283.051
  0
LINE
  8
0
 10
112.63
 11
113.126
 20
283.051
 21
283.088
  0
LINE
  8
0
 10
113.126
 11
113.623
 20
283.088
 21
283.076
  0
LINE
  8
0
 10
113.623
 11
114.117
 20
283.076
 21
283.014
  0
LINE
  8
0
 10
114.117
 11
114.601
 20
283.014
 21
282.903
  0
LINE
  8
0
 10
114.601
 11
115.073
 20
282.903
 21
282.745
  0
LINE
  8
0
 10
115.073
 11
115.526
 20
282.745
 21
282.54
  0
LINE
  8
0
 10
115.526
 11
115.957
 20
282.54
 21
282.292
  0
LINE
  8
0
 10
115.957
 11
116.361
 20
282.292
 21
282.001
  0
LINE
  8
0
 10
116.361
 11
116.734
 20
282.001
 21
281.672
  0
LINE
  8
0
 10
116.734
 11
117.073
 20
281.672
 21
281.308
  0
LINE
  8
0
 10
117.073
 11
117.373
 20
281.308
 21
280.911
  0
LINE
  8
0
 10
117.373
 11
117.632
 20
280.911
 21
280.486
  0
LINE
  8
0
 10
117.632
 11
117.848
 20
280.486
 21
280.038
  0
LINE
  8
0
 10
117.848
 11
118.018
 20
280.038
 21
279.571
  0
LINE
  8
0
 10
118.018
 11
118.141
 20
279.571
 21
279.089
  0
LINE
  8
0
 10
118.141
 11
118.215
 20
279.089
 21
278.597
  0
LINE
  8
0
 10
118.215
 11
118.24
 20
278.597
 21
278.1
  0
LINE
  8
0
 10
118.24
 11
118.215
 20
278.1
 21
277.603
  0
LINE
  8
0
 10
118.215
 11
118.141
 20
277.603
 21
277.111
  0
LINE
  8
0
 10
118.141
 11
118.018
 20
277.111
 21
276.629
  0
LINE
  8
0
 10
118.018
 11
117.848
 20
276.629
 21
276.162
  0
LINE
  8
0
 10
117.848
 11
117.632
 20
276.162
 21
275.714
  0
LINE
  8
0
 10
117.632
 11
117.373
 20
275.714
 21
275.289
  0
LINE
  8
0
 10
117.373
 11
117.073
 20
275.289
 21
274.892
  0
LINE
  8
0
 10
117.073
 11
116.734
 20
274.892
 21
274.528
  0
LINE
  8
0
 10
116.734
 11
116.361
 20
274.528
 21
274.199
  0
LINE
  8
0
 10
116.361
 11
115.957
 20
274.199
 21
273.908
  0
LINE
  8
0
 10
115.957
 11
115.526
 20
273.908
 21
273.66
  0
LINE
  8
0
 10
115.526
 11
115.073
 20
273.66
 21
273.455
  0
LINE
  8
0
 10
115.073
 11
114.601
 20
273.455
 21
273.297
  0
LINE
  8
0
 10
114.601
 11
114.117
 20
273.297
 21
273.186
  0
LINE
  8
0
 10
114.117
 11
113.623
 20
273.186
 21
273.124
  0
LINE
  8
0
 10
113.623
 11
113.126
 20
273.124
 21
273.112
  0
LINE
  8
0
 10
113.126
 11
112.63
 20
273.112
 21
273.149
  0
LINE
  8
0
 10
112.63
 11
112.14
 20
273.149
 21
273.235
  0
LINE
  8
0
 10
112.14
 11
111.661
 20
273.235
 21
273.37
  0
LINE
  8
0
 10
111.661
 11
111.198
 20
273.37
 21
273.552
  0
LINE
  8
0
 10
111.198
 11
110.755
 20
273.552
 21
273.779
  0
LINE
  8
0
 10
110.755
 11
110.337
 20
273.779
 21
274.048
  0
LINE
  8
0
 10
110.337
 11
109.948
 20
274.048
 21
274.359
  0
LINE
  8
0
 10
109.948
 11
109.592
 20
274.359
 21
274.706
  0
LINE
  8
0
 10
109.592
 11
109.272
 20
274.706
 21
275.087
  0
LINE
  8
0
 10
109.272
 11
108.992
 20
275.087
 21
275.498
  0
LINE
  8
0
 10
108.992
 11
108.754
 20
275.498
 21
275.935
  0
LINE
  8
0
 10
108.754
 11
108.561
 20
275.935
 21
276.393
  0
LINE
  8
0
 10
108.561
 11
108.414
 20
276.393
 21
276.869
  0
LINE
  8
0
 10
108.414
 11
108.316
 20
276.869
 21
277.356
  0
LINE
  8
0
 10
108.316
 11
108.266
 20
277.356
 21
277.851
  0
LINE
  8
0
 10
113.755
 11
113.876
 20
321.804
 21
322.283
  0
LINE
  8
0
 10
113.876
 11
114.146
 20
322.283
 21
322.696
  0
LINE
  8
0
 10
114.146
 11
114.536
 20
322.696
 21
322.999
  0
LINE
  8
0
 10
114.536
 11
115.003
 20
322.999
 21
323.16
  0
LINE
  8
0
 10
115.003
 11
115.497
 20
323.16
 21
323.16
  0
LINE
  8
0
 10
115.497
 11
115.964
 20
323.16
 21
322.999
  0
LINE
  8
0
 10
115.964
 11
116.354
 20
322.999
 21
322.696
  0
LINE
  8
0
 10
116.354
 11
116.624
 20
322.696
 21
322.283
  0
LINE
  8
0
 10
116.624
 11
116.745
 20
322.283
 21
321.804
  0
LINE
  8
0
 10
116.745
 11
116.704
 20
321.804
 21
321.312
  0
LINE
  8
0
 10
116.704
 11
116.506
 20
321.312
 21
320.86
  0
LINE
  8
0
 10
116.506
 11
116.171
 20
320.86
 21
320.496
  0
LINE
  8
0
 10
116.171
 11
115.737
 20
320.496
 21
320.261
  0
LINE
  8
0
 10
115.737
 11
115.25
 20
320.261
 21
320.18
  0
LINE
  8
0
 10
115.25
 11
114.763
 20
320.18
 21
320.261
  0
LINE
  8
0
 10
114.763
 11
114.329
 20
320.261
 21
320.496
  0
LINE
  8
0
 10
114.329
 11
113.994
 20
320.496
 21
320.86
  0
LINE
  8
0
 10
113.994
 11
113.796
 20
320.86
 21
321.312
  0
LINE
  8
0
 10
113.796
 11
113.755
 20
321.312
 21
321.804
  0
LINE
  8
0
 10
113.755
 11
113.876
 20
327.604
 21
328.083
  0
LINE
  8
0
 10
113.876
 11
114.146
 20
328.083
 21
328.496
  0
LINE
  8
0
 10
114.146
 11
114.536
 20
328.496
 21
328.799
  0
LINE
  8
0
 10
114.536
 11
115.003
 20
328.799
 21
328.96
  0
LINE
  8
0
 10
115.003
 11
115.497
 20
328.96
 21
328.96
  0
LINE
  8
0
 10
115.497
 11
115.964
 20
328.96
 21
328.799
  0
LINE
  8
0
 10
115.964
 11
116.354
 20
328.799
 21
328.496
  0
LINE
  8
0
 10
116.354
 11
116.624
 20
328.496
 21
328.083
  0
LINE
  8
0
 10
116.624
 11
116.745
 20
328.083
 21
327.604
  0
LINE
  8
0
 10
116.745
 11
116.704
 20
327.604
 21
327.112
  0
LINE
  8
0
 10
116.704
 11
116.506
 20
327.112
 21
326.66
  0
LINE
  8
0
 10
116.506
 11
116.171
 20
326.66
 21
326.296
  0
LINE
  8
0
 10
116.171
 11
115.737
 20
326.296
 21
326.061
  0
LINE
  8
0
 10
115.737
 11
115.25
 20
326.061
 21
325.98
  0
LINE
  8
0
 10
115.25
 11
114.763
 20
325.98
 21
326.061
  0
LINE
  8
0
 10
114.763
 11
114.329
 20
326.061
 21
326.296
  0
LINE
  8
0
 10
114.329
 11
113.994
 20
326.296
 21
326.66
  0
LINE
  8
0
 10
113.994
 11
113.796
 20
326.66
 21
327.112
  0
LINE
  8
0
 10
113.796
 11
113.755
 20
327.112
 21
327.604
  0
LINE
  8
0
 10
116.35
 11
116.405
 20
348.29
 21
348.78
  0
LINE
  8
0
 10
116.405
 11
116.568
 20
348.78
 21
349.245
  0
LINE
  8
0
 10
116.568
 11
116.83
 20
349.245
 21
349.662
  0
LINE
  8
0
 10
116.83
 11
117.178
 20
349.662
 21
350.01
  0
LINE
  8
0
 10
117.178
 11
117.595
 20
350.01
 21
350.272
  0
LINE
  8
0
 10
117.595
 11
118.06
 20
350.272
 21
350.435
  0
LINE
  8
0
 10
118.06
 11
118.55
 20
350.435
 21
350.49
  0
LINE
  8
0
 10
118.55
 11
119.04
 20
350.49
 21
350.435
  0
LINE
  8
0
 10
119.04
 11
119.505
 20
350.435
 21
350.272
  0
LINE
  8
0
 10
119.505
 11
119.922
 20
350.272
 21
350.01
  0
LINE
  8
0
 10
119.922
 11
120.27
 20
350.01
 21
349.662
  0
LINE
  8
0
 10
120.27
 11
120.532
 20
349.662
 21
349.245
  0
LINE
  8
0
 10
120.532
 11
120.695
 20
349.245
 21
348.78
  0
LINE
  8
0
 10
120.695
 11
120.75
 20
348.78
 21
348.29
  0
LINE
  8
0
 10
120.75
 11
120.695
 20
348.29
 21
347.8
  0
LINE
  8
0
 10
120.695
 11
120.532
 20
347.8
 21
347.335
  0
LINE
  8
0
 10
120.532
 11
120.27
 20
347.335
 21
346.918
  0
LINE
  8
0
 10
120.27
 11
119.922
 20
346.918
 21
346.57
  0
LINE
  8
0
 10
119.922
 11
119.505
 20
346.57
 21
346.308
  0
LINE
  8
0
 10
119.505
 11
119.04
 20
346.308
 21
346.145
  0
LINE
  8
0
 10
119.04
 11
118.55
 20
346.145
 21
346.09
  0
LINE
  8
0
 10
118.55
 11
118.06
 20
346.09
 21
346.145
  0
LINE
  8
0
 10
118.06
 11
117.595
 20
346.145
 21
346.308
  0
LINE
  8
0
 10
117.595
 11
117.178
 20
346.308
 21
346.57
  0
LINE
  8
0
 10
117.178
 11
116.83
 20
346.57
 21
346.918
  0
LINE
  8
0
 10
116.83
 11
116.568
 20
346.918
 21
347.335
  0
LINE
  8
0
 10
116.568
 11
116.405
 20
347.335
 21
347.8
  0
LINE
  8
0
 10
116.405
 11
116.35
 20
347.8
 21
348.29
  0
LINE
  8
0
 10
118.755
 11
118.796
 20
308.956
 21
309.448
  0
LINE
  8
0
 10
118.796
 11
118.994
 20
309.448
 21
309.9
  0
LINE
  8
0
 10
118.994
 11
119.329
 20
309.9
 21
310.264
  0
LINE
  8
0
 10
119.329
 11
119.763
 20
310.264
 21
310.499
  0
LINE
  8
0
 10
119.763
 11
120.25
 20
310.499
 21
310.58
  0
LINE
  8
0
 10
120.25
 11
120.737
 20
310.58
 21
310.499
  0
LINE
  8
0
 10
120.737
 11
121.171
 20
310.499
 21
310.264
  0
LINE
  8
0
 10
121.171
 11
121.506
 20
310.264
 21
309.9
  0
LINE
  8
0
 10
121.506
 11
121.704
 20
309.9
 21
309.448
  0
LINE
  8
0
 10
121.704
 11
121.745
 20
309.448
 21
308.956
  0
LINE
  8
0
 10
121.745
 11
121.624
 20
308.956
 21
308.477
  0
LINE
  8
0
 10
121.624
 11
121.354
 20
308.477
 21
308.064
  0
LINE
  8
0
 10
121.354
 11
120.964
 20
308.064
 21
307.761
  0
LINE
  8
0
 10
120.964
 11
120.497
 20
307.761
 21
307.6
  0
LINE
  8
0
 10
120.497
 11
120.003
 20
307.6
 21
307.6
  0
LINE
  8
0
 10
120.003
 11
119.536
 20
307.6
 21
307.761
  0
LINE
  8
0
 10
119.536
 11
119.146
 20
307.761
 21
308.064
  0
LINE
  8
0
 10
119.146
 11
118.876
 20
308.064
 21
308.477
  0
LINE
  8
0
 10
118.876
 11
118.755
 20
308.477
 21
308.956
  0
LINE
  8
0
 10
118.755
 11
118.796
 20
316.156
 21
316.648
  0
LINE
  8
0
 10
118.796
 11
118.994
 20
316.648
 21
317.1
  0
LINE
  8
0
 10
118.994
 11
119.329
 20
317.1
 21
317.464
  0
LINE
  8
0
 10
119.329
 11
119.763
 20
317.464
 21
317.699
  0
LINE
  8
0
 10
119.763
 11
120.25
 20
317.699
 21
317.78
  0
LINE
  8
0
 10
120.25
 11
120.737
 20
317.78
 21
317.699
  0
LINE
  8
0
 10
120.737
 11
121.171
 20
317.699
 21
317.464
  0
LINE
  8
0
 10
121.171
 11
121.506
 20
317.464
 21
317.1
  0
LINE
  8
0
 10
121.506
 11
121.704
 20
317.1
 21
316.648
  0
LINE
  8
0
 10
121.704
 11
121.745
 20
316.648
 21
316.156
  0
LINE
  8
0
 10
121.745
 11
121.624
 20
316.156
 21
315.677
  0
LINE
  8
0
 10
121.624
 11
121.354
 20
315.677
 21
315.264
  0
LINE
  8
0
 10
121.354
 11
120.964
 20
315.264
 21
314.961
  0
LINE
  8
0
 10
120.964
 11
120.497
 20
314.961
 21
314.8
  0
LINE
  8
0
 10
120.497
 11
120.003
 20
314.8
 21
314.8
  0
LINE
  8
0
 10
120.003
 11
119.536
 20
314.8
 21
314.961
  0
LINE
  8
0
 10
119.536
 11
119.146
 20
314.961
 21
315.264
  0
LINE
  8
0
 10
119.146
 11
118.876
 20
315.264
 21
315.677
  0
LINE
  8
0
 10
118.876
 11
118.755
 20
315.677
 21
316.156
  0
LINE
  8
0
 10
123.05
 11
123.105
 20
376.5
 21
376.99
  0
LINE
  8
0
 10
123.105
 11
123.268
 20
376.99
 21
377.455
  0
LINE
  8
0
 10
123.268
 11
123.53
 20
377.455
 21
377.872
  0
LINE
  8
0
 10
123.53
 11
123.878
 20
377.872
 21
378.22
  0
LINE
  8
0
 10
123.878
 11
124.295
 20
378.22
 21
378.482
  0
LINE
  8
0
 10
124.295
 11
124.76
 20
378.482
 21
378.645
  0
LINE
  8
0
 10
124.76
 11
125.25
 20
378.645
 21
378.7
  0
LINE
  8
0
 10
125.25
 11
125.74
 20
378.7
 21
378.645
  0
LINE
  8
0
 10
125.74
 11
126.205
 20
378.645
 21
378.482
  0
LINE
  8
0
 10
126.205
 11
126.622
 20
378.482
 21
378.22
  0
LINE
  8
0
 10
126.622
 11
126.97
 20
378.22
 21
377.872
  0
LINE
  8
0
 10
126.97
 11
127.232
 20
377.872
 21
377.455
  0
LINE
  8
0
 10
127.232
 11
127.395
 20
377.455
 21
376.99
  0
LINE
  8
0
 10
127.395
 11
127.45
 20
376.99
 21
376.5
  0
LINE
  8
0
 10
127.45
 11
127.395
 20
376.5
 21
376.01
  0
LINE
  8
0
 10
127.395
 11
127.232
 20
376.01
 21
375.545
  0
LINE
  8
0
 10
127.232
 11
126.97
 20
375.545
 21
375.128
  0
LINE
  8
0
 10
126.97
 11
126.622
 20
375.128
 21
374.78
  0
LINE
  8
0
 10
126.622
 11
126.205
 20
374.78
 21
374.518
  0
LINE
  8
0
 10
126.205
 11
125.74
 20
374.518
 21
374.355
  0
LINE
  8
0
 10
125.74
 11
125.25
 20
374.355
 21
374.3
  0
LINE
  8
0
 10
125.25
 11
124.76
 20
374.3
 21
374.355
  0
LINE
  8
0
 10
124.76
 11
124.295
 20
374.355
 21
374.518
  0
LINE
  8
0
 10
124.295
 11
123.878
 20
374.518
 21
374.78
  0
LINE
  8
0
 10
123.878
 11
123.53
 20
374.78
 21
375.128
  0
LINE
  8
0
 10
123.53
 11
123.268
 20
375.128
 21
375.545
  0
LINE
  8
0
 10
123.268
 11
123.105
 20
375.545
 21
376.01
  0
LINE
  8
0
 10
123.105
 11
123.05
 20
376.01
 21
376.5
  0
LINE
  8
0
 10
142.05
 11
142.105
 20
61
 21
61.49
  0
LINE
  8
0
 10
142.105
 11
142.268
 20
61.49
 21
61.955
  0
LINE
  8
0
 10
142.268
 11
142.53
 20
61.955
 21
62.372
  0
LINE
  8
0
 10
142.53
 11
142.878
 20
62.372
 21
62.72
  0
LINE
  8
0
 10
142.878
 11
143.295
 20
62.72
 21
62.982
  0
LINE
  8
0
 10
143.295
 11
143.76
 20
62.982
 21
63.145
  0
LINE
  8
0
 10
143.76
 11
144.25
 20
63.145
 21
63.2
  0
LINE
  8
0
 10
144.25
 11
144.74
 20
63.2
 21
63.145
  0
LINE
  8
0
 10
144.74
 11
145.205
 20
63.145
 21
62.982
  0
LINE
  8
0
 10
145.205
 11
145.622
 20
62.982
 21
62.72
  0
LINE
  8
0
 10
145.622
 11
145.97
 20
62.72
 21
62.372
  0
LINE
  8
0
 10
145.97
 11
146.232
 20
62.372
 21
61.955
  0
LINE
  8
0
 10
146.232
 11
146.395
 20
61.955
 21
61.49
  0
LINE
  8
0
 10
146.395
 11
146.45
 20
61.49
 21
61
  0
LINE
  8
0
 10
146.45
 11
146.395
 20
61
 21
60.51
  0
LINE
  8
0
 10
146.395
 11
146.232
 20
60.51
 21
60.045
  0
LINE
  8
0
 10
146.232
 11
145.97
 20
60.045
 21
59.628
  0
LINE
  8
0
 10
145.97
 11
145.622
 20
59.628
 21
59.28
  0
LINE
  8
0
 10
145.622
 11
145.205
 20
59.28
 21
59.018
  0
LINE
  8
0
 10
145.205
 11
144.74
 20
59.018
 21
58.855
  0
LINE
  8
0
 10
144.74
 11
144.25
 20
58.855
 21
58.8
  0
LINE
  8
0
 10
144.25
 11
143.76
 20
58.8
 21
58.855
  0
LINE
  8
0
 10
143.76
 11
143.295
 20
58.855
 21
59.018
  0
LINE
  8
0
 10
143.295
 11
142.878
 20
59.018
 21
59.28
  0
LINE
  8
0
 10
142.878
 11
142.53
 20
59.28
 21
59.628
  0
LINE
  8
0
 10
142.53
 11
142.268
 20
59.628
 21
60.045
  0
LINE
  8
0
 10
142.268
 11
142.105
 20
60.045
 21
60.51
  0
LINE
  8
0
 10
142.105
 11
142.05
 20
60.51
 21
61
  0
LINE
  8
0
 10
146.25
 11
146.305
 20
8.2
 21
8.69
  0
LINE
  8
0
 10
146.305
 11
146.468
 20
8.69
 21
9.155
  0
LINE
  8
0
 10
146.468
 11
146.73
 20
9.155
 21
9.572
  0
LINE
  8
0
 10
146.73
 11
147.078
 20
9.572
 21
9.92
  0
LINE
  8
0
 10
147.078
 11
147.495
 20
9.92
 21
10.182
  0
LINE
  8
0
 10
147.495
 11
147.96
 20
10.182
 21
10.345
  0
LINE
  8
0
 10
147.96
 11
148.45
 20
10.345
 21
10.4
  0
LINE
  8
0
 10
148.45
 11
148.94
 20
10.4
 21
10.345
  0
LINE
  8
0
 10
148.94
 11
149.405
 20
10.345
 21
10.182
  0
LINE
  8
0
 10
149.405
 11
149.822
 20
10.182
 21
9.92
  0
LINE
  8
0
 10
149.822
 11
150.17
 20
9.92
 21
9.572
  0
LINE
  8
0
 10
150.17
 11
150.432
 20
9.572
 21
9.155
  0
LINE
  8
0
 10
150.432
 11
150.595
 20
9.155
 21
8.69
  0
LINE
  8
0
 10
150.595
 11
150.65
 20
8.69
 21
8.2
  0
LINE
  8
0
 10
150.65
 11
150.595
 20
8.2
 21
7.71
  0
LINE
  8
0
 10
150.595
 11
150.432
 20
7.71
 21
7.245
  0
LINE
  8
0
 10
150.432
 11
150.17
 20
7.245
 21
6.828
  0
LINE
  8
0
 10
150.17
 11
149.822
 20
6.828
 21
6.48
  0
LINE
  8
0
 10
149.822
 11
149.405
 20
6.48
 21
6.218
  0
LINE
  8
0
 10
149.405
 11
148.94
 20
6.218
 21
6.055
  0
LINE
  8
0
 10
148.94
 11
148.45
 20
6.055
 21
6
  0
LINE
  8
0
 10
148.45
 11
147.96
 20
6
 21
6.055
  0
LINE
  8
0
 10
147.96
 11
147.495
 20
6.055
 21
6.218
  0
LINE
  8
0
 10
147.495
 11
147.078
 20
6.218
 21
6.48
  0
LINE
  8
0
 10
147.078
 11
146.73
 20
6.48
 21
6.828
  0
LINE
  8
0
 10
146.73
 11
146.468
 20
6.828
 21
7.245
  0
LINE
  8
0
 10
146.468
 11
146.305
 20
7.245
 21
7.71
  0
LINE
  8
0
 10
146.305
 11
146.25
 20
7.71
 21
8.2
  0
LINE
  8
0
 10
158.05
 11
158.105
 20
376.5
 21
376.99
  0
LINE
  8
0
 10
158.105
 11
158.268
 20
376.99
 21
377.455
  0
LINE
  8
0
 10
158.268
 11
158.53
 20
377.455
 21
377.872
  0
LINE
  8
0
 10
158.53
 11
158.878
 20
377.872
 21
378.22
  0
LINE
  8
0
 10
158.878
 11
159.295
 20
378.22
 21
378.482
  0
LINE
  8
0
 10
159.295
 11
159.76
 20
378.482
 21
378.645
  0
LINE
  8
0
 10
159.76
 11
160.25
 20
378.645
 21
378.7
  0
LINE
  8
0
 10
160.25
 11
160.74
 20
378.7
 21
378.645
  0
LINE
  8
0
 10
160.74
 11
161.205
 20
378.645
 21
378.482
  0
LINE
  8
0
 10
161.205
 11
161.622
 20
378.482
 21
378.22
  0
LINE
  8
0
 10
161.622
 11
161.97
 20
378.22
 21
377.872
  0
LINE
  8
0
 10
161.97
 11
162.232
 20
377.872
 21
377.455
  0
LINE
  8
0
 10
162.232
 11
162.395
 20
377.455
 21
376.99
  0
LINE
  8
0
 10
162.395
 11
162.45
 20
376.99
 21
376.5
  0
LINE
  8
0
 10
162.45
 11
162.395
 20
376.5
 21
376.01
  0
LINE
  8
0
 10
162.395
 11
162.232
 20
376.01
 21
375.545
  0
LINE
  8
0
 10
162.232
 11
161.97
 20
375.545
 21
375.128
  0
LINE
  8
0
 10
161.97
 11
161.622
 20
375.128
 21
374.78
  0
LINE
  8
0
 10
161.622
 11
161.205
 20
374.78
 21
374.518
  0
LINE
  8
0
 10
161.205
 11
160.74
 20
374.518
 21
374.355
  0
LINE
  8
0
 10
160.74
 11
160.25
 20
374.355
 21
374.3
  0
LINE
  8
0
 10
160.25
 11
159.76
 20
374.3
 21
374.355
  0
LINE
  8
0
 10
159.76
 11
159.295
 20
374.355
 21
374.518
  0
LINE
  8
0
 10
159.295
 11
158.878
 20
374.518
 21
374.78
  0
LINE
  8
0
 10
158.878
 11
158.53
 20
374.78
 21
375.128
  0
LINE
  8
0
 10
158.53
 11
158.268
 20
375.128
 21
375.545
  0
LINE
  8
0
 10
158.268
 11
158.105
 20
375.545
 21
376.01
  0
LINE
  8
0
 10
158.105
 11
158.05
 20
376.01
 21
376.5
  0
LINE
  8
0
 10
158.87
 11
158.918
 20
20.9
 21
21.388
  0
LINE
  8
0
 10
158.918
 11
159.06
 20
21.388
 21
21.857
  0
LINE
  8
0
 10
159.06
 11
159.291
 20
21.857
 21
22.289
  0
LINE
  8
0
 10
159.291
 11
159.602
 20
22.289
 21
22.668
  0
LINE
  8
0
 10
159.602
 11
159.981
 20
22.668
 21
22.979
  0
LINE
  8
0
 10
159.981
 11
160.413
 20
22.979
 21
23.21
  0
LINE
  8
0
 10
160.413
 11
160.882
 20
23.21
 21
23.352
  0
LINE
  8
0
 10
160.882
 11
161.37
 20
23.352
 21
23.4
  0
LINE
  8
0
 10
161.37
 11
161.858
 20
23.4
 21
23.352
  0
LINE
  8
0
 10
161.858
 11
162.327
 20
23.352
 21
23.21
  0
LINE
  8
0
 10
162.327
 11
162.759
 20
23.21
 21
22.979
  0
LINE
  8
0
 10
162.759
 11
163.138
 20
22.979
 21
22.668
  0
LINE
  8
0
 10
163.138
 11
163.449
 20
22.668
 21
22.289
  0
LINE
  8
0
 10
163.449
 11
163.68
 20
22.289
 21
21.857
  0
LINE
  8
0
 10
163.68
 11
163.822
 20
21.857
 21
21.388
  0
LINE
  8
0
 10
163.822
 11
163.87
 20
21.388
 21
20.9
  0
LINE
  8
0
 10
163.87
 11
163.822
 20
20.9
 21
20.412
  0
LINE
  8
0
 10
163.822
 11
163.68
 20
20.412
 21
19.943
  0
LINE
  8
0
 10
163.68
 11
163.449
 20
19.943
 21
19.511
  0
LINE
  8
0
 10
163.449
 11
163.138
 20
19.511
 21
19.132
  0
LINE
  8
0
 10
163.138
 11
162.759
 20
19.132
 21
18.821
  0
LINE
  8
0
 10
162.759
 11
162.327
 20
18.821
 21
18.59
  0
LINE
  8
0
 10
162.327
 11
161.858
 20
18.59
 21
18.448
  0
LINE
  8
0
 10
161.858
 11
161.37
 20
18.448
 21
18.4
  0
LINE
  8
0
 10
161.37
 11
160.882
 20
18.4
 21
18.448
  0
LINE
  8
0
 10
160.882
 11
160.413
 20
18.448
 21
18.59
  0
LINE
  8
0
 10
160.413
 11
159.981
 20
18.59
 21
18.821
  0
LINE
  8
0
 10
159.981
 11
159.602
 20
18.821
 21
19.132
  0
LINE
  8
0
 10
159.602
 11
159.291
 20
19.132
 21
19.511
  0
LINE
  8
0
 10
159.291
 11
159.06
 20
19.511
 21
19.943
  0
LINE
  8
0
 10
159.06
 11
158.918
 20
19.943
 21
20.412
  0
LINE
  8
0
 10
158.918
 11
158.87
 20
20.412
 21
20.9
  0
LINE
  8
0
 10
167.47
 11
167.525
 20
8.2
 21
8.69
  0
LINE
  8
0
 10
167.525
 11
167.688
 20
8.69
 21
9.155
  0
LINE
  8
0
 10
167.688
 11
167.95
 20
9.155
 21
9.572
  0
LINE
  8
0
 10
167.95
 11
168.298
 20
9.572
 21
9.92
  0
LINE
  8
0
 10
168.298
 11
168.715
 20
9.92
 21
10.182
  0
LINE
  8
0
 10
168.715
 11
169.18
 20
10.182
 21
10.345
  0
LINE
  8
0
 10
169.18
 11
169.67
 20
10.345
 21
10.4
  0
LINE
  8
0
 10
169.67
 11
170.16
 20
10.4
 21
10.345
  0
LINE
  8
0
 10
170.16
 11
170.625
 20
10.345
 21
10.182
  0
LINE
  8
0
 10
170.625
 11
171.042
 20
10.182
 21
9.92
  0
LINE
  8
0
 10
171.042
 11
171.39
 20
9.92
 21
9.572
  0
LINE
  8
0
 10
171.39
 11
171.652
 20
9.572
 21
9.155
  0
LINE
  8
0
 10
171.652
 11
171.815
 20
9.155
 21
8.69
  0
LINE
  8
0
 10
171.815
 11
171.87
 20
8.69
 21
8.2
  0
LINE
  8
0
 10
171.87
 11
171.815
 20
8.2
 21
7.71
  0
LINE
  8
0
 10
171.815
 11
171.652
 20
7.71
 21
7.245
  0
LINE
  8
0
 10
171.652
 11
171.39
 20
7.245
 21
6.828
  0
LINE
  8
0
 10
171.39
 11
171.042
 20
6.828
 21
6.48
  0
LINE
  8
0
 10
171.042
 11
170.625
 20
6.48
 21
6.218
  0
LINE
  8
0
 10
170.625
 11
170.16
 20
6.218
 21
6.055
  0
LINE
  8
0
 10
170.16
 11
169.67
 20
6.055
 21
6
  0
LINE
  8
0
 10
169.67
 11
169.18
 20
6
 21
6.055
  0
LINE
  8
0
 10
169.18
 11
168.715
 20
6.055
 21
6.218
  0
LINE
  8
0
 10
168.715
 11
168.298
 20
6.218
 21
6.48
  0
LINE
  8
0
 10
168.298
 11
167.95
 20
6.48
 21
6.828
  0
LINE
  8
0
 10
167.95
 11
167.688
 20
6.828
 21
7.245
  0
LINE
  8
0
 10
167.688
 11
167.525
 20
7.245
 21
7.71
  0
LINE
  8
0
 10
167.525
 11
167.47
 20
7.71
 21
8.2
  0
LINE
  8
0
 10
174.05
 11
174.105
 20
61
 21
61.49
  0
LINE
  8
0
 10
174.105
 11
174.268
 20
61.49
 21
61.955
  0
LINE
  8
0
 10
174.268
 11
174.53
 20
61.955
 21
62.372
  0
LINE
  8
0
 10
174.53
 11
174.878
 20
62.372
 21
62.72
  0
LINE
  8
0
 10
174.878
 11
175.295
 20
62.72
 21
62.982
  0
LINE
  8
0
 10
175.295
 11
175.76
 20
62.982
 21
63.145
  0
LINE
  8
0
 10
175.76
 11
176.25
 20
63.145
 21
63.2
  0
LINE
  8
0
 10
176.25
 11
176.74
 20
63.2
 21
63.145
  0
LINE
  8
0
 10
176.74
 11
177.205
 20
63.145
 21
62.982
  0
LINE
  8
0
 10
177.205
 11
177.622
 20
62.982
 21
62.72
  0
LINE
  8
0
 10
177.622
 11
177.97
 20
62.72
 21
62.372
  0
LINE
  8
0
 10
177.97
 11
178.232
 20
62.372
 21
61.955
  0
LINE
  8
0
 10
178.232
 11
178.395
 20
61.955
 21
61.49
  0
LINE
  8
0
 10
178.395
 11
178.45
 20
61.49
 21
61
  0
LINE
  8
0
 10
178.45
 11
178.395
 20
61
 21
60.51
  0
LINE
  8
0
 10
178.395
 11
178.232
 20
60.51
 21
60.045
  0
LINE
  8
0
 10
178.232
 11
177.97
 20
60.045
 21
59.628
  0
LINE
  8
0
 10
177.97
 11
177.622
 20
59.628
 21
59.28
  0
LINE
  8
0
 10
177.622
 11
177.205
 20
59.28
 21
59.018
  0
LINE
  8
0
 10
177.205
 11
176.74
 20
59.018
 21
58.855
  0
LINE
  8
0
 10
176.74
 11
176.25
 20
58.855
 21
58.8
  0
LINE
  8
0
 10
176.25
 11
175.76
 20
58.8
 21
58.855
  0
LINE
  8
0
 10
175.76
 11
175.295
 20
58.855
 21
59.018
  0
LINE
  8
0
 10
175.295
 11
174.878
 20
59.018
 21
59.28
  0
LINE
  8
0
 10
174.878
 11
174.53
 20
59.28
 21
59.628
  0
LINE
  8
0
 10
174.53
 11
174.268
 20
59.628
 21
60.045
  0
LINE
  8
0
 10
174.268
 11
174.105
 20
60.045
 21
60.51
  0
LINE
  8
0
 10
174.105
 11
174.05
 20
60.51
 21
61
  0
LINE
  8
0
 10
184.15
 11
184.205
 20
371.3
 21
371.79
  0
LINE
  8
0
 10
184.205
 11
184.368
 20
371.79
 21
372.255
  0
LINE
  8
0
 10
184.368
 11
184.63
 20
372.255
 21
372.672
  0
LINE
  8
0
 10
184.63
 11
184.978
 20
372.672
 21
373.02
  0
LINE
  8
0
 10
184.978
 11
185.395
 20
373.02
 21
373.282
  0
LINE
  8
0
 10
185.395
 11
185.86
 20
373.282
 21
373.445
  0
LINE
  8
0
 10
185.86
 11
186.35
 20
373.445
 21
373.5
  0
LINE
  8
0
 10
186.35
 11
186.84
 20
373.5
 21
373.445
  0
LINE
  8
0
 10
186.84
 11
187.305
 20
373.445
 21
373.282
  0
LINE
  8
0
 10
187.305
 11
187.722
 20
373.282
 21
373.02
  0
LINE
  8
0
 10
187.722
 11
188.07
 20
373.02
 21
372.672
  0
LINE
  8
0
 10
188.07
 11
188.332
 20
372.672
 21
372.255
  0
LINE
  8
0
 10
188.332
 11
188.495
 20
372.255
 21
371.79
  0
LINE
  8
0
 10
188.495
 11
188.55
 20
371.79
 21
371.3
  0
LINE
  8
0
 10
188.55
 11
188.495
 20
371.3
 21
370.81
  0
LINE
  8
0
 10
188.495
 11
188.332
 20
370.81
 21
370.345
  0
LINE
  8
0
 10
188.332
 11
188.07
 20
370.345
 21
369.928
  0
LINE
  8
0
 10
188.07
 11
187.722
 20
369.928
 21
369.58
  0
LINE
  8
0
 10
187.722
 11
187.305
 20
369.58
 21
369.318
  0
LINE
  8
0
 10
187.305
 11
186.84
 20
369.318
 21
369.155
  0
LINE
  8
0
 10
186.84
 11
186.35
 20
369.155
 21
369.1
  0
LINE
  8
0
 10
186.35
 11
185.86
 20
369.1
 21
369.155
  0
LINE
  8
0
 10
185.86
 11
185.395
 20
369.155
 21
369.318
  0
LINE
  8
0
 10
185.395
 11
184.978
 20
369.318
 21
369.58
  0
LINE
  8
0
 10
184.978
 11
184.63
 20
369.58
 21
369.928
  0
LINE
  8
0
 10
184.63
 11
184.368
 20
369.928
 21
370.345
  0
LINE
  8
0
 10
184.368
 11
184.205
 20
370.345
 21
370.81
  0
LINE
  8
0
 10
184.205
 11
184.15
 20
370.81
 21
371.3
  0
LINE
  8
0
 10
204.13
 11
204.185
 20
8.2
 21
8.69
  0
LINE
  8
0
 10
204.185
 11
204.348
 20
8.69
 21
9.155
  0
LINE
  8
0
 10
204.348
 11
204.61
 20
9.155
 21
9.572
  0
LINE
  8
0
 10
204.61
 11
204.958
 20
9.572
 21
9.92
  0
LINE
  8
0
 10
204.958
 11
205.375
 20
9.92
 21
10.182
  0
LINE
  8
0
 10
205.375
 11
205.84
 20
10.182
 21
10.345
  0
LINE
  8
0
 10
205.84
 11
206.33
 20
10.345
 21
10.4
  0
LINE
  8
0
 10
206.33
 11
206.82
 20
10.4
 21
10.345
  0
LINE
  8
0
 10
206.82
 11
207.285
 20
10.345
 21
10.182
  0
LINE
  8
0
 10
207.285
 11
207.702
 20
10.182
 21
9.92
  0
LINE
  8
0
 10
207.702
 11
208.05
 20
9.92
 21
9.572
  0
LINE
  8
0
 10
208.05
 11
208.312
 20
9.572
 21
9.155
  0
LINE
  8
0
 10
208.312
 11
208.475
 20
9.155
 21
8.69
  0
LINE
  8
0
 10
208.475
 11
208.53
 20
8.69
 21
8.2
  0
LINE
  8
0
 10
208.53
 11
208.475
 20
8.2
 21
7.71
  0
LINE
  8
0
 10
208.475
 11
208.312
 20
7.71
 21
7.245
  0
LINE
  8
0
 10
208.312
 11
208.05
 20
7.245
 21
6.828
  0
LINE
  8
0
 10
208.05
 11
207.702
 20
6.828
 21
6.48
  0
LINE
  8
0
 10
207.702
 11
207.285
 20
6.48
 21
6.218
  0
LINE
  8
0
 10
207.285
 11
206.82
 20
6.218
 21
6.055
  0
LINE
  8
0
 10
206.82
 11
206.33
 20
6.055
 21
6
  0
LINE
  8
0
 10
206.33
 11
205.84
 20
6
 21
6.055
  0
LINE
  8
0
 10
205.84
 11
205.375
 20
6.055
 21
6.218
  0
LINE
  8
0
 10
205.375
 11
204.958
 20
6.218
 21
6.48
  0
LINE
  8
0
 10
204.958
 11
204.61
 20
6.48
 21
6.828
  0
LINE
  8
0
 10
204.61
 11
204.348
 20
6.828
 21
7.245
  0
LINE
  8
0
 10
204.348
 11
204.185
 20
7.245
 21
7.71
  0
LINE
  8
0
 10
204.185
 11
204.13
 20
7.71
 21
8.2
  0
LINE
  8
0
 10
218.95
 11
219.005
 20
371.3
 21
371.79
  0
LINE
  8
0
 10
219.005
 11
219.168
 20
371.79
 21
372.255
  0
LINE
  8
0
 10
219.168
 11
219.43
 20
372.255
 21
372.672
  0
LINE
  8
0
 10
219.43
 11
219.778
 20
372.672
 21
373.02
  0
LINE
  8
0
 10
219.778
 11
220.195
 20
373.02
 21
373.282
  0
LINE
  8
0
 10
220.195
 11
220.66
 20
373.282
 21
373.445
  0
LINE
  8
0
 10
220.66
 11
221.15
 20
373.445
 21
373.5
  0
LINE
  8
0
 10
221.15
 11
221.64
 20
373.5
 21
373.445
  0
LINE
  8
0
 10
221.64
 11
222.105
 20
373.445
 21
373.282
  0
LINE
  8
0
 10
222.105
 11
222.522
 20
373.282
 21
373.02
  0
LINE
  8
0
 10
222.522
 11
222.87
 20
373.02
 21
372.672
  0
LINE
  8
0
 10
222.87
 11
223.132
 20
372.672
 21
372.255
  0
LINE
  8
0
 10
223.132
 11
223.295
 20
372.255
 21
371.79
  0
LINE
  8
0
 10
223.295
 11
223.35
 20
371.79
 21
371.3
  0
LINE
  8
0
 10
223.35
 11
223.295
 20
371.3
 21
370.81
  0
LINE
  8
0
 10
223.295
 11
223.132
 20
370.81
 21
370.345
  0
LINE
  8
0
 10
223.132
 11
222.87
 20
370.345
 21
369.928
  0
LINE
  8
0
 10
222.87
 11
222.522
 20
369.928
 21
369.58
  0
LINE
  8
0
 10
222.522
 11
222.105
 20
369.58
 21
369.318
  0
LINE
  8
0
 10
222.105
 11
221.64
 20
369.318
 21
369.155
  0
LINE
  8
0
 10
221.64
 11
221.15
 20
369.155
 21
369.1
  0
LINE
  8
0
 10
221.15
 11
220.66
 20
369.1
 21
369.155
  0
LINE
  8
0
 10
220.66
 11
220.195
 20
369.155
 21
369.318
  0
LINE
  8
0
 10
220.195
 11
219.778
 20
369.318
 21
369.58
  0
LINE
  8
0
 10
219.778
 11
219.43
 20
369.58
 21
369.928
  0
LINE
  8
0
 10
219.43
 11
219.168
 20
369.928
 21
370.345
  0
LINE
  8
0
 10
219.168
 11
219.005
 20
370.345
 21
370.81
  0
LINE
  8
0
 10
219.005
 11
218.95
 20
370.81
 21
371.3
  0
LINE
  8
0
 10
225.35
 11
225.405
 20
8.2
 21
8.69
  0
LINE
  8
0
 10
225.405
 11
225.568
 20
8.69
 21
9.155
  0
LINE
  8
0
 10
225.568
 11
225.83
 20
9.155
 21
9.572
  0
LINE
  8
0
 10
225.83
 11
226.178
 20
9.572
 21
9.92
  0
LINE
  8
0
 10
226.178
 11
226.595
 20
9.92
 21
10.182
  0
LINE
  8
0
 10
226.595
 11
227.06
 20
10.182
 21
10.345
  0
LINE
  8
0
 10
227.06
 11
227.55
 20
10.345
 21
10.4
  0
LINE
  8
0
 10
227.55
 11
228.04
 20
10.4
 21
10.345
  0
LINE
  8
0
 10
228.04
 11
228.505
 20
10.345
 21
10.182
  0
LINE
  8
0
 10
228.505
 11
228.922
 20
10.182
 21
9.92
  0
LINE
  8
0
 10
228.922
 11
229.27
 20
9.92
 21
9.572
  0
LINE
  8
0
 10
229.27
 11
229.532
 20
9.572
 21
9.155
  0
LINE
  8
0
 10
229.532
 11
229.695
 20
9.155
 21
8.69
  0
LINE
  8
0
 10
229.695
 11
229.75
 20
8.69
 21
8.2
  0
LINE
  8
0
 10
229.75
 11
229.695
 20
8.2
 21
7.71
  0
LINE
  8
0
 10
229.695
 11
229.532
 20
7.71
 21
7.245
  0
LINE
  8
0
 10
229.532
 11
229.27
 20
7.245
 21
6.828
  0
LINE
  8
0
 10
229.27
 11
228.922
 20
6.828
 21
6.48
  0
LINE
  8
0
 10
228.922
 11
228.505
 20
6.48
 21
6.218
  0
LINE
  8
0
 10
228.505
 11
228.04
 20
6.218
 21
6.055
  0
LINE
  8
0
 10
228.04
 11
227.55
 20
6.055
 21
6
  0
LINE
  8
0
 10
227.55
 11
227.06
 20
6
 21
6.055
  0
LINE
  8
0
 10
227.06
 11
226.595
 20
6.055
 21
6.218
  0
LINE
  8
0
 10
226.595
 11
226.178
 20
6.218
 21
6.48
  0
LINE
  8
0
 10
226.178
 11
225.83
 20
6.48
 21
6.828
  0
LINE
  8
0
 10
225.83
 11
225.568
 20
6.828
 21
7.245
  0
LINE
  8
0
 10
225.568
 11
225.405
 20
7.245
 21
7.71
  0
LINE
  8
0
 10
225.405
 11
225.35
 20
7.71
 21
8.2
  0
ENDSEC
  0
SECTION
  2
OBJECTS
  0
DICTIONARY
  0
ENDSEC
  0
EOF
