<?xml version="1.0"?>
<svg xmlns="http://www.w3.org/2000/svg" version="1.1" height="323mm" width="395mm" >
 <g style="fill-opacity:1.0; stroke:black; stroke-width:1;">
  <line x1="375.000000mm" y1="313.000000mm" x2="375.000000mm" y2="313.000000mm" />
  <line x1="375.000000mm" y1="313.000000mm" x2="0.000000mm" y2="313.000000mm" />
  <line x1="0.000000mm" y1="313.000000mm" x2="0.000000mm" y2="158.500000mm" />
  <line x1="0.000000mm" y1="158.500000mm" x2="385.000000mm" y2="158.500000mm" />
  <line x1="385.000000mm" y1="158.500000mm" x2="385.000000mm" y2="303.000000mm" />
  <line x1="385.000000mm" y1="303.000000mm" x2="384.962000mm" y2="303.872000mm" />
  <line x1="384.962000mm" y1="303.872000mm" x2="384.848000mm" y2="304.736000mm" />
  <line x1="384.848000mm" y1="304.736000mm" x2="384.659000mm" y2="305.588000mm" />
  <line x1="384.659000mm" y1="305.588000mm" x2="384.397000mm" y2="306.420000mm" />
  <line x1="384.397000mm" y1="306.420000mm" x2="384.063000mm" y2="307.226000mm" />
  <line x1="384.063000mm" y1="307.226000mm" x2="383.660000mm" y2="308.000000mm" />
  <line x1="383.660000mm" y1="308.000000mm" x2="383.192000mm" y2="308.736000mm" />
  <line x1="383.192000mm" y1="308.736000mm" x2="382.660000mm" y2="309.428000mm" />
  <line x1="382.660000mm" y1="309.428000mm" x2="382.071000mm" y2="310.071000mm" />
  <line x1="382.071000mm" y1="310.071000mm" x2="381.428000mm" y2="310.660000mm" />
  <line x1="381.428000mm" y1="310.660000mm" x2="380.736000mm" y2="311.192000mm" />
  <line x1="380.736000mm" y1="311.192000mm" x2="380.000000mm" y2="311.660000mm" />
  <line x1="380.000000mm" y1="311.660000mm" x2="379.226000mm" y2="312.063000mm" />
  <line x1="379.226000mm" y1="312.063000mm" x2="378.420000mm" y2="312.397000mm" />
  <line x1="378.420000mm" y1="312.397000mm" x2="377.588000mm" y2="312.659000mm" />
  <line x1="377.588000mm" y1="312.659000mm" x2="376.736000mm" y2="312.848000mm" />
  <line x1="376.736000mm" y1="312.848000mm" x2="375.872000mm" y2="312.962000mm" />
  <line x1="375.872000mm" y1="312.962000mm" x2="375.000000mm" y2="313.000000mm" />
  <line x1="385.000000mm" y1="154.500000mm" x2="385.000000mm" y2="154.500000mm" />
  <line x1="385.000000mm" y1="154.500000mm" x2="0.000000mm" y2="154.500000mm" />
  <line x1="0.000000mm" y1="154.500000mm" x2="0.000000mm" y2="0.000000mm" />
  <line x1="0.000000mm" y1="0.000000mm" x2="375.000000mm" y2="0.000000mm" />
  <line x1="375.000000mm" y1="0.000000mm" x2="375.872000mm" y2="0.038000mm" />
  <line x1="375.872000mm" y1="0.038000mm" x2="376.736000mm" y2="0.152000mm" />
  <line x1="376.736000mm" y1="0.152000mm" x2="377.588000mm" y2="0.341000mm" />
  <line x1="377.588000mm" y1="0.341000mm" x2="378.420000mm" y2="0.603000mm" />
  <line x1="378.420000mm" y1="0.603000mm" x2="379.226000mm" y2="0.937000mm" />
  <line x1="379.226000mm" y1="0.937000mm" x2="380.000000mm" y2="1.340000mm" />
  <line x1="380.000000mm" y1="1.340000mm" x2="380.736000mm" y2="1.808000mm" />
  <line x1="380.736000mm" y1="1.808000mm" x2="381.428000mm" y2="2.340000mm" />
  <line x1="381.428000mm" y1="2.340000mm" x2="382.071000mm" y2="2.929000mm" />
  <line x1="382.071000mm" y1="2.929000mm" x2="382.660000mm" y2="3.572000mm" />
  <line x1="382.660000mm" y1="3.572000mm" x2="383.192000mm" y2="4.264000mm" />
  <line x1="383.192000mm" y1="4.264000mm" x2="383.660000mm" y2="5.000000mm" />
  <line x1="383.660000mm" y1="5.000000mm" x2="384.063000mm" y2="5.774000mm" />
  <line x1="384.063000mm" y1="5.774000mm" x2="384.397000mm" y2="6.580000mm" />
  <line x1="384.397000mm" y1="6.580000mm" x2="384.659000mm" y2="7.412000mm" />
  <line x1="384.659000mm" y1="7.412000mm" x2="384.848000mm" y2="8.264000mm" />
  <line x1="384.848000mm" y1="8.264000mm" x2="384.962000mm" y2="9.128000mm" />
  <line x1="384.962000mm" y1="9.128000mm" x2="385.000000mm" y2="10.000000mm" />
  <line x1="385.000000mm" y1="10.000000mm" x2="385.000000mm" y2="154.500000mm" />
  <circle cx="8.500151mm" cy="251.499567mm" r="3.499825mm" fill="none"/>
  <line x1="15.499802mm" y1="251.499567mm" x2="1.500500mm" y2="251.499567mm" />
  <line x1="8.500151mm" y1="244.499917mm" x2="8.500151mm" y2="258.499218mm" />
  <text x="11mm" y="247mm" font-size="24">
   7.0
  </text>
  <circle cx="7.500170mm" cy="177.399939mm" r="2.500268mm" fill="none"/>
  <line x1="12.500707mm" y1="177.399939mm" x2="2.499633mm" y2="177.399939mm" />
  <line x1="7.500170mm" y1="172.399402mm" x2="7.500170mm" y2="182.400476mm" />
  <text x="10mm" y="174mm" font-size="24">
   5.0
  </text>
  <circle cx="7.000009mm" cy="238.899777mm" r="1.999983mm" fill="none"/>
  <line x1="10.999974mm" y1="238.899777mm" x2="3.000044mm" y2="238.899777mm" />
  <line x1="7.000009mm" y1="234.899812mm" x2="7.000009mm" y2="242.899742mm" />
  <text x="8mm" y="236mm" font-size="24">
   4.0
  </text>
  <circle cx="7.000009mm" cy="186.899777mm" r="1.999983mm" fill="none"/>
  <line x1="10.999974mm" y1="186.899777mm" x2="3.000044mm" y2="186.899777mm" />
  <line x1="7.000009mm" y1="182.899812mm" x2="7.000009mm" y2="190.899742mm" />
  <text x="8mm" y="184mm" font-size="24">
   4.0
  </text>
  <circle cx="8.199964mm" cy="303.299964mm" r="2.200229mm" fill="none"/>
  <line x1="12.600421mm" y1="303.299964mm" x2="3.799507mm" y2="303.299964mm" />
  <line x1="8.199964mm" y1="298.899507mm" x2="8.199964mm" y2="307.700421mm" />
  <text x="10mm" y="301mm" font-size="24">
   4.4
  </text>
  <circle cx="8.199964mm" cy="282.079964mm" r="2.200229mm" fill="none"/>
  <line x1="12.600421mm" y1="282.079964mm" x2="3.799507mm" y2="282.079964mm" />
  <line x1="8.199964mm" y1="277.679507mm" x2="8.199964mm" y2="286.480421mm" />
  <text x="10mm" y="279mm" font-size="24">
   4.4
  </text>
  <circle cx="8.199964mm" cy="30.919964mm" r="2.200229mm" fill="none"/>
  <line x1="12.600421mm" y1="30.919964mm" x2="3.799507mm" y2="30.919964mm" />
  <line x1="8.199964mm" y1="26.519507mm" x2="8.199964mm" y2="35.320421mm" />
  <text x="10mm" y="28mm" font-size="24">
   4.4
  </text>
  <circle cx="8.199964mm" cy="9.699964mm" r="2.200229mm" fill="none"/>
  <line x1="12.600421mm" y1="9.699964mm" x2="3.799507mm" y2="9.699964mm" />
  <line x1="8.199964mm" y1="5.299507mm" x2="8.199964mm" y2="14.100421mm" />
  <text x="10mm" y="7mm" font-size="24">
   4.4
  </text>
  <circle cx="26.099964mm" cy="166.699964mm" r="2.200229mm" fill="none"/>
  <line x1="30.500421mm" y1="166.699964mm" x2="21.699507mm" y2="166.699964mm" />
  <line x1="26.099964mm" y1="162.299507mm" x2="26.099964mm" y2="171.100421mm" />
  <text x="28mm" y="164mm" font-size="24">
   4.4
  </text>
  <circle cx="26.099964mm" cy="146.299964mm" r="2.200229mm" fill="none"/>
  <line x1="30.500421mm" y1="146.299964mm" x2="21.699507mm" y2="146.299964mm" />
  <line x1="26.099964mm" y1="141.899507mm" x2="26.099964mm" y2="150.700421mm" />
  <text x="28mm" y="144mm" font-size="24">
   4.4
  </text>
  <circle cx="32.899964mm" cy="305.999964mm" r="2.200229mm" fill="none"/>
  <line x1="37.300421mm" y1="305.999964mm" x2="28.499507mm" y2="305.999964mm" />
  <line x1="32.899964mm" y1="301.599507mm" x2="32.899964mm" y2="310.400421mm" />
  <text x="35mm" y="303mm" font-size="24">
   4.4
  </text>
  <circle cx="47.319964mm" cy="166.699964mm" r="2.200229mm" fill="none"/>
  <line x1="51.720421mm" y1="166.699964mm" x2="42.919507mm" y2="166.699964mm" />
  <line x1="47.319964mm" y1="162.299507mm" x2="47.319964mm" y2="171.100421mm" />
  <text x="49mm" y="164mm" font-size="24">
   4.4
  </text>
  <circle cx="47.319964mm" cy="146.299964mm" r="2.200229mm" fill="none"/>
  <line x1="51.720421mm" y1="146.299964mm" x2="42.919507mm" y2="146.299964mm" />
  <line x1="47.319964mm" y1="141.899507mm" x2="47.319964mm" y2="150.700421mm" />
  <text x="49mm" y="144mm" font-size="24">
   4.4
  </text>
  <circle cx="51.749964mm" cy="131.849964mm" r="2.200229mm" fill="none"/>
  <line x1="56.150421mm" y1="131.849964mm" x2="47.349507mm" y2="131.849964mm" />
  <line x1="51.749964mm" y1="127.449507mm" x2="51.749964mm" y2="136.250421mm" />
  <text x="53mm" y="129mm" font-size="24">
   4.4
  </text>
  <circle cx="51.749964mm" cy="60.349964mm" r="2.200229mm" fill="none"/>
  <line x1="56.150421mm" y1="60.349964mm" x2="47.349507mm" y2="60.349964mm" />
  <line x1="51.749964mm" y1="55.949507mm" x2="51.749964mm" y2="64.750421mm" />
  <text x="53mm" y="58mm" font-size="24">
   4.4
  </text>
  <circle cx="87.500225mm" cy="96.099651mm" r="37.499925mm" fill="none"/>
  <line x1="162.500075mm" y1="96.099651mm" x2="12.500375mm" y2="96.099651mm" />
  <line x1="87.500225mm" y1="21.099800mm" x2="87.500225mm" y2="171.099501mm" />
  <text x="125mm" y="58mm" font-size="24">
   75.0
  </text>
  <circle cx="123.249964mm" cy="131.849964mm" r="2.200229mm" fill="none"/>
  <line x1="127.650421mm" y1="131.849964mm" x2="118.849507mm" y2="131.849964mm" />
  <line x1="123.249964mm" y1="127.449507mm" x2="123.249964mm" y2="136.250421mm" />
  <text x="125mm" y="129mm" font-size="24">
   4.4
  </text>
  <circle cx="123.249964mm" cy="60.349964mm" r="2.200229mm" fill="none"/>
  <line x1="127.650421mm" y1="60.349964mm" x2="118.849507mm" y2="60.349964mm" />
  <line x1="123.249964mm" y1="55.949507mm" x2="123.249964mm" y2="64.750421mm" />
  <text x="125mm" y="58mm" font-size="24">
   4.4
  </text>
  <circle cx="149.899964mm" cy="305.999964mm" r="2.200229mm" fill="none"/>
  <line x1="154.300421mm" y1="305.999964mm" x2="145.499507mm" y2="305.999964mm" />
  <line x1="149.899964mm" y1="301.599507mm" x2="149.899964mm" y2="310.400421mm" />
  <text x="152mm" y="303mm" font-size="24">
   4.4
  </text>
  <circle cx="192.049590mm" cy="298.449819mm" r="1.400139mm" fill="none"/>
  <line x1="194.849868mm" y1="298.449819mm" x2="189.249311mm" y2="298.449819mm" />
  <line x1="192.049590mm" y1="295.649540mm" x2="192.049590mm" y2="301.250098mm" />
  <text x="193mm" y="297mm" font-size="24">
   2.8
  </text>
  <circle cx="192.049590mm" cy="266.949819mm" r="1.400139mm" fill="none"/>
  <line x1="194.849868mm" y1="266.949819mm" x2="189.249311mm" y2="266.949819mm" />
  <line x1="192.049590mm" y1="264.149540mm" x2="192.049590mm" y2="269.750098mm" />
  <text x="193mm" y="265mm" font-size="24">
   2.8
  </text>
  <circle cx="206.349590mm" cy="282.549819mm" r="1.400139mm" fill="none"/>
  <line x1="209.149868mm" y1="282.549819mm" x2="203.549311mm" y2="282.549819mm" />
  <line x1="206.349590mm" y1="279.749540mm" x2="206.349590mm" y2="285.350098mm" />
  <text x="207mm" y="281mm" font-size="24">
   2.8
  </text>
  <circle cx="206.349590mm" cy="251.049819mm" r="1.400139mm" fill="none"/>
  <line x1="209.149868mm" y1="251.049819mm" x2="203.549311mm" y2="251.049819mm" />
  <line x1="206.349590mm" y1="248.249540mm" x2="206.349590mm" y2="253.850098mm" />
  <text x="207mm" y="249mm" font-size="24">
   2.8
  </text>
  <circle cx="258.071964mm" cy="188.449964mm" r="2.200229mm" fill="none"/>
  <line x1="262.472421mm" y1="188.449964mm" x2="253.671507mm" y2="188.449964mm" />
  <line x1="258.071964mm" y1="184.049507mm" x2="258.071964mm" y2="192.850421mm" />
  <text x="260mm" y="186mm" font-size="24">
   4.4
  </text>
  <circle cx="258.071964mm" cy="99.449964mm" r="2.200229mm" fill="none"/>
  <line x1="262.472421mm" y1="99.449964mm" x2="253.671507mm" y2="99.449964mm" />
  <line x1="258.071964mm" y1="95.049507mm" x2="258.071964mm" y2="103.850421mm" />
  <text x="260mm" y="97mm" font-size="24">
   4.4
  </text>
  <circle cx="312.679808mm" cy="166.500013mm" r="2.999761mm" fill="none"/>
  <line x1="318.679330mm" y1="166.500013mm" x2="306.680285mm" y2="166.500013mm" />
  <line x1="312.679808mm" y1="160.500490mm" x2="312.679808mm" y2="172.499535mm" />
  <text x="315mm" y="163mm" font-size="24">
   6.0
  </text>
  <circle cx="312.679808mm" cy="146.500013mm" r="2.999761mm" fill="none"/>
  <line x1="318.679330mm" y1="146.500013mm" x2="306.680285mm" y2="146.500013mm" />
  <line x1="312.679808mm" y1="140.500490mm" x2="312.679808mm" y2="152.499535mm" />
  <text x="315mm" y="143mm" font-size="24">
   6.0
  </text>
  <circle cx="324.579818mm" cy="165.500055mm" r="2.000011mm" fill="none"/>
  <line x1="328.579840mm" y1="165.500055mm" x2="320.579795mm" y2="165.500055mm" />
  <line x1="324.579818mm" y1="161.500033mm" x2="324.579818mm" y2="169.500077mm" />
  <text x="326mm" y="163mm" font-size="24">
   4.0
  </text>
  <circle cx="324.579818mm" cy="147.500055mm" r="2.000011mm" fill="none"/>
  <line x1="328.579840mm" y1="147.500055mm" x2="320.579795mm" y2="147.500055mm" />
  <line x1="324.579818mm" y1="143.500033mm" x2="324.579818mm" y2="151.500077mm" />
  <text x="326mm" y="145mm" font-size="24">
   4.0
  </text>
  <circle cx="337.679964mm" cy="166.699964mm" r="2.200229mm" fill="none"/>
  <line x1="342.080421mm" y1="166.699964mm" x2="333.279507mm" y2="166.699964mm" />
  <line x1="337.679964mm" y1="162.299507mm" x2="337.679964mm" y2="171.100421mm" />
  <text x="339mm" y="164mm" font-size="24">
   4.4
  </text>
  <circle cx="337.679964mm" cy="146.299964mm" r="2.200229mm" fill="none"/>
  <line x1="342.080421mm" y1="146.299964mm" x2="333.279507mm" y2="146.299964mm" />
  <line x1="337.679964mm" y1="141.899507mm" x2="337.679964mm" y2="150.700421mm" />
  <text x="339mm" y="144mm" font-size="24">
   4.4
  </text>
  <circle cx="358.899964mm" cy="166.699964mm" r="2.200229mm" fill="none"/>
  <line x1="363.300421mm" y1="166.699964mm" x2="354.499507mm" y2="166.699964mm" />
  <line x1="358.899964mm" y1="162.299507mm" x2="358.899964mm" y2="171.100421mm" />
  <text x="361mm" y="164mm" font-size="24">
   4.4
  </text>
  <circle cx="358.899964mm" cy="146.299964mm" r="2.200229mm" fill="none"/>
  <line x1="363.300421mm" y1="146.299964mm" x2="354.499507mm" y2="146.299964mm" />
  <line x1="358.899964mm" y1="141.899507mm" x2="358.899964mm" y2="150.700421mm" />
  <text x="361mm" y="144mm" font-size="24">
   4.4
  </text>
 </g>
</svg>
