  0
SECTION
  2
BLOCKS
  0
ENDSEC
  0
SECTION
  2
ENTITIES
  0
LINE
  8
0
 10
0
 11
0
 20
-154.5
 21
0
  0
LINE
  8
0
 10
0
 11
385
 20
0
 21
0
  0
LINE
  8
0
 10
385
 11
385
 20
0
 21
-144.5
  0
LINE
  8
0
 10
385
 11
384.962
 20
-144.5
 21
-145.372
  0
LINE
  8
0
 10
384.962
 11
384.848
 20
-145.372
 21
-146.236
  0
LINE
  8
0
 10
384.848
 11
384.659
 20
-146.236
 21
-147.088
  0
LINE
  8
0
 10
384.659
 11
384.397
 20
-147.088
 21
-147.92
  0
LINE
  8
0
 10
384.397
 11
384.063
 20
-147.92
 21
-148.726
  0
LINE
  8
0
 10
384.063
 11
383.66
 20
-148.726
 21
-149.5
  0
LINE
  8
0
 10
383.66
 11
383.192
 20
-149.5
 21
-150.236
  0
LINE
  8
0
 10
383.192
 11
382.66
 20
-150.236
 21
-150.928
  0
LINE
  8
0
 10
382.66
 11
382.071
 20
-150.928
 21
-151.571
  0
LINE
  8
0
 10
382.071
 11
381.428
 20
-151.571
 21
-152.16
  0
LINE
  8
0
 10
381.428
 11
380.736
 20
-152.16
 21
-152.692
  0
LINE
  8
0
 10
380.736
 11
380
 20
-152.692
 21
-153.16
  0
LINE
  8
0
 10
380
 11
379.226
 20
-153.16
 21
-153.563
  0
LINE
  8
0
 10
379.226
 11
378.42
 20
-153.563
 21
-153.897
  0
LINE
  8
0
 10
378.42
 11
377.588
 20
-153.897
 21
-154.159
  0
LINE
  8
0
 10
377.588
 11
376.736
 20
-154.159
 21
-154.348
  0
LINE
  8
0
 10
376.736
 11
375.872
 20
-154.348
 21
-154.462
  0
LINE
  8
0
 10
375.872
 11
375
 20
-154.462
 21
-154.5
  0
LINE
  8
0
 10
375
 11
0
 20
-154.5
 21
-154.5
  0
LINE
  8
0
 10
5
 11
5.036
 20
-93
 21
-92.502
  0
LINE
  8
0
 10
5.036
 11
5.142
 20
-92.502
 21
-92.014
  0
LINE
  8
0
 10
5.142
 11
5.316
 20
-92.014
 21
-91.546
  0
LINE
  8
0
 10
5.316
 11
5.556
 20
-91.546
 21
-91.108
  0
LINE
  8
0
 10
5.556
 11
5.855
 20
-91.108
 21
-90.708
  0
LINE
  8
0
 10
5.855
 11
6.208
 20
-90.708
 21
-90.355
  0
LINE
  8
0
 10
6.208
 11
6.608
 20
-90.355
 21
-90.056
  0
LINE
  8
0
 10
6.608
 11
7.046
 20
-90.056
 21
-89.816
  0
LINE
  8
0
 10
7.046
 11
7.514
 20
-89.816
 21
-89.642
  0
LINE
  8
0
 10
7.514
 11
8.002
 20
-89.642
 21
-89.536
  0
LINE
  8
0
 10
8.002
 11
8.5
 20
-89.536
 21
-89.5
  0
LINE
  8
0
 10
8.5
 11
8.998
 20
-89.5
 21
-89.536
  0
LINE
  8
0
 10
8.998
 11
9.486
 20
-89.536
 21
-89.642
  0
LINE
  8
0
 10
9.486
 11
9.954
 20
-89.642
 21
-89.816
  0
LINE
  8
0
 10
9.954
 11
10.392
 20
-89.816
 21
-90.056
  0
LINE
  8
0
 10
10.392
 11
10.792
 20
-90.056
 21
-90.355
  0
LINE
  8
0
 10
10.792
 11
11.145
 20
-90.355
 21
-90.708
  0
LINE
  8
0
 10
11.145
 11
11.444
 20
-90.708
 21
-91.108
  0
LINE
  8
0
 10
11.444
 11
11.684
 20
-91.108
 21
-91.546
  0
LINE
  8
0
 10
11.684
 11
11.858
 20
-91.546
 21
-92.014
  0
LINE
  8
0
 10
11.858
 11
11.964
 20
-92.014
 21
-92.502
  0
LINE
  8
0
 10
11.964
 11
12
 20
-92.502
 21
-93
  0
LINE
  8
0
 10
12
 11
11.964
 20
-93
 21
-93.498
  0
LINE
  8
0
 10
11.964
 11
11.858
 20
-93.498
 21
-93.986
  0
LINE
  8
0
 10
11.858
 11
11.684
 20
-93.986
 21
-94.454
  0
LINE
  8
0
 10
11.684
 11
11.444
 20
-94.454
 21
-94.892
  0
LINE
  8
0
 10
11.444
 11
11.145
 20
-94.892
 21
-95.292
  0
LINE
  8
0
 10
11.145
 11
10.792
 20
-95.292
 21
-95.645
  0
LINE
  8
0
 10
10.792
 11
10.392
 20
-95.645
 21
-95.944
  0
LINE
  8
0
 10
10.392
 11
9.954
 20
-95.944
 21
-96.184
  0
LINE
  8
0
 10
9.954
 11
9.486
 20
-96.184
 21
-96.358
  0
LINE
  8
0
 10
9.486
 11
8.998
 20
-96.358
 21
-96.464
  0
LINE
  8
0
 10
8.998
 11
8.5
 20
-96.464
 21
-96.5
  0
LINE
  8
0
 10
8.5
 11
8.002
 20
-96.5
 21
-96.464
  0
LINE
  8
0
 10
8.002
 11
7.514
 20
-96.464
 21
-96.358
  0
LINE
  8
0
 10
7.514
 11
7.046
 20
-96.358
 21
-96.184
  0
LINE
  8
0
 10
7.046
 11
6.608
 20
-96.184
 21
-95.944
  0
LINE
  8
0
 10
6.608
 11
6.208
 20
-95.944
 21
-95.645
  0
LINE
  8
0
 10
6.208
 11
5.855
 20
-95.645
 21
-95.292
  0
LINE
  8
0
 10
5.855
 11
5.556
 20
-95.292
 21
-94.892
  0
LINE
  8
0
 10
5.556
 11
5.316
 20
-94.892
 21
-94.454
  0
LINE
  8
0
 10
5.316
 11
5.142
 20
-94.454
 21
-93.986
  0
LINE
  8
0
 10
5.142
 11
5.036
 20
-93.986
 21
-93.498
  0
LINE
  8
0
 10
5.036
 11
5
 20
-93.498
 21
-93
  0
LINE
  8
0
 10
5
 11
5.048
 20
-18.9
 21
-18.412
  0
LINE
  8
0
 10
5.048
 11
5.19
 20
-18.412
 21
-17.943
  0
LINE
  8
0
 10
5.19
 11
5.421
 20
-17.943
 21
-17.511
  0
LINE
  8
0
 10
5.421
 11
5.732
 20
-17.511
 21
-17.132
  0
LINE
  8
0
 10
5.732
 11
6.111
 20
-17.132
 21
-16.821
  0
LINE
  8
0
 10
6.111
 11
6.543
 20
-16.821
 21
-16.59
  0
LINE
  8
0
 10
6.543
 11
7.012
 20
-16.59
 21
-16.448
  0
LINE
  8
0
 10
7.012
 11
7.5
 20
-16.448
 21
-16.4
  0
LINE
  8
0
 10
7.5
 11
7.988
 20
-16.4
 21
-16.448
  0
LINE
  8
0
 10
7.988
 11
8.457
 20
-16.448
 21
-16.59
  0
LINE
  8
0
 10
8.457
 11
8.889
 20
-16.59
 21
-16.821
  0
LINE
  8
0
 10
8.889
 11
9.268
 20
-16.821
 21
-17.132
  0
LINE
  8
0
 10
9.268
 11
9.579
 20
-17.132
 21
-17.511
  0
LINE
  8
0
 10
9.579
 11
9.81
 20
-17.511
 21
-17.943
  0
LINE
  8
0
 10
9.81
 11
9.952
 20
-17.943
 21
-18.412
  0
LINE
  8
0
 10
9.952
 11
10
 20
-18.412
 21
-18.9
  0
LINE
  8
0
 10
10
 11
9.952
 20
-18.9
 21
-19.388
  0
LINE
  8
0
 10
9.952
 11
9.81
 20
-19.388
 21
-19.857
  0
LINE
  8
0
 10
9.81
 11
9.579
 20
-19.857
 21
-20.289
  0
LINE
  8
0
 10
9.579
 11
9.268
 20
-20.289
 21
-20.668
  0
LINE
  8
0
 10
9.268
 11
8.889
 20
-20.668
 21
-20.979
  0
LINE
  8
0
 10
8.889
 11
8.457
 20
-20.979
 21
-21.21
  0
LINE
  8
0
 10
8.457
 11
7.988
 20
-21.21
 21
-21.352
  0
LINE
  8
0
 10
7.988
 11
7.5
 20
-21.352
 21
-21.4
  0
LINE
  8
0
 10
7.5
 11
7.012
 20
-21.4
 21
-21.352
  0
LINE
  8
0
 10
7.012
 11
6.543
 20
-21.352
 21
-21.21
  0
LINE
  8
0
 10
6.543
 11
6.111
 20
-21.21
 21
-20.979
  0
LINE
  8
0
 10
6.111
 11
5.732
 20
-20.979
 21
-20.668
  0
LINE
  8
0
 10
5.732
 11
5.421
 20
-20.668
 21
-20.289
  0
LINE
  8
0
 10
5.421
 11
5.19
 20
-20.289
 21
-19.857
  0
LINE
  8
0
 10
5.19
 11
5.048
 20
-19.857
 21
-19.388
  0
LINE
  8
0
 10
5.048
 11
5
 20
-19.388
 21
-18.9
  0
LINE
  8
0
 10
5.015
 11
5.015
 20
-80.641
 21
-80.159
  0
LINE
  8
0
 10
5.015
 11
5.13
 20
-80.159
 21
-79.691
  0
LINE
  8
0
 10
5.13
 11
5.354
 20
-79.691
 21
-79.264
  0
LINE
  8
0
 10
5.354
 11
5.674
 20
-79.264
 21
-78.903
  0
LINE
  8
0
 10
5.674
 11
6.071
 20
-78.903
 21
-78.629
  0
LINE
  8
0
 10
6.071
 11
6.521
 20
-78.629
 21
-78.458
  0
LINE
  8
0
 10
6.521
 11
7
 20
-78.458
 21
-78.4
  0
LINE
  8
0
 10
7
 11
7.479
 20
-78.4
 21
-78.458
  0
LINE
  8
0
 10
7.479
 11
7.929
 20
-78.458
 21
-78.629
  0
LINE
  8
0
 10
7.929
 11
8.326
 20
-78.629
 21
-78.903
  0
LINE
  8
0
 10
8.326
 11
8.646
 20
-78.903
 21
-79.264
  0
LINE
  8
0
 10
8.646
 11
8.87
 20
-79.264
 21
-79.691
  0
LINE
  8
0
 10
8.87
 11
8.985
 20
-79.691
 21
-80.159
  0
LINE
  8
0
 10
8.985
 11
8.985
 20
-80.159
 21
-80.641
  0
LINE
  8
0
 10
8.985
 11
8.87
 20
-80.641
 21
-81.109
  0
LINE
  8
0
 10
8.87
 11
8.646
 20
-81.109
 21
-81.536
  0
LINE
  8
0
 10
8.646
 11
8.326
 20
-81.536
 21
-81.897
  0
LINE
  8
0
 10
8.326
 11
7.929
 20
-81.897
 21
-82.171
  0
LINE
  8
0
 10
7.929
 11
7.479
 20
-82.171
 21
-82.342
  0
LINE
  8
0
 10
7.479
 11
7
 20
-82.342
 21
-82.4
  0
LINE
  8
0
 10
7
 11
6.521
 20
-82.4
 21
-82.342
  0
LINE
  8
0
 10
6.521
 11
6.071
 20
-82.342
 21
-82.171
  0
LINE
  8
0
 10
6.071
 11
5.674
 20
-82.171
 21
-81.897
  0
LINE
  8
0
 10
5.674
 11
5.354
 20
-81.897
 21
-81.536
  0
LINE
  8
0
 10
5.354
 11
5.13
 20
-81.536
 21
-81.109
  0
LINE
  8
0
 10
5.13
 11
5.015
 20
-81.109
 21
-80.641
  0
LINE
  8
0
 10
5.015
 11
5.015
 20
-28.641
 21
-28.159
  0
LINE
  8
0
 10
5.015
 11
5.13
 20
-28.159
 21
-27.691
  0
LINE
  8
0
 10
5.13
 11
5.354
 20
-27.691
 21
-27.264
  0
LINE
  8
0
 10
5.354
 11
5.674
 20
-27.264
 21
-26.903
  0
LINE
  8
0
 10
5.674
 11
6.071
 20
-26.903
 21
-26.629
  0
LINE
  8
0
 10
6.071
 11
6.521
 20
-26.629
 21
-26.458
  0
LINE
  8
0
 10
6.521
 11
7
 20
-26.458
 21
-26.4
  0
LINE
  8
0
 10
7
 11
7.479
 20
-26.4
 21
-26.458
  0
LINE
  8
0
 10
7.479
 11
7.929
 20
-26.458
 21
-26.629
  0
LINE
  8
0
 10
7.929
 11
8.326
 20
-26.629
 21
-26.903
  0
LINE
  8
0
 10
8.326
 11
8.646
 20
-26.903
 21
-27.264
  0
LINE
  8
0
 10
8.646
 11
8.87
 20
-27.264
 21
-27.691
  0
LINE
  8
0
 10
8.87
 11
8.985
 20
-27.691
 21
-28.159
  0
LINE
  8
0
 10
8.985
 11
8.985
 20
-28.159
 21
-28.641
  0
LINE
  8
0
 10
8.985
 11
8.87
 20
-28.641
 21
-29.109
  0
LINE
  8
0
 10
8.87
 11
8.646
 20
-29.109
 21
-29.536
  0
LINE
  8
0
 10
8.646
 11
8.326
 20
-29.536
 21
-29.897
  0
LINE
  8
0
 10
8.326
 11
7.929
 20
-29.897
 21
-30.171
  0
LINE
  8
0
 10
7.929
 11
7.479
 20
-30.171
 21
-30.342
  0
LINE
  8
0
 10
7.479
 11
7
 20
-30.342
 21
-30.4
  0
LINE
  8
0
 10
7
 11
6.521
 20
-30.4
 21
-30.342
  0
LINE
  8
0
 10
6.521
 11
6.071
 20
-30.342
 21
-30.171
  0
LINE
  8
0
 10
6.071
 11
5.674
 20
-30.171
 21
-29.897
  0
LINE
  8
0
 10
5.674
 11
5.354
 20
-29.897
 21
-29.536
  0
LINE
  8
0
 10
5.354
 11
5.13
 20
-29.536
 21
-29.109
  0
LINE
  8
0
 10
5.13
 11
5.015
 20
-29.109
 21
-28.641
  0
LINE
  8
0
 10
6
 11
6.055
 20
-144.8
 21
-144.31
  0
LINE
  8
0
 10
6.055
 11
6.218
 20
-144.31
 21
-143.845
  0
LINE
  8
0
 10
6.218
 11
6.48
 20
-143.845
 21
-143.428
  0
LINE
  8
0
 10
6.48
 11
6.828
 20
-143.428
 21
-143.08
  0
LINE
  8
0
 10
6.828
 11
7.245
 20
-143.08
 21
-142.818
  0
LINE
  8
0
 10
7.245
 11
7.71
 20
-142.818
 21
-142.655
  0
LINE
  8
0
 10
7.71
 11
8.2
 20
-142.655
 21
-142.6
  0
LINE
  8
0
 10
8.2
 11
8.69
 20
-142.6
 21
-142.655
  0
LINE
  8
0
 10
8.69
 11
9.155
 20
-142.655
 21
-142.818
  0
LINE
  8
0
 10
9.155
 11
9.572
 20
-142.818
 21
-143.08
  0
LINE
  8
0
 10
9.572
 11
9.92
 20
-143.08
 21
-143.428
  0
LINE
  8
0
 10
9.92
 11
10.182
 20
-143.428
 21
-143.845
  0
LINE
  8
0
 10
10.182
 11
10.345
 20
-143.845
 21
-144.31
  0
LINE
  8
0
 10
10.345
 11
10.4
 20
-144.31
 21
-144.8
  0
LINE
  8
0
 10
10.4
 11
10.345
 20
-144.8
 21
-145.29
  0
LINE
  8
0
 10
10.345
 11
10.182
 20
-145.29
 21
-145.755
  0
LINE
  8
0
 10
10.182
 11
9.92
 20
-145.755
 21
-146.172
  0
LINE
  8
0
 10
9.92
 11
9.572
 20
-146.172
 21
-146.52
  0
LINE
  8
0
 10
9.572
 11
9.155
 20
-146.52
 21
-146.782
  0
LINE
  8
0
 10
9.155
 11
8.69
 20
-146.782
 21
-146.945
  0
LINE
  8
0
 10
8.69
 11
8.2
 20
-146.945
 21
-147
  0
LINE
  8
0
 10
8.2
 11
7.71
 20
-147
 21
-146.945
  0
LINE
  8
0
 10
7.71
 11
7.245
 20
-146.945
 21
-146.782
  0
LINE
  8
0
 10
7.245
 11
6.828
 20
-146.782
 21
-146.52
  0
LINE
  8
0
 10
6.828
 11
6.48
 20
-146.52
 21
-146.172
  0
LINE
  8
0
 10
6.48
 11
6.218
 20
-146.172
 21
-145.755
  0
LINE
  8
0
 10
6.218
 11
6.055
 20
-145.755
 21
-145.29
  0
LINE
  8
0
 10
6.055
 11
6
 20
-145.29
 21
-144.8
  0
LINE
  8
0
 10
6
 11
6.055
 20
-123.58
 21
-123.09
  0
LINE
  8
0
 10
6.055
 11
6.218
 20
-123.09
 21
-122.625
  0
LINE
  8
0
 10
6.218
 11
6.48
 20
-122.625
 21
-122.208
  0
LINE
  8
0
 10
6.48
 11
6.828
 20
-122.208
 21
-121.86
  0
LINE
  8
0
 10
6.828
 11
7.245
 20
-121.86
 21
-121.598
  0
LINE
  8
0
 10
7.245
 11
7.71
 20
-121.598
 21
-121.435
  0
LINE
  8
0
 10
7.71
 11
8.2
 20
-121.435
 21
-121.38
  0
LINE
  8
0
 10
8.2
 11
8.69
 20
-121.38
 21
-121.435
  0
LINE
  8
0
 10
8.69
 11
9.155
 20
-121.435
 21
-121.598
  0
LINE
  8
0
 10
9.155
 11
9.572
 20
-121.598
 21
-121.86
  0
LINE
  8
0
 10
9.572
 11
9.92
 20
-121.86
 21
-122.208
  0
LINE
  8
0
 10
9.92
 11
10.182
 20
-122.208
 21
-122.625
  0
LINE
  8
0
 10
10.182
 11
10.345
 20
-122.625
 21
-123.09
  0
LINE
  8
0
 10
10.345
 11
10.4
 20
-123.09
 21
-123.58
  0
LINE
  8
0
 10
10.4
 11
10.345
 20
-123.58
 21
-124.07
  0
LINE
  8
0
 10
10.345
 11
10.182
 20
-124.07
 21
-124.535
  0
LINE
  8
0
 10
10.182
 11
9.92
 20
-124.535
 21
-124.952
  0
LINE
  8
0
 10
9.92
 11
9.572
 20
-124.952
 21
-125.3
  0
LINE
  8
0
 10
9.572
 11
9.155
 20
-125.3
 21
-125.562
  0
LINE
  8
0
 10
9.155
 11
8.69
 20
-125.562
 21
-125.725
  0
LINE
  8
0
 10
8.69
 11
8.2
 20
-125.725
 21
-125.78
  0
LINE
  8
0
 10
8.2
 11
7.71
 20
-125.78
 21
-125.725
  0
LINE
  8
0
 10
7.71
 11
7.245
 20
-125.725
 21
-125.562
  0
LINE
  8
0
 10
7.245
 11
6.828
 20
-125.562
 21
-125.3
  0
LINE
  8
0
 10
6.828
 11
6.48
 20
-125.3
 21
-124.952
  0
LINE
  8
0
 10
6.48
 11
6.218
 20
-124.952
 21
-124.535
  0
LINE
  8
0
 10
6.218
 11
6.055
 20
-124.535
 21
-124.07
  0
LINE
  8
0
 10
6.055
 11
6
 20
-124.07
 21
-123.58
  0
LINE
  8
0
 10
23.9
 11
23.955
 20
-8.2
 21
-7.71
  0
LINE
  8
0
 10
23.955
 11
24.118
 20
-7.71
 21
-7.245
  0
LINE
  8
0
 10
24.118
 11
24.38
 20
-7.245
 21
-6.828
  0
LINE
  8
0
 10
24.38
 11
24.728
 20
-6.828
 21
-6.48
  0
LINE
  8
0
 10
24.728
 11
25.145
 20
-6.48
 21
-6.218
  0
LINE
  8
0
 10
25.145
 11
25.61
 20
-6.218
 21
-6.055
  0
LINE
  8
0
 10
25.61
 11
26.1
 20
-6.055
 21
-6
  0
LINE
  8
0
 10
26.1
 11
26.59
 20
-6
 21
-6.055
  0
LINE
  8
0
 10
26.59
 11
27.055
 20
-6.055
 21
-6.218
  0
LINE
  8
0
 10
27.055
 11
27.472
 20
-6.218
 21
-6.48
  0
LINE
  8
0
 10
27.472
 11
27.82
 20
-6.48
 21
-6.828
  0
LINE
  8
0
 10
27.82
 11
28.082
 20
-6.828
 21
-7.245
  0
LINE
  8
0
 10
28.082
 11
28.245
 20
-7.245
 21
-7.71
  0
LINE
  8
0
 10
28.245
 11
28.3
 20
-7.71
 21
-8.2
  0
LINE
  8
0
 10
28.3
 11
28.245
 20
-8.2
 21
-8.69
  0
LINE
  8
0
 10
28.245
 11
28.082
 20
-8.69
 21
-9.155
  0
LINE
  8
0
 10
28.082
 11
27.82
 20
-9.155
 21
-9.572
  0
LINE
  8
0
 10
27.82
 11
27.472
 20
-9.572
 21
-9.92
  0
LINE
  8
0
 10
27.472
 11
27.055
 20
-9.92
 21
-10.182
  0
LINE
  8
0
 10
27.055
 11
26.59
 20
-10.182
 21
-10.345
  0
LINE
  8
0
 10
26.59
 11
26.1
 20
-10.345
 21
-10.4
  0
LINE
  8
0
 10
26.1
 11
25.61
 20
-10.4
 21
-10.345
  0
LINE
  8
0
 10
25.61
 11
25.145
 20
-10.345
 21
-10.182
  0
LINE
  8
0
 10
25.145
 11
24.728
 20
-10.182
 21
-9.92
  0
LINE
  8
0
 10
24.728
 11
24.38
 20
-9.92
 21
-9.572
  0
LINE
  8
0
 10
24.38
 11
24.118
 20
-9.572
 21
-9.155
  0
LINE
  8
0
 10
24.118
 11
23.955
 20
-9.155
 21
-8.69
  0
LINE
  8
0
 10
23.955
 11
23.9
 20
-8.69
 21
-8.2
  0
LINE
  8
0
 10
30.7
 11
30.755
 20
-147.5
 21
-147.01
  0
LINE
  8
0
 10
30.755
 11
30.918
 20
-147.01
 21
-146.545
  0
LINE
  8
0
 10
30.918
 11
31.18
 20
-146.545
 21
-146.128
  0
LINE
  8
0
 10
31.18
 11
31.528
 20
-146.128
 21
-145.78
  0
LINE
  8
0
 10
31.528
 11
31.945
 20
-145.78
 21
-145.518
  0
LINE
  8
0
 10
31.945
 11
32.41
 20
-145.518
 21
-145.355
  0
LINE
  8
0
 10
32.41
 11
32.9
 20
-145.355
 21
-145.3
  0
LINE
  8
0
 10
32.9
 11
33.39
 20
-145.3
 21
-145.355
  0
LINE
  8
0
 10
33.39
 11
33.855
 20
-145.355
 21
-145.518
  0
LINE
  8
0
 10
33.855
 11
34.272
 20
-145.518
 21
-145.78
  0
LINE
  8
0
 10
34.272
 11
34.62
 20
-145.78
 21
-146.128
  0
LINE
  8
0
 10
34.62
 11
34.882
 20
-146.128
 21
-146.545
  0
LINE
  8
0
 10
34.882
 11
35.045
 20
-146.545
 21
-147.01
  0
LINE
  8
0
 10
35.045
 11
35.1
 20
-147.01
 21
-147.5
  0
LINE
  8
0
 10
35.1
 11
35.045
 20
-147.5
 21
-147.99
  0
LINE
  8
0
 10
35.045
 11
34.882
 20
-147.99
 21
-148.455
  0
LINE
  8
0
 10
34.882
 11
34.62
 20
-148.455
 21
-148.872
  0
LINE
  8
0
 10
34.62
 11
34.272
 20
-148.872
 21
-149.22
  0
LINE
  8
0
 10
34.272
 11
33.855
 20
-149.22
 21
-149.482
  0
LINE
  8
0
 10
33.855
 11
33.39
 20
-149.482
 21
-149.645
  0
LINE
  8
0
 10
33.39
 11
32.9
 20
-149.645
 21
-149.7
  0
LINE
  8
0
 10
32.9
 11
32.41
 20
-149.7
 21
-149.645
  0
LINE
  8
0
 10
32.41
 11
31.945
 20
-149.645
 21
-149.482
  0
LINE
  8
0
 10
31.945
 11
31.528
 20
-149.482
 21
-149.22
  0
LINE
  8
0
 10
31.528
 11
31.18
 20
-149.22
 21
-148.872
  0
LINE
  8
0
 10
31.18
 11
30.918
 20
-148.872
 21
-148.455
  0
LINE
  8
0
 10
30.918
 11
30.755
 20
-148.455
 21
-147.99
  0
LINE
  8
0
 10
30.755
 11
30.7
 20
-147.99
 21
-147.5
  0
LINE
  8
0
 10
45.12
 11
45.175
 20
-8.2
 21
-7.71
  0
LINE
  8
0
 10
45.175
 11
45.338
 20
-7.71
 21
-7.245
  0
LINE
  8
0
 10
45.338
 11
45.6
 20
-7.245
 21
-6.828
  0
LINE
  8
0
 10
45.6
 11
45.948
 20
-6.828
 21
-6.48
  0
LINE
  8
0
 10
45.948
 11
46.365
 20
-6.48
 21
-6.218
  0
LINE
  8
0
 10
46.365
 11
46.83
 20
-6.218
 21
-6.055
  0
LINE
  8
0
 10
46.83
 11
47.32
 20
-6.055
 21
-6
  0
LINE
  8
0
 10
47.32
 11
47.81
 20
-6
 21
-6.055
  0
LINE
  8
0
 10
47.81
 11
48.275
 20
-6.055
 21
-6.218
  0
LINE
  8
0
 10
48.275
 11
48.692
 20
-6.218
 21
-6.48
  0
LINE
  8
0
 10
48.692
 11
49.04
 20
-6.48
 21
-6.828
  0
LINE
  8
0
 10
49.04
 11
49.302
 20
-6.828
 21
-7.245
  0
LINE
  8
0
 10
49.302
 11
49.465
 20
-7.245
 21
-7.71
  0
LINE
  8
0
 10
49.465
 11
49.52
 20
-7.71
 21
-8.2
  0
LINE
  8
0
 10
49.52
 11
49.465
 20
-8.2
 21
-8.69
  0
LINE
  8
0
 10
49.465
 11
49.302
 20
-8.69
 21
-9.155
  0
LINE
  8
0
 10
49.302
 11
49.04
 20
-9.155
 21
-9.572
  0
LINE
  8
0
 10
49.04
 11
48.692
 20
-9.572
 21
-9.92
  0
LINE
  8
0
 10
48.692
 11
48.275
 20
-9.92
 21
-10.182
  0
LINE
  8
0
 10
48.275
 11
47.81
 20
-10.182
 21
-10.345
  0
LINE
  8
0
 10
47.81
 11
47.32
 20
-10.345
 21
-10.4
  0
LINE
  8
0
 10
47.32
 11
46.83
 20
-10.4
 21
-10.345
  0
LINE
  8
0
 10
46.83
 11
46.365
 20
-10.345
 21
-10.182
  0
LINE
  8
0
 10
46.365
 11
45.948
 20
-10.182
 21
-9.92
  0
LINE
  8
0
 10
45.948
 11
45.6
 20
-9.92
 21
-9.572
  0
LINE
  8
0
 10
45.6
 11
45.338
 20
-9.572
 21
-9.155
  0
LINE
  8
0
 10
45.338
 11
45.175
 20
-9.155
 21
-8.69
  0
LINE
  8
0
 10
45.175
 11
45.12
 20
-8.69
 21
-8.2
  0
LINE
  8
0
 10
147.7
 11
147.755
 20
-147.5
 21
-147.01
  0
LINE
  8
0
 10
147.755
 11
147.918
 20
-147.01
 21
-146.545
  0
LINE
  8
0
 10
147.918
 11
148.18
 20
-146.545
 21
-146.128
  0
LINE
  8
0
 10
148.18
 11
148.528
 20
-146.128
 21
-145.78
  0
LINE
  8
0
 10
148.528
 11
148.945
 20
-145.78
 21
-145.518
  0
LINE
  8
0
 10
148.945
 11
149.41
 20
-145.518
 21
-145.355
  0
LINE
  8
0
 10
149.41
 11
149.9
 20
-145.355
 21
-145.3
  0
LINE
  8
0
 10
149.9
 11
150.39
 20
-145.3
 21
-145.355
  0
LINE
  8
0
 10
150.39
 11
150.855
 20
-145.355
 21
-145.518
  0
LINE
  8
0
 10
150.855
 11
151.272
 20
-145.518
 21
-145.78
  0
LINE
  8
0
 10
151.272
 11
151.62
 20
-145.78
 21
-146.128
  0
LINE
  8
0
 10
151.62
 11
151.882
 20
-146.128
 21
-146.545
  0
LINE
  8
0
 10
151.882
 11
152.045
 20
-146.545
 21
-147.01
  0
LINE
  8
0
 10
152.045
 11
152.1
 20
-147.01
 21
-147.5
  0
LINE
  8
0
 10
152.1
 11
152.045
 20
-147.5
 21
-147.99
  0
LINE
  8
0
 10
152.045
 11
151.882
 20
-147.99
 21
-148.455
  0
LINE
  8
0
 10
151.882
 11
151.62
 20
-148.455
 21
-148.872
  0
LINE
  8
0
 10
151.62
 11
151.272
 20
-148.872
 21
-149.22
  0
LINE
  8
0
 10
151.272
 11
150.855
 20
-149.22
 21
-149.482
  0
LINE
  8
0
 10
150.855
 11
150.39
 20
-149.482
 21
-149.645
  0
LINE
  8
0
 10
150.39
 11
149.9
 20
-149.645
 21
-149.7
  0
LINE
  8
0
 10
149.9
 11
149.41
 20
-149.7
 21
-149.645
  0
LINE
  8
0
 10
149.41
 11
148.945
 20
-149.645
 21
-149.482
  0
LINE
  8
0
 10
148.945
 11
148.528
 20
-149.482
 21
-149.22
  0
LINE
  8
0
 10
148.528
 11
148.18
 20
-149.22
 21
-148.872
  0
LINE
  8
0
 10
148.18
 11
147.918
 20
-148.872
 21
-148.455
  0
LINE
  8
0
 10
147.918
 11
147.755
 20
-148.455
 21
-147.99
  0
LINE
  8
0
 10
147.755
 11
147.7
 20
-147.99
 21
-147.5
  0
LINE
  8
0
 10
190.65
 11
190.734
 20
-139.95
 21
-139.471
  0
LINE
  8
0
 10
190.734
 11
190.978
 20
-139.471
 21
-139.05
  0
LINE
  8
0
 10
190.978
 11
191.35
 20
-139.05
 21
-138.738
  0
LINE
  8
0
 10
191.35
 11
191.807
 20
-138.738
 21
-138.571
  0
LINE
  8
0
 10
191.807
 11
192.293
 20
-138.571
 21
-138.571
  0
LINE
  8
0
 10
192.293
 11
192.75
 20
-138.571
 21
-138.738
  0
LINE
  8
0
 10
192.75
 11
193.122
 20
-138.738
 21
-139.05
  0
LINE
  8
0
 10
193.122
 11
193.366
 20
-139.05
 21
-139.471
  0
LINE
  8
0
 10
193.366
 11
193.45
 20
-139.471
 21
-139.95
  0
LINE
  8
0
 10
193.45
 11
193.366
 20
-139.95
 21
-140.429
  0
LINE
  8
0
 10
193.366
 11
193.122
 20
-140.429
 21
-140.85
  0
LINE
  8
0
 10
193.122
 11
192.75
 20
-140.85
 21
-141.162
  0
LINE
  8
0
 10
192.75
 11
192.293
 20
-141.162
 21
-141.329
  0
LINE
  8
0
 10
192.293
 11
191.807
 20
-141.329
 21
-141.329
  0
LINE
  8
0
 10
191.807
 11
191.35
 20
-141.329
 21
-141.162
  0
LINE
  8
0
 10
191.35
 11
190.978
 20
-141.162
 21
-140.85
  0
LINE
  8
0
 10
190.978
 11
190.734
 20
-140.85
 21
-140.429
  0
LINE
  8
0
 10
190.734
 11
190.65
 20
-140.429
 21
-139.95
  0
LINE
  8
0
 10
190.65
 11
190.734
 20
-108.45
 21
-107.971
  0
LINE
  8
0
 10
190.734
 11
190.978
 20
-107.971
 21
-107.55
  0
LINE
  8
0
 10
190.978
 11
191.35
 20
-107.55
 21
-107.238
  0
LINE
  8
0
 10
191.35
 11
191.807
 20
-107.238
 21
-107.071
  0
LINE
  8
0
 10
191.807
 11
192.293
 20
-107.071
 21
-107.071
  0
LINE
  8
0
 10
192.293
 11
192.75
 20
-107.071
 21
-107.238
  0
LINE
  8
0
 10
192.75
 11
193.122
 20
-107.238
 21
-107.55
  0
LINE
  8
0
 10
193.122
 11
193.366
 20
-107.55
 21
-107.971
  0
LINE
  8
0
 10
193.366
 11
193.45
 20
-107.971
 21
-108.45
  0
LINE
  8
0
 10
193.45
 11
193.366
 20
-108.45
 21
-108.929
  0
LINE
  8
0
 10
193.366
 11
193.122
 20
-108.929
 21
-109.35
  0
LINE
  8
0
 10
193.122
 11
192.75
 20
-109.35
 21
-109.662
  0
LINE
  8
0
 10
192.75
 11
192.293
 20
-109.662
 21
-109.829
  0
LINE
  8
0
 10
192.293
 11
191.807
 20
-109.829
 21
-109.829
  0
LINE
  8
0
 10
191.807
 11
191.35
 20
-109.829
 21
-109.662
  0
LINE
  8
0
 10
191.35
 11
190.978
 20
-109.662
 21
-109.35
  0
LINE
  8
0
 10
190.978
 11
190.734
 20
-109.35
 21
-108.929
  0
LINE
  8
0
 10
190.734
 11
190.65
 20
-108.929
 21
-108.45
  0
LINE
  8
0
 10
204.95
 11
205.034
 20
-124.05
 21
-123.571
  0
LINE
  8
0
 10
205.034
 11
205.278
 20
-123.571
 21
-123.15
  0
LINE
  8
0
 10
205.278
 11
205.65
 20
-123.15
 21
-122.838
  0
LINE
  8
0
 10
205.65
 11
206.107
 20
-122.838
 21
-122.671
  0
LINE
  8
0
 10
206.107
 11
206.593
 20
-122.671
 21
-122.671
  0
LINE
  8
0
 10
206.593
 11
207.05
 20
-122.671
 21
-122.838
  0
LINE
  8
0
 10
207.05
 11
207.422
 20
-122.838
 21
-123.15
  0
LINE
  8
0
 10
207.422
 11
207.666
 20
-123.15
 21
-123.571
  0
LINE
  8
0
 10
207.666
 11
207.75
 20
-123.571
 21
-124.05
  0
LINE
  8
0
 10
207.75
 11
207.666
 20
-124.05
 21
-124.529
  0
LINE
  8
0
 10
207.666
 11
207.422
 20
-124.529
 21
-124.95
  0
LINE
  8
0
 10
207.422
 11
207.05
 20
-124.95
 21
-125.262
  0
LINE
  8
0
 10
207.05
 11
206.593
 20
-125.262
 21
-125.429
  0
LINE
  8
0
 10
206.593
 11
206.107
 20
-125.429
 21
-125.429
  0
LINE
  8
0
 10
206.107
 11
205.65
 20
-125.429
 21
-125.262
  0
LINE
  8
0
 10
205.65
 11
205.278
 20
-125.262
 21
-124.95
  0
LINE
  8
0
 10
205.278
 11
205.034
 20
-124.95
 21
-124.529
  0
LINE
  8
0
 10
205.034
 11
204.95
 20
-124.529
 21
-124.05
  0
LINE
  8
0
 10
204.95
 11
205.034
 20
-92.55
 21
-92.071
  0
LINE
  8
0
 10
205.034
 11
205.278
 20
-92.071
 21
-91.65
  0
LINE
  8
0
 10
205.278
 11
205.65
 20
-91.65
 21
-91.338
  0
LINE
  8
0
 10
205.65
 11
206.107
 20
-91.338
 21
-91.171
  0
LINE
  8
0
 10
206.107
 11
206.593
 20
-91.171
 21
-91.171
  0
LINE
  8
0
 10
206.593
 11
207.05
 20
-91.171
 21
-91.338
  0
LINE
  8
0
 10
207.05
 11
207.422
 20
-91.338
 21
-91.65
  0
LINE
  8
0
 10
207.422
 11
207.666
 20
-91.65
 21
-92.071
  0
LINE
  8
0
 10
207.666
 11
207.75
 20
-92.071
 21
-92.55
  0
LINE
  8
0
 10
207.75
 11
207.666
 20
-92.55
 21
-93.029
  0
LINE
  8
0
 10
207.666
 11
207.422
 20
-93.029
 21
-93.45
  0
LINE
  8
0
 10
207.422
 11
207.05
 20
-93.45
 21
-93.762
  0
LINE
  8
0
 10
207.05
 11
206.593
 20
-93.762
 21
-93.929
  0
LINE
  8
0
 10
206.593
 11
206.107
 20
-93.929
 21
-93.929
  0
LINE
  8
0
 10
206.107
 11
205.65
 20
-93.929
 21
-93.762
  0
LINE
  8
0
 10
205.65
 11
205.278
 20
-93.762
 21
-93.45
  0
LINE
  8
0
 10
205.278
 11
205.034
 20
-93.45
 21
-93.029
  0
LINE
  8
0
 10
205.034
 11
204.95
 20
-93.029
 21
-92.55
  0
LINE
  8
0
 10
255.872
 11
255.927
 20
-29.95
 21
-29.46
  0
LINE
  8
0
 10
255.927
 11
256.09
 20
-29.46
 21
-28.995
  0
LINE
  8
0
 10
256.09
 11
256.352
 20
-28.995
 21
-28.578
  0
LINE
  8
0
 10
256.352
 11
256.701
 20
-28.578
 21
-28.23
  0
LINE
  8
0
 10
256.701
 11
257.118
 20
-28.23
 21
-27.968
  0
LINE
  8
0
 10
257.118
 11
257.583
 20
-27.968
 21
-27.805
  0
LINE
  8
0
 10
257.583
 11
258.072
 20
-27.805
 21
-27.75
  0
LINE
  8
0
 10
258.072
 11
258.562
 20
-27.75
 21
-27.805
  0
LINE
  8
0
 10
258.562
 11
259.027
 20
-27.805
 21
-27.968
  0
LINE
  8
0
 10
259.027
 11
259.444
 20
-27.968
 21
-28.23
  0
LINE
  8
0
 10
259.444
 11
259.792
 20
-28.23
 21
-28.578
  0
LINE
  8
0
 10
259.792
 11
260.054
 20
-28.578
 21
-28.995
  0
LINE
  8
0
 10
260.054
 11
260.217
 20
-28.995
 21
-29.46
  0
LINE
  8
0
 10
260.217
 11
260.272
 20
-29.46
 21
-29.95
  0
LINE
  8
0
 10
260.272
 11
260.217
 20
-29.95
 21
-30.44
  0
LINE
  8
0
 10
260.217
 11
260.054
 20
-30.44
 21
-30.905
  0
LINE
  8
0
 10
260.054
 11
259.792
 20
-30.905
 21
-31.322
  0
LINE
  8
0
 10
259.792
 11
259.444
 20
-31.322
 21
-31.67
  0
LINE
  8
0
 10
259.444
 11
259.027
 20
-31.67
 21
-31.932
  0
LINE
  8
0
 10
259.027
 11
258.562
 20
-31.932
 21
-32.095
  0
LINE
  8
0
 10
258.562
 11
258.072
 20
-32.095
 21
-32.15
  0
LINE
  8
0
 10
258.072
 11
257.583
 20
-32.15
 21
-32.095
  0
LINE
  8
0
 10
257.583
 11
257.118
 20
-32.095
 21
-31.932
  0
LINE
  8
0
 10
257.118
 11
256.701
 20
-31.932
 21
-31.67
  0
LINE
  8
0
 10
256.701
 11
256.352
 20
-31.67
 21
-31.322
  0
LINE
  8
0
 10
256.352
 11
256.09
 20
-31.322
 21
-30.905
  0
LINE
  8
0
 10
256.09
 11
255.927
 20
-30.905
 21
-30.44
  0
LINE
  8
0
 10
255.927
 11
255.872
 20
-30.44
 21
-29.95
  0
LINE
  8
0
 10
309.68
 11
309.721
 20
-8
 21
-7.506
  0
LINE
  8
0
 10
309.721
 11
309.843
 20
-7.506
 21
-7.026
  0
LINE
  8
0
 10
309.843
 11
310.042
 20
-7.026
 21
-6.572
  0
LINE
  8
0
 10
310.042
 11
310.313
 20
-6.572
 21
-6.157
  0
LINE
  8
0
 10
310.313
 11
310.648
 20
-6.157
 21
-5.793
  0
LINE
  8
0
 10
310.648
 11
311.039
 20
-5.793
 21
-5.489
  0
LINE
  8
0
 10
311.039
 11
311.475
 20
-5.489
 21
-5.253
  0
LINE
  8
0
 10
311.475
 11
311.944
 20
-5.253
 21
-5.092
  0
LINE
  8
0
 10
311.944
 11
312.432
 20
-5.092
 21
-5.01
  0
LINE
  8
0
 10
312.432
 11
312.928
 20
-5.01
 21
-5.01
  0
LINE
  8
0
 10
312.928
 11
313.416
 20
-5.01
 21
-5.092
  0
LINE
  8
0
 10
313.416
 11
313.885
 20
-5.092
 21
-5.253
  0
LINE
  8
0
 10
313.885
 11
314.321
 20
-5.253
 21
-5.489
  0
LINE
  8
0
 10
314.321
 11
314.712
 20
-5.489
 21
-5.793
  0
LINE
  8
0
 10
314.712
 11
315.047
 20
-5.793
 21
-6.157
  0
LINE
  8
0
 10
315.047
 11
315.318
 20
-6.157
 21
-6.572
  0
LINE
  8
0
 10
315.318
 11
315.517
 20
-6.572
 21
-7.026
  0
LINE
  8
0
 10
315.517
 11
315.639
 20
-7.026
 21
-7.506
  0
LINE
  8
0
 10
315.639
 11
315.68
 20
-7.506
 21
-8
  0
LINE
  8
0
 10
315.68
 11
315.639
 20
-8
 21
-8.494
  0
LINE
  8
0
 10
315.639
 11
315.517
 20
-8.494
 21
-8.974
  0
LINE
  8
0
 10
315.517
 11
315.318
 20
-8.974
 21
-9.428
  0
LINE
  8
0
 10
315.318
 11
315.047
 20
-9.428
 21
-9.843
  0
LINE
  8
0
 10
315.047
 11
314.712
 20
-9.843
 21
-10.207
  0
LINE
  8
0
 10
314.712
 11
314.321
 20
-10.207
 21
-10.511
  0
LINE
  8
0
 10
314.321
 11
313.885
 20
-10.511
 21
-10.747
  0
LINE
  8
0
 10
313.885
 11
313.416
 20
-10.747
 21
-10.908
  0
LINE
  8
0
 10
313.416
 11
312.928
 20
-10.908
 21
-10.99
  0
LINE
  8
0
 10
312.928
 11
312.432
 20
-10.99
 21
-10.99
  0
LINE
  8
0
 10
312.432
 11
311.944
 20
-10.99
 21
-10.908
  0
LINE
  8
0
 10
311.944
 11
311.475
 20
-10.908
 21
-10.747
  0
LINE
  8
0
 10
311.475
 11
311.039
 20
-10.747
 21
-10.511
  0
LINE
  8
0
 10
311.039
 11
310.648
 20
-10.511
 21
-10.207
  0
LINE
  8
0
 10
310.648
 11
310.313
 20
-10.207
 21
-9.843
  0
LINE
  8
0
 10
310.313
 11
310.042
 20
-9.843
 21
-9.428
  0
LINE
  8
0
 10
310.042
 11
309.843
 20
-9.428
 21
-8.974
  0
LINE
  8
0
 10
309.843
 11
309.721
 20
-8.974
 21
-8.494
  0
LINE
  8
0
 10
309.721
 11
309.68
 20
-8.494
 21
-8
  0
LINE
  8
0
 10
322.58
 11
322.638
 20
-7
 21
-6.521
  0
LINE
  8
0
 10
322.638
 11
322.809
 20
-6.521
 21
-6.071
  0
LINE
  8
0
 10
322.809
 11
323.083
 20
-6.071
 21
-5.674
  0
LINE
  8
0
 10
323.083
 11
323.444
 20
-5.674
 21
-5.354
  0
LINE
  8
0
 10
323.444
 11
323.871
 20
-5.354
 21
-5.13
  0
LINE
  8
0
 10
323.871
 11
324.339
 20
-5.13
 21
-5.015
  0
LINE
  8
0
 10
324.339
 11
324.821
 20
-5.015
 21
-5.015
  0
LINE
  8
0
 10
324.821
 11
325.289
 20
-5.015
 21
-5.13
  0
LINE
  8
0
 10
325.289
 11
325.716
 20
-5.13
 21
-5.354
  0
LINE
  8
0
 10
325.716
 11
326.077
 20
-5.354
 21
-5.674
  0
LINE
  8
0
 10
326.077
 11
326.351
 20
-5.674
 21
-6.071
  0
LINE
  8
0
 10
326.351
 11
326.522
 20
-6.071
 21
-6.521
  0
LINE
  8
0
 10
326.522
 11
326.58
 20
-6.521
 21
-7
  0
LINE
  8
0
 10
326.58
 11
326.522
 20
-7
 21
-7.479
  0
LINE
  8
0
 10
326.522
 11
326.351
 20
-7.479
 21
-7.929
  0
LINE
  8
0
 10
326.351
 11
326.077
 20
-7.929
 21
-8.326
  0
LINE
  8
0
 10
326.077
 11
325.716
 20
-8.326
 21
-8.646
  0
LINE
  8
0
 10
325.716
 11
325.289
 20
-8.646
 21
-8.87
  0
LINE
  8
0
 10
325.289
 11
324.821
 20
-8.87
 21
-8.985
  0
LINE
  8
0
 10
324.821
 11
324.339
 20
-8.985
 21
-8.985
  0
LINE
  8
0
 10
324.339
 11
323.871
 20
-8.985
 21
-8.87
  0
LINE
  8
0
 10
323.871
 11
323.444
 20
-8.87
 21
-8.646
  0
LINE
  8
0
 10
323.444
 11
323.083
 20
-8.646
 21
-8.326
  0
LINE
  8
0
 10
323.083
 11
322.809
 20
-8.326
 21
-7.929
  0
LINE
  8
0
 10
322.809
 11
322.638
 20
-7.929
 21
-7.479
  0
LINE
  8
0
 10
322.638
 11
322.58
 20
-7.479
 21
-7
  0
LINE
  8
0
 10
335.48
 11
335.535
 20
-8.2
 21
-7.71
  0
LINE
  8
0
 10
335.535
 11
335.698
 20
-7.71
 21
-7.245
  0
LINE
  8
0
 10
335.698
 11
335.96
 20
-7.245
 21
-6.828
  0
LINE
  8
0
 10
335.96
 11
336.308
 20
-6.828
 21
-6.48
  0
LINE
  8
0
 10
336.308
 11
336.725
 20
-6.48
 21
-6.218
  0
LINE
  8
0
 10
336.725
 11
337.19
 20
-6.218
 21
-6.055
  0
LINE
  8
0
 10
337.19
 11
337.68
 20
-6.055
 21
-6
  0
LINE
  8
0
 10
337.68
 11
338.17
 20
-6
 21
-6.055
  0
LINE
  8
0
 10
338.17
 11
338.635
 20
-6.055
 21
-6.218
  0
LINE
  8
0
 10
338.635
 11
339.052
 20
-6.218
 21
-6.48
  0
LINE
  8
0
 10
339.052
 11
339.4
 20
-6.48
 21
-6.828
  0
LINE
  8
0
 10
339.4
 11
339.662
 20
-6.828
 21
-7.245
  0
LINE
  8
0
 10
339.662
 11
339.825
 20
-7.245
 21
-7.71
  0
LINE
  8
0
 10
339.825
 11
339.88
 20
-7.71
 21
-8.2
  0
LINE
  8
0
 10
339.88
 11
339.825
 20
-8.2
 21
-8.69
  0
LINE
  8
0
 10
339.825
 11
339.662
 20
-8.69
 21
-9.155
  0
LINE
  8
0
 10
339.662
 11
339.4
 20
-9.155
 21
-9.572
  0
LINE
  8
0
 10
339.4
 11
339.052
 20
-9.572
 21
-9.92
  0
LINE
  8
0
 10
339.052
 11
338.635
 20
-9.92
 21
-10.182
  0
LINE
  8
0
 10
338.635
 11
338.17
 20
-10.182
 21
-10.345
  0
LINE
  8
0
 10
338.17
 11
337.68
 20
-10.345
 21
-10.4
  0
LINE
  8
0
 10
337.68
 11
337.19
 20
-10.4
 21
-10.345
  0
LINE
  8
0
 10
337.19
 11
336.725
 20
-10.345
 21
-10.182
  0
LINE
  8
0
 10
336.725
 11
336.308
 20
-10.182
 21
-9.92
  0
LINE
  8
0
 10
336.308
 11
335.96
 20
-9.92
 21
-9.572
  0
LINE
  8
0
 10
335.96
 11
335.698
 20
-9.572
 21
-9.155
  0
LINE
  8
0
 10
335.698
 11
335.535
 20
-9.155
 21
-8.69
  0
LINE
  8
0
 10
335.535
 11
335.48
 20
-8.69
 21
-8.2
  0
LINE
  8
0
 10
356.7
 11
356.755
 20
-8.2
 21
-7.71
  0
LINE
  8
0
 10
356.755
 11
356.918
 20
-7.71
 21
-7.245
  0
LINE
  8
0
 10
356.918
 11
357.18
 20
-7.245
 21
-6.828
  0
LINE
  8
0
 10
357.18
 11
357.528
 20
-6.828
 21
-6.48
  0
LINE
  8
0
 10
357.528
 11
357.945
 20
-6.48
 21
-6.218
  0
LINE
  8
0
 10
357.945
 11
358.41
 20
-6.218
 21
-6.055
  0
LINE
  8
0
 10
358.41
 11
358.9
 20
-6.055
 21
-6
  0
LINE
  8
0
 10
358.9
 11
359.39
 20
-6
 21
-6.055
  0
LINE
  8
0
 10
359.39
 11
359.855
 20
-6.055
 21
-6.218
  0
LINE
  8
0
 10
359.855
 11
360.272
 20
-6.218
 21
-6.48
  0
LINE
  8
0
 10
360.272
 11
360.62
 20
-6.48
 21
-6.828
  0
LINE
  8
0
 10
360.62
 11
360.882
 20
-6.828
 21
-7.245
  0
LINE
  8
0
 10
360.882
 11
361.045
 20
-7.245
 21
-7.71
  0
LINE
  8
0
 10
361.045
 11
361.1
 20
-7.71
 21
-8.2
  0
LINE
  8
0
 10
361.1
 11
361.045
 20
-8.2
 21
-8.69
  0
LINE
  8
0
 10
361.045
 11
360.882
 20
-8.69
 21
-9.155
  0
LINE
  8
0
 10
360.882
 11
360.62
 20
-9.155
 21
-9.572
  0
LINE
  8
0
 10
360.62
 11
360.272
 20
-9.572
 21
-9.92
  0
LINE
  8
0
 10
360.272
 11
359.855
 20
-9.92
 21
-10.182
  0
LINE
  8
0
 10
359.855
 11
359.39
 20
-10.182
 21
-10.345
  0
LINE
  8
0
 10
359.39
 11
358.9
 20
-10.345
 21
-10.4
  0
LINE
  8
0
 10
358.9
 11
358.41
 20
-10.4
 21
-10.345
  0
LINE
  8
0
 10
358.41
 11
357.945
 20
-10.345
 21
-10.182
  0
LINE
  8
0
 10
357.945
 11
357.528
 20
-10.182
 21
-9.92
  0
LINE
  8
0
 10
357.528
 11
357.18
 20
-9.92
 21
-9.572
  0
LINE
  8
0
 10
357.18
 11
356.918
 20
-9.572
 21
-9.155
  0
LINE
  8
0
 10
356.918
 11
356.755
 20
-9.155
 21
-8.69
  0
LINE
  8
0
 10
356.755
 11
356.7
 20
-8.69
 21
-8.2
  0
ENDSEC
  0
SECTION
  2
OBJECTS
  0
DICTIONARY
  0
ENDSEC
  0
EOF
